G04 #@! TF.GenerationSoftware,KiCad,Pcbnew,5.1.4*
G04 #@! TF.CreationDate,2019-09-01T18:38:05+02:00*
G04 #@! TF.ProjectId,blueled,626c7565-6c65-4642-9e6b-696361645f70,rev?*
G04 #@! TF.SameCoordinates,Original*
G04 #@! TF.FileFunction,Legend,Bot*
G04 #@! TF.FilePolarity,Positive*
%FSLAX46Y46*%
G04 Gerber Fmt 4.6, Leading zero omitted, Abs format (unit mm)*
G04 Created by KiCad (PCBNEW 5.1.4) date 2019-09-01 18:38:05*
%MOMM*%
%LPD*%
G04 APERTURE LIST*
%ADD10C,0.150000*%
G04 APERTURE END LIST*
D10*
X155265142Y-122372380D02*
X155265142Y-121372380D01*
X155265142Y-121848571D02*
X154693714Y-121848571D01*
X154693714Y-122372380D02*
X154693714Y-121372380D01*
X153646095Y-122277142D02*
X153693714Y-122324761D01*
X153836571Y-122372380D01*
X153931809Y-122372380D01*
X154074666Y-122324761D01*
X154169904Y-122229523D01*
X154217523Y-122134285D01*
X154265142Y-121943809D01*
X154265142Y-121800952D01*
X154217523Y-121610476D01*
X154169904Y-121515238D01*
X154074666Y-121420000D01*
X153931809Y-121372380D01*
X153836571Y-121372380D01*
X153693714Y-121420000D01*
X153646095Y-121467619D01*
X153217523Y-121991428D02*
X152455619Y-121991428D01*
X151788952Y-121372380D02*
X151693714Y-121372380D01*
X151598476Y-121420000D01*
X151550857Y-121467619D01*
X151503238Y-121562857D01*
X151455619Y-121753333D01*
X151455619Y-121991428D01*
X151503238Y-122181904D01*
X151550857Y-122277142D01*
X151598476Y-122324761D01*
X151693714Y-122372380D01*
X151788952Y-122372380D01*
X151884190Y-122324761D01*
X151931809Y-122277142D01*
X151979428Y-122181904D01*
X152027047Y-121991428D01*
X152027047Y-121753333D01*
X151979428Y-121562857D01*
X151931809Y-121467619D01*
X151884190Y-121420000D01*
X151788952Y-121372380D01*
X150550857Y-121372380D02*
X151027047Y-121372380D01*
X151074666Y-121848571D01*
X151027047Y-121800952D01*
X150931809Y-121753333D01*
X150693714Y-121753333D01*
X150598476Y-121800952D01*
X150550857Y-121848571D01*
X150503238Y-121943809D01*
X150503238Y-122181904D01*
X150550857Y-122277142D01*
X150598476Y-122324761D01*
X150693714Y-122372380D01*
X150931809Y-122372380D01*
X151027047Y-122324761D01*
X151074666Y-122277142D01*
M02*
