G04 #@! TF.GenerationSoftware,KiCad,Pcbnew,5.1.4*
G04 #@! TF.CreationDate,2019-09-01T18:38:05+02:00*
G04 #@! TF.ProjectId,blueled,626c7565-6c65-4642-9e6b-696361645f70,rev?*
G04 #@! TF.SameCoordinates,Original*
G04 #@! TF.FileFunction,Legend,Top*
G04 #@! TF.FilePolarity,Positive*
%FSLAX46Y46*%
G04 Gerber Fmt 4.6, Leading zero omitted, Abs format (unit mm)*
G04 Created by KiCad (PCBNEW 5.1.4) date 2019-09-01 18:38:05*
%MOMM*%
%LPD*%
G04 APERTURE LIST*
%ADD10C,0.150000*%
%ADD11C,0.120000*%
G04 APERTURE END LIST*
D10*
X151201714Y-130358571D02*
X151344571Y-130406190D01*
X151392190Y-130453809D01*
X151439809Y-130549047D01*
X151439809Y-130691904D01*
X151392190Y-130787142D01*
X151344571Y-130834761D01*
X151249333Y-130882380D01*
X150868380Y-130882380D01*
X150868380Y-129882380D01*
X151201714Y-129882380D01*
X151296952Y-129930000D01*
X151344571Y-129977619D01*
X151392190Y-130072857D01*
X151392190Y-130168095D01*
X151344571Y-130263333D01*
X151296952Y-130310952D01*
X151201714Y-130358571D01*
X150868380Y-130358571D01*
X152011238Y-130882380D02*
X151916000Y-130834761D01*
X151868380Y-130739523D01*
X151868380Y-129882380D01*
X152820761Y-130215714D02*
X152820761Y-130882380D01*
X152392190Y-130215714D02*
X152392190Y-130739523D01*
X152439809Y-130834761D01*
X152535047Y-130882380D01*
X152677904Y-130882380D01*
X152773142Y-130834761D01*
X152820761Y-130787142D01*
X153677904Y-130834761D02*
X153582666Y-130882380D01*
X153392190Y-130882380D01*
X153296952Y-130834761D01*
X153249333Y-130739523D01*
X153249333Y-130358571D01*
X153296952Y-130263333D01*
X153392190Y-130215714D01*
X153582666Y-130215714D01*
X153677904Y-130263333D01*
X153725523Y-130358571D01*
X153725523Y-130453809D01*
X153249333Y-130549047D01*
X154296952Y-130882380D02*
X154201714Y-130834761D01*
X154154095Y-130739523D01*
X154154095Y-129882380D01*
X155058857Y-130834761D02*
X154963619Y-130882380D01*
X154773142Y-130882380D01*
X154677904Y-130834761D01*
X154630285Y-130739523D01*
X154630285Y-130358571D01*
X154677904Y-130263333D01*
X154773142Y-130215714D01*
X154963619Y-130215714D01*
X155058857Y-130263333D01*
X155106476Y-130358571D01*
X155106476Y-130453809D01*
X154630285Y-130549047D01*
X155963619Y-130882380D02*
X155963619Y-129882380D01*
X155963619Y-130834761D02*
X155868380Y-130882380D01*
X155677904Y-130882380D01*
X155582666Y-130834761D01*
X155535047Y-130787142D01*
X155487428Y-130691904D01*
X155487428Y-130406190D01*
X155535047Y-130310952D01*
X155582666Y-130263333D01*
X155677904Y-130215714D01*
X155868380Y-130215714D01*
X155963619Y-130263333D01*
X146963619Y-132532380D02*
X146392190Y-132532380D01*
X146677904Y-132532380D02*
X146677904Y-131532380D01*
X146582666Y-131675238D01*
X146487428Y-131770476D01*
X146392190Y-131818095D01*
X147344571Y-131627619D02*
X147392190Y-131580000D01*
X147487428Y-131532380D01*
X147725523Y-131532380D01*
X147820761Y-131580000D01*
X147868380Y-131627619D01*
X147916000Y-131722857D01*
X147916000Y-131818095D01*
X147868380Y-131960952D01*
X147296952Y-132532380D01*
X147916000Y-132532380D01*
X149058857Y-131484761D02*
X148201714Y-132770476D01*
X149582666Y-131532380D02*
X149677904Y-131532380D01*
X149773142Y-131580000D01*
X149820761Y-131627619D01*
X149868380Y-131722857D01*
X149916000Y-131913333D01*
X149916000Y-132151428D01*
X149868380Y-132341904D01*
X149820761Y-132437142D01*
X149773142Y-132484761D01*
X149677904Y-132532380D01*
X149582666Y-132532380D01*
X149487428Y-132484761D01*
X149439809Y-132437142D01*
X149392190Y-132341904D01*
X149344571Y-132151428D01*
X149344571Y-131913333D01*
X149392190Y-131722857D01*
X149439809Y-131627619D01*
X149487428Y-131580000D01*
X149582666Y-131532380D01*
X150820761Y-131532380D02*
X150344571Y-131532380D01*
X150296952Y-132008571D01*
X150344571Y-131960952D01*
X150439809Y-131913333D01*
X150677904Y-131913333D01*
X150773142Y-131960952D01*
X150820761Y-132008571D01*
X150868380Y-132103809D01*
X150868380Y-132341904D01*
X150820761Y-132437142D01*
X150773142Y-132484761D01*
X150677904Y-132532380D01*
X150439809Y-132532380D01*
X150344571Y-132484761D01*
X150296952Y-132437142D01*
X152011238Y-131484761D02*
X151154095Y-132770476D01*
X152296952Y-131627619D02*
X152344571Y-131580000D01*
X152439809Y-131532380D01*
X152677904Y-131532380D01*
X152773142Y-131580000D01*
X152820761Y-131627619D01*
X152868380Y-131722857D01*
X152868380Y-131818095D01*
X152820761Y-131960952D01*
X152249333Y-132532380D01*
X152868380Y-132532380D01*
X153487428Y-131532380D02*
X153582666Y-131532380D01*
X153677904Y-131580000D01*
X153725523Y-131627619D01*
X153773142Y-131722857D01*
X153820761Y-131913333D01*
X153820761Y-132151428D01*
X153773142Y-132341904D01*
X153725523Y-132437142D01*
X153677904Y-132484761D01*
X153582666Y-132532380D01*
X153487428Y-132532380D01*
X153392190Y-132484761D01*
X153344571Y-132437142D01*
X153296952Y-132341904D01*
X153249333Y-132151428D01*
X153249333Y-131913333D01*
X153296952Y-131722857D01*
X153344571Y-131627619D01*
X153392190Y-131580000D01*
X153487428Y-131532380D01*
X154773142Y-132532380D02*
X154201714Y-132532380D01*
X154487428Y-132532380D02*
X154487428Y-131532380D01*
X154392190Y-131675238D01*
X154296952Y-131770476D01*
X154201714Y-131818095D01*
X155249333Y-132532380D02*
X155439809Y-132532380D01*
X155535047Y-132484761D01*
X155582666Y-132437142D01*
X155677904Y-132294285D01*
X155725523Y-132103809D01*
X155725523Y-131722857D01*
X155677904Y-131627619D01*
X155630285Y-131580000D01*
X155535047Y-131532380D01*
X155344571Y-131532380D01*
X155249333Y-131580000D01*
X155201714Y-131627619D01*
X155154095Y-131722857D01*
X155154095Y-131960952D01*
X155201714Y-132056190D01*
X155249333Y-132103809D01*
X155344571Y-132151428D01*
X155535047Y-132151428D01*
X155630285Y-132103809D01*
X155677904Y-132056190D01*
X155725523Y-131960952D01*
X156916000Y-132532380D02*
X156916000Y-131865714D01*
X156916000Y-132056190D02*
X156963619Y-131960952D01*
X157011238Y-131913333D01*
X157106476Y-131865714D01*
X157201714Y-131865714D01*
X157916000Y-132484761D02*
X157820761Y-132532380D01*
X157630285Y-132532380D01*
X157535047Y-132484761D01*
X157487428Y-132389523D01*
X157487428Y-132008571D01*
X157535047Y-131913333D01*
X157630285Y-131865714D01*
X157820761Y-131865714D01*
X157916000Y-131913333D01*
X157963619Y-132008571D01*
X157963619Y-132103809D01*
X157487428Y-132199047D01*
X158296952Y-131865714D02*
X158535047Y-132532380D01*
X158773142Y-131865714D01*
X160439809Y-132532380D02*
X159868380Y-132532380D01*
X160154095Y-132532380D02*
X160154095Y-131532380D01*
X160058857Y-131675238D01*
X159963619Y-131770476D01*
X159868380Y-131818095D01*
X150820761Y-134182380D02*
X150820761Y-133658571D01*
X150773142Y-133563333D01*
X150677904Y-133515714D01*
X150487428Y-133515714D01*
X150392190Y-133563333D01*
X150820761Y-134134761D02*
X150725523Y-134182380D01*
X150487428Y-134182380D01*
X150392190Y-134134761D01*
X150344571Y-134039523D01*
X150344571Y-133944285D01*
X150392190Y-133849047D01*
X150487428Y-133801428D01*
X150725523Y-133801428D01*
X150820761Y-133753809D01*
X151439809Y-134182380D02*
X151344571Y-134134761D01*
X151296952Y-134039523D01*
X151296952Y-133182380D01*
X151820761Y-134182380D02*
X151820761Y-133182380D01*
X151820761Y-133563333D02*
X151916000Y-133515714D01*
X152106476Y-133515714D01*
X152201714Y-133563333D01*
X152249333Y-133610952D01*
X152296952Y-133706190D01*
X152296952Y-133991904D01*
X152249333Y-134087142D01*
X152201714Y-134134761D01*
X152106476Y-134182380D01*
X151916000Y-134182380D01*
X151820761Y-134134761D01*
X153106476Y-134134761D02*
X153011238Y-134182380D01*
X152820761Y-134182380D01*
X152725523Y-134134761D01*
X152677904Y-134039523D01*
X152677904Y-133658571D01*
X152725523Y-133563333D01*
X152820761Y-133515714D01*
X153011238Y-133515714D01*
X153106476Y-133563333D01*
X153154095Y-133658571D01*
X153154095Y-133753809D01*
X152677904Y-133849047D01*
X153582666Y-134182380D02*
X153582666Y-133515714D01*
X153582666Y-133706190D02*
X153630285Y-133610952D01*
X153677904Y-133563333D01*
X153773142Y-133515714D01*
X153868380Y-133515714D01*
X154630285Y-134182380D02*
X154630285Y-133658571D01*
X154582666Y-133563333D01*
X154487428Y-133515714D01*
X154296952Y-133515714D01*
X154201714Y-133563333D01*
X154630285Y-134134761D02*
X154535047Y-134182380D01*
X154296952Y-134182380D01*
X154201714Y-134134761D01*
X154154095Y-134039523D01*
X154154095Y-133944285D01*
X154201714Y-133849047D01*
X154296952Y-133801428D01*
X154535047Y-133801428D01*
X154630285Y-133753809D01*
X155106476Y-133515714D02*
X155106476Y-134182380D01*
X155106476Y-133610952D02*
X155154095Y-133563333D01*
X155249333Y-133515714D01*
X155392190Y-133515714D01*
X155487428Y-133563333D01*
X155535047Y-133658571D01*
X155535047Y-134182380D01*
X156439809Y-134182380D02*
X156439809Y-133182380D01*
X156439809Y-134134761D02*
X156344571Y-134182380D01*
X156154095Y-134182380D01*
X156058857Y-134134761D01*
X156011238Y-134087142D01*
X155963619Y-133991904D01*
X155963619Y-133706190D01*
X156011238Y-133610952D01*
X156058857Y-133563333D01*
X156154095Y-133515714D01*
X156344571Y-133515714D01*
X156439809Y-133563333D01*
X141780000Y-150558000D02*
X145780000Y-150558000D01*
X141780000Y-147558000D02*
X145780000Y-147558000D01*
D11*
X148830000Y-146305500D02*
X148830000Y-144565500D01*
X148830000Y-144565500D02*
X150570000Y-144565500D01*
X155428000Y-125603000D02*
X155428000Y-129053000D01*
X155428000Y-125603000D02*
X155428000Y-123653000D01*
X160548000Y-125603000D02*
X160548000Y-127553000D01*
X160548000Y-125603000D02*
X160548000Y-123653000D01*
D10*
X149809800Y-110832000D02*
X148384800Y-110832000D01*
X157059800Y-110607000D02*
X156734800Y-110607000D01*
X157059800Y-117857000D02*
X156734800Y-117857000D01*
X149809800Y-110607000D02*
X150134800Y-110607000D01*
X157059800Y-117857000D02*
X157059800Y-117532000D01*
X157059800Y-110607000D02*
X157059800Y-110932000D01*
X149809800Y-110607000D02*
X149809800Y-110832000D01*
D11*
X165386000Y-111246000D02*
X161766000Y-111246000D01*
X165386000Y-105126000D02*
X165386000Y-111246000D01*
X161766000Y-105126000D02*
X165386000Y-105126000D01*
X161766000Y-111246000D02*
X161766000Y-105126000D01*
X162119000Y-114875000D02*
X163449000Y-114875000D01*
X162119000Y-116205000D02*
X162119000Y-114875000D01*
X162119000Y-117475000D02*
X164779000Y-117475000D01*
X164779000Y-117475000D02*
X164779000Y-130235000D01*
X162119000Y-117475000D02*
X162119000Y-130235000D01*
X162119000Y-130235000D02*
X164779000Y-130235000D01*
X151708000Y-142118000D02*
X150608000Y-142118000D01*
X151708000Y-142388000D02*
X151708000Y-142118000D01*
X153208000Y-142388000D02*
X151708000Y-142388000D01*
X151708000Y-135758000D02*
X148878000Y-135758000D01*
X151708000Y-135488000D02*
X151708000Y-135758000D01*
X153208000Y-135488000D02*
X151708000Y-135488000D01*
X143618000Y-101600000D02*
G75*
G03X143618000Y-101600000I-1251000J0D01*
G01*
X143618000Y-155765500D02*
G75*
G03X143618000Y-155765500I-1251000J0D01*
G01*
D10*
X145554000Y-117574000D02*
X147054000Y-117574000D01*
X145554000Y-114074000D02*
X147054000Y-114074000D01*
D11*
X146221267Y-121160000D02*
X145878733Y-121160000D01*
X146221267Y-120140000D02*
X145878733Y-120140000D01*
X161673000Y-115677767D02*
X161673000Y-115335233D01*
X160653000Y-115677767D02*
X160653000Y-115335233D01*
X160356733Y-112393000D02*
X160699267Y-112393000D01*
X160356733Y-113413000D02*
X160699267Y-113413000D01*
X146729267Y-112520000D02*
X146386733Y-112520000D01*
X146729267Y-113540000D02*
X146386733Y-113540000D01*
X146729267Y-111000000D02*
X146386733Y-111000000D01*
X146729267Y-109980000D02*
X146386733Y-109980000D01*
X146386733Y-109730000D02*
X146729267Y-109730000D01*
X146386733Y-108710000D02*
X146729267Y-108710000D01*
X156268267Y-121668000D02*
X155925733Y-121668000D01*
X156268267Y-120648000D02*
X155925733Y-120648000D01*
D10*
X150010904Y-108402380D02*
X150010904Y-107402380D01*
X150249000Y-107402380D01*
X150391857Y-107450000D01*
X150487095Y-107545238D01*
X150534714Y-107640476D01*
X150582333Y-107830952D01*
X150582333Y-107973809D01*
X150534714Y-108164285D01*
X150487095Y-108259523D01*
X150391857Y-108354761D01*
X150249000Y-108402380D01*
X150010904Y-108402380D01*
X151534714Y-108402380D02*
X150963285Y-108402380D01*
X151249000Y-108402380D02*
X151249000Y-107402380D01*
X151153761Y-107545238D01*
X151058523Y-107640476D01*
X150963285Y-107688095D01*
X142136904Y-112275880D02*
X142136904Y-111275880D01*
X142375000Y-111275880D01*
X142517857Y-111323500D01*
X142613095Y-111418738D01*
X142660714Y-111513976D01*
X142708333Y-111704452D01*
X142708333Y-111847309D01*
X142660714Y-112037785D01*
X142613095Y-112133023D01*
X142517857Y-112228261D01*
X142375000Y-112275880D01*
X142136904Y-112275880D01*
X143089285Y-111371119D02*
X143136904Y-111323500D01*
X143232142Y-111275880D01*
X143470238Y-111275880D01*
X143565476Y-111323500D01*
X143613095Y-111371119D01*
X143660714Y-111466357D01*
X143660714Y-111561595D01*
X143613095Y-111704452D01*
X143041666Y-112275880D01*
X143660714Y-112275880D01*
X143446666Y-144110380D02*
X143446666Y-143110380D01*
X143827619Y-143110380D01*
X143922857Y-143158000D01*
X143970476Y-143205619D01*
X144018095Y-143300857D01*
X144018095Y-143443714D01*
X143970476Y-143538952D01*
X143922857Y-143586571D01*
X143827619Y-143634190D01*
X143446666Y-143634190D01*
X144351428Y-143110380D02*
X144589523Y-144110380D01*
X144780000Y-143396095D01*
X144970476Y-144110380D01*
X145208571Y-143110380D01*
X146160952Y-144110380D02*
X145827619Y-143634190D01*
X145589523Y-144110380D02*
X145589523Y-143110380D01*
X145970476Y-143110380D01*
X146065714Y-143158000D01*
X146113333Y-143205619D01*
X146160952Y-143300857D01*
X146160952Y-143443714D01*
X146113333Y-143538952D01*
X146065714Y-143586571D01*
X145970476Y-143634190D01*
X145589523Y-143634190D01*
X156654666Y-98766380D02*
X156988000Y-99766380D01*
X157321333Y-98766380D01*
X158226095Y-99671142D02*
X158178476Y-99718761D01*
X158035619Y-99766380D01*
X157940380Y-99766380D01*
X157797523Y-99718761D01*
X157702285Y-99623523D01*
X157654666Y-99528285D01*
X157607047Y-99337809D01*
X157607047Y-99194952D01*
X157654666Y-99004476D01*
X157702285Y-98909238D01*
X157797523Y-98814000D01*
X157940380Y-98766380D01*
X158035619Y-98766380D01*
X158178476Y-98814000D01*
X158226095Y-98861619D01*
X159226095Y-99671142D02*
X159178476Y-99718761D01*
X159035619Y-99766380D01*
X158940380Y-99766380D01*
X158797523Y-99718761D01*
X158702285Y-99623523D01*
X158654666Y-99528285D01*
X158607047Y-99337809D01*
X158607047Y-99194952D01*
X158654666Y-99004476D01*
X158702285Y-98909238D01*
X158797523Y-98814000D01*
X158940380Y-98766380D01*
X159035619Y-98766380D01*
X159178476Y-98814000D01*
X159226095Y-98861619D01*
X151408000Y-99766380D02*
X151408000Y-98766380D01*
X151646095Y-98766380D01*
X151788952Y-98814000D01*
X151884190Y-98909238D01*
X151931809Y-99004476D01*
X151979428Y-99194952D01*
X151979428Y-99337809D01*
X151931809Y-99528285D01*
X151884190Y-99623523D01*
X151788952Y-99718761D01*
X151646095Y-99766380D01*
X151408000Y-99766380D01*
X152360380Y-99480666D02*
X152836571Y-99480666D01*
X152265142Y-99766380D02*
X152598476Y-98766380D01*
X152931809Y-99766380D01*
X153122285Y-98766380D02*
X153693714Y-98766380D01*
X153408000Y-99766380D02*
X153408000Y-98766380D01*
X153979428Y-99480666D02*
X154455619Y-99480666D01*
X153884190Y-99766380D02*
X154217523Y-98766380D01*
X154550857Y-99766380D01*
X147066095Y-98814000D02*
X146970857Y-98766380D01*
X146828000Y-98766380D01*
X146685142Y-98814000D01*
X146589904Y-98909238D01*
X146542285Y-99004476D01*
X146494666Y-99194952D01*
X146494666Y-99337809D01*
X146542285Y-99528285D01*
X146589904Y-99623523D01*
X146685142Y-99718761D01*
X146828000Y-99766380D01*
X146923238Y-99766380D01*
X147066095Y-99718761D01*
X147113714Y-99671142D01*
X147113714Y-99337809D01*
X146923238Y-99337809D01*
X147542285Y-99766380D02*
X147542285Y-98766380D01*
X148113714Y-99766380D01*
X148113714Y-98766380D01*
X148589904Y-99766380D02*
X148589904Y-98766380D01*
X148828000Y-98766380D01*
X148970857Y-98814000D01*
X149066095Y-98909238D01*
X149113714Y-99004476D01*
X149161333Y-99194952D01*
X149161333Y-99337809D01*
X149113714Y-99528285D01*
X149066095Y-99623523D01*
X148970857Y-99718761D01*
X148828000Y-99766380D01*
X148589904Y-99766380D01*
X145363095Y-119270380D02*
X145363095Y-118270380D01*
X145601190Y-118270380D01*
X145744047Y-118318000D01*
X145839285Y-118413238D01*
X145886904Y-118508476D01*
X145934523Y-118698952D01*
X145934523Y-118841809D01*
X145886904Y-119032285D01*
X145839285Y-119127523D01*
X145744047Y-119222761D01*
X145601190Y-119270380D01*
X145363095Y-119270380D01*
X146696428Y-118746571D02*
X146839285Y-118794190D01*
X146886904Y-118841809D01*
X146934523Y-118937047D01*
X146934523Y-119079904D01*
X146886904Y-119175142D01*
X146839285Y-119222761D01*
X146744047Y-119270380D01*
X146363095Y-119270380D01*
X146363095Y-118270380D01*
X146696428Y-118270380D01*
X146791666Y-118318000D01*
X146839285Y-118365619D01*
X146886904Y-118460857D01*
X146886904Y-118556095D01*
X146839285Y-118651333D01*
X146791666Y-118698952D01*
X146696428Y-118746571D01*
X146363095Y-118746571D01*
X147886904Y-118318000D02*
X147791666Y-118270380D01*
X147648809Y-118270380D01*
X147505952Y-118318000D01*
X147410714Y-118413238D01*
X147363095Y-118508476D01*
X147315476Y-118698952D01*
X147315476Y-118841809D01*
X147363095Y-119032285D01*
X147410714Y-119127523D01*
X147505952Y-119222761D01*
X147648809Y-119270380D01*
X147744047Y-119270380D01*
X147886904Y-119222761D01*
X147934523Y-119175142D01*
X147934523Y-118841809D01*
X147744047Y-118841809D01*
X164028380Y-101233619D02*
X163552190Y-101566952D01*
X164028380Y-101805047D02*
X163028380Y-101805047D01*
X163028380Y-101424095D01*
X163076000Y-101328857D01*
X163123619Y-101281238D01*
X163218857Y-101233619D01*
X163361714Y-101233619D01*
X163456952Y-101281238D01*
X163504571Y-101328857D01*
X163552190Y-101424095D01*
X163552190Y-101805047D01*
X163980761Y-100852666D02*
X164028380Y-100709809D01*
X164028380Y-100471714D01*
X163980761Y-100376476D01*
X163933142Y-100328857D01*
X163837904Y-100281238D01*
X163742666Y-100281238D01*
X163647428Y-100328857D01*
X163599809Y-100376476D01*
X163552190Y-100471714D01*
X163504571Y-100662190D01*
X163456952Y-100757428D01*
X163409333Y-100805047D01*
X163314095Y-100852666D01*
X163218857Y-100852666D01*
X163123619Y-100805047D01*
X163076000Y-100757428D01*
X163028380Y-100662190D01*
X163028380Y-100424095D01*
X163076000Y-100281238D01*
X163028380Y-99995523D02*
X163028380Y-99424095D01*
X164028380Y-99709809D02*
X163028380Y-99709809D01*
X145883333Y-122437142D02*
X145835714Y-122484761D01*
X145692857Y-122532380D01*
X145597619Y-122532380D01*
X145454761Y-122484761D01*
X145359523Y-122389523D01*
X145311904Y-122294285D01*
X145264285Y-122103809D01*
X145264285Y-121960952D01*
X145311904Y-121770476D01*
X145359523Y-121675238D01*
X145454761Y-121580000D01*
X145597619Y-121532380D01*
X145692857Y-121532380D01*
X145835714Y-121580000D01*
X145883333Y-121627619D01*
X146835714Y-122532380D02*
X146264285Y-122532380D01*
X146550000Y-122532380D02*
X146550000Y-121532380D01*
X146454761Y-121675238D01*
X146359523Y-121770476D01*
X146264285Y-121818095D01*
M02*
