M48
; DRILL file {KiCad 5.1.4} date Sun 01 Sep 2019 06:38:12 PM CEST
; FORMAT={-:-/ absolute / inch / decimal}
; #@! TF.CreationDate,2019-09-01T18:38:12+02:00
; #@! TF.GenerationSoftware,Kicad,Pcbnew,5.1.4
; #@! TF.FileFunction,Plated,1,2,PTH
FMAT,2
INCH
T1C0.0157
T2C0.0300
T3C0.0394
T4C0.0598
T5C0.0787
%
G90
G05
T1
X5.68Y-4.415
X5.685Y-4.66
X5.695Y-4.485
X5.7Y-5.71
X5.9Y-4.33
X5.9Y-5.6
X5.93Y-4.1966
X5.93Y-4.42
X5.94Y-4.545
X5.95Y-4.85
X5.973Y-4.385
X5.995Y-4.505
X6.015Y-4.385
X6.035Y-4.1975
X6.0375Y-4.6075
X6.06Y-4.445
X6.1107Y-4.5876
X6.14Y-4.735
X6.1554Y-4.5284
X6.16Y-4.575
X6.19Y-4.33
X6.195Y-4.665
X6.195Y-4.975
X6.2274Y-4.33
X6.33Y-4.1975
X6.34Y-4.33
X6.34Y-4.6275
X6.3844Y-4.7335
T2
X5.6213Y-5.77
X5.6213Y-5.9669
X5.7Y-5.77
X5.7Y-5.9669
X5.7787Y-5.77
X5.7787Y-5.9669
T3
X6.435Y-4.575
X6.435Y-4.675
X6.435Y-4.775
X6.435Y-4.875
X6.435Y-4.975
X6.435Y-5.075
X5.605Y-4.0
X5.605Y-6.1325
X5.875Y-4.67
T4
X5.82Y-4.1
X6.02Y-4.1
X6.22Y-4.1
T5
X6.05Y-5.7325
X6.05Y-5.9687
X6.235Y-5.8506
T0
M30
