G04 #@! TF.GenerationSoftware,KiCad,Pcbnew,5.1.4*
G04 #@! TF.CreationDate,2019-09-01T18:38:05+02:00*
G04 #@! TF.ProjectId,blueled,626c7565-6c65-4642-9e6b-696361645f70,rev?*
G04 #@! TF.SameCoordinates,Original*
G04 #@! TF.FileFunction,Copper,L1,Top*
G04 #@! TF.FilePolarity,Positive*
%FSLAX46Y46*%
G04 Gerber Fmt 4.6, Leading zero omitted, Abs format (unit mm)*
G04 Created by KiCad (PCBNEW 5.1.4) date 2019-09-01 18:38:05*
%MOMM*%
%LPD*%
G04 APERTURE LIST*
%ADD10C,0.100000*%
%ADD11C,0.950000*%
%ADD12R,3.500000X2.100000*%
%ADD13R,1.100000X2.100000*%
%ADD14C,1.524000*%
%ADD15R,3.600000X3.600000*%
%ADD16C,3.600000*%
%ADD17C,3.000000*%
%ADD18R,3.000000X3.000000*%
%ADD19C,0.600000*%
%ADD20C,1.700000*%
%ADD21R,0.550000X1.600000*%
%ADD22R,1.600000X0.550000*%
%ADD23R,1.600000X2.180000*%
%ADD24O,1.700000X1.700000*%
%ADD25R,1.700000X1.700000*%
%ADD26R,6.400000X5.800000*%
%ADD27R,2.200000X1.200000*%
%ADD28C,2.000000*%
%ADD29R,1.900000X0.400000*%
%ADD30C,0.800000*%
%ADD31C,0.250000*%
%ADD32C,0.350000*%
%ADD33C,2.500000*%
%ADD34C,0.200000*%
G04 APERTURE END LIST*
D10*
G36*
X148999779Y-107476144D02*
G01*
X149022834Y-107479563D01*
X149045443Y-107485227D01*
X149067387Y-107493079D01*
X149088457Y-107503044D01*
X149108448Y-107515026D01*
X149127168Y-107528910D01*
X149144438Y-107544562D01*
X149160090Y-107561832D01*
X149173974Y-107580552D01*
X149185956Y-107600543D01*
X149195921Y-107621613D01*
X149203773Y-107643557D01*
X149209437Y-107666166D01*
X149212856Y-107689221D01*
X149214000Y-107712500D01*
X149214000Y-108187500D01*
X149212856Y-108210779D01*
X149209437Y-108233834D01*
X149203773Y-108256443D01*
X149195921Y-108278387D01*
X149185956Y-108299457D01*
X149173974Y-108319448D01*
X149160090Y-108338168D01*
X149144438Y-108355438D01*
X149127168Y-108371090D01*
X149108448Y-108384974D01*
X149088457Y-108396956D01*
X149067387Y-108406921D01*
X149045443Y-108414773D01*
X149022834Y-108420437D01*
X148999779Y-108423856D01*
X148976500Y-108425000D01*
X148401500Y-108425000D01*
X148378221Y-108423856D01*
X148355166Y-108420437D01*
X148332557Y-108414773D01*
X148310613Y-108406921D01*
X148289543Y-108396956D01*
X148269552Y-108384974D01*
X148250832Y-108371090D01*
X148233562Y-108355438D01*
X148217910Y-108338168D01*
X148204026Y-108319448D01*
X148192044Y-108299457D01*
X148182079Y-108278387D01*
X148174227Y-108256443D01*
X148168563Y-108233834D01*
X148165144Y-108210779D01*
X148164000Y-108187500D01*
X148164000Y-107712500D01*
X148165144Y-107689221D01*
X148168563Y-107666166D01*
X148174227Y-107643557D01*
X148182079Y-107621613D01*
X148192044Y-107600543D01*
X148204026Y-107580552D01*
X148217910Y-107561832D01*
X148233562Y-107544562D01*
X148250832Y-107528910D01*
X148269552Y-107515026D01*
X148289543Y-107503044D01*
X148310613Y-107493079D01*
X148332557Y-107485227D01*
X148355166Y-107479563D01*
X148378221Y-107476144D01*
X148401500Y-107475000D01*
X148976500Y-107475000D01*
X148999779Y-107476144D01*
X148999779Y-107476144D01*
G37*
D11*
X148689000Y-107950000D03*
D10*
G36*
X147249779Y-107476144D02*
G01*
X147272834Y-107479563D01*
X147295443Y-107485227D01*
X147317387Y-107493079D01*
X147338457Y-107503044D01*
X147358448Y-107515026D01*
X147377168Y-107528910D01*
X147394438Y-107544562D01*
X147410090Y-107561832D01*
X147423974Y-107580552D01*
X147435956Y-107600543D01*
X147445921Y-107621613D01*
X147453773Y-107643557D01*
X147459437Y-107666166D01*
X147462856Y-107689221D01*
X147464000Y-107712500D01*
X147464000Y-108187500D01*
X147462856Y-108210779D01*
X147459437Y-108233834D01*
X147453773Y-108256443D01*
X147445921Y-108278387D01*
X147435956Y-108299457D01*
X147423974Y-108319448D01*
X147410090Y-108338168D01*
X147394438Y-108355438D01*
X147377168Y-108371090D01*
X147358448Y-108384974D01*
X147338457Y-108396956D01*
X147317387Y-108406921D01*
X147295443Y-108414773D01*
X147272834Y-108420437D01*
X147249779Y-108423856D01*
X147226500Y-108425000D01*
X146651500Y-108425000D01*
X146628221Y-108423856D01*
X146605166Y-108420437D01*
X146582557Y-108414773D01*
X146560613Y-108406921D01*
X146539543Y-108396956D01*
X146519552Y-108384974D01*
X146500832Y-108371090D01*
X146483562Y-108355438D01*
X146467910Y-108338168D01*
X146454026Y-108319448D01*
X146442044Y-108299457D01*
X146432079Y-108278387D01*
X146424227Y-108256443D01*
X146418563Y-108233834D01*
X146415144Y-108210779D01*
X146414000Y-108187500D01*
X146414000Y-107712500D01*
X146415144Y-107689221D01*
X146418563Y-107666166D01*
X146424227Y-107643557D01*
X146432079Y-107621613D01*
X146442044Y-107600543D01*
X146454026Y-107580552D01*
X146467910Y-107561832D01*
X146483562Y-107544562D01*
X146500832Y-107528910D01*
X146519552Y-107515026D01*
X146539543Y-107503044D01*
X146560613Y-107493079D01*
X146582557Y-107485227D01*
X146605166Y-107479563D01*
X146628221Y-107476144D01*
X146651500Y-107475000D01*
X147226500Y-107475000D01*
X147249779Y-107476144D01*
X147249779Y-107476144D01*
G37*
D11*
X146939000Y-107950000D03*
D10*
G36*
X147743779Y-111286144D02*
G01*
X147766834Y-111289563D01*
X147789443Y-111295227D01*
X147811387Y-111303079D01*
X147832457Y-111313044D01*
X147852448Y-111325026D01*
X147871168Y-111338910D01*
X147888438Y-111354562D01*
X147904090Y-111371832D01*
X147917974Y-111390552D01*
X147929956Y-111410543D01*
X147939921Y-111431613D01*
X147947773Y-111453557D01*
X147953437Y-111476166D01*
X147956856Y-111499221D01*
X147958000Y-111522500D01*
X147958000Y-111997500D01*
X147956856Y-112020779D01*
X147953437Y-112043834D01*
X147947773Y-112066443D01*
X147939921Y-112088387D01*
X147929956Y-112109457D01*
X147917974Y-112129448D01*
X147904090Y-112148168D01*
X147888438Y-112165438D01*
X147871168Y-112181090D01*
X147852448Y-112194974D01*
X147832457Y-112206956D01*
X147811387Y-112216921D01*
X147789443Y-112224773D01*
X147766834Y-112230437D01*
X147743779Y-112233856D01*
X147720500Y-112235000D01*
X147145500Y-112235000D01*
X147122221Y-112233856D01*
X147099166Y-112230437D01*
X147076557Y-112224773D01*
X147054613Y-112216921D01*
X147033543Y-112206956D01*
X147013552Y-112194974D01*
X146994832Y-112181090D01*
X146977562Y-112165438D01*
X146961910Y-112148168D01*
X146948026Y-112129448D01*
X146936044Y-112109457D01*
X146926079Y-112088387D01*
X146918227Y-112066443D01*
X146912563Y-112043834D01*
X146909144Y-112020779D01*
X146908000Y-111997500D01*
X146908000Y-111522500D01*
X146909144Y-111499221D01*
X146912563Y-111476166D01*
X146918227Y-111453557D01*
X146926079Y-111431613D01*
X146936044Y-111410543D01*
X146948026Y-111390552D01*
X146961910Y-111371832D01*
X146977562Y-111354562D01*
X146994832Y-111338910D01*
X147013552Y-111325026D01*
X147033543Y-111313044D01*
X147054613Y-111303079D01*
X147076557Y-111295227D01*
X147099166Y-111289563D01*
X147122221Y-111286144D01*
X147145500Y-111285000D01*
X147720500Y-111285000D01*
X147743779Y-111286144D01*
X147743779Y-111286144D01*
G37*
D11*
X147433000Y-111760000D03*
D10*
G36*
X145993779Y-111286144D02*
G01*
X146016834Y-111289563D01*
X146039443Y-111295227D01*
X146061387Y-111303079D01*
X146082457Y-111313044D01*
X146102448Y-111325026D01*
X146121168Y-111338910D01*
X146138438Y-111354562D01*
X146154090Y-111371832D01*
X146167974Y-111390552D01*
X146179956Y-111410543D01*
X146189921Y-111431613D01*
X146197773Y-111453557D01*
X146203437Y-111476166D01*
X146206856Y-111499221D01*
X146208000Y-111522500D01*
X146208000Y-111997500D01*
X146206856Y-112020779D01*
X146203437Y-112043834D01*
X146197773Y-112066443D01*
X146189921Y-112088387D01*
X146179956Y-112109457D01*
X146167974Y-112129448D01*
X146154090Y-112148168D01*
X146138438Y-112165438D01*
X146121168Y-112181090D01*
X146102448Y-112194974D01*
X146082457Y-112206956D01*
X146061387Y-112216921D01*
X146039443Y-112224773D01*
X146016834Y-112230437D01*
X145993779Y-112233856D01*
X145970500Y-112235000D01*
X145395500Y-112235000D01*
X145372221Y-112233856D01*
X145349166Y-112230437D01*
X145326557Y-112224773D01*
X145304613Y-112216921D01*
X145283543Y-112206956D01*
X145263552Y-112194974D01*
X145244832Y-112181090D01*
X145227562Y-112165438D01*
X145211910Y-112148168D01*
X145198026Y-112129448D01*
X145186044Y-112109457D01*
X145176079Y-112088387D01*
X145168227Y-112066443D01*
X145162563Y-112043834D01*
X145159144Y-112020779D01*
X145158000Y-111997500D01*
X145158000Y-111522500D01*
X145159144Y-111499221D01*
X145162563Y-111476166D01*
X145168227Y-111453557D01*
X145176079Y-111431613D01*
X145186044Y-111410543D01*
X145198026Y-111390552D01*
X145211910Y-111371832D01*
X145227562Y-111354562D01*
X145244832Y-111338910D01*
X145263552Y-111325026D01*
X145283543Y-111313044D01*
X145304613Y-111303079D01*
X145326557Y-111295227D01*
X145349166Y-111289563D01*
X145372221Y-111286144D01*
X145395500Y-111285000D01*
X145970500Y-111285000D01*
X145993779Y-111286144D01*
X145993779Y-111286144D01*
G37*
D11*
X145683000Y-111760000D03*
D12*
X151066500Y-127612000D03*
D13*
X148766500Y-121412000D03*
X151066500Y-121412000D03*
X153366500Y-121412000D03*
D14*
X146780000Y-146558000D03*
X144780000Y-146558000D03*
X142780000Y-146558000D03*
D10*
G36*
X143542000Y-147320000D02*
G01*
X142018000Y-147320000D01*
X142018000Y-145796000D01*
X143542000Y-145796000D01*
X143542000Y-147320000D01*
X143542000Y-147320000D01*
G37*
D14*
X146780000Y-151558000D03*
X144780000Y-151558000D03*
X142780000Y-151558000D03*
D15*
X153670000Y-145605500D03*
D16*
X153670000Y-151605500D03*
X158370000Y-148605500D03*
D17*
X157988000Y-104140000D03*
X152908000Y-104140000D03*
D18*
X147828000Y-104140000D03*
D10*
G36*
X156247703Y-122153722D02*
G01*
X156262264Y-122155882D01*
X156276543Y-122159459D01*
X156290403Y-122164418D01*
X156303710Y-122170712D01*
X156316336Y-122178280D01*
X156328159Y-122187048D01*
X156339066Y-122196934D01*
X156348952Y-122207841D01*
X156357720Y-122219664D01*
X156365288Y-122232290D01*
X156371582Y-122245597D01*
X156376541Y-122259457D01*
X156380118Y-122273736D01*
X156382278Y-122288297D01*
X156383000Y-122303000D01*
X156383000Y-123953000D01*
X156382278Y-123967703D01*
X156380118Y-123982264D01*
X156376541Y-123996543D01*
X156371582Y-124010403D01*
X156365288Y-124023710D01*
X156357720Y-124036336D01*
X156348952Y-124048159D01*
X156339066Y-124059066D01*
X156328159Y-124068952D01*
X156316336Y-124077720D01*
X156303710Y-124085288D01*
X156290403Y-124091582D01*
X156276543Y-124096541D01*
X156262264Y-124100118D01*
X156247703Y-124102278D01*
X156233000Y-124103000D01*
X155933000Y-124103000D01*
X155918297Y-124102278D01*
X155903736Y-124100118D01*
X155889457Y-124096541D01*
X155875597Y-124091582D01*
X155862290Y-124085288D01*
X155849664Y-124077720D01*
X155837841Y-124068952D01*
X155826934Y-124059066D01*
X155817048Y-124048159D01*
X155808280Y-124036336D01*
X155800712Y-124023710D01*
X155794418Y-124010403D01*
X155789459Y-123996543D01*
X155785882Y-123982264D01*
X155783722Y-123967703D01*
X155783000Y-123953000D01*
X155783000Y-122303000D01*
X155783722Y-122288297D01*
X155785882Y-122273736D01*
X155789459Y-122259457D01*
X155794418Y-122245597D01*
X155800712Y-122232290D01*
X155808280Y-122219664D01*
X155817048Y-122207841D01*
X155826934Y-122196934D01*
X155837841Y-122187048D01*
X155849664Y-122178280D01*
X155862290Y-122170712D01*
X155875597Y-122164418D01*
X155889457Y-122159459D01*
X155903736Y-122155882D01*
X155918297Y-122153722D01*
X155933000Y-122153000D01*
X156233000Y-122153000D01*
X156247703Y-122153722D01*
X156247703Y-122153722D01*
G37*
D19*
X156083000Y-123128000D03*
D10*
G36*
X157517703Y-122153722D02*
G01*
X157532264Y-122155882D01*
X157546543Y-122159459D01*
X157560403Y-122164418D01*
X157573710Y-122170712D01*
X157586336Y-122178280D01*
X157598159Y-122187048D01*
X157609066Y-122196934D01*
X157618952Y-122207841D01*
X157627720Y-122219664D01*
X157635288Y-122232290D01*
X157641582Y-122245597D01*
X157646541Y-122259457D01*
X157650118Y-122273736D01*
X157652278Y-122288297D01*
X157653000Y-122303000D01*
X157653000Y-123953000D01*
X157652278Y-123967703D01*
X157650118Y-123982264D01*
X157646541Y-123996543D01*
X157641582Y-124010403D01*
X157635288Y-124023710D01*
X157627720Y-124036336D01*
X157618952Y-124048159D01*
X157609066Y-124059066D01*
X157598159Y-124068952D01*
X157586336Y-124077720D01*
X157573710Y-124085288D01*
X157560403Y-124091582D01*
X157546543Y-124096541D01*
X157532264Y-124100118D01*
X157517703Y-124102278D01*
X157503000Y-124103000D01*
X157203000Y-124103000D01*
X157188297Y-124102278D01*
X157173736Y-124100118D01*
X157159457Y-124096541D01*
X157145597Y-124091582D01*
X157132290Y-124085288D01*
X157119664Y-124077720D01*
X157107841Y-124068952D01*
X157096934Y-124059066D01*
X157087048Y-124048159D01*
X157078280Y-124036336D01*
X157070712Y-124023710D01*
X157064418Y-124010403D01*
X157059459Y-123996543D01*
X157055882Y-123982264D01*
X157053722Y-123967703D01*
X157053000Y-123953000D01*
X157053000Y-122303000D01*
X157053722Y-122288297D01*
X157055882Y-122273736D01*
X157059459Y-122259457D01*
X157064418Y-122245597D01*
X157070712Y-122232290D01*
X157078280Y-122219664D01*
X157087048Y-122207841D01*
X157096934Y-122196934D01*
X157107841Y-122187048D01*
X157119664Y-122178280D01*
X157132290Y-122170712D01*
X157145597Y-122164418D01*
X157159457Y-122159459D01*
X157173736Y-122155882D01*
X157188297Y-122153722D01*
X157203000Y-122153000D01*
X157503000Y-122153000D01*
X157517703Y-122153722D01*
X157517703Y-122153722D01*
G37*
D19*
X157353000Y-123128000D03*
D10*
G36*
X158787703Y-122153722D02*
G01*
X158802264Y-122155882D01*
X158816543Y-122159459D01*
X158830403Y-122164418D01*
X158843710Y-122170712D01*
X158856336Y-122178280D01*
X158868159Y-122187048D01*
X158879066Y-122196934D01*
X158888952Y-122207841D01*
X158897720Y-122219664D01*
X158905288Y-122232290D01*
X158911582Y-122245597D01*
X158916541Y-122259457D01*
X158920118Y-122273736D01*
X158922278Y-122288297D01*
X158923000Y-122303000D01*
X158923000Y-123953000D01*
X158922278Y-123967703D01*
X158920118Y-123982264D01*
X158916541Y-123996543D01*
X158911582Y-124010403D01*
X158905288Y-124023710D01*
X158897720Y-124036336D01*
X158888952Y-124048159D01*
X158879066Y-124059066D01*
X158868159Y-124068952D01*
X158856336Y-124077720D01*
X158843710Y-124085288D01*
X158830403Y-124091582D01*
X158816543Y-124096541D01*
X158802264Y-124100118D01*
X158787703Y-124102278D01*
X158773000Y-124103000D01*
X158473000Y-124103000D01*
X158458297Y-124102278D01*
X158443736Y-124100118D01*
X158429457Y-124096541D01*
X158415597Y-124091582D01*
X158402290Y-124085288D01*
X158389664Y-124077720D01*
X158377841Y-124068952D01*
X158366934Y-124059066D01*
X158357048Y-124048159D01*
X158348280Y-124036336D01*
X158340712Y-124023710D01*
X158334418Y-124010403D01*
X158329459Y-123996543D01*
X158325882Y-123982264D01*
X158323722Y-123967703D01*
X158323000Y-123953000D01*
X158323000Y-122303000D01*
X158323722Y-122288297D01*
X158325882Y-122273736D01*
X158329459Y-122259457D01*
X158334418Y-122245597D01*
X158340712Y-122232290D01*
X158348280Y-122219664D01*
X158357048Y-122207841D01*
X158366934Y-122196934D01*
X158377841Y-122187048D01*
X158389664Y-122178280D01*
X158402290Y-122170712D01*
X158415597Y-122164418D01*
X158429457Y-122159459D01*
X158443736Y-122155882D01*
X158458297Y-122153722D01*
X158473000Y-122153000D01*
X158773000Y-122153000D01*
X158787703Y-122153722D01*
X158787703Y-122153722D01*
G37*
D19*
X158623000Y-123128000D03*
D10*
G36*
X160057703Y-122153722D02*
G01*
X160072264Y-122155882D01*
X160086543Y-122159459D01*
X160100403Y-122164418D01*
X160113710Y-122170712D01*
X160126336Y-122178280D01*
X160138159Y-122187048D01*
X160149066Y-122196934D01*
X160158952Y-122207841D01*
X160167720Y-122219664D01*
X160175288Y-122232290D01*
X160181582Y-122245597D01*
X160186541Y-122259457D01*
X160190118Y-122273736D01*
X160192278Y-122288297D01*
X160193000Y-122303000D01*
X160193000Y-123953000D01*
X160192278Y-123967703D01*
X160190118Y-123982264D01*
X160186541Y-123996543D01*
X160181582Y-124010403D01*
X160175288Y-124023710D01*
X160167720Y-124036336D01*
X160158952Y-124048159D01*
X160149066Y-124059066D01*
X160138159Y-124068952D01*
X160126336Y-124077720D01*
X160113710Y-124085288D01*
X160100403Y-124091582D01*
X160086543Y-124096541D01*
X160072264Y-124100118D01*
X160057703Y-124102278D01*
X160043000Y-124103000D01*
X159743000Y-124103000D01*
X159728297Y-124102278D01*
X159713736Y-124100118D01*
X159699457Y-124096541D01*
X159685597Y-124091582D01*
X159672290Y-124085288D01*
X159659664Y-124077720D01*
X159647841Y-124068952D01*
X159636934Y-124059066D01*
X159627048Y-124048159D01*
X159618280Y-124036336D01*
X159610712Y-124023710D01*
X159604418Y-124010403D01*
X159599459Y-123996543D01*
X159595882Y-123982264D01*
X159593722Y-123967703D01*
X159593000Y-123953000D01*
X159593000Y-122303000D01*
X159593722Y-122288297D01*
X159595882Y-122273736D01*
X159599459Y-122259457D01*
X159604418Y-122245597D01*
X159610712Y-122232290D01*
X159618280Y-122219664D01*
X159627048Y-122207841D01*
X159636934Y-122196934D01*
X159647841Y-122187048D01*
X159659664Y-122178280D01*
X159672290Y-122170712D01*
X159685597Y-122164418D01*
X159699457Y-122159459D01*
X159713736Y-122155882D01*
X159728297Y-122153722D01*
X159743000Y-122153000D01*
X160043000Y-122153000D01*
X160057703Y-122153722D01*
X160057703Y-122153722D01*
G37*
D19*
X159893000Y-123128000D03*
D10*
G36*
X160057703Y-127103722D02*
G01*
X160072264Y-127105882D01*
X160086543Y-127109459D01*
X160100403Y-127114418D01*
X160113710Y-127120712D01*
X160126336Y-127128280D01*
X160138159Y-127137048D01*
X160149066Y-127146934D01*
X160158952Y-127157841D01*
X160167720Y-127169664D01*
X160175288Y-127182290D01*
X160181582Y-127195597D01*
X160186541Y-127209457D01*
X160190118Y-127223736D01*
X160192278Y-127238297D01*
X160193000Y-127253000D01*
X160193000Y-128903000D01*
X160192278Y-128917703D01*
X160190118Y-128932264D01*
X160186541Y-128946543D01*
X160181582Y-128960403D01*
X160175288Y-128973710D01*
X160167720Y-128986336D01*
X160158952Y-128998159D01*
X160149066Y-129009066D01*
X160138159Y-129018952D01*
X160126336Y-129027720D01*
X160113710Y-129035288D01*
X160100403Y-129041582D01*
X160086543Y-129046541D01*
X160072264Y-129050118D01*
X160057703Y-129052278D01*
X160043000Y-129053000D01*
X159743000Y-129053000D01*
X159728297Y-129052278D01*
X159713736Y-129050118D01*
X159699457Y-129046541D01*
X159685597Y-129041582D01*
X159672290Y-129035288D01*
X159659664Y-129027720D01*
X159647841Y-129018952D01*
X159636934Y-129009066D01*
X159627048Y-128998159D01*
X159618280Y-128986336D01*
X159610712Y-128973710D01*
X159604418Y-128960403D01*
X159599459Y-128946543D01*
X159595882Y-128932264D01*
X159593722Y-128917703D01*
X159593000Y-128903000D01*
X159593000Y-127253000D01*
X159593722Y-127238297D01*
X159595882Y-127223736D01*
X159599459Y-127209457D01*
X159604418Y-127195597D01*
X159610712Y-127182290D01*
X159618280Y-127169664D01*
X159627048Y-127157841D01*
X159636934Y-127146934D01*
X159647841Y-127137048D01*
X159659664Y-127128280D01*
X159672290Y-127120712D01*
X159685597Y-127114418D01*
X159699457Y-127109459D01*
X159713736Y-127105882D01*
X159728297Y-127103722D01*
X159743000Y-127103000D01*
X160043000Y-127103000D01*
X160057703Y-127103722D01*
X160057703Y-127103722D01*
G37*
D19*
X159893000Y-128078000D03*
D10*
G36*
X158787703Y-127103722D02*
G01*
X158802264Y-127105882D01*
X158816543Y-127109459D01*
X158830403Y-127114418D01*
X158843710Y-127120712D01*
X158856336Y-127128280D01*
X158868159Y-127137048D01*
X158879066Y-127146934D01*
X158888952Y-127157841D01*
X158897720Y-127169664D01*
X158905288Y-127182290D01*
X158911582Y-127195597D01*
X158916541Y-127209457D01*
X158920118Y-127223736D01*
X158922278Y-127238297D01*
X158923000Y-127253000D01*
X158923000Y-128903000D01*
X158922278Y-128917703D01*
X158920118Y-128932264D01*
X158916541Y-128946543D01*
X158911582Y-128960403D01*
X158905288Y-128973710D01*
X158897720Y-128986336D01*
X158888952Y-128998159D01*
X158879066Y-129009066D01*
X158868159Y-129018952D01*
X158856336Y-129027720D01*
X158843710Y-129035288D01*
X158830403Y-129041582D01*
X158816543Y-129046541D01*
X158802264Y-129050118D01*
X158787703Y-129052278D01*
X158773000Y-129053000D01*
X158473000Y-129053000D01*
X158458297Y-129052278D01*
X158443736Y-129050118D01*
X158429457Y-129046541D01*
X158415597Y-129041582D01*
X158402290Y-129035288D01*
X158389664Y-129027720D01*
X158377841Y-129018952D01*
X158366934Y-129009066D01*
X158357048Y-128998159D01*
X158348280Y-128986336D01*
X158340712Y-128973710D01*
X158334418Y-128960403D01*
X158329459Y-128946543D01*
X158325882Y-128932264D01*
X158323722Y-128917703D01*
X158323000Y-128903000D01*
X158323000Y-127253000D01*
X158323722Y-127238297D01*
X158325882Y-127223736D01*
X158329459Y-127209457D01*
X158334418Y-127195597D01*
X158340712Y-127182290D01*
X158348280Y-127169664D01*
X158357048Y-127157841D01*
X158366934Y-127146934D01*
X158377841Y-127137048D01*
X158389664Y-127128280D01*
X158402290Y-127120712D01*
X158415597Y-127114418D01*
X158429457Y-127109459D01*
X158443736Y-127105882D01*
X158458297Y-127103722D01*
X158473000Y-127103000D01*
X158773000Y-127103000D01*
X158787703Y-127103722D01*
X158787703Y-127103722D01*
G37*
D19*
X158623000Y-128078000D03*
D10*
G36*
X157517703Y-127103722D02*
G01*
X157532264Y-127105882D01*
X157546543Y-127109459D01*
X157560403Y-127114418D01*
X157573710Y-127120712D01*
X157586336Y-127128280D01*
X157598159Y-127137048D01*
X157609066Y-127146934D01*
X157618952Y-127157841D01*
X157627720Y-127169664D01*
X157635288Y-127182290D01*
X157641582Y-127195597D01*
X157646541Y-127209457D01*
X157650118Y-127223736D01*
X157652278Y-127238297D01*
X157653000Y-127253000D01*
X157653000Y-128903000D01*
X157652278Y-128917703D01*
X157650118Y-128932264D01*
X157646541Y-128946543D01*
X157641582Y-128960403D01*
X157635288Y-128973710D01*
X157627720Y-128986336D01*
X157618952Y-128998159D01*
X157609066Y-129009066D01*
X157598159Y-129018952D01*
X157586336Y-129027720D01*
X157573710Y-129035288D01*
X157560403Y-129041582D01*
X157546543Y-129046541D01*
X157532264Y-129050118D01*
X157517703Y-129052278D01*
X157503000Y-129053000D01*
X157203000Y-129053000D01*
X157188297Y-129052278D01*
X157173736Y-129050118D01*
X157159457Y-129046541D01*
X157145597Y-129041582D01*
X157132290Y-129035288D01*
X157119664Y-129027720D01*
X157107841Y-129018952D01*
X157096934Y-129009066D01*
X157087048Y-128998159D01*
X157078280Y-128986336D01*
X157070712Y-128973710D01*
X157064418Y-128960403D01*
X157059459Y-128946543D01*
X157055882Y-128932264D01*
X157053722Y-128917703D01*
X157053000Y-128903000D01*
X157053000Y-127253000D01*
X157053722Y-127238297D01*
X157055882Y-127223736D01*
X157059459Y-127209457D01*
X157064418Y-127195597D01*
X157070712Y-127182290D01*
X157078280Y-127169664D01*
X157087048Y-127157841D01*
X157096934Y-127146934D01*
X157107841Y-127137048D01*
X157119664Y-127128280D01*
X157132290Y-127120712D01*
X157145597Y-127114418D01*
X157159457Y-127109459D01*
X157173736Y-127105882D01*
X157188297Y-127103722D01*
X157203000Y-127103000D01*
X157503000Y-127103000D01*
X157517703Y-127103722D01*
X157517703Y-127103722D01*
G37*
D19*
X157353000Y-128078000D03*
D10*
G36*
X156247703Y-127103722D02*
G01*
X156262264Y-127105882D01*
X156276543Y-127109459D01*
X156290403Y-127114418D01*
X156303710Y-127120712D01*
X156316336Y-127128280D01*
X156328159Y-127137048D01*
X156339066Y-127146934D01*
X156348952Y-127157841D01*
X156357720Y-127169664D01*
X156365288Y-127182290D01*
X156371582Y-127195597D01*
X156376541Y-127209457D01*
X156380118Y-127223736D01*
X156382278Y-127238297D01*
X156383000Y-127253000D01*
X156383000Y-128903000D01*
X156382278Y-128917703D01*
X156380118Y-128932264D01*
X156376541Y-128946543D01*
X156371582Y-128960403D01*
X156365288Y-128973710D01*
X156357720Y-128986336D01*
X156348952Y-128998159D01*
X156339066Y-129009066D01*
X156328159Y-129018952D01*
X156316336Y-129027720D01*
X156303710Y-129035288D01*
X156290403Y-129041582D01*
X156276543Y-129046541D01*
X156262264Y-129050118D01*
X156247703Y-129052278D01*
X156233000Y-129053000D01*
X155933000Y-129053000D01*
X155918297Y-129052278D01*
X155903736Y-129050118D01*
X155889457Y-129046541D01*
X155875597Y-129041582D01*
X155862290Y-129035288D01*
X155849664Y-129027720D01*
X155837841Y-129018952D01*
X155826934Y-129009066D01*
X155817048Y-128998159D01*
X155808280Y-128986336D01*
X155800712Y-128973710D01*
X155794418Y-128960403D01*
X155789459Y-128946543D01*
X155785882Y-128932264D01*
X155783722Y-128917703D01*
X155783000Y-128903000D01*
X155783000Y-127253000D01*
X155783722Y-127238297D01*
X155785882Y-127223736D01*
X155789459Y-127209457D01*
X155794418Y-127195597D01*
X155800712Y-127182290D01*
X155808280Y-127169664D01*
X155817048Y-127157841D01*
X155826934Y-127146934D01*
X155837841Y-127137048D01*
X155849664Y-127128280D01*
X155862290Y-127120712D01*
X155875597Y-127114418D01*
X155889457Y-127109459D01*
X155903736Y-127105882D01*
X155918297Y-127103722D01*
X155933000Y-127103000D01*
X156233000Y-127103000D01*
X156247703Y-127103722D01*
X156247703Y-127103722D01*
G37*
D19*
X156083000Y-128078000D03*
D20*
X149225000Y-118618000D03*
D21*
X150634800Y-109982000D03*
X151434800Y-109982000D03*
X152234800Y-109982000D03*
X153034800Y-109982000D03*
X153834800Y-109982000D03*
X154634800Y-109982000D03*
X155434800Y-109982000D03*
X156234800Y-109982000D03*
D22*
X157684800Y-111432000D03*
X157684800Y-112232000D03*
X157684800Y-113032000D03*
X157684800Y-113832000D03*
X157684800Y-114632000D03*
X157684800Y-115432000D03*
X157684800Y-116232000D03*
X157684800Y-117032000D03*
D21*
X156234800Y-118482000D03*
X155434800Y-118482000D03*
X154634800Y-118482000D03*
X153834800Y-118482000D03*
X153034800Y-118482000D03*
X152234800Y-118482000D03*
X151434800Y-118482000D03*
X150634800Y-118482000D03*
D22*
X149184800Y-117032000D03*
X149184800Y-116232000D03*
X149184800Y-115432000D03*
X149184800Y-114632000D03*
X149184800Y-113832000D03*
X149184800Y-113032000D03*
X149184800Y-112232000D03*
X149184800Y-111432000D03*
D23*
X163576000Y-103596000D03*
X163576000Y-112776000D03*
D24*
X163449000Y-128905000D03*
X163449000Y-126365000D03*
X163449000Y-123825000D03*
X163449000Y-121285000D03*
X163449000Y-118745000D03*
D25*
X163449000Y-116205000D03*
D26*
X156278000Y-138938000D03*
D27*
X149978000Y-141218000D03*
X149978000Y-138938000D03*
X149978000Y-136658000D03*
D28*
X142367000Y-101600000D03*
X142367000Y-155765500D03*
D29*
X146304000Y-115824000D03*
X146304000Y-114624000D03*
X146304000Y-117024000D03*
D10*
G36*
X147235779Y-120176144D02*
G01*
X147258834Y-120179563D01*
X147281443Y-120185227D01*
X147303387Y-120193079D01*
X147324457Y-120203044D01*
X147344448Y-120215026D01*
X147363168Y-120228910D01*
X147380438Y-120244562D01*
X147396090Y-120261832D01*
X147409974Y-120280552D01*
X147421956Y-120300543D01*
X147431921Y-120321613D01*
X147439773Y-120343557D01*
X147445437Y-120366166D01*
X147448856Y-120389221D01*
X147450000Y-120412500D01*
X147450000Y-120887500D01*
X147448856Y-120910779D01*
X147445437Y-120933834D01*
X147439773Y-120956443D01*
X147431921Y-120978387D01*
X147421956Y-120999457D01*
X147409974Y-121019448D01*
X147396090Y-121038168D01*
X147380438Y-121055438D01*
X147363168Y-121071090D01*
X147344448Y-121084974D01*
X147324457Y-121096956D01*
X147303387Y-121106921D01*
X147281443Y-121114773D01*
X147258834Y-121120437D01*
X147235779Y-121123856D01*
X147212500Y-121125000D01*
X146637500Y-121125000D01*
X146614221Y-121123856D01*
X146591166Y-121120437D01*
X146568557Y-121114773D01*
X146546613Y-121106921D01*
X146525543Y-121096956D01*
X146505552Y-121084974D01*
X146486832Y-121071090D01*
X146469562Y-121055438D01*
X146453910Y-121038168D01*
X146440026Y-121019448D01*
X146428044Y-120999457D01*
X146418079Y-120978387D01*
X146410227Y-120956443D01*
X146404563Y-120933834D01*
X146401144Y-120910779D01*
X146400000Y-120887500D01*
X146400000Y-120412500D01*
X146401144Y-120389221D01*
X146404563Y-120366166D01*
X146410227Y-120343557D01*
X146418079Y-120321613D01*
X146428044Y-120300543D01*
X146440026Y-120280552D01*
X146453910Y-120261832D01*
X146469562Y-120244562D01*
X146486832Y-120228910D01*
X146505552Y-120215026D01*
X146525543Y-120203044D01*
X146546613Y-120193079D01*
X146568557Y-120185227D01*
X146591166Y-120179563D01*
X146614221Y-120176144D01*
X146637500Y-120175000D01*
X147212500Y-120175000D01*
X147235779Y-120176144D01*
X147235779Y-120176144D01*
G37*
D11*
X146925000Y-120650000D03*
D10*
G36*
X145485779Y-120176144D02*
G01*
X145508834Y-120179563D01*
X145531443Y-120185227D01*
X145553387Y-120193079D01*
X145574457Y-120203044D01*
X145594448Y-120215026D01*
X145613168Y-120228910D01*
X145630438Y-120244562D01*
X145646090Y-120261832D01*
X145659974Y-120280552D01*
X145671956Y-120300543D01*
X145681921Y-120321613D01*
X145689773Y-120343557D01*
X145695437Y-120366166D01*
X145698856Y-120389221D01*
X145700000Y-120412500D01*
X145700000Y-120887500D01*
X145698856Y-120910779D01*
X145695437Y-120933834D01*
X145689773Y-120956443D01*
X145681921Y-120978387D01*
X145671956Y-120999457D01*
X145659974Y-121019448D01*
X145646090Y-121038168D01*
X145630438Y-121055438D01*
X145613168Y-121071090D01*
X145594448Y-121084974D01*
X145574457Y-121096956D01*
X145553387Y-121106921D01*
X145531443Y-121114773D01*
X145508834Y-121120437D01*
X145485779Y-121123856D01*
X145462500Y-121125000D01*
X144887500Y-121125000D01*
X144864221Y-121123856D01*
X144841166Y-121120437D01*
X144818557Y-121114773D01*
X144796613Y-121106921D01*
X144775543Y-121096956D01*
X144755552Y-121084974D01*
X144736832Y-121071090D01*
X144719562Y-121055438D01*
X144703910Y-121038168D01*
X144690026Y-121019448D01*
X144678044Y-120999457D01*
X144668079Y-120978387D01*
X144660227Y-120956443D01*
X144654563Y-120933834D01*
X144651144Y-120910779D01*
X144650000Y-120887500D01*
X144650000Y-120412500D01*
X144651144Y-120389221D01*
X144654563Y-120366166D01*
X144660227Y-120343557D01*
X144668079Y-120321613D01*
X144678044Y-120300543D01*
X144690026Y-120280552D01*
X144703910Y-120261832D01*
X144719562Y-120244562D01*
X144736832Y-120228910D01*
X144755552Y-120215026D01*
X144775543Y-120203044D01*
X144796613Y-120193079D01*
X144818557Y-120185227D01*
X144841166Y-120179563D01*
X144864221Y-120176144D01*
X144887500Y-120175000D01*
X145462500Y-120175000D01*
X145485779Y-120176144D01*
X145485779Y-120176144D01*
G37*
D11*
X145175000Y-120650000D03*
D10*
G36*
X161423779Y-114107644D02*
G01*
X161446834Y-114111063D01*
X161469443Y-114116727D01*
X161491387Y-114124579D01*
X161512457Y-114134544D01*
X161532448Y-114146526D01*
X161551168Y-114160410D01*
X161568438Y-114176062D01*
X161584090Y-114193332D01*
X161597974Y-114212052D01*
X161609956Y-114232043D01*
X161619921Y-114253113D01*
X161627773Y-114275057D01*
X161633437Y-114297666D01*
X161636856Y-114320721D01*
X161638000Y-114344000D01*
X161638000Y-114919000D01*
X161636856Y-114942279D01*
X161633437Y-114965334D01*
X161627773Y-114987943D01*
X161619921Y-115009887D01*
X161609956Y-115030957D01*
X161597974Y-115050948D01*
X161584090Y-115069668D01*
X161568438Y-115086938D01*
X161551168Y-115102590D01*
X161532448Y-115116474D01*
X161512457Y-115128456D01*
X161491387Y-115138421D01*
X161469443Y-115146273D01*
X161446834Y-115151937D01*
X161423779Y-115155356D01*
X161400500Y-115156500D01*
X160925500Y-115156500D01*
X160902221Y-115155356D01*
X160879166Y-115151937D01*
X160856557Y-115146273D01*
X160834613Y-115138421D01*
X160813543Y-115128456D01*
X160793552Y-115116474D01*
X160774832Y-115102590D01*
X160757562Y-115086938D01*
X160741910Y-115069668D01*
X160728026Y-115050948D01*
X160716044Y-115030957D01*
X160706079Y-115009887D01*
X160698227Y-114987943D01*
X160692563Y-114965334D01*
X160689144Y-114942279D01*
X160688000Y-114919000D01*
X160688000Y-114344000D01*
X160689144Y-114320721D01*
X160692563Y-114297666D01*
X160698227Y-114275057D01*
X160706079Y-114253113D01*
X160716044Y-114232043D01*
X160728026Y-114212052D01*
X160741910Y-114193332D01*
X160757562Y-114176062D01*
X160774832Y-114160410D01*
X160793552Y-114146526D01*
X160813543Y-114134544D01*
X160834613Y-114124579D01*
X160856557Y-114116727D01*
X160879166Y-114111063D01*
X160902221Y-114107644D01*
X160925500Y-114106500D01*
X161400500Y-114106500D01*
X161423779Y-114107644D01*
X161423779Y-114107644D01*
G37*
D11*
X161163000Y-114631500D03*
D10*
G36*
X161423779Y-115857644D02*
G01*
X161446834Y-115861063D01*
X161469443Y-115866727D01*
X161491387Y-115874579D01*
X161512457Y-115884544D01*
X161532448Y-115896526D01*
X161551168Y-115910410D01*
X161568438Y-115926062D01*
X161584090Y-115943332D01*
X161597974Y-115962052D01*
X161609956Y-115982043D01*
X161619921Y-116003113D01*
X161627773Y-116025057D01*
X161633437Y-116047666D01*
X161636856Y-116070721D01*
X161638000Y-116094000D01*
X161638000Y-116669000D01*
X161636856Y-116692279D01*
X161633437Y-116715334D01*
X161627773Y-116737943D01*
X161619921Y-116759887D01*
X161609956Y-116780957D01*
X161597974Y-116800948D01*
X161584090Y-116819668D01*
X161568438Y-116836938D01*
X161551168Y-116852590D01*
X161532448Y-116866474D01*
X161512457Y-116878456D01*
X161491387Y-116888421D01*
X161469443Y-116896273D01*
X161446834Y-116901937D01*
X161423779Y-116905356D01*
X161400500Y-116906500D01*
X160925500Y-116906500D01*
X160902221Y-116905356D01*
X160879166Y-116901937D01*
X160856557Y-116896273D01*
X160834613Y-116888421D01*
X160813543Y-116878456D01*
X160793552Y-116866474D01*
X160774832Y-116852590D01*
X160757562Y-116836938D01*
X160741910Y-116819668D01*
X160728026Y-116800948D01*
X160716044Y-116780957D01*
X160706079Y-116759887D01*
X160698227Y-116737943D01*
X160692563Y-116715334D01*
X160689144Y-116692279D01*
X160688000Y-116669000D01*
X160688000Y-116094000D01*
X160689144Y-116070721D01*
X160692563Y-116047666D01*
X160698227Y-116025057D01*
X160706079Y-116003113D01*
X160716044Y-115982043D01*
X160728026Y-115962052D01*
X160741910Y-115943332D01*
X160757562Y-115926062D01*
X160774832Y-115910410D01*
X160793552Y-115896526D01*
X160813543Y-115884544D01*
X160834613Y-115874579D01*
X160856557Y-115866727D01*
X160879166Y-115861063D01*
X160902221Y-115857644D01*
X160925500Y-115856500D01*
X161400500Y-115856500D01*
X161423779Y-115857644D01*
X161423779Y-115857644D01*
G37*
D11*
X161163000Y-116381500D03*
D10*
G36*
X159963779Y-112429144D02*
G01*
X159986834Y-112432563D01*
X160009443Y-112438227D01*
X160031387Y-112446079D01*
X160052457Y-112456044D01*
X160072448Y-112468026D01*
X160091168Y-112481910D01*
X160108438Y-112497562D01*
X160124090Y-112514832D01*
X160137974Y-112533552D01*
X160149956Y-112553543D01*
X160159921Y-112574613D01*
X160167773Y-112596557D01*
X160173437Y-112619166D01*
X160176856Y-112642221D01*
X160178000Y-112665500D01*
X160178000Y-113140500D01*
X160176856Y-113163779D01*
X160173437Y-113186834D01*
X160167773Y-113209443D01*
X160159921Y-113231387D01*
X160149956Y-113252457D01*
X160137974Y-113272448D01*
X160124090Y-113291168D01*
X160108438Y-113308438D01*
X160091168Y-113324090D01*
X160072448Y-113337974D01*
X160052457Y-113349956D01*
X160031387Y-113359921D01*
X160009443Y-113367773D01*
X159986834Y-113373437D01*
X159963779Y-113376856D01*
X159940500Y-113378000D01*
X159365500Y-113378000D01*
X159342221Y-113376856D01*
X159319166Y-113373437D01*
X159296557Y-113367773D01*
X159274613Y-113359921D01*
X159253543Y-113349956D01*
X159233552Y-113337974D01*
X159214832Y-113324090D01*
X159197562Y-113308438D01*
X159181910Y-113291168D01*
X159168026Y-113272448D01*
X159156044Y-113252457D01*
X159146079Y-113231387D01*
X159138227Y-113209443D01*
X159132563Y-113186834D01*
X159129144Y-113163779D01*
X159128000Y-113140500D01*
X159128000Y-112665500D01*
X159129144Y-112642221D01*
X159132563Y-112619166D01*
X159138227Y-112596557D01*
X159146079Y-112574613D01*
X159156044Y-112553543D01*
X159168026Y-112533552D01*
X159181910Y-112514832D01*
X159197562Y-112497562D01*
X159214832Y-112481910D01*
X159233552Y-112468026D01*
X159253543Y-112456044D01*
X159274613Y-112446079D01*
X159296557Y-112438227D01*
X159319166Y-112432563D01*
X159342221Y-112429144D01*
X159365500Y-112428000D01*
X159940500Y-112428000D01*
X159963779Y-112429144D01*
X159963779Y-112429144D01*
G37*
D11*
X159653000Y-112903000D03*
D10*
G36*
X161713779Y-112429144D02*
G01*
X161736834Y-112432563D01*
X161759443Y-112438227D01*
X161781387Y-112446079D01*
X161802457Y-112456044D01*
X161822448Y-112468026D01*
X161841168Y-112481910D01*
X161858438Y-112497562D01*
X161874090Y-112514832D01*
X161887974Y-112533552D01*
X161899956Y-112553543D01*
X161909921Y-112574613D01*
X161917773Y-112596557D01*
X161923437Y-112619166D01*
X161926856Y-112642221D01*
X161928000Y-112665500D01*
X161928000Y-113140500D01*
X161926856Y-113163779D01*
X161923437Y-113186834D01*
X161917773Y-113209443D01*
X161909921Y-113231387D01*
X161899956Y-113252457D01*
X161887974Y-113272448D01*
X161874090Y-113291168D01*
X161858438Y-113308438D01*
X161841168Y-113324090D01*
X161822448Y-113337974D01*
X161802457Y-113349956D01*
X161781387Y-113359921D01*
X161759443Y-113367773D01*
X161736834Y-113373437D01*
X161713779Y-113376856D01*
X161690500Y-113378000D01*
X161115500Y-113378000D01*
X161092221Y-113376856D01*
X161069166Y-113373437D01*
X161046557Y-113367773D01*
X161024613Y-113359921D01*
X161003543Y-113349956D01*
X160983552Y-113337974D01*
X160964832Y-113324090D01*
X160947562Y-113308438D01*
X160931910Y-113291168D01*
X160918026Y-113272448D01*
X160906044Y-113252457D01*
X160896079Y-113231387D01*
X160888227Y-113209443D01*
X160882563Y-113186834D01*
X160879144Y-113163779D01*
X160878000Y-113140500D01*
X160878000Y-112665500D01*
X160879144Y-112642221D01*
X160882563Y-112619166D01*
X160888227Y-112596557D01*
X160896079Y-112574613D01*
X160906044Y-112553543D01*
X160918026Y-112533552D01*
X160931910Y-112514832D01*
X160947562Y-112497562D01*
X160964832Y-112481910D01*
X160983552Y-112468026D01*
X161003543Y-112456044D01*
X161024613Y-112446079D01*
X161046557Y-112438227D01*
X161069166Y-112432563D01*
X161092221Y-112429144D01*
X161115500Y-112428000D01*
X161690500Y-112428000D01*
X161713779Y-112429144D01*
X161713779Y-112429144D01*
G37*
D11*
X161403000Y-112903000D03*
D10*
G36*
X145993779Y-112556144D02*
G01*
X146016834Y-112559563D01*
X146039443Y-112565227D01*
X146061387Y-112573079D01*
X146082457Y-112583044D01*
X146102448Y-112595026D01*
X146121168Y-112608910D01*
X146138438Y-112624562D01*
X146154090Y-112641832D01*
X146167974Y-112660552D01*
X146179956Y-112680543D01*
X146189921Y-112701613D01*
X146197773Y-112723557D01*
X146203437Y-112746166D01*
X146206856Y-112769221D01*
X146208000Y-112792500D01*
X146208000Y-113267500D01*
X146206856Y-113290779D01*
X146203437Y-113313834D01*
X146197773Y-113336443D01*
X146189921Y-113358387D01*
X146179956Y-113379457D01*
X146167974Y-113399448D01*
X146154090Y-113418168D01*
X146138438Y-113435438D01*
X146121168Y-113451090D01*
X146102448Y-113464974D01*
X146082457Y-113476956D01*
X146061387Y-113486921D01*
X146039443Y-113494773D01*
X146016834Y-113500437D01*
X145993779Y-113503856D01*
X145970500Y-113505000D01*
X145395500Y-113505000D01*
X145372221Y-113503856D01*
X145349166Y-113500437D01*
X145326557Y-113494773D01*
X145304613Y-113486921D01*
X145283543Y-113476956D01*
X145263552Y-113464974D01*
X145244832Y-113451090D01*
X145227562Y-113435438D01*
X145211910Y-113418168D01*
X145198026Y-113399448D01*
X145186044Y-113379457D01*
X145176079Y-113358387D01*
X145168227Y-113336443D01*
X145162563Y-113313834D01*
X145159144Y-113290779D01*
X145158000Y-113267500D01*
X145158000Y-112792500D01*
X145159144Y-112769221D01*
X145162563Y-112746166D01*
X145168227Y-112723557D01*
X145176079Y-112701613D01*
X145186044Y-112680543D01*
X145198026Y-112660552D01*
X145211910Y-112641832D01*
X145227562Y-112624562D01*
X145244832Y-112608910D01*
X145263552Y-112595026D01*
X145283543Y-112583044D01*
X145304613Y-112573079D01*
X145326557Y-112565227D01*
X145349166Y-112559563D01*
X145372221Y-112556144D01*
X145395500Y-112555000D01*
X145970500Y-112555000D01*
X145993779Y-112556144D01*
X145993779Y-112556144D01*
G37*
D11*
X145683000Y-113030000D03*
D10*
G36*
X147743779Y-112556144D02*
G01*
X147766834Y-112559563D01*
X147789443Y-112565227D01*
X147811387Y-112573079D01*
X147832457Y-112583044D01*
X147852448Y-112595026D01*
X147871168Y-112608910D01*
X147888438Y-112624562D01*
X147904090Y-112641832D01*
X147917974Y-112660552D01*
X147929956Y-112680543D01*
X147939921Y-112701613D01*
X147947773Y-112723557D01*
X147953437Y-112746166D01*
X147956856Y-112769221D01*
X147958000Y-112792500D01*
X147958000Y-113267500D01*
X147956856Y-113290779D01*
X147953437Y-113313834D01*
X147947773Y-113336443D01*
X147939921Y-113358387D01*
X147929956Y-113379457D01*
X147917974Y-113399448D01*
X147904090Y-113418168D01*
X147888438Y-113435438D01*
X147871168Y-113451090D01*
X147852448Y-113464974D01*
X147832457Y-113476956D01*
X147811387Y-113486921D01*
X147789443Y-113494773D01*
X147766834Y-113500437D01*
X147743779Y-113503856D01*
X147720500Y-113505000D01*
X147145500Y-113505000D01*
X147122221Y-113503856D01*
X147099166Y-113500437D01*
X147076557Y-113494773D01*
X147054613Y-113486921D01*
X147033543Y-113476956D01*
X147013552Y-113464974D01*
X146994832Y-113451090D01*
X146977562Y-113435438D01*
X146961910Y-113418168D01*
X146948026Y-113399448D01*
X146936044Y-113379457D01*
X146926079Y-113358387D01*
X146918227Y-113336443D01*
X146912563Y-113313834D01*
X146909144Y-113290779D01*
X146908000Y-113267500D01*
X146908000Y-112792500D01*
X146909144Y-112769221D01*
X146912563Y-112746166D01*
X146918227Y-112723557D01*
X146926079Y-112701613D01*
X146936044Y-112680543D01*
X146948026Y-112660552D01*
X146961910Y-112641832D01*
X146977562Y-112624562D01*
X146994832Y-112608910D01*
X147013552Y-112595026D01*
X147033543Y-112583044D01*
X147054613Y-112573079D01*
X147076557Y-112565227D01*
X147099166Y-112559563D01*
X147122221Y-112556144D01*
X147145500Y-112555000D01*
X147720500Y-112555000D01*
X147743779Y-112556144D01*
X147743779Y-112556144D01*
G37*
D11*
X147433000Y-113030000D03*
D10*
G36*
X147743779Y-110016144D02*
G01*
X147766834Y-110019563D01*
X147789443Y-110025227D01*
X147811387Y-110033079D01*
X147832457Y-110043044D01*
X147852448Y-110055026D01*
X147871168Y-110068910D01*
X147888438Y-110084562D01*
X147904090Y-110101832D01*
X147917974Y-110120552D01*
X147929956Y-110140543D01*
X147939921Y-110161613D01*
X147947773Y-110183557D01*
X147953437Y-110206166D01*
X147956856Y-110229221D01*
X147958000Y-110252500D01*
X147958000Y-110727500D01*
X147956856Y-110750779D01*
X147953437Y-110773834D01*
X147947773Y-110796443D01*
X147939921Y-110818387D01*
X147929956Y-110839457D01*
X147917974Y-110859448D01*
X147904090Y-110878168D01*
X147888438Y-110895438D01*
X147871168Y-110911090D01*
X147852448Y-110924974D01*
X147832457Y-110936956D01*
X147811387Y-110946921D01*
X147789443Y-110954773D01*
X147766834Y-110960437D01*
X147743779Y-110963856D01*
X147720500Y-110965000D01*
X147145500Y-110965000D01*
X147122221Y-110963856D01*
X147099166Y-110960437D01*
X147076557Y-110954773D01*
X147054613Y-110946921D01*
X147033543Y-110936956D01*
X147013552Y-110924974D01*
X146994832Y-110911090D01*
X146977562Y-110895438D01*
X146961910Y-110878168D01*
X146948026Y-110859448D01*
X146936044Y-110839457D01*
X146926079Y-110818387D01*
X146918227Y-110796443D01*
X146912563Y-110773834D01*
X146909144Y-110750779D01*
X146908000Y-110727500D01*
X146908000Y-110252500D01*
X146909144Y-110229221D01*
X146912563Y-110206166D01*
X146918227Y-110183557D01*
X146926079Y-110161613D01*
X146936044Y-110140543D01*
X146948026Y-110120552D01*
X146961910Y-110101832D01*
X146977562Y-110084562D01*
X146994832Y-110068910D01*
X147013552Y-110055026D01*
X147033543Y-110043044D01*
X147054613Y-110033079D01*
X147076557Y-110025227D01*
X147099166Y-110019563D01*
X147122221Y-110016144D01*
X147145500Y-110015000D01*
X147720500Y-110015000D01*
X147743779Y-110016144D01*
X147743779Y-110016144D01*
G37*
D11*
X147433000Y-110490000D03*
D10*
G36*
X145993779Y-110016144D02*
G01*
X146016834Y-110019563D01*
X146039443Y-110025227D01*
X146061387Y-110033079D01*
X146082457Y-110043044D01*
X146102448Y-110055026D01*
X146121168Y-110068910D01*
X146138438Y-110084562D01*
X146154090Y-110101832D01*
X146167974Y-110120552D01*
X146179956Y-110140543D01*
X146189921Y-110161613D01*
X146197773Y-110183557D01*
X146203437Y-110206166D01*
X146206856Y-110229221D01*
X146208000Y-110252500D01*
X146208000Y-110727500D01*
X146206856Y-110750779D01*
X146203437Y-110773834D01*
X146197773Y-110796443D01*
X146189921Y-110818387D01*
X146179956Y-110839457D01*
X146167974Y-110859448D01*
X146154090Y-110878168D01*
X146138438Y-110895438D01*
X146121168Y-110911090D01*
X146102448Y-110924974D01*
X146082457Y-110936956D01*
X146061387Y-110946921D01*
X146039443Y-110954773D01*
X146016834Y-110960437D01*
X145993779Y-110963856D01*
X145970500Y-110965000D01*
X145395500Y-110965000D01*
X145372221Y-110963856D01*
X145349166Y-110960437D01*
X145326557Y-110954773D01*
X145304613Y-110946921D01*
X145283543Y-110936956D01*
X145263552Y-110924974D01*
X145244832Y-110911090D01*
X145227562Y-110895438D01*
X145211910Y-110878168D01*
X145198026Y-110859448D01*
X145186044Y-110839457D01*
X145176079Y-110818387D01*
X145168227Y-110796443D01*
X145162563Y-110773834D01*
X145159144Y-110750779D01*
X145158000Y-110727500D01*
X145158000Y-110252500D01*
X145159144Y-110229221D01*
X145162563Y-110206166D01*
X145168227Y-110183557D01*
X145176079Y-110161613D01*
X145186044Y-110140543D01*
X145198026Y-110120552D01*
X145211910Y-110101832D01*
X145227562Y-110084562D01*
X145244832Y-110068910D01*
X145263552Y-110055026D01*
X145283543Y-110043044D01*
X145304613Y-110033079D01*
X145326557Y-110025227D01*
X145349166Y-110019563D01*
X145372221Y-110016144D01*
X145395500Y-110015000D01*
X145970500Y-110015000D01*
X145993779Y-110016144D01*
X145993779Y-110016144D01*
G37*
D11*
X145683000Y-110490000D03*
D10*
G36*
X147743779Y-108746144D02*
G01*
X147766834Y-108749563D01*
X147789443Y-108755227D01*
X147811387Y-108763079D01*
X147832457Y-108773044D01*
X147852448Y-108785026D01*
X147871168Y-108798910D01*
X147888438Y-108814562D01*
X147904090Y-108831832D01*
X147917974Y-108850552D01*
X147929956Y-108870543D01*
X147939921Y-108891613D01*
X147947773Y-108913557D01*
X147953437Y-108936166D01*
X147956856Y-108959221D01*
X147958000Y-108982500D01*
X147958000Y-109457500D01*
X147956856Y-109480779D01*
X147953437Y-109503834D01*
X147947773Y-109526443D01*
X147939921Y-109548387D01*
X147929956Y-109569457D01*
X147917974Y-109589448D01*
X147904090Y-109608168D01*
X147888438Y-109625438D01*
X147871168Y-109641090D01*
X147852448Y-109654974D01*
X147832457Y-109666956D01*
X147811387Y-109676921D01*
X147789443Y-109684773D01*
X147766834Y-109690437D01*
X147743779Y-109693856D01*
X147720500Y-109695000D01*
X147145500Y-109695000D01*
X147122221Y-109693856D01*
X147099166Y-109690437D01*
X147076557Y-109684773D01*
X147054613Y-109676921D01*
X147033543Y-109666956D01*
X147013552Y-109654974D01*
X146994832Y-109641090D01*
X146977562Y-109625438D01*
X146961910Y-109608168D01*
X146948026Y-109589448D01*
X146936044Y-109569457D01*
X146926079Y-109548387D01*
X146918227Y-109526443D01*
X146912563Y-109503834D01*
X146909144Y-109480779D01*
X146908000Y-109457500D01*
X146908000Y-108982500D01*
X146909144Y-108959221D01*
X146912563Y-108936166D01*
X146918227Y-108913557D01*
X146926079Y-108891613D01*
X146936044Y-108870543D01*
X146948026Y-108850552D01*
X146961910Y-108831832D01*
X146977562Y-108814562D01*
X146994832Y-108798910D01*
X147013552Y-108785026D01*
X147033543Y-108773044D01*
X147054613Y-108763079D01*
X147076557Y-108755227D01*
X147099166Y-108749563D01*
X147122221Y-108746144D01*
X147145500Y-108745000D01*
X147720500Y-108745000D01*
X147743779Y-108746144D01*
X147743779Y-108746144D01*
G37*
D11*
X147433000Y-109220000D03*
D10*
G36*
X145993779Y-108746144D02*
G01*
X146016834Y-108749563D01*
X146039443Y-108755227D01*
X146061387Y-108763079D01*
X146082457Y-108773044D01*
X146102448Y-108785026D01*
X146121168Y-108798910D01*
X146138438Y-108814562D01*
X146154090Y-108831832D01*
X146167974Y-108850552D01*
X146179956Y-108870543D01*
X146189921Y-108891613D01*
X146197773Y-108913557D01*
X146203437Y-108936166D01*
X146206856Y-108959221D01*
X146208000Y-108982500D01*
X146208000Y-109457500D01*
X146206856Y-109480779D01*
X146203437Y-109503834D01*
X146197773Y-109526443D01*
X146189921Y-109548387D01*
X146179956Y-109569457D01*
X146167974Y-109589448D01*
X146154090Y-109608168D01*
X146138438Y-109625438D01*
X146121168Y-109641090D01*
X146102448Y-109654974D01*
X146082457Y-109666956D01*
X146061387Y-109676921D01*
X146039443Y-109684773D01*
X146016834Y-109690437D01*
X145993779Y-109693856D01*
X145970500Y-109695000D01*
X145395500Y-109695000D01*
X145372221Y-109693856D01*
X145349166Y-109690437D01*
X145326557Y-109684773D01*
X145304613Y-109676921D01*
X145283543Y-109666956D01*
X145263552Y-109654974D01*
X145244832Y-109641090D01*
X145227562Y-109625438D01*
X145211910Y-109608168D01*
X145198026Y-109589448D01*
X145186044Y-109569457D01*
X145176079Y-109548387D01*
X145168227Y-109526443D01*
X145162563Y-109503834D01*
X145159144Y-109480779D01*
X145158000Y-109457500D01*
X145158000Y-108982500D01*
X145159144Y-108959221D01*
X145162563Y-108936166D01*
X145168227Y-108913557D01*
X145176079Y-108891613D01*
X145186044Y-108870543D01*
X145198026Y-108850552D01*
X145211910Y-108831832D01*
X145227562Y-108814562D01*
X145244832Y-108798910D01*
X145263552Y-108785026D01*
X145283543Y-108773044D01*
X145304613Y-108763079D01*
X145326557Y-108755227D01*
X145349166Y-108749563D01*
X145372221Y-108746144D01*
X145395500Y-108745000D01*
X145970500Y-108745000D01*
X145993779Y-108746144D01*
X145993779Y-108746144D01*
G37*
D11*
X145683000Y-109220000D03*
D10*
G36*
X157282779Y-120684144D02*
G01*
X157305834Y-120687563D01*
X157328443Y-120693227D01*
X157350387Y-120701079D01*
X157371457Y-120711044D01*
X157391448Y-120723026D01*
X157410168Y-120736910D01*
X157427438Y-120752562D01*
X157443090Y-120769832D01*
X157456974Y-120788552D01*
X157468956Y-120808543D01*
X157478921Y-120829613D01*
X157486773Y-120851557D01*
X157492437Y-120874166D01*
X157495856Y-120897221D01*
X157497000Y-120920500D01*
X157497000Y-121395500D01*
X157495856Y-121418779D01*
X157492437Y-121441834D01*
X157486773Y-121464443D01*
X157478921Y-121486387D01*
X157468956Y-121507457D01*
X157456974Y-121527448D01*
X157443090Y-121546168D01*
X157427438Y-121563438D01*
X157410168Y-121579090D01*
X157391448Y-121592974D01*
X157371457Y-121604956D01*
X157350387Y-121614921D01*
X157328443Y-121622773D01*
X157305834Y-121628437D01*
X157282779Y-121631856D01*
X157259500Y-121633000D01*
X156684500Y-121633000D01*
X156661221Y-121631856D01*
X156638166Y-121628437D01*
X156615557Y-121622773D01*
X156593613Y-121614921D01*
X156572543Y-121604956D01*
X156552552Y-121592974D01*
X156533832Y-121579090D01*
X156516562Y-121563438D01*
X156500910Y-121546168D01*
X156487026Y-121527448D01*
X156475044Y-121507457D01*
X156465079Y-121486387D01*
X156457227Y-121464443D01*
X156451563Y-121441834D01*
X156448144Y-121418779D01*
X156447000Y-121395500D01*
X156447000Y-120920500D01*
X156448144Y-120897221D01*
X156451563Y-120874166D01*
X156457227Y-120851557D01*
X156465079Y-120829613D01*
X156475044Y-120808543D01*
X156487026Y-120788552D01*
X156500910Y-120769832D01*
X156516562Y-120752562D01*
X156533832Y-120736910D01*
X156552552Y-120723026D01*
X156572543Y-120711044D01*
X156593613Y-120701079D01*
X156615557Y-120693227D01*
X156638166Y-120687563D01*
X156661221Y-120684144D01*
X156684500Y-120683000D01*
X157259500Y-120683000D01*
X157282779Y-120684144D01*
X157282779Y-120684144D01*
G37*
D11*
X156972000Y-121158000D03*
D10*
G36*
X155532779Y-120684144D02*
G01*
X155555834Y-120687563D01*
X155578443Y-120693227D01*
X155600387Y-120701079D01*
X155621457Y-120711044D01*
X155641448Y-120723026D01*
X155660168Y-120736910D01*
X155677438Y-120752562D01*
X155693090Y-120769832D01*
X155706974Y-120788552D01*
X155718956Y-120808543D01*
X155728921Y-120829613D01*
X155736773Y-120851557D01*
X155742437Y-120874166D01*
X155745856Y-120897221D01*
X155747000Y-120920500D01*
X155747000Y-121395500D01*
X155745856Y-121418779D01*
X155742437Y-121441834D01*
X155736773Y-121464443D01*
X155728921Y-121486387D01*
X155718956Y-121507457D01*
X155706974Y-121527448D01*
X155693090Y-121546168D01*
X155677438Y-121563438D01*
X155660168Y-121579090D01*
X155641448Y-121592974D01*
X155621457Y-121604956D01*
X155600387Y-121614921D01*
X155578443Y-121622773D01*
X155555834Y-121628437D01*
X155532779Y-121631856D01*
X155509500Y-121633000D01*
X154934500Y-121633000D01*
X154911221Y-121631856D01*
X154888166Y-121628437D01*
X154865557Y-121622773D01*
X154843613Y-121614921D01*
X154822543Y-121604956D01*
X154802552Y-121592974D01*
X154783832Y-121579090D01*
X154766562Y-121563438D01*
X154750910Y-121546168D01*
X154737026Y-121527448D01*
X154725044Y-121507457D01*
X154715079Y-121486387D01*
X154707227Y-121464443D01*
X154701563Y-121441834D01*
X154698144Y-121418779D01*
X154697000Y-121395500D01*
X154697000Y-120920500D01*
X154698144Y-120897221D01*
X154701563Y-120874166D01*
X154707227Y-120851557D01*
X154715079Y-120829613D01*
X154725044Y-120808543D01*
X154737026Y-120788552D01*
X154750910Y-120769832D01*
X154766562Y-120752562D01*
X154783832Y-120736910D01*
X154802552Y-120723026D01*
X154822543Y-120711044D01*
X154843613Y-120701079D01*
X154865557Y-120693227D01*
X154888166Y-120687563D01*
X154911221Y-120684144D01*
X154934500Y-120683000D01*
X155509500Y-120683000D01*
X155532779Y-120684144D01*
X155532779Y-120684144D01*
G37*
D11*
X155222000Y-121158000D03*
D30*
X156464000Y-116205000D03*
X151130000Y-123190000D03*
X144653000Y-113919000D03*
X155956000Y-120269000D03*
X150876000Y-115443000D03*
X153352500Y-117030500D03*
X158176013Y-109982000D03*
X152781000Y-111379000D03*
X151714200Y-111379000D03*
X150622000Y-112268000D03*
X152273000Y-114427000D03*
X150622000Y-106593010D03*
X144399000Y-118364000D03*
X153924000Y-112903000D03*
X153289000Y-106616500D03*
X160782000Y-106616500D03*
X144272000Y-112141000D03*
X161036000Y-117538500D03*
X162164304Y-120231088D03*
X157353000Y-126365000D03*
X157353000Y-118491000D03*
X149860000Y-109982000D03*
X157226000Y-109982000D03*
X161036000Y-109982000D03*
X155210736Y-116524244D03*
X156346896Y-115021723D03*
X144780000Y-145034000D03*
X149860000Y-142240000D03*
D31*
X148109799Y-115406999D02*
X148109799Y-114145201D01*
X149184800Y-115432000D02*
X148134800Y-115432000D01*
X148134800Y-115432000D02*
X148109799Y-115406999D01*
X148109799Y-114145201D02*
X148463000Y-113792000D01*
X148336000Y-113792000D02*
X148463000Y-113792000D01*
X156480998Y-116205000D02*
X157162500Y-116205000D01*
X151130000Y-123190000D02*
X151130000Y-122047000D01*
D32*
X156464000Y-116205000D02*
X155702000Y-115443000D01*
X156464000Y-116205000D02*
X157099000Y-116205000D01*
D31*
X148209000Y-113919000D02*
X148336000Y-113792000D01*
X157353000Y-123128000D02*
X158028001Y-123803001D01*
X158028001Y-127421001D02*
X158623000Y-128016000D01*
X156677990Y-122514990D02*
X157353000Y-123190000D01*
X158028001Y-125516001D02*
X161503999Y-125516001D01*
X158028001Y-123803001D02*
X158028001Y-125516001D01*
X158028001Y-125516001D02*
X158028001Y-127421001D01*
X156677990Y-122514990D02*
X156631010Y-122514990D01*
X156631010Y-122514990D02*
X156210000Y-122936000D01*
X147433000Y-111760000D02*
X147433000Y-113143000D01*
X147433000Y-113143000D02*
X148209000Y-113919000D01*
X148209000Y-113919000D02*
X148590000Y-113919000D01*
X147433000Y-111760000D02*
X147433000Y-110631000D01*
X144653000Y-113919000D02*
X148209000Y-113919000D01*
X161503999Y-125516001D02*
X161757999Y-125516001D01*
X161757999Y-125516001D02*
X163449000Y-123825000D01*
X156677990Y-121371990D02*
X156677990Y-122514990D01*
X155956000Y-120269000D02*
X156677990Y-121371990D01*
X158734800Y-116232000D02*
X158898300Y-116395500D01*
X157684800Y-116232000D02*
X158734800Y-116232000D01*
X158898300Y-116395500D02*
X159639000Y-116395500D01*
X159639000Y-116381500D02*
X161022000Y-116381500D01*
X151066500Y-123253500D02*
X151130000Y-123190000D01*
X151066500Y-127612000D02*
X151066500Y-123253500D01*
D32*
X155702000Y-115443000D02*
X150876000Y-115443000D01*
X150876000Y-115443000D02*
X149606000Y-115443000D01*
D31*
X157684800Y-114632000D02*
X158734800Y-114632000D01*
X158734800Y-114632000D02*
X158759801Y-114606999D01*
X158759801Y-114606999D02*
X158759801Y-113782199D01*
X158759801Y-113782199D02*
X159639000Y-112903000D01*
X146632990Y-108256010D02*
X146939000Y-107950000D01*
X146483010Y-109689990D02*
X146483010Y-108405990D01*
X145683000Y-110490000D02*
X146483010Y-109689990D01*
X146483010Y-108405990D02*
X146939000Y-107950000D01*
X152786815Y-117030500D02*
X152209500Y-117607815D01*
X153352500Y-117030500D02*
X152786815Y-117030500D01*
X152209500Y-117607815D02*
X152209500Y-117792500D01*
X158176013Y-109344513D02*
X158176013Y-109416315D01*
X158176013Y-109416315D02*
X158176013Y-109982000D01*
X152971500Y-104140000D02*
X158176013Y-109344513D01*
X145872200Y-114624000D02*
X146622200Y-114624000D01*
X147054000Y-114624000D02*
X147574000Y-115144000D01*
X146304000Y-114624000D02*
X147054000Y-114624000D01*
X147574000Y-115144000D02*
X147574000Y-115570000D01*
X147574000Y-115570000D02*
X148336000Y-116332000D01*
X148336000Y-116332000D02*
X148590000Y-116332000D01*
X146304000Y-117024000D02*
X148520000Y-117024000D01*
X152273000Y-109250198D02*
X152273000Y-109474000D01*
X151743730Y-108720928D02*
X152273000Y-109250198D01*
X147932072Y-108720928D02*
X151743730Y-108720928D01*
X147433000Y-109220000D02*
X147932072Y-108720928D01*
X152381001Y-110979001D02*
X152381001Y-110725001D01*
X152781000Y-111379000D02*
X152381001Y-110979001D01*
X152381001Y-110725001D02*
X152273000Y-110617000D01*
X151314201Y-110979001D02*
X151314201Y-110051799D01*
X151714200Y-111379000D02*
X151314201Y-110979001D01*
X150586000Y-112232000D02*
X150622000Y-112268000D01*
X149184800Y-112232000D02*
X150586000Y-112232000D01*
X159583800Y-114681000D02*
X159639000Y-114681000D01*
X161163000Y-114006500D02*
X161417000Y-113752500D01*
X161163000Y-114631500D02*
X161163000Y-114006500D01*
X161417000Y-113752500D02*
X161417000Y-112903000D01*
D32*
X143953999Y-122617999D02*
X147511001Y-122617999D01*
X147511001Y-122617999D02*
X148209000Y-121920000D01*
X148209000Y-121920000D02*
X148590000Y-121539000D01*
D31*
X146925000Y-120650000D02*
X148195000Y-121920000D01*
X148195000Y-121920000D02*
X148590000Y-121920000D01*
D33*
X147701000Y-104267000D02*
X147701000Y-104347208D01*
X142367000Y-121031000D02*
X143953999Y-122617999D01*
X142367000Y-109681208D02*
X142367000Y-121031000D01*
X147701000Y-104347208D02*
X142367000Y-109681208D01*
X143953999Y-125794001D02*
X143953999Y-122617999D01*
X143953999Y-134233999D02*
X143953999Y-125794001D01*
X146378000Y-136658000D02*
X143953999Y-134233999D01*
X149978000Y-136658000D02*
X146378000Y-136658000D01*
D31*
X144882990Y-110939790D02*
X145576200Y-111633000D01*
X144882990Y-110939790D02*
X144882990Y-109879010D01*
X144882990Y-109879010D02*
X145542000Y-109220000D01*
X155739799Y-119557001D02*
X155448000Y-119265202D01*
X159893000Y-123128000D02*
X159893000Y-122053000D01*
X159893000Y-122053000D02*
X157397001Y-119557001D01*
X155448000Y-119265202D02*
X155448000Y-118618000D01*
X157397001Y-119557001D02*
X157302999Y-119557001D01*
X157302999Y-119557001D02*
X155739799Y-119557001D01*
X161434918Y-119557001D02*
X162246919Y-118745000D01*
X157397001Y-119557001D02*
X161434918Y-119557001D01*
X162246919Y-118745000D02*
X163449000Y-118745000D01*
X153034800Y-109982000D02*
X153034800Y-107950200D01*
X153034800Y-107950200D02*
X153035000Y-107950000D01*
X163576000Y-114390998D02*
X163576000Y-112776000D01*
X153289000Y-107696000D02*
X153289000Y-106616500D01*
X153035000Y-107950000D02*
X153289000Y-107696000D01*
X163576000Y-109410500D02*
X160782000Y-106616500D01*
X163576000Y-112776000D02*
X163576000Y-109410500D01*
X145161000Y-113030000D02*
X144272000Y-112141000D01*
X145683000Y-113030000D02*
X145161000Y-113030000D01*
X164574001Y-115134999D02*
X163830000Y-114390998D01*
X164574001Y-125239999D02*
X164574001Y-115134999D01*
X163830000Y-114390998D02*
X163576000Y-114390998D01*
X163449000Y-126365000D02*
X164574001Y-125239999D01*
X162164304Y-120254304D02*
X162164304Y-120231088D01*
X159566952Y-124378010D02*
X160219048Y-124378010D01*
X158993710Y-123804768D02*
X159566952Y-124378010D01*
X160219048Y-124378010D02*
X161544000Y-123053058D01*
X158623000Y-123128000D02*
X158993710Y-123498710D01*
X158993710Y-123498710D02*
X158993710Y-123804768D01*
X161544000Y-120851392D02*
X162164304Y-120231088D01*
X161544000Y-123053058D02*
X161544000Y-120851392D01*
X162164304Y-120231088D02*
X162395088Y-120231088D01*
X162395088Y-120231088D02*
X163449000Y-121285000D01*
X158734800Y-117032000D02*
X159241300Y-117538500D01*
X160724315Y-117538500D02*
X161290000Y-117538500D01*
X157684800Y-117032000D02*
X158734800Y-117032000D01*
X159241300Y-117538500D02*
X161036000Y-117538500D01*
X156234800Y-118482000D02*
X160606300Y-118482000D01*
X162883300Y-116205000D02*
X163195000Y-116205000D01*
X157353000Y-128078000D02*
X157353000Y-126365000D01*
X160606300Y-118482000D02*
X161172000Y-118482000D01*
X161172000Y-118482000D02*
X163449000Y-116205000D01*
X149860000Y-109982000D02*
X150622000Y-109982000D01*
X157226000Y-109982000D02*
X157226000Y-110547685D01*
X157226000Y-110547685D02*
X157560314Y-110881999D01*
X160136001Y-110881999D02*
X161036000Y-109982000D01*
X157560314Y-110881999D02*
X160136001Y-110881999D01*
D32*
X150634800Y-118482000D02*
X150634800Y-117332000D01*
X154629503Y-115943011D02*
X154810737Y-116124245D01*
X154810737Y-116124245D02*
X155210736Y-116524244D01*
X152023789Y-115943011D02*
X154629503Y-115943011D01*
X150634800Y-117332000D02*
X152023789Y-115943011D01*
D31*
X149184800Y-111432000D02*
X150234800Y-111432000D01*
X150287800Y-111379000D02*
X150749000Y-111379000D01*
X153991724Y-114621724D02*
X155946897Y-114621724D01*
X155946897Y-114621724D02*
X156346896Y-115021723D01*
X150749000Y-111379000D02*
X153991724Y-114621724D01*
X150234800Y-111432000D02*
X150287800Y-111379000D01*
X144780000Y-146558000D02*
X144780000Y-145034000D01*
X149860000Y-142240000D02*
X149860000Y-141478000D01*
X142780000Y-145696000D02*
X149538000Y-138938000D01*
X142780000Y-146558000D02*
X142780000Y-145696000D01*
X149538000Y-138938000D02*
X149923500Y-138938000D01*
X153034800Y-119532000D02*
X152932800Y-119634000D01*
X153034800Y-118482000D02*
X153034800Y-119532000D01*
X152932800Y-119634000D02*
X150114000Y-119634000D01*
X150114000Y-119634000D02*
X149098000Y-118618000D01*
X156083000Y-128078000D02*
X155194000Y-127189000D01*
X155194000Y-127189000D02*
X155194000Y-121158000D01*
X155194000Y-121158000D02*
X154686000Y-120650000D01*
X154686000Y-120650000D02*
X154686000Y-118935500D01*
D34*
G36*
X166045001Y-159187000D02*
G01*
X140660000Y-159187000D01*
X140660000Y-155637461D01*
X141067000Y-155637461D01*
X141067000Y-155893539D01*
X141116958Y-156144696D01*
X141214955Y-156381281D01*
X141357224Y-156594202D01*
X141538298Y-156775276D01*
X141751219Y-156917545D01*
X141987804Y-157015542D01*
X142238961Y-157065500D01*
X142495039Y-157065500D01*
X142746196Y-157015542D01*
X142982781Y-156917545D01*
X143195702Y-156775276D01*
X143376776Y-156594202D01*
X143519045Y-156381281D01*
X143617042Y-156144696D01*
X143667000Y-155893539D01*
X143667000Y-155637461D01*
X143617042Y-155386304D01*
X143519045Y-155149719D01*
X143376776Y-154936798D01*
X143195702Y-154755724D01*
X142982781Y-154613455D01*
X142746196Y-154515458D01*
X142495039Y-154465500D01*
X142238961Y-154465500D01*
X141987804Y-154515458D01*
X141751219Y-154613455D01*
X141538298Y-154755724D01*
X141357224Y-154936798D01*
X141214955Y-155149719D01*
X141116958Y-155386304D01*
X141067000Y-155637461D01*
X140660000Y-155637461D01*
X140660000Y-153314164D01*
X152179125Y-153314164D01*
X152375237Y-153649589D01*
X152798897Y-153862908D01*
X153256034Y-153989477D01*
X153729079Y-154024430D01*
X154199854Y-153966424D01*
X154650266Y-153817691D01*
X154964763Y-153649589D01*
X155160875Y-153314164D01*
X153670000Y-151823289D01*
X152179125Y-153314164D01*
X140660000Y-153314164D01*
X140660000Y-151453402D01*
X141718000Y-151453402D01*
X141718000Y-151662598D01*
X141758812Y-151867774D01*
X141838867Y-152061046D01*
X141955090Y-152234986D01*
X142103014Y-152382910D01*
X142276954Y-152499133D01*
X142470226Y-152579188D01*
X142675402Y-152620000D01*
X142884598Y-152620000D01*
X143089774Y-152579188D01*
X143283046Y-152499133D01*
X143456986Y-152382910D01*
X143604910Y-152234986D01*
X143721133Y-152061046D01*
X143780000Y-151918927D01*
X143838867Y-152061046D01*
X143955090Y-152234986D01*
X144103014Y-152382910D01*
X144276954Y-152499133D01*
X144470226Y-152579188D01*
X144675402Y-152620000D01*
X144884598Y-152620000D01*
X145089774Y-152579188D01*
X145283046Y-152499133D01*
X145456986Y-152382910D01*
X145604910Y-152234986D01*
X145721133Y-152061046D01*
X145780000Y-151918927D01*
X145838867Y-152061046D01*
X145955090Y-152234986D01*
X146103014Y-152382910D01*
X146276954Y-152499133D01*
X146470226Y-152579188D01*
X146675402Y-152620000D01*
X146884598Y-152620000D01*
X147089774Y-152579188D01*
X147283046Y-152499133D01*
X147456986Y-152382910D01*
X147604910Y-152234986D01*
X147721133Y-152061046D01*
X147801188Y-151867774D01*
X147841605Y-151664579D01*
X151251070Y-151664579D01*
X151309076Y-152135354D01*
X151457809Y-152585766D01*
X151625911Y-152900263D01*
X151961336Y-153096375D01*
X153452211Y-151605500D01*
X153887789Y-151605500D01*
X155378664Y-153096375D01*
X155714089Y-152900263D01*
X155927408Y-152476603D01*
X156053977Y-152019466D01*
X156088930Y-151546421D01*
X156030924Y-151075646D01*
X155882191Y-150625234D01*
X155714089Y-150310737D01*
X155378664Y-150114625D01*
X153887789Y-151605500D01*
X153452211Y-151605500D01*
X151961336Y-150114625D01*
X151625911Y-150310737D01*
X151412592Y-150734397D01*
X151286023Y-151191534D01*
X151251070Y-151664579D01*
X147841605Y-151664579D01*
X147842000Y-151662598D01*
X147842000Y-151453402D01*
X147801188Y-151248226D01*
X147721133Y-151054954D01*
X147604910Y-150881014D01*
X147456986Y-150733090D01*
X147283046Y-150616867D01*
X147089774Y-150536812D01*
X146884598Y-150496000D01*
X146675402Y-150496000D01*
X146470226Y-150536812D01*
X146276954Y-150616867D01*
X146103014Y-150733090D01*
X145955090Y-150881014D01*
X145838867Y-151054954D01*
X145780000Y-151197073D01*
X145721133Y-151054954D01*
X145604910Y-150881014D01*
X145456986Y-150733090D01*
X145283046Y-150616867D01*
X145089774Y-150536812D01*
X144884598Y-150496000D01*
X144675402Y-150496000D01*
X144470226Y-150536812D01*
X144276954Y-150616867D01*
X144103014Y-150733090D01*
X143955090Y-150881014D01*
X143838867Y-151054954D01*
X143780000Y-151197073D01*
X143721133Y-151054954D01*
X143604910Y-150881014D01*
X143456986Y-150733090D01*
X143283046Y-150616867D01*
X143089774Y-150536812D01*
X142884598Y-150496000D01*
X142675402Y-150496000D01*
X142470226Y-150536812D01*
X142276954Y-150616867D01*
X142103014Y-150733090D01*
X141955090Y-150881014D01*
X141838867Y-151054954D01*
X141758812Y-151248226D01*
X141718000Y-151453402D01*
X140660000Y-151453402D01*
X140660000Y-149896836D01*
X152179125Y-149896836D01*
X153670000Y-151387711D01*
X155160875Y-149896836D01*
X154964763Y-149561411D01*
X154541103Y-149348092D01*
X154083966Y-149221523D01*
X153610921Y-149186570D01*
X153140146Y-149244576D01*
X152689734Y-149393309D01*
X152375237Y-149561411D01*
X152179125Y-149896836D01*
X140660000Y-149896836D01*
X140660000Y-148398668D01*
X156270000Y-148398668D01*
X156270000Y-148812332D01*
X156350702Y-149218047D01*
X156509004Y-149600223D01*
X156738823Y-149944172D01*
X157031328Y-150236677D01*
X157375277Y-150466496D01*
X157757453Y-150624798D01*
X158163168Y-150705500D01*
X158576832Y-150705500D01*
X158982547Y-150624798D01*
X159364723Y-150466496D01*
X159708672Y-150236677D01*
X160001177Y-149944172D01*
X160230996Y-149600223D01*
X160389298Y-149218047D01*
X160470000Y-148812332D01*
X160470000Y-148398668D01*
X160389298Y-147992953D01*
X160230996Y-147610777D01*
X160001177Y-147266828D01*
X159708672Y-146974323D01*
X159364723Y-146744504D01*
X158982547Y-146586202D01*
X158576832Y-146505500D01*
X158163168Y-146505500D01*
X157757453Y-146586202D01*
X157375277Y-146744504D01*
X157031328Y-146974323D01*
X156738823Y-147266828D01*
X156509004Y-147610777D01*
X156350702Y-147992953D01*
X156270000Y-148398668D01*
X140660000Y-148398668D01*
X140660000Y-109681208D01*
X140809502Y-109681208D01*
X140817000Y-109757336D01*
X140817001Y-120954862D01*
X140809502Y-121031000D01*
X140817001Y-121107138D01*
X140839429Y-121334853D01*
X140851920Y-121376031D01*
X140928059Y-121627028D01*
X141071987Y-121896300D01*
X141199921Y-122052187D01*
X141265683Y-122132318D01*
X141324822Y-122180852D01*
X142404000Y-123260030D01*
X142403999Y-125870138D01*
X142404000Y-125870148D01*
X142403999Y-134157871D01*
X142396501Y-134233999D01*
X142403999Y-134310127D01*
X142403999Y-134310136D01*
X142426427Y-134537851D01*
X142515058Y-134830027D01*
X142658986Y-135099299D01*
X142744832Y-135203902D01*
X142852681Y-135335317D01*
X142911826Y-135383856D01*
X145228147Y-137700178D01*
X145276682Y-137759318D01*
X145512700Y-137953013D01*
X145781971Y-138096941D01*
X146074147Y-138185572D01*
X146301862Y-138208000D01*
X146301871Y-138208000D01*
X146377999Y-138215498D01*
X146454127Y-138208000D01*
X148607321Y-138208000D01*
X148599496Y-138222640D01*
X148582341Y-138279190D01*
X148576549Y-138338000D01*
X148576549Y-139298410D01*
X142494239Y-145380721D01*
X142478027Y-145394026D01*
X142424917Y-145458740D01*
X142405777Y-145494549D01*
X142018000Y-145494549D01*
X141959190Y-145500341D01*
X141902640Y-145517496D01*
X141850523Y-145545353D01*
X141804842Y-145582842D01*
X141767353Y-145628523D01*
X141739496Y-145680640D01*
X141722341Y-145737190D01*
X141716549Y-145796000D01*
X141716549Y-147320000D01*
X141722341Y-147378810D01*
X141739496Y-147435360D01*
X141767353Y-147487477D01*
X141804842Y-147533158D01*
X141850523Y-147570647D01*
X141902640Y-147598504D01*
X141959190Y-147615659D01*
X142018000Y-147621451D01*
X143542000Y-147621451D01*
X143600810Y-147615659D01*
X143657360Y-147598504D01*
X143709477Y-147570647D01*
X143755158Y-147533158D01*
X143792647Y-147487477D01*
X143820504Y-147435360D01*
X143837659Y-147378810D01*
X143843451Y-147320000D01*
X143843451Y-147067906D01*
X143955090Y-147234986D01*
X144103014Y-147382910D01*
X144276954Y-147499133D01*
X144470226Y-147579188D01*
X144675402Y-147620000D01*
X144884598Y-147620000D01*
X145089774Y-147579188D01*
X145218271Y-147525963D01*
X146029825Y-147525963D01*
X146100505Y-147755244D01*
X146347132Y-147864803D01*
X146610394Y-147924141D01*
X146880174Y-147930979D01*
X147146105Y-147885055D01*
X147397966Y-147788132D01*
X147459495Y-147755244D01*
X147530175Y-147525963D01*
X146780000Y-146775789D01*
X146029825Y-147525963D01*
X145218271Y-147525963D01*
X145283046Y-147499133D01*
X145456986Y-147382910D01*
X145597772Y-147242124D01*
X145812037Y-147308175D01*
X146562211Y-146558000D01*
X146997789Y-146558000D01*
X147747963Y-147308175D01*
X147977244Y-147237495D01*
X148086803Y-146990868D01*
X148146141Y-146727606D01*
X148152979Y-146457826D01*
X148107055Y-146191895D01*
X148010132Y-145940034D01*
X147977244Y-145878505D01*
X147747963Y-145807825D01*
X146997789Y-146558000D01*
X146562211Y-146558000D01*
X145812037Y-145807825D01*
X145597772Y-145873876D01*
X145456986Y-145733090D01*
X145283046Y-145616867D01*
X145218273Y-145590037D01*
X146029825Y-145590037D01*
X146780000Y-146340211D01*
X147530175Y-145590037D01*
X147459495Y-145360756D01*
X147212868Y-145251197D01*
X146949606Y-145191859D01*
X146679826Y-145185021D01*
X146413895Y-145230945D01*
X146162034Y-145327868D01*
X146100505Y-145360756D01*
X146029825Y-145590037D01*
X145218273Y-145590037D01*
X145211807Y-145587359D01*
X145226224Y-145577726D01*
X145323726Y-145480224D01*
X145400332Y-145365574D01*
X145453099Y-145238182D01*
X145480000Y-145102944D01*
X145480000Y-144965056D01*
X145453099Y-144829818D01*
X145400332Y-144702426D01*
X145323726Y-144587776D01*
X145226224Y-144490274D01*
X145111574Y-144413668D01*
X144984182Y-144360901D01*
X144848944Y-144334000D01*
X144743040Y-144334000D01*
X148631175Y-140445866D01*
X148627353Y-140450523D01*
X148599496Y-140502640D01*
X148582341Y-140559190D01*
X148576549Y-140618000D01*
X148576549Y-141818000D01*
X148582341Y-141876810D01*
X148599496Y-141933360D01*
X148627353Y-141985477D01*
X148664842Y-142031158D01*
X148710523Y-142068647D01*
X148762640Y-142096504D01*
X148819190Y-142113659D01*
X148878000Y-142119451D01*
X149170265Y-142119451D01*
X149160000Y-142171056D01*
X149160000Y-142308944D01*
X149186901Y-142444182D01*
X149239668Y-142571574D01*
X149316274Y-142686224D01*
X149413776Y-142783726D01*
X149528426Y-142860332D01*
X149655818Y-142913099D01*
X149791056Y-142940000D01*
X149928944Y-142940000D01*
X150064182Y-142913099D01*
X150191574Y-142860332D01*
X150306224Y-142783726D01*
X150403726Y-142686224D01*
X150480332Y-142571574D01*
X150533099Y-142444182D01*
X150560000Y-142308944D01*
X150560000Y-142171056D01*
X150549735Y-142119451D01*
X151078000Y-142119451D01*
X151136810Y-142113659D01*
X151193360Y-142096504D01*
X151245477Y-142068647D01*
X151291158Y-142031158D01*
X151328647Y-141985477D01*
X151356504Y-141933360D01*
X151373659Y-141876810D01*
X151379451Y-141818000D01*
X151379451Y-140618000D01*
X151373659Y-140559190D01*
X151356504Y-140502640D01*
X151328647Y-140450523D01*
X151291158Y-140404842D01*
X151245477Y-140367353D01*
X151193360Y-140339496D01*
X151136810Y-140322341D01*
X151078000Y-140316549D01*
X148878000Y-140316549D01*
X148819190Y-140322341D01*
X148762640Y-140339496D01*
X148710523Y-140367353D01*
X148705866Y-140371175D01*
X149237590Y-139839451D01*
X150813583Y-139839451D01*
X150870438Y-139856698D01*
X150939500Y-139863500D01*
X151538000Y-139863500D01*
X151538000Y-143827500D01*
X151544802Y-143896562D01*
X151564947Y-143962970D01*
X151568549Y-143969709D01*
X151568549Y-147405500D01*
X151574341Y-147464310D01*
X151591496Y-147520860D01*
X151619353Y-147572977D01*
X151656842Y-147618658D01*
X151702523Y-147656147D01*
X151754640Y-147684004D01*
X151811190Y-147701159D01*
X151870000Y-147706951D01*
X155470000Y-147706951D01*
X155528810Y-147701159D01*
X155585360Y-147684004D01*
X155637477Y-147656147D01*
X155683158Y-147618658D01*
X155720647Y-147572977D01*
X155748504Y-147520860D01*
X155765659Y-147464310D01*
X155771451Y-147405500D01*
X155771451Y-144060256D01*
X159608814Y-142111119D01*
X159645172Y-142089840D01*
X159698816Y-142045816D01*
X159742840Y-141992172D01*
X159775553Y-141930970D01*
X159795698Y-141864562D01*
X159802500Y-141795500D01*
X159802500Y-136080500D01*
X159795698Y-136011438D01*
X159775553Y-135945030D01*
X159742840Y-135883828D01*
X159698816Y-135830184D01*
X159645172Y-135786160D01*
X159583970Y-135753447D01*
X159517562Y-135733302D01*
X159448500Y-135726500D01*
X153098500Y-135726500D01*
X153019550Y-135735416D01*
X152953745Y-135757449D01*
X152893502Y-135791897D01*
X152841137Y-135837435D01*
X151304413Y-137464554D01*
X151319049Y-137437172D01*
X151328647Y-137425477D01*
X151356504Y-137373360D01*
X151360896Y-137358882D01*
X151416941Y-137254029D01*
X151505572Y-136961853D01*
X151535499Y-136658000D01*
X151505572Y-136354147D01*
X151416941Y-136061971D01*
X151360896Y-135957118D01*
X151356504Y-135942640D01*
X151328647Y-135890523D01*
X151319049Y-135878828D01*
X151273013Y-135792700D01*
X151079318Y-135556682D01*
X150988318Y-135482000D01*
X159258000Y-135482000D01*
X159277509Y-135480079D01*
X159296268Y-135474388D01*
X159313557Y-135465147D01*
X159328711Y-135452711D01*
X159341147Y-135437557D01*
X159350388Y-135420268D01*
X159356079Y-135401509D01*
X159358000Y-135382000D01*
X159358000Y-129616924D01*
X159472406Y-129651922D01*
X159587000Y-129661000D01*
X159739000Y-129509000D01*
X159739000Y-128232000D01*
X160047000Y-128232000D01*
X160047000Y-129509000D01*
X160199000Y-129661000D01*
X160313594Y-129651922D01*
X160428121Y-129616887D01*
X160533612Y-129560182D01*
X160626013Y-129483987D01*
X160701774Y-129391229D01*
X160757984Y-129285473D01*
X160758454Y-129283910D01*
X162041097Y-129283910D01*
X162067854Y-129372139D01*
X162185527Y-129632611D01*
X162351754Y-129865122D01*
X162560148Y-130060736D01*
X162802700Y-130211935D01*
X163070089Y-130312909D01*
X163295000Y-130202850D01*
X163295000Y-129059000D01*
X163603000Y-129059000D01*
X163603000Y-130202850D01*
X163827911Y-130312909D01*
X164095300Y-130211935D01*
X164337852Y-130060736D01*
X164546246Y-129865122D01*
X164712473Y-129632611D01*
X164830146Y-129372139D01*
X164856903Y-129283910D01*
X164745889Y-129059000D01*
X163603000Y-129059000D01*
X163295000Y-129059000D01*
X162152111Y-129059000D01*
X162041097Y-129283910D01*
X160758454Y-129283910D01*
X160792481Y-129170783D01*
X160803940Y-129051567D01*
X160801000Y-128384000D01*
X160649000Y-128232000D01*
X160047000Y-128232000D01*
X159739000Y-128232000D01*
X159719000Y-128232000D01*
X159719000Y-127924000D01*
X159739000Y-127924000D01*
X159739000Y-126647000D01*
X160047000Y-126647000D01*
X160047000Y-127924000D01*
X160649000Y-127924000D01*
X160801000Y-127772000D01*
X160803940Y-127104433D01*
X160792481Y-126985217D01*
X160757984Y-126870527D01*
X160701774Y-126764771D01*
X160626013Y-126672013D01*
X160533612Y-126595818D01*
X160428121Y-126539113D01*
X160313594Y-126504078D01*
X160199000Y-126495000D01*
X160047000Y-126647000D01*
X159739000Y-126647000D01*
X159587000Y-126495000D01*
X159472406Y-126504078D01*
X159357879Y-126539113D01*
X159252388Y-126595818D01*
X159159987Y-126672013D01*
X159084226Y-126764771D01*
X159028016Y-126870527D01*
X159025470Y-126878992D01*
X159023813Y-126877632D01*
X158945763Y-126835914D01*
X158861074Y-126810224D01*
X158773000Y-126801549D01*
X158473000Y-126801549D01*
X158453001Y-126803519D01*
X158453001Y-125941001D01*
X161737132Y-125941001D01*
X161757999Y-125943056D01*
X161778866Y-125941001D01*
X161778873Y-125941001D01*
X161841313Y-125934851D01*
X161921426Y-125910549D01*
X161995259Y-125871085D01*
X162059973Y-125817975D01*
X162073283Y-125801757D01*
X162990919Y-124884121D01*
X163006785Y-124892602D01*
X163223561Y-124958360D01*
X163392508Y-124975000D01*
X163505492Y-124975000D01*
X163674439Y-124958360D01*
X163891215Y-124892602D01*
X164090997Y-124785816D01*
X164149001Y-124738213D01*
X164149001Y-125063958D01*
X163907081Y-125305878D01*
X163891215Y-125297398D01*
X163674439Y-125231640D01*
X163505492Y-125215000D01*
X163392508Y-125215000D01*
X163223561Y-125231640D01*
X163006785Y-125297398D01*
X162807003Y-125404184D01*
X162631893Y-125547893D01*
X162488184Y-125723003D01*
X162381398Y-125922785D01*
X162315640Y-126139561D01*
X162293436Y-126365000D01*
X162315640Y-126590439D01*
X162381398Y-126807215D01*
X162488184Y-127006997D01*
X162631893Y-127182107D01*
X162807003Y-127325816D01*
X163006785Y-127432602D01*
X163223561Y-127498360D01*
X163294998Y-127505396D01*
X163294998Y-127607149D01*
X163070089Y-127497091D01*
X162802700Y-127598065D01*
X162560148Y-127749264D01*
X162351754Y-127944878D01*
X162185527Y-128177389D01*
X162067854Y-128437861D01*
X162041097Y-128526090D01*
X162152111Y-128751000D01*
X163295000Y-128751000D01*
X163295000Y-128731000D01*
X163603000Y-128731000D01*
X163603000Y-128751000D01*
X164745889Y-128751000D01*
X164856903Y-128526090D01*
X164830146Y-128437861D01*
X164712473Y-128177389D01*
X164546246Y-127944878D01*
X164337852Y-127749264D01*
X164095300Y-127598065D01*
X163827911Y-127497091D01*
X163603002Y-127607149D01*
X163603002Y-127505396D01*
X163674439Y-127498360D01*
X163891215Y-127432602D01*
X164090997Y-127325816D01*
X164266107Y-127182107D01*
X164409816Y-127006997D01*
X164516602Y-126807215D01*
X164582360Y-126590439D01*
X164604564Y-126365000D01*
X164582360Y-126139561D01*
X164516602Y-125922785D01*
X164508122Y-125906919D01*
X164859764Y-125555277D01*
X164875975Y-125541973D01*
X164929085Y-125477259D01*
X164968549Y-125403426D01*
X164992851Y-125323313D01*
X164999001Y-125260873D01*
X164999001Y-125260866D01*
X165001056Y-125239999D01*
X164999001Y-125219132D01*
X164999001Y-115155865D01*
X165001056Y-115134998D01*
X164999001Y-115114131D01*
X164999001Y-115114125D01*
X164993577Y-115059055D01*
X164992851Y-115051684D01*
X164982799Y-115018548D01*
X164968549Y-114971572D01*
X164929085Y-114897739D01*
X164875975Y-114833025D01*
X164859763Y-114819720D01*
X164207493Y-114167451D01*
X164376000Y-114167451D01*
X164434810Y-114161659D01*
X164491360Y-114144504D01*
X164543477Y-114116647D01*
X164589158Y-114079158D01*
X164626647Y-114033477D01*
X164654504Y-113981360D01*
X164671659Y-113924810D01*
X164677451Y-113866000D01*
X164677451Y-111686000D01*
X164671659Y-111627190D01*
X164654504Y-111570640D01*
X164626647Y-111518523D01*
X164589158Y-111472842D01*
X164543477Y-111435353D01*
X164491360Y-111407496D01*
X164434810Y-111390341D01*
X164376000Y-111384549D01*
X164001000Y-111384549D01*
X164001000Y-109431367D01*
X164003055Y-109410500D01*
X164001000Y-109389633D01*
X164001000Y-109389626D01*
X163994850Y-109327186D01*
X163975360Y-109262935D01*
X163970548Y-109247072D01*
X163956077Y-109220000D01*
X163931084Y-109173240D01*
X163877974Y-109108526D01*
X163861762Y-109095221D01*
X161477020Y-106710480D01*
X161482000Y-106685444D01*
X161482000Y-106547556D01*
X161455099Y-106412318D01*
X161402332Y-106284926D01*
X161325726Y-106170276D01*
X161228224Y-106072774D01*
X161113574Y-105996168D01*
X160986182Y-105943401D01*
X160850944Y-105916500D01*
X160713056Y-105916500D01*
X160577818Y-105943401D01*
X160450426Y-105996168D01*
X160335776Y-106072774D01*
X160238274Y-106170276D01*
X160161668Y-106284926D01*
X160108901Y-106412318D01*
X160082000Y-106547556D01*
X160082000Y-106685444D01*
X160108901Y-106820682D01*
X160161668Y-106948074D01*
X160238274Y-107062724D01*
X160335776Y-107160226D01*
X160450426Y-107236832D01*
X160577818Y-107289599D01*
X160713056Y-107316500D01*
X160850944Y-107316500D01*
X160875980Y-107311520D01*
X163151001Y-109586542D01*
X163151000Y-111384549D01*
X162776000Y-111384549D01*
X162717190Y-111390341D01*
X162660640Y-111407496D01*
X162608523Y-111435353D01*
X162562842Y-111472842D01*
X162525353Y-111518523D01*
X162497496Y-111570640D01*
X162480341Y-111627190D01*
X162474549Y-111686000D01*
X162474549Y-112160737D01*
X162435980Y-112088579D01*
X162360001Y-111995999D01*
X162267421Y-111920020D01*
X162161797Y-111863563D01*
X162047189Y-111828797D01*
X161928000Y-111817058D01*
X161709000Y-111820000D01*
X161557000Y-111972000D01*
X161557000Y-112749000D01*
X161577000Y-112749000D01*
X161577000Y-113057000D01*
X161557000Y-113057000D01*
X161557000Y-113077000D01*
X161249000Y-113077000D01*
X161249000Y-113057000D01*
X161229000Y-113057000D01*
X161229000Y-112749000D01*
X161249000Y-112749000D01*
X161249000Y-111972000D01*
X161097000Y-111820000D01*
X160878000Y-111817058D01*
X160758811Y-111828797D01*
X160644203Y-111863563D01*
X160538579Y-111920020D01*
X160445999Y-111995999D01*
X160370020Y-112088579D01*
X160313563Y-112194203D01*
X160293256Y-112261146D01*
X160239925Y-112217379D01*
X160146748Y-112167574D01*
X160045644Y-112136905D01*
X159940500Y-112126549D01*
X159365500Y-112126549D01*
X159260356Y-112136905D01*
X159159252Y-112167574D01*
X159066075Y-112217379D01*
X158984404Y-112284404D01*
X158917379Y-112366075D01*
X158867574Y-112459252D01*
X158836905Y-112560356D01*
X158826549Y-112665500D01*
X158826549Y-113051875D01*
X158817056Y-113044305D01*
X158786251Y-113028391D01*
X158786251Y-112757000D01*
X158780459Y-112698190D01*
X158763304Y-112641640D01*
X158758151Y-112632000D01*
X158763304Y-112622360D01*
X158780459Y-112565810D01*
X158786251Y-112507000D01*
X158786251Y-111957000D01*
X158780459Y-111898190D01*
X158763304Y-111841640D01*
X158758151Y-111832000D01*
X158763304Y-111822360D01*
X158780459Y-111765810D01*
X158786251Y-111707000D01*
X158786251Y-111306999D01*
X160115134Y-111306999D01*
X160136001Y-111309054D01*
X160156868Y-111306999D01*
X160156875Y-111306999D01*
X160219315Y-111300849D01*
X160299428Y-111276547D01*
X160373261Y-111237083D01*
X160437975Y-111183973D01*
X160451284Y-111167756D01*
X160942021Y-110677020D01*
X160967056Y-110682000D01*
X161104944Y-110682000D01*
X161240182Y-110655099D01*
X161367574Y-110602332D01*
X161482224Y-110525726D01*
X161579726Y-110428224D01*
X161656332Y-110313574D01*
X161709099Y-110186182D01*
X161736000Y-110050944D01*
X161736000Y-109913056D01*
X161709099Y-109777818D01*
X161656332Y-109650426D01*
X161579726Y-109535776D01*
X161482224Y-109438274D01*
X161367574Y-109361668D01*
X161240182Y-109308901D01*
X161104944Y-109282000D01*
X160967056Y-109282000D01*
X160831818Y-109308901D01*
X160704426Y-109361668D01*
X160589776Y-109438274D01*
X160492274Y-109535776D01*
X160415668Y-109650426D01*
X160362901Y-109777818D01*
X160336000Y-109913056D01*
X160336000Y-110050944D01*
X160340980Y-110075979D01*
X159959961Y-110456999D01*
X158690964Y-110456999D01*
X158719739Y-110428224D01*
X158796345Y-110313574D01*
X158849112Y-110186182D01*
X158876013Y-110050944D01*
X158876013Y-109913056D01*
X158849112Y-109777818D01*
X158796345Y-109650426D01*
X158719739Y-109535776D01*
X158622237Y-109438274D01*
X158601013Y-109424093D01*
X158601013Y-109365380D01*
X158603068Y-109344513D01*
X158601013Y-109323646D01*
X158601013Y-109323639D01*
X158594863Y-109261199D01*
X158570561Y-109181086D01*
X158531097Y-109107253D01*
X158477987Y-109042539D01*
X158461776Y-109029235D01*
X155067478Y-105634937D01*
X156710852Y-105634937D01*
X156870837Y-105939644D01*
X157243396Y-106123012D01*
X157644570Y-106230174D01*
X158058942Y-106257012D01*
X158470587Y-106202494D01*
X158863687Y-106068716D01*
X159105163Y-105939644D01*
X159265148Y-105634937D01*
X157988000Y-104357789D01*
X156710852Y-105634937D01*
X155067478Y-105634937D01*
X154471905Y-105039365D01*
X154503139Y-104992620D01*
X154638827Y-104665041D01*
X154708000Y-104317284D01*
X154708000Y-104210942D01*
X155870988Y-104210942D01*
X155925506Y-104622587D01*
X156059284Y-105015687D01*
X156188356Y-105257163D01*
X156493063Y-105417148D01*
X157770211Y-104140000D01*
X158205789Y-104140000D01*
X159482937Y-105417148D01*
X159787644Y-105257163D01*
X159971012Y-104884604D01*
X160024063Y-104686000D01*
X162165058Y-104686000D01*
X162176797Y-104805189D01*
X162211563Y-104919797D01*
X162268020Y-105025421D01*
X162343999Y-105118001D01*
X162436579Y-105193980D01*
X162542203Y-105250437D01*
X162656811Y-105285203D01*
X162776000Y-105296942D01*
X163270000Y-105294000D01*
X163422000Y-105142000D01*
X163422000Y-103750000D01*
X163730000Y-103750000D01*
X163730000Y-105142000D01*
X163882000Y-105294000D01*
X164376000Y-105296942D01*
X164495189Y-105285203D01*
X164609797Y-105250437D01*
X164715421Y-105193980D01*
X164808001Y-105118001D01*
X164883980Y-105025421D01*
X164940437Y-104919797D01*
X164975203Y-104805189D01*
X164986942Y-104686000D01*
X164984000Y-103902000D01*
X164832000Y-103750000D01*
X163730000Y-103750000D01*
X163422000Y-103750000D01*
X162320000Y-103750000D01*
X162168000Y-103902000D01*
X162165058Y-104686000D01*
X160024063Y-104686000D01*
X160078174Y-104483430D01*
X160105012Y-104069058D01*
X160050494Y-103657413D01*
X159916716Y-103264313D01*
X159787644Y-103022837D01*
X159482937Y-102862852D01*
X158205789Y-104140000D01*
X157770211Y-104140000D01*
X156493063Y-102862852D01*
X156188356Y-103022837D01*
X156004988Y-103395396D01*
X155897826Y-103796570D01*
X155870988Y-104210942D01*
X154708000Y-104210942D01*
X154708000Y-103962716D01*
X154638827Y-103614959D01*
X154503139Y-103287380D01*
X154306151Y-102992567D01*
X154055433Y-102741849D01*
X153910583Y-102645063D01*
X156710852Y-102645063D01*
X157988000Y-103922211D01*
X159265148Y-102645063D01*
X159192134Y-102506000D01*
X162165058Y-102506000D01*
X162168000Y-103290000D01*
X162320000Y-103442000D01*
X163422000Y-103442000D01*
X163422000Y-102050000D01*
X163730000Y-102050000D01*
X163730000Y-103442000D01*
X164832000Y-103442000D01*
X164984000Y-103290000D01*
X164986942Y-102506000D01*
X164975203Y-102386811D01*
X164940437Y-102272203D01*
X164883980Y-102166579D01*
X164808001Y-102073999D01*
X164715421Y-101998020D01*
X164609797Y-101941563D01*
X164495189Y-101906797D01*
X164376000Y-101895058D01*
X163882000Y-101898000D01*
X163730000Y-102050000D01*
X163422000Y-102050000D01*
X163270000Y-101898000D01*
X162776000Y-101895058D01*
X162656811Y-101906797D01*
X162542203Y-101941563D01*
X162436579Y-101998020D01*
X162343999Y-102073999D01*
X162268020Y-102166579D01*
X162211563Y-102272203D01*
X162176797Y-102386811D01*
X162165058Y-102506000D01*
X159192134Y-102506000D01*
X159105163Y-102340356D01*
X158732604Y-102156988D01*
X158331430Y-102049826D01*
X157917058Y-102022988D01*
X157505413Y-102077506D01*
X157112313Y-102211284D01*
X156870837Y-102340356D01*
X156710852Y-102645063D01*
X153910583Y-102645063D01*
X153760620Y-102544861D01*
X153433041Y-102409173D01*
X153085284Y-102340000D01*
X152730716Y-102340000D01*
X152382959Y-102409173D01*
X152055380Y-102544861D01*
X151760567Y-102741849D01*
X151509849Y-102992567D01*
X151312861Y-103287380D01*
X151177173Y-103614959D01*
X151108000Y-103962716D01*
X151108000Y-104317284D01*
X151177173Y-104665041D01*
X151312861Y-104992620D01*
X151509849Y-105287433D01*
X151760567Y-105538151D01*
X152055380Y-105735139D01*
X152382959Y-105870827D01*
X152730716Y-105940000D01*
X153085284Y-105940000D01*
X153433041Y-105870827D01*
X153760620Y-105735139D01*
X153883496Y-105653036D01*
X157661704Y-109431245D01*
X157557574Y-109361668D01*
X157430182Y-109308901D01*
X157294944Y-109282000D01*
X157157056Y-109282000D01*
X157021818Y-109308901D01*
X156894426Y-109361668D01*
X156811251Y-109417243D01*
X156811251Y-109182000D01*
X156805459Y-109123190D01*
X156788304Y-109066640D01*
X156760447Y-109014523D01*
X156722958Y-108968842D01*
X156677277Y-108931353D01*
X156625160Y-108903496D01*
X156568610Y-108886341D01*
X156509800Y-108880549D01*
X155959800Y-108880549D01*
X155900990Y-108886341D01*
X155844440Y-108903496D01*
X155834800Y-108908649D01*
X155825160Y-108903496D01*
X155768610Y-108886341D01*
X155709800Y-108880549D01*
X155159800Y-108880549D01*
X155100990Y-108886341D01*
X155044440Y-108903496D01*
X155034800Y-108908649D01*
X155025160Y-108903496D01*
X154968610Y-108886341D01*
X154909800Y-108880549D01*
X154359800Y-108880549D01*
X154300990Y-108886341D01*
X154244440Y-108903496D01*
X154234800Y-108908649D01*
X154225160Y-108903496D01*
X154168610Y-108886341D01*
X154109800Y-108880549D01*
X153559800Y-108880549D01*
X153500990Y-108886341D01*
X153459800Y-108898836D01*
X153459800Y-108126240D01*
X153574758Y-108011282D01*
X153590974Y-107997974D01*
X153644084Y-107933260D01*
X153683548Y-107859427D01*
X153702788Y-107796000D01*
X153707850Y-107779315D01*
X153708679Y-107770902D01*
X153714000Y-107716874D01*
X153714000Y-107716868D01*
X153716055Y-107696001D01*
X153714000Y-107675134D01*
X153714000Y-107174407D01*
X153735224Y-107160226D01*
X153832726Y-107062724D01*
X153909332Y-106948074D01*
X153962099Y-106820682D01*
X153989000Y-106685444D01*
X153989000Y-106547556D01*
X153962099Y-106412318D01*
X153909332Y-106284926D01*
X153832726Y-106170276D01*
X153735224Y-106072774D01*
X153620574Y-105996168D01*
X153493182Y-105943401D01*
X153357944Y-105916500D01*
X153220056Y-105916500D01*
X153084818Y-105943401D01*
X152957426Y-105996168D01*
X152842776Y-106072774D01*
X152745274Y-106170276D01*
X152668668Y-106284926D01*
X152615901Y-106412318D01*
X152589000Y-106547556D01*
X152589000Y-106685444D01*
X152615901Y-106820682D01*
X152668668Y-106948074D01*
X152745274Y-107062724D01*
X152842776Y-107160226D01*
X152864000Y-107174408D01*
X152864000Y-107519960D01*
X152749039Y-107634921D01*
X152732827Y-107648226D01*
X152679717Y-107712940D01*
X152644240Y-107779313D01*
X152640253Y-107786773D01*
X152615950Y-107866886D01*
X152607745Y-107950200D01*
X152609801Y-107971077D01*
X152609801Y-108898837D01*
X152568610Y-108886341D01*
X152509800Y-108880549D01*
X152504392Y-108880549D01*
X152059013Y-108435171D01*
X152045704Y-108418954D01*
X151980990Y-108365844D01*
X151907157Y-108326380D01*
X151827044Y-108302078D01*
X151764604Y-108295928D01*
X151764597Y-108295928D01*
X151743730Y-108293873D01*
X151722863Y-108295928D01*
X149822695Y-108295928D01*
X149822000Y-108256000D01*
X149670000Y-108104000D01*
X148843000Y-108104000D01*
X148843000Y-108124000D01*
X148535000Y-108124000D01*
X148535000Y-108104000D01*
X148515000Y-108104000D01*
X148515000Y-107796000D01*
X148535000Y-107796000D01*
X148535000Y-107019000D01*
X148843000Y-107019000D01*
X148843000Y-107796000D01*
X149670000Y-107796000D01*
X149822000Y-107644000D01*
X149824942Y-107475000D01*
X149813203Y-107355811D01*
X149778437Y-107241203D01*
X149721980Y-107135579D01*
X149646001Y-107042999D01*
X149553421Y-106967020D01*
X149447797Y-106910563D01*
X149333189Y-106875797D01*
X149214000Y-106864058D01*
X148995000Y-106867000D01*
X148843000Y-107019000D01*
X148535000Y-107019000D01*
X148383000Y-106867000D01*
X148164000Y-106864058D01*
X148044811Y-106875797D01*
X147930203Y-106910563D01*
X147824579Y-106967020D01*
X147731999Y-107042999D01*
X147656020Y-107135579D01*
X147599563Y-107241203D01*
X147579256Y-107308146D01*
X147525925Y-107264379D01*
X147432748Y-107214574D01*
X147331644Y-107183905D01*
X147226500Y-107173549D01*
X147066690Y-107173549D01*
X148298788Y-105941451D01*
X149328000Y-105941451D01*
X149386810Y-105935659D01*
X149443360Y-105918504D01*
X149495477Y-105890647D01*
X149541158Y-105853158D01*
X149578647Y-105807477D01*
X149606504Y-105755360D01*
X149623659Y-105698810D01*
X149629451Y-105640000D01*
X149629451Y-102640000D01*
X149623659Y-102581190D01*
X149606504Y-102524640D01*
X149578647Y-102472523D01*
X149541158Y-102426842D01*
X149495477Y-102389353D01*
X149443360Y-102361496D01*
X149386810Y-102344341D01*
X149328000Y-102338549D01*
X146328000Y-102338549D01*
X146269190Y-102344341D01*
X146212640Y-102361496D01*
X146160523Y-102389353D01*
X146114842Y-102426842D01*
X146077353Y-102472523D01*
X146049496Y-102524640D01*
X146032341Y-102581190D01*
X146026549Y-102640000D01*
X146026549Y-103829628D01*
X141324827Y-108531351D01*
X141265682Y-108579890D01*
X141181009Y-108683065D01*
X141071987Y-108815908D01*
X140965826Y-109014523D01*
X140928059Y-109085180D01*
X140839428Y-109377356D01*
X140817000Y-109605071D01*
X140817000Y-109605080D01*
X140809502Y-109681208D01*
X140660000Y-109681208D01*
X140660000Y-101471961D01*
X141067000Y-101471961D01*
X141067000Y-101728039D01*
X141116958Y-101979196D01*
X141214955Y-102215781D01*
X141357224Y-102428702D01*
X141538298Y-102609776D01*
X141751219Y-102752045D01*
X141987804Y-102850042D01*
X142238961Y-102900000D01*
X142495039Y-102900000D01*
X142746196Y-102850042D01*
X142982781Y-102752045D01*
X143195702Y-102609776D01*
X143376776Y-102428702D01*
X143519045Y-102215781D01*
X143617042Y-101979196D01*
X143667000Y-101728039D01*
X143667000Y-101471961D01*
X143617042Y-101220804D01*
X143519045Y-100984219D01*
X143376776Y-100771298D01*
X143195702Y-100590224D01*
X142982781Y-100447955D01*
X142746196Y-100349958D01*
X142495039Y-100300000D01*
X142238961Y-100300000D01*
X141987804Y-100349958D01*
X141751219Y-100447955D01*
X141538298Y-100590224D01*
X141357224Y-100771298D01*
X141214955Y-100984219D01*
X141116958Y-101220804D01*
X141067000Y-101471961D01*
X140660000Y-101471961D01*
X140660000Y-98115000D01*
X166045000Y-98115000D01*
X166045001Y-159187000D01*
X166045001Y-159187000D01*
G37*
X166045001Y-159187000D02*
X140660000Y-159187000D01*
X140660000Y-155637461D01*
X141067000Y-155637461D01*
X141067000Y-155893539D01*
X141116958Y-156144696D01*
X141214955Y-156381281D01*
X141357224Y-156594202D01*
X141538298Y-156775276D01*
X141751219Y-156917545D01*
X141987804Y-157015542D01*
X142238961Y-157065500D01*
X142495039Y-157065500D01*
X142746196Y-157015542D01*
X142982781Y-156917545D01*
X143195702Y-156775276D01*
X143376776Y-156594202D01*
X143519045Y-156381281D01*
X143617042Y-156144696D01*
X143667000Y-155893539D01*
X143667000Y-155637461D01*
X143617042Y-155386304D01*
X143519045Y-155149719D01*
X143376776Y-154936798D01*
X143195702Y-154755724D01*
X142982781Y-154613455D01*
X142746196Y-154515458D01*
X142495039Y-154465500D01*
X142238961Y-154465500D01*
X141987804Y-154515458D01*
X141751219Y-154613455D01*
X141538298Y-154755724D01*
X141357224Y-154936798D01*
X141214955Y-155149719D01*
X141116958Y-155386304D01*
X141067000Y-155637461D01*
X140660000Y-155637461D01*
X140660000Y-153314164D01*
X152179125Y-153314164D01*
X152375237Y-153649589D01*
X152798897Y-153862908D01*
X153256034Y-153989477D01*
X153729079Y-154024430D01*
X154199854Y-153966424D01*
X154650266Y-153817691D01*
X154964763Y-153649589D01*
X155160875Y-153314164D01*
X153670000Y-151823289D01*
X152179125Y-153314164D01*
X140660000Y-153314164D01*
X140660000Y-151453402D01*
X141718000Y-151453402D01*
X141718000Y-151662598D01*
X141758812Y-151867774D01*
X141838867Y-152061046D01*
X141955090Y-152234986D01*
X142103014Y-152382910D01*
X142276954Y-152499133D01*
X142470226Y-152579188D01*
X142675402Y-152620000D01*
X142884598Y-152620000D01*
X143089774Y-152579188D01*
X143283046Y-152499133D01*
X143456986Y-152382910D01*
X143604910Y-152234986D01*
X143721133Y-152061046D01*
X143780000Y-151918927D01*
X143838867Y-152061046D01*
X143955090Y-152234986D01*
X144103014Y-152382910D01*
X144276954Y-152499133D01*
X144470226Y-152579188D01*
X144675402Y-152620000D01*
X144884598Y-152620000D01*
X145089774Y-152579188D01*
X145283046Y-152499133D01*
X145456986Y-152382910D01*
X145604910Y-152234986D01*
X145721133Y-152061046D01*
X145780000Y-151918927D01*
X145838867Y-152061046D01*
X145955090Y-152234986D01*
X146103014Y-152382910D01*
X146276954Y-152499133D01*
X146470226Y-152579188D01*
X146675402Y-152620000D01*
X146884598Y-152620000D01*
X147089774Y-152579188D01*
X147283046Y-152499133D01*
X147456986Y-152382910D01*
X147604910Y-152234986D01*
X147721133Y-152061046D01*
X147801188Y-151867774D01*
X147841605Y-151664579D01*
X151251070Y-151664579D01*
X151309076Y-152135354D01*
X151457809Y-152585766D01*
X151625911Y-152900263D01*
X151961336Y-153096375D01*
X153452211Y-151605500D01*
X153887789Y-151605500D01*
X155378664Y-153096375D01*
X155714089Y-152900263D01*
X155927408Y-152476603D01*
X156053977Y-152019466D01*
X156088930Y-151546421D01*
X156030924Y-151075646D01*
X155882191Y-150625234D01*
X155714089Y-150310737D01*
X155378664Y-150114625D01*
X153887789Y-151605500D01*
X153452211Y-151605500D01*
X151961336Y-150114625D01*
X151625911Y-150310737D01*
X151412592Y-150734397D01*
X151286023Y-151191534D01*
X151251070Y-151664579D01*
X147841605Y-151664579D01*
X147842000Y-151662598D01*
X147842000Y-151453402D01*
X147801188Y-151248226D01*
X147721133Y-151054954D01*
X147604910Y-150881014D01*
X147456986Y-150733090D01*
X147283046Y-150616867D01*
X147089774Y-150536812D01*
X146884598Y-150496000D01*
X146675402Y-150496000D01*
X146470226Y-150536812D01*
X146276954Y-150616867D01*
X146103014Y-150733090D01*
X145955090Y-150881014D01*
X145838867Y-151054954D01*
X145780000Y-151197073D01*
X145721133Y-151054954D01*
X145604910Y-150881014D01*
X145456986Y-150733090D01*
X145283046Y-150616867D01*
X145089774Y-150536812D01*
X144884598Y-150496000D01*
X144675402Y-150496000D01*
X144470226Y-150536812D01*
X144276954Y-150616867D01*
X144103014Y-150733090D01*
X143955090Y-150881014D01*
X143838867Y-151054954D01*
X143780000Y-151197073D01*
X143721133Y-151054954D01*
X143604910Y-150881014D01*
X143456986Y-150733090D01*
X143283046Y-150616867D01*
X143089774Y-150536812D01*
X142884598Y-150496000D01*
X142675402Y-150496000D01*
X142470226Y-150536812D01*
X142276954Y-150616867D01*
X142103014Y-150733090D01*
X141955090Y-150881014D01*
X141838867Y-151054954D01*
X141758812Y-151248226D01*
X141718000Y-151453402D01*
X140660000Y-151453402D01*
X140660000Y-149896836D01*
X152179125Y-149896836D01*
X153670000Y-151387711D01*
X155160875Y-149896836D01*
X154964763Y-149561411D01*
X154541103Y-149348092D01*
X154083966Y-149221523D01*
X153610921Y-149186570D01*
X153140146Y-149244576D01*
X152689734Y-149393309D01*
X152375237Y-149561411D01*
X152179125Y-149896836D01*
X140660000Y-149896836D01*
X140660000Y-148398668D01*
X156270000Y-148398668D01*
X156270000Y-148812332D01*
X156350702Y-149218047D01*
X156509004Y-149600223D01*
X156738823Y-149944172D01*
X157031328Y-150236677D01*
X157375277Y-150466496D01*
X157757453Y-150624798D01*
X158163168Y-150705500D01*
X158576832Y-150705500D01*
X158982547Y-150624798D01*
X159364723Y-150466496D01*
X159708672Y-150236677D01*
X160001177Y-149944172D01*
X160230996Y-149600223D01*
X160389298Y-149218047D01*
X160470000Y-148812332D01*
X160470000Y-148398668D01*
X160389298Y-147992953D01*
X160230996Y-147610777D01*
X160001177Y-147266828D01*
X159708672Y-146974323D01*
X159364723Y-146744504D01*
X158982547Y-146586202D01*
X158576832Y-146505500D01*
X158163168Y-146505500D01*
X157757453Y-146586202D01*
X157375277Y-146744504D01*
X157031328Y-146974323D01*
X156738823Y-147266828D01*
X156509004Y-147610777D01*
X156350702Y-147992953D01*
X156270000Y-148398668D01*
X140660000Y-148398668D01*
X140660000Y-109681208D01*
X140809502Y-109681208D01*
X140817000Y-109757336D01*
X140817001Y-120954862D01*
X140809502Y-121031000D01*
X140817001Y-121107138D01*
X140839429Y-121334853D01*
X140851920Y-121376031D01*
X140928059Y-121627028D01*
X141071987Y-121896300D01*
X141199921Y-122052187D01*
X141265683Y-122132318D01*
X141324822Y-122180852D01*
X142404000Y-123260030D01*
X142403999Y-125870138D01*
X142404000Y-125870148D01*
X142403999Y-134157871D01*
X142396501Y-134233999D01*
X142403999Y-134310127D01*
X142403999Y-134310136D01*
X142426427Y-134537851D01*
X142515058Y-134830027D01*
X142658986Y-135099299D01*
X142744832Y-135203902D01*
X142852681Y-135335317D01*
X142911826Y-135383856D01*
X145228147Y-137700178D01*
X145276682Y-137759318D01*
X145512700Y-137953013D01*
X145781971Y-138096941D01*
X146074147Y-138185572D01*
X146301862Y-138208000D01*
X146301871Y-138208000D01*
X146377999Y-138215498D01*
X146454127Y-138208000D01*
X148607321Y-138208000D01*
X148599496Y-138222640D01*
X148582341Y-138279190D01*
X148576549Y-138338000D01*
X148576549Y-139298410D01*
X142494239Y-145380721D01*
X142478027Y-145394026D01*
X142424917Y-145458740D01*
X142405777Y-145494549D01*
X142018000Y-145494549D01*
X141959190Y-145500341D01*
X141902640Y-145517496D01*
X141850523Y-145545353D01*
X141804842Y-145582842D01*
X141767353Y-145628523D01*
X141739496Y-145680640D01*
X141722341Y-145737190D01*
X141716549Y-145796000D01*
X141716549Y-147320000D01*
X141722341Y-147378810D01*
X141739496Y-147435360D01*
X141767353Y-147487477D01*
X141804842Y-147533158D01*
X141850523Y-147570647D01*
X141902640Y-147598504D01*
X141959190Y-147615659D01*
X142018000Y-147621451D01*
X143542000Y-147621451D01*
X143600810Y-147615659D01*
X143657360Y-147598504D01*
X143709477Y-147570647D01*
X143755158Y-147533158D01*
X143792647Y-147487477D01*
X143820504Y-147435360D01*
X143837659Y-147378810D01*
X143843451Y-147320000D01*
X143843451Y-147067906D01*
X143955090Y-147234986D01*
X144103014Y-147382910D01*
X144276954Y-147499133D01*
X144470226Y-147579188D01*
X144675402Y-147620000D01*
X144884598Y-147620000D01*
X145089774Y-147579188D01*
X145218271Y-147525963D01*
X146029825Y-147525963D01*
X146100505Y-147755244D01*
X146347132Y-147864803D01*
X146610394Y-147924141D01*
X146880174Y-147930979D01*
X147146105Y-147885055D01*
X147397966Y-147788132D01*
X147459495Y-147755244D01*
X147530175Y-147525963D01*
X146780000Y-146775789D01*
X146029825Y-147525963D01*
X145218271Y-147525963D01*
X145283046Y-147499133D01*
X145456986Y-147382910D01*
X145597772Y-147242124D01*
X145812037Y-147308175D01*
X146562211Y-146558000D01*
X146997789Y-146558000D01*
X147747963Y-147308175D01*
X147977244Y-147237495D01*
X148086803Y-146990868D01*
X148146141Y-146727606D01*
X148152979Y-146457826D01*
X148107055Y-146191895D01*
X148010132Y-145940034D01*
X147977244Y-145878505D01*
X147747963Y-145807825D01*
X146997789Y-146558000D01*
X146562211Y-146558000D01*
X145812037Y-145807825D01*
X145597772Y-145873876D01*
X145456986Y-145733090D01*
X145283046Y-145616867D01*
X145218273Y-145590037D01*
X146029825Y-145590037D01*
X146780000Y-146340211D01*
X147530175Y-145590037D01*
X147459495Y-145360756D01*
X147212868Y-145251197D01*
X146949606Y-145191859D01*
X146679826Y-145185021D01*
X146413895Y-145230945D01*
X146162034Y-145327868D01*
X146100505Y-145360756D01*
X146029825Y-145590037D01*
X145218273Y-145590037D01*
X145211807Y-145587359D01*
X145226224Y-145577726D01*
X145323726Y-145480224D01*
X145400332Y-145365574D01*
X145453099Y-145238182D01*
X145480000Y-145102944D01*
X145480000Y-144965056D01*
X145453099Y-144829818D01*
X145400332Y-144702426D01*
X145323726Y-144587776D01*
X145226224Y-144490274D01*
X145111574Y-144413668D01*
X144984182Y-144360901D01*
X144848944Y-144334000D01*
X144743040Y-144334000D01*
X148631175Y-140445866D01*
X148627353Y-140450523D01*
X148599496Y-140502640D01*
X148582341Y-140559190D01*
X148576549Y-140618000D01*
X148576549Y-141818000D01*
X148582341Y-141876810D01*
X148599496Y-141933360D01*
X148627353Y-141985477D01*
X148664842Y-142031158D01*
X148710523Y-142068647D01*
X148762640Y-142096504D01*
X148819190Y-142113659D01*
X148878000Y-142119451D01*
X149170265Y-142119451D01*
X149160000Y-142171056D01*
X149160000Y-142308944D01*
X149186901Y-142444182D01*
X149239668Y-142571574D01*
X149316274Y-142686224D01*
X149413776Y-142783726D01*
X149528426Y-142860332D01*
X149655818Y-142913099D01*
X149791056Y-142940000D01*
X149928944Y-142940000D01*
X150064182Y-142913099D01*
X150191574Y-142860332D01*
X150306224Y-142783726D01*
X150403726Y-142686224D01*
X150480332Y-142571574D01*
X150533099Y-142444182D01*
X150560000Y-142308944D01*
X150560000Y-142171056D01*
X150549735Y-142119451D01*
X151078000Y-142119451D01*
X151136810Y-142113659D01*
X151193360Y-142096504D01*
X151245477Y-142068647D01*
X151291158Y-142031158D01*
X151328647Y-141985477D01*
X151356504Y-141933360D01*
X151373659Y-141876810D01*
X151379451Y-141818000D01*
X151379451Y-140618000D01*
X151373659Y-140559190D01*
X151356504Y-140502640D01*
X151328647Y-140450523D01*
X151291158Y-140404842D01*
X151245477Y-140367353D01*
X151193360Y-140339496D01*
X151136810Y-140322341D01*
X151078000Y-140316549D01*
X148878000Y-140316549D01*
X148819190Y-140322341D01*
X148762640Y-140339496D01*
X148710523Y-140367353D01*
X148705866Y-140371175D01*
X149237590Y-139839451D01*
X150813583Y-139839451D01*
X150870438Y-139856698D01*
X150939500Y-139863500D01*
X151538000Y-139863500D01*
X151538000Y-143827500D01*
X151544802Y-143896562D01*
X151564947Y-143962970D01*
X151568549Y-143969709D01*
X151568549Y-147405500D01*
X151574341Y-147464310D01*
X151591496Y-147520860D01*
X151619353Y-147572977D01*
X151656842Y-147618658D01*
X151702523Y-147656147D01*
X151754640Y-147684004D01*
X151811190Y-147701159D01*
X151870000Y-147706951D01*
X155470000Y-147706951D01*
X155528810Y-147701159D01*
X155585360Y-147684004D01*
X155637477Y-147656147D01*
X155683158Y-147618658D01*
X155720647Y-147572977D01*
X155748504Y-147520860D01*
X155765659Y-147464310D01*
X155771451Y-147405500D01*
X155771451Y-144060256D01*
X159608814Y-142111119D01*
X159645172Y-142089840D01*
X159698816Y-142045816D01*
X159742840Y-141992172D01*
X159775553Y-141930970D01*
X159795698Y-141864562D01*
X159802500Y-141795500D01*
X159802500Y-136080500D01*
X159795698Y-136011438D01*
X159775553Y-135945030D01*
X159742840Y-135883828D01*
X159698816Y-135830184D01*
X159645172Y-135786160D01*
X159583970Y-135753447D01*
X159517562Y-135733302D01*
X159448500Y-135726500D01*
X153098500Y-135726500D01*
X153019550Y-135735416D01*
X152953745Y-135757449D01*
X152893502Y-135791897D01*
X152841137Y-135837435D01*
X151304413Y-137464554D01*
X151319049Y-137437172D01*
X151328647Y-137425477D01*
X151356504Y-137373360D01*
X151360896Y-137358882D01*
X151416941Y-137254029D01*
X151505572Y-136961853D01*
X151535499Y-136658000D01*
X151505572Y-136354147D01*
X151416941Y-136061971D01*
X151360896Y-135957118D01*
X151356504Y-135942640D01*
X151328647Y-135890523D01*
X151319049Y-135878828D01*
X151273013Y-135792700D01*
X151079318Y-135556682D01*
X150988318Y-135482000D01*
X159258000Y-135482000D01*
X159277509Y-135480079D01*
X159296268Y-135474388D01*
X159313557Y-135465147D01*
X159328711Y-135452711D01*
X159341147Y-135437557D01*
X159350388Y-135420268D01*
X159356079Y-135401509D01*
X159358000Y-135382000D01*
X159358000Y-129616924D01*
X159472406Y-129651922D01*
X159587000Y-129661000D01*
X159739000Y-129509000D01*
X159739000Y-128232000D01*
X160047000Y-128232000D01*
X160047000Y-129509000D01*
X160199000Y-129661000D01*
X160313594Y-129651922D01*
X160428121Y-129616887D01*
X160533612Y-129560182D01*
X160626013Y-129483987D01*
X160701774Y-129391229D01*
X160757984Y-129285473D01*
X160758454Y-129283910D01*
X162041097Y-129283910D01*
X162067854Y-129372139D01*
X162185527Y-129632611D01*
X162351754Y-129865122D01*
X162560148Y-130060736D01*
X162802700Y-130211935D01*
X163070089Y-130312909D01*
X163295000Y-130202850D01*
X163295000Y-129059000D01*
X163603000Y-129059000D01*
X163603000Y-130202850D01*
X163827911Y-130312909D01*
X164095300Y-130211935D01*
X164337852Y-130060736D01*
X164546246Y-129865122D01*
X164712473Y-129632611D01*
X164830146Y-129372139D01*
X164856903Y-129283910D01*
X164745889Y-129059000D01*
X163603000Y-129059000D01*
X163295000Y-129059000D01*
X162152111Y-129059000D01*
X162041097Y-129283910D01*
X160758454Y-129283910D01*
X160792481Y-129170783D01*
X160803940Y-129051567D01*
X160801000Y-128384000D01*
X160649000Y-128232000D01*
X160047000Y-128232000D01*
X159739000Y-128232000D01*
X159719000Y-128232000D01*
X159719000Y-127924000D01*
X159739000Y-127924000D01*
X159739000Y-126647000D01*
X160047000Y-126647000D01*
X160047000Y-127924000D01*
X160649000Y-127924000D01*
X160801000Y-127772000D01*
X160803940Y-127104433D01*
X160792481Y-126985217D01*
X160757984Y-126870527D01*
X160701774Y-126764771D01*
X160626013Y-126672013D01*
X160533612Y-126595818D01*
X160428121Y-126539113D01*
X160313594Y-126504078D01*
X160199000Y-126495000D01*
X160047000Y-126647000D01*
X159739000Y-126647000D01*
X159587000Y-126495000D01*
X159472406Y-126504078D01*
X159357879Y-126539113D01*
X159252388Y-126595818D01*
X159159987Y-126672013D01*
X159084226Y-126764771D01*
X159028016Y-126870527D01*
X159025470Y-126878992D01*
X159023813Y-126877632D01*
X158945763Y-126835914D01*
X158861074Y-126810224D01*
X158773000Y-126801549D01*
X158473000Y-126801549D01*
X158453001Y-126803519D01*
X158453001Y-125941001D01*
X161737132Y-125941001D01*
X161757999Y-125943056D01*
X161778866Y-125941001D01*
X161778873Y-125941001D01*
X161841313Y-125934851D01*
X161921426Y-125910549D01*
X161995259Y-125871085D01*
X162059973Y-125817975D01*
X162073283Y-125801757D01*
X162990919Y-124884121D01*
X163006785Y-124892602D01*
X163223561Y-124958360D01*
X163392508Y-124975000D01*
X163505492Y-124975000D01*
X163674439Y-124958360D01*
X163891215Y-124892602D01*
X164090997Y-124785816D01*
X164149001Y-124738213D01*
X164149001Y-125063958D01*
X163907081Y-125305878D01*
X163891215Y-125297398D01*
X163674439Y-125231640D01*
X163505492Y-125215000D01*
X163392508Y-125215000D01*
X163223561Y-125231640D01*
X163006785Y-125297398D01*
X162807003Y-125404184D01*
X162631893Y-125547893D01*
X162488184Y-125723003D01*
X162381398Y-125922785D01*
X162315640Y-126139561D01*
X162293436Y-126365000D01*
X162315640Y-126590439D01*
X162381398Y-126807215D01*
X162488184Y-127006997D01*
X162631893Y-127182107D01*
X162807003Y-127325816D01*
X163006785Y-127432602D01*
X163223561Y-127498360D01*
X163294998Y-127505396D01*
X163294998Y-127607149D01*
X163070089Y-127497091D01*
X162802700Y-127598065D01*
X162560148Y-127749264D01*
X162351754Y-127944878D01*
X162185527Y-128177389D01*
X162067854Y-128437861D01*
X162041097Y-128526090D01*
X162152111Y-128751000D01*
X163295000Y-128751000D01*
X163295000Y-128731000D01*
X163603000Y-128731000D01*
X163603000Y-128751000D01*
X164745889Y-128751000D01*
X164856903Y-128526090D01*
X164830146Y-128437861D01*
X164712473Y-128177389D01*
X164546246Y-127944878D01*
X164337852Y-127749264D01*
X164095300Y-127598065D01*
X163827911Y-127497091D01*
X163603002Y-127607149D01*
X163603002Y-127505396D01*
X163674439Y-127498360D01*
X163891215Y-127432602D01*
X164090997Y-127325816D01*
X164266107Y-127182107D01*
X164409816Y-127006997D01*
X164516602Y-126807215D01*
X164582360Y-126590439D01*
X164604564Y-126365000D01*
X164582360Y-126139561D01*
X164516602Y-125922785D01*
X164508122Y-125906919D01*
X164859764Y-125555277D01*
X164875975Y-125541973D01*
X164929085Y-125477259D01*
X164968549Y-125403426D01*
X164992851Y-125323313D01*
X164999001Y-125260873D01*
X164999001Y-125260866D01*
X165001056Y-125239999D01*
X164999001Y-125219132D01*
X164999001Y-115155865D01*
X165001056Y-115134998D01*
X164999001Y-115114131D01*
X164999001Y-115114125D01*
X164993577Y-115059055D01*
X164992851Y-115051684D01*
X164982799Y-115018548D01*
X164968549Y-114971572D01*
X164929085Y-114897739D01*
X164875975Y-114833025D01*
X164859763Y-114819720D01*
X164207493Y-114167451D01*
X164376000Y-114167451D01*
X164434810Y-114161659D01*
X164491360Y-114144504D01*
X164543477Y-114116647D01*
X164589158Y-114079158D01*
X164626647Y-114033477D01*
X164654504Y-113981360D01*
X164671659Y-113924810D01*
X164677451Y-113866000D01*
X164677451Y-111686000D01*
X164671659Y-111627190D01*
X164654504Y-111570640D01*
X164626647Y-111518523D01*
X164589158Y-111472842D01*
X164543477Y-111435353D01*
X164491360Y-111407496D01*
X164434810Y-111390341D01*
X164376000Y-111384549D01*
X164001000Y-111384549D01*
X164001000Y-109431367D01*
X164003055Y-109410500D01*
X164001000Y-109389633D01*
X164001000Y-109389626D01*
X163994850Y-109327186D01*
X163975360Y-109262935D01*
X163970548Y-109247072D01*
X163956077Y-109220000D01*
X163931084Y-109173240D01*
X163877974Y-109108526D01*
X163861762Y-109095221D01*
X161477020Y-106710480D01*
X161482000Y-106685444D01*
X161482000Y-106547556D01*
X161455099Y-106412318D01*
X161402332Y-106284926D01*
X161325726Y-106170276D01*
X161228224Y-106072774D01*
X161113574Y-105996168D01*
X160986182Y-105943401D01*
X160850944Y-105916500D01*
X160713056Y-105916500D01*
X160577818Y-105943401D01*
X160450426Y-105996168D01*
X160335776Y-106072774D01*
X160238274Y-106170276D01*
X160161668Y-106284926D01*
X160108901Y-106412318D01*
X160082000Y-106547556D01*
X160082000Y-106685444D01*
X160108901Y-106820682D01*
X160161668Y-106948074D01*
X160238274Y-107062724D01*
X160335776Y-107160226D01*
X160450426Y-107236832D01*
X160577818Y-107289599D01*
X160713056Y-107316500D01*
X160850944Y-107316500D01*
X160875980Y-107311520D01*
X163151001Y-109586542D01*
X163151000Y-111384549D01*
X162776000Y-111384549D01*
X162717190Y-111390341D01*
X162660640Y-111407496D01*
X162608523Y-111435353D01*
X162562842Y-111472842D01*
X162525353Y-111518523D01*
X162497496Y-111570640D01*
X162480341Y-111627190D01*
X162474549Y-111686000D01*
X162474549Y-112160737D01*
X162435980Y-112088579D01*
X162360001Y-111995999D01*
X162267421Y-111920020D01*
X162161797Y-111863563D01*
X162047189Y-111828797D01*
X161928000Y-111817058D01*
X161709000Y-111820000D01*
X161557000Y-111972000D01*
X161557000Y-112749000D01*
X161577000Y-112749000D01*
X161577000Y-113057000D01*
X161557000Y-113057000D01*
X161557000Y-113077000D01*
X161249000Y-113077000D01*
X161249000Y-113057000D01*
X161229000Y-113057000D01*
X161229000Y-112749000D01*
X161249000Y-112749000D01*
X161249000Y-111972000D01*
X161097000Y-111820000D01*
X160878000Y-111817058D01*
X160758811Y-111828797D01*
X160644203Y-111863563D01*
X160538579Y-111920020D01*
X160445999Y-111995999D01*
X160370020Y-112088579D01*
X160313563Y-112194203D01*
X160293256Y-112261146D01*
X160239925Y-112217379D01*
X160146748Y-112167574D01*
X160045644Y-112136905D01*
X159940500Y-112126549D01*
X159365500Y-112126549D01*
X159260356Y-112136905D01*
X159159252Y-112167574D01*
X159066075Y-112217379D01*
X158984404Y-112284404D01*
X158917379Y-112366075D01*
X158867574Y-112459252D01*
X158836905Y-112560356D01*
X158826549Y-112665500D01*
X158826549Y-113051875D01*
X158817056Y-113044305D01*
X158786251Y-113028391D01*
X158786251Y-112757000D01*
X158780459Y-112698190D01*
X158763304Y-112641640D01*
X158758151Y-112632000D01*
X158763304Y-112622360D01*
X158780459Y-112565810D01*
X158786251Y-112507000D01*
X158786251Y-111957000D01*
X158780459Y-111898190D01*
X158763304Y-111841640D01*
X158758151Y-111832000D01*
X158763304Y-111822360D01*
X158780459Y-111765810D01*
X158786251Y-111707000D01*
X158786251Y-111306999D01*
X160115134Y-111306999D01*
X160136001Y-111309054D01*
X160156868Y-111306999D01*
X160156875Y-111306999D01*
X160219315Y-111300849D01*
X160299428Y-111276547D01*
X160373261Y-111237083D01*
X160437975Y-111183973D01*
X160451284Y-111167756D01*
X160942021Y-110677020D01*
X160967056Y-110682000D01*
X161104944Y-110682000D01*
X161240182Y-110655099D01*
X161367574Y-110602332D01*
X161482224Y-110525726D01*
X161579726Y-110428224D01*
X161656332Y-110313574D01*
X161709099Y-110186182D01*
X161736000Y-110050944D01*
X161736000Y-109913056D01*
X161709099Y-109777818D01*
X161656332Y-109650426D01*
X161579726Y-109535776D01*
X161482224Y-109438274D01*
X161367574Y-109361668D01*
X161240182Y-109308901D01*
X161104944Y-109282000D01*
X160967056Y-109282000D01*
X160831818Y-109308901D01*
X160704426Y-109361668D01*
X160589776Y-109438274D01*
X160492274Y-109535776D01*
X160415668Y-109650426D01*
X160362901Y-109777818D01*
X160336000Y-109913056D01*
X160336000Y-110050944D01*
X160340980Y-110075979D01*
X159959961Y-110456999D01*
X158690964Y-110456999D01*
X158719739Y-110428224D01*
X158796345Y-110313574D01*
X158849112Y-110186182D01*
X158876013Y-110050944D01*
X158876013Y-109913056D01*
X158849112Y-109777818D01*
X158796345Y-109650426D01*
X158719739Y-109535776D01*
X158622237Y-109438274D01*
X158601013Y-109424093D01*
X158601013Y-109365380D01*
X158603068Y-109344513D01*
X158601013Y-109323646D01*
X158601013Y-109323639D01*
X158594863Y-109261199D01*
X158570561Y-109181086D01*
X158531097Y-109107253D01*
X158477987Y-109042539D01*
X158461776Y-109029235D01*
X155067478Y-105634937D01*
X156710852Y-105634937D01*
X156870837Y-105939644D01*
X157243396Y-106123012D01*
X157644570Y-106230174D01*
X158058942Y-106257012D01*
X158470587Y-106202494D01*
X158863687Y-106068716D01*
X159105163Y-105939644D01*
X159265148Y-105634937D01*
X157988000Y-104357789D01*
X156710852Y-105634937D01*
X155067478Y-105634937D01*
X154471905Y-105039365D01*
X154503139Y-104992620D01*
X154638827Y-104665041D01*
X154708000Y-104317284D01*
X154708000Y-104210942D01*
X155870988Y-104210942D01*
X155925506Y-104622587D01*
X156059284Y-105015687D01*
X156188356Y-105257163D01*
X156493063Y-105417148D01*
X157770211Y-104140000D01*
X158205789Y-104140000D01*
X159482937Y-105417148D01*
X159787644Y-105257163D01*
X159971012Y-104884604D01*
X160024063Y-104686000D01*
X162165058Y-104686000D01*
X162176797Y-104805189D01*
X162211563Y-104919797D01*
X162268020Y-105025421D01*
X162343999Y-105118001D01*
X162436579Y-105193980D01*
X162542203Y-105250437D01*
X162656811Y-105285203D01*
X162776000Y-105296942D01*
X163270000Y-105294000D01*
X163422000Y-105142000D01*
X163422000Y-103750000D01*
X163730000Y-103750000D01*
X163730000Y-105142000D01*
X163882000Y-105294000D01*
X164376000Y-105296942D01*
X164495189Y-105285203D01*
X164609797Y-105250437D01*
X164715421Y-105193980D01*
X164808001Y-105118001D01*
X164883980Y-105025421D01*
X164940437Y-104919797D01*
X164975203Y-104805189D01*
X164986942Y-104686000D01*
X164984000Y-103902000D01*
X164832000Y-103750000D01*
X163730000Y-103750000D01*
X163422000Y-103750000D01*
X162320000Y-103750000D01*
X162168000Y-103902000D01*
X162165058Y-104686000D01*
X160024063Y-104686000D01*
X160078174Y-104483430D01*
X160105012Y-104069058D01*
X160050494Y-103657413D01*
X159916716Y-103264313D01*
X159787644Y-103022837D01*
X159482937Y-102862852D01*
X158205789Y-104140000D01*
X157770211Y-104140000D01*
X156493063Y-102862852D01*
X156188356Y-103022837D01*
X156004988Y-103395396D01*
X155897826Y-103796570D01*
X155870988Y-104210942D01*
X154708000Y-104210942D01*
X154708000Y-103962716D01*
X154638827Y-103614959D01*
X154503139Y-103287380D01*
X154306151Y-102992567D01*
X154055433Y-102741849D01*
X153910583Y-102645063D01*
X156710852Y-102645063D01*
X157988000Y-103922211D01*
X159265148Y-102645063D01*
X159192134Y-102506000D01*
X162165058Y-102506000D01*
X162168000Y-103290000D01*
X162320000Y-103442000D01*
X163422000Y-103442000D01*
X163422000Y-102050000D01*
X163730000Y-102050000D01*
X163730000Y-103442000D01*
X164832000Y-103442000D01*
X164984000Y-103290000D01*
X164986942Y-102506000D01*
X164975203Y-102386811D01*
X164940437Y-102272203D01*
X164883980Y-102166579D01*
X164808001Y-102073999D01*
X164715421Y-101998020D01*
X164609797Y-101941563D01*
X164495189Y-101906797D01*
X164376000Y-101895058D01*
X163882000Y-101898000D01*
X163730000Y-102050000D01*
X163422000Y-102050000D01*
X163270000Y-101898000D01*
X162776000Y-101895058D01*
X162656811Y-101906797D01*
X162542203Y-101941563D01*
X162436579Y-101998020D01*
X162343999Y-102073999D01*
X162268020Y-102166579D01*
X162211563Y-102272203D01*
X162176797Y-102386811D01*
X162165058Y-102506000D01*
X159192134Y-102506000D01*
X159105163Y-102340356D01*
X158732604Y-102156988D01*
X158331430Y-102049826D01*
X157917058Y-102022988D01*
X157505413Y-102077506D01*
X157112313Y-102211284D01*
X156870837Y-102340356D01*
X156710852Y-102645063D01*
X153910583Y-102645063D01*
X153760620Y-102544861D01*
X153433041Y-102409173D01*
X153085284Y-102340000D01*
X152730716Y-102340000D01*
X152382959Y-102409173D01*
X152055380Y-102544861D01*
X151760567Y-102741849D01*
X151509849Y-102992567D01*
X151312861Y-103287380D01*
X151177173Y-103614959D01*
X151108000Y-103962716D01*
X151108000Y-104317284D01*
X151177173Y-104665041D01*
X151312861Y-104992620D01*
X151509849Y-105287433D01*
X151760567Y-105538151D01*
X152055380Y-105735139D01*
X152382959Y-105870827D01*
X152730716Y-105940000D01*
X153085284Y-105940000D01*
X153433041Y-105870827D01*
X153760620Y-105735139D01*
X153883496Y-105653036D01*
X157661704Y-109431245D01*
X157557574Y-109361668D01*
X157430182Y-109308901D01*
X157294944Y-109282000D01*
X157157056Y-109282000D01*
X157021818Y-109308901D01*
X156894426Y-109361668D01*
X156811251Y-109417243D01*
X156811251Y-109182000D01*
X156805459Y-109123190D01*
X156788304Y-109066640D01*
X156760447Y-109014523D01*
X156722958Y-108968842D01*
X156677277Y-108931353D01*
X156625160Y-108903496D01*
X156568610Y-108886341D01*
X156509800Y-108880549D01*
X155959800Y-108880549D01*
X155900990Y-108886341D01*
X155844440Y-108903496D01*
X155834800Y-108908649D01*
X155825160Y-108903496D01*
X155768610Y-108886341D01*
X155709800Y-108880549D01*
X155159800Y-108880549D01*
X155100990Y-108886341D01*
X155044440Y-108903496D01*
X155034800Y-108908649D01*
X155025160Y-108903496D01*
X154968610Y-108886341D01*
X154909800Y-108880549D01*
X154359800Y-108880549D01*
X154300990Y-108886341D01*
X154244440Y-108903496D01*
X154234800Y-108908649D01*
X154225160Y-108903496D01*
X154168610Y-108886341D01*
X154109800Y-108880549D01*
X153559800Y-108880549D01*
X153500990Y-108886341D01*
X153459800Y-108898836D01*
X153459800Y-108126240D01*
X153574758Y-108011282D01*
X153590974Y-107997974D01*
X153644084Y-107933260D01*
X153683548Y-107859427D01*
X153702788Y-107796000D01*
X153707850Y-107779315D01*
X153708679Y-107770902D01*
X153714000Y-107716874D01*
X153714000Y-107716868D01*
X153716055Y-107696001D01*
X153714000Y-107675134D01*
X153714000Y-107174407D01*
X153735224Y-107160226D01*
X153832726Y-107062724D01*
X153909332Y-106948074D01*
X153962099Y-106820682D01*
X153989000Y-106685444D01*
X153989000Y-106547556D01*
X153962099Y-106412318D01*
X153909332Y-106284926D01*
X153832726Y-106170276D01*
X153735224Y-106072774D01*
X153620574Y-105996168D01*
X153493182Y-105943401D01*
X153357944Y-105916500D01*
X153220056Y-105916500D01*
X153084818Y-105943401D01*
X152957426Y-105996168D01*
X152842776Y-106072774D01*
X152745274Y-106170276D01*
X152668668Y-106284926D01*
X152615901Y-106412318D01*
X152589000Y-106547556D01*
X152589000Y-106685444D01*
X152615901Y-106820682D01*
X152668668Y-106948074D01*
X152745274Y-107062724D01*
X152842776Y-107160226D01*
X152864000Y-107174408D01*
X152864000Y-107519960D01*
X152749039Y-107634921D01*
X152732827Y-107648226D01*
X152679717Y-107712940D01*
X152644240Y-107779313D01*
X152640253Y-107786773D01*
X152615950Y-107866886D01*
X152607745Y-107950200D01*
X152609801Y-107971077D01*
X152609801Y-108898837D01*
X152568610Y-108886341D01*
X152509800Y-108880549D01*
X152504392Y-108880549D01*
X152059013Y-108435171D01*
X152045704Y-108418954D01*
X151980990Y-108365844D01*
X151907157Y-108326380D01*
X151827044Y-108302078D01*
X151764604Y-108295928D01*
X151764597Y-108295928D01*
X151743730Y-108293873D01*
X151722863Y-108295928D01*
X149822695Y-108295928D01*
X149822000Y-108256000D01*
X149670000Y-108104000D01*
X148843000Y-108104000D01*
X148843000Y-108124000D01*
X148535000Y-108124000D01*
X148535000Y-108104000D01*
X148515000Y-108104000D01*
X148515000Y-107796000D01*
X148535000Y-107796000D01*
X148535000Y-107019000D01*
X148843000Y-107019000D01*
X148843000Y-107796000D01*
X149670000Y-107796000D01*
X149822000Y-107644000D01*
X149824942Y-107475000D01*
X149813203Y-107355811D01*
X149778437Y-107241203D01*
X149721980Y-107135579D01*
X149646001Y-107042999D01*
X149553421Y-106967020D01*
X149447797Y-106910563D01*
X149333189Y-106875797D01*
X149214000Y-106864058D01*
X148995000Y-106867000D01*
X148843000Y-107019000D01*
X148535000Y-107019000D01*
X148383000Y-106867000D01*
X148164000Y-106864058D01*
X148044811Y-106875797D01*
X147930203Y-106910563D01*
X147824579Y-106967020D01*
X147731999Y-107042999D01*
X147656020Y-107135579D01*
X147599563Y-107241203D01*
X147579256Y-107308146D01*
X147525925Y-107264379D01*
X147432748Y-107214574D01*
X147331644Y-107183905D01*
X147226500Y-107173549D01*
X147066690Y-107173549D01*
X148298788Y-105941451D01*
X149328000Y-105941451D01*
X149386810Y-105935659D01*
X149443360Y-105918504D01*
X149495477Y-105890647D01*
X149541158Y-105853158D01*
X149578647Y-105807477D01*
X149606504Y-105755360D01*
X149623659Y-105698810D01*
X149629451Y-105640000D01*
X149629451Y-102640000D01*
X149623659Y-102581190D01*
X149606504Y-102524640D01*
X149578647Y-102472523D01*
X149541158Y-102426842D01*
X149495477Y-102389353D01*
X149443360Y-102361496D01*
X149386810Y-102344341D01*
X149328000Y-102338549D01*
X146328000Y-102338549D01*
X146269190Y-102344341D01*
X146212640Y-102361496D01*
X146160523Y-102389353D01*
X146114842Y-102426842D01*
X146077353Y-102472523D01*
X146049496Y-102524640D01*
X146032341Y-102581190D01*
X146026549Y-102640000D01*
X146026549Y-103829628D01*
X141324827Y-108531351D01*
X141265682Y-108579890D01*
X141181009Y-108683065D01*
X141071987Y-108815908D01*
X140965826Y-109014523D01*
X140928059Y-109085180D01*
X140839428Y-109377356D01*
X140817000Y-109605071D01*
X140817000Y-109605080D01*
X140809502Y-109681208D01*
X140660000Y-109681208D01*
X140660000Y-101471961D01*
X141067000Y-101471961D01*
X141067000Y-101728039D01*
X141116958Y-101979196D01*
X141214955Y-102215781D01*
X141357224Y-102428702D01*
X141538298Y-102609776D01*
X141751219Y-102752045D01*
X141987804Y-102850042D01*
X142238961Y-102900000D01*
X142495039Y-102900000D01*
X142746196Y-102850042D01*
X142982781Y-102752045D01*
X143195702Y-102609776D01*
X143376776Y-102428702D01*
X143519045Y-102215781D01*
X143617042Y-101979196D01*
X143667000Y-101728039D01*
X143667000Y-101471961D01*
X143617042Y-101220804D01*
X143519045Y-100984219D01*
X143376776Y-100771298D01*
X143195702Y-100590224D01*
X142982781Y-100447955D01*
X142746196Y-100349958D01*
X142495039Y-100300000D01*
X142238961Y-100300000D01*
X141987804Y-100349958D01*
X141751219Y-100447955D01*
X141538298Y-100590224D01*
X141357224Y-100771298D01*
X141214955Y-100984219D01*
X141116958Y-101220804D01*
X141067000Y-101471961D01*
X140660000Y-101471961D01*
X140660000Y-98115000D01*
X166045000Y-98115000D01*
X166045001Y-159187000D01*
G36*
X143940426Y-112761332D02*
G01*
X144067818Y-112814099D01*
X144203056Y-112841000D01*
X144340944Y-112841000D01*
X144365980Y-112836020D01*
X144755667Y-113225708D01*
X144721944Y-113219000D01*
X144584056Y-113219000D01*
X144448818Y-113245901D01*
X144321426Y-113298668D01*
X144206776Y-113375274D01*
X144109274Y-113472776D01*
X144032668Y-113587426D01*
X143979901Y-113714818D01*
X143953000Y-113850056D01*
X143953000Y-113987944D01*
X143979901Y-114123182D01*
X144032668Y-114250574D01*
X144109274Y-114365224D01*
X144206776Y-114462726D01*
X144321426Y-114539332D01*
X144448818Y-114592099D01*
X144584056Y-114619000D01*
X144721944Y-114619000D01*
X144857182Y-114592099D01*
X144984574Y-114539332D01*
X145052549Y-114493913D01*
X145052549Y-114824000D01*
X145058341Y-114882810D01*
X145075496Y-114939360D01*
X145103353Y-114991477D01*
X145140842Y-115037158D01*
X145154626Y-115048470D01*
X145131953Y-115054838D01*
X145025182Y-115109094D01*
X144931047Y-115183137D01*
X144853165Y-115274122D01*
X144794531Y-115378553D01*
X144757397Y-115492416D01*
X144746000Y-115572000D01*
X144898000Y-115724000D01*
X146150000Y-115724000D01*
X146150000Y-115650000D01*
X146458000Y-115650000D01*
X146458000Y-115724000D01*
X146478000Y-115724000D01*
X146478000Y-115924000D01*
X146458000Y-115924000D01*
X146458000Y-115998000D01*
X146150000Y-115998000D01*
X146150000Y-115924000D01*
X144898000Y-115924000D01*
X144746000Y-116076000D01*
X144757397Y-116155584D01*
X144794531Y-116269447D01*
X144853165Y-116373878D01*
X144931047Y-116464863D01*
X145025182Y-116538906D01*
X145131953Y-116593162D01*
X145154626Y-116599530D01*
X145140842Y-116610842D01*
X145103353Y-116656523D01*
X145075496Y-116708640D01*
X145058341Y-116765190D01*
X145052549Y-116824000D01*
X145052549Y-117224000D01*
X145058341Y-117282810D01*
X145075496Y-117339360D01*
X145103353Y-117391477D01*
X145140842Y-117437158D01*
X145186523Y-117474647D01*
X145238640Y-117502504D01*
X145295190Y-117519659D01*
X145354000Y-117525451D01*
X147254000Y-117525451D01*
X147312810Y-117519659D01*
X147369360Y-117502504D01*
X147421477Y-117474647D01*
X147452728Y-117449000D01*
X148120535Y-117449000D01*
X148134153Y-117474477D01*
X148171642Y-117520158D01*
X148217323Y-117557647D01*
X148269440Y-117585504D01*
X148325990Y-117602659D01*
X148384800Y-117608451D01*
X148665953Y-117608451D01*
X148491918Y-117724737D01*
X148331737Y-117884918D01*
X148205884Y-118073271D01*
X148119194Y-118282557D01*
X148075000Y-118504735D01*
X148075000Y-118731265D01*
X148119194Y-118953443D01*
X148205884Y-119162729D01*
X148331737Y-119351082D01*
X148491918Y-119511263D01*
X148680271Y-119637116D01*
X148889557Y-119723806D01*
X149111735Y-119768000D01*
X149338265Y-119768000D01*
X149560443Y-119723806D01*
X149590369Y-119711410D01*
X149798721Y-119919762D01*
X149812026Y-119935974D01*
X149876740Y-119989084D01*
X149950573Y-120028548D01*
X150006383Y-120045478D01*
X150030685Y-120052850D01*
X150038327Y-120053603D01*
X150093126Y-120059000D01*
X150093133Y-120059000D01*
X150114000Y-120061055D01*
X150134867Y-120059000D01*
X152289053Y-120059000D01*
X152252063Y-120128203D01*
X152217297Y-120242811D01*
X152205558Y-120362000D01*
X152208500Y-121106000D01*
X152360500Y-121258000D01*
X153212500Y-121258000D01*
X153212500Y-121238000D01*
X153520500Y-121238000D01*
X153520500Y-121258000D01*
X153540500Y-121258000D01*
X153540500Y-121566000D01*
X153520500Y-121566000D01*
X153520500Y-122918000D01*
X153672500Y-123070000D01*
X153916500Y-123072942D01*
X154035689Y-123061203D01*
X154150297Y-123026437D01*
X154255921Y-122969980D01*
X154348501Y-122894001D01*
X154424480Y-122801421D01*
X154480937Y-122695797D01*
X154515703Y-122581189D01*
X154527442Y-122462000D01*
X154524593Y-121741489D01*
X154553404Y-121776596D01*
X154635075Y-121843621D01*
X154728252Y-121893426D01*
X154769001Y-121905787D01*
X154769000Y-127168133D01*
X154766945Y-127189000D01*
X154769000Y-127209867D01*
X154769000Y-127209873D01*
X154775150Y-127272313D01*
X154799452Y-127352426D01*
X154838916Y-127426259D01*
X154892026Y-127490974D01*
X154908243Y-127504283D01*
X155481549Y-128077590D01*
X155481549Y-128903000D01*
X155490224Y-128991074D01*
X155515914Y-129075763D01*
X155557632Y-129153813D01*
X155584047Y-129186000D01*
X146558000Y-129186000D01*
X146538491Y-129187921D01*
X146519732Y-129193612D01*
X146502443Y-129202853D01*
X146487289Y-129215289D01*
X146474853Y-129230443D01*
X146465612Y-129247732D01*
X146459921Y-129266491D01*
X146458000Y-129286000D01*
X146458000Y-134545969D01*
X145503999Y-133591969D01*
X145503999Y-126562000D01*
X149015049Y-126562000D01*
X149015049Y-128662000D01*
X149020841Y-128720810D01*
X149037996Y-128777360D01*
X149065853Y-128829477D01*
X149103342Y-128875158D01*
X149149023Y-128912647D01*
X149201140Y-128940504D01*
X149257690Y-128957659D01*
X149316500Y-128963451D01*
X152816500Y-128963451D01*
X152875310Y-128957659D01*
X152931860Y-128940504D01*
X152983977Y-128912647D01*
X153029658Y-128875158D01*
X153067147Y-128829477D01*
X153095004Y-128777360D01*
X153112159Y-128720810D01*
X153117951Y-128662000D01*
X153117951Y-126562000D01*
X153112159Y-126503190D01*
X153095004Y-126446640D01*
X153067147Y-126394523D01*
X153029658Y-126348842D01*
X152983977Y-126311353D01*
X152931860Y-126283496D01*
X152875310Y-126266341D01*
X152816500Y-126260549D01*
X151491500Y-126260549D01*
X151491500Y-123790336D01*
X151576224Y-123733726D01*
X151673726Y-123636224D01*
X151750332Y-123521574D01*
X151803099Y-123394182D01*
X151830000Y-123258944D01*
X151830000Y-123121056D01*
X151803099Y-122985818D01*
X151750332Y-122858426D01*
X151681706Y-122755719D01*
X151731860Y-122740504D01*
X151783977Y-122712647D01*
X151829658Y-122675158D01*
X151867147Y-122629477D01*
X151895004Y-122577360D01*
X151912159Y-122520810D01*
X151917951Y-122462000D01*
X152205558Y-122462000D01*
X152217297Y-122581189D01*
X152252063Y-122695797D01*
X152308520Y-122801421D01*
X152384499Y-122894001D01*
X152477079Y-122969980D01*
X152582703Y-123026437D01*
X152697311Y-123061203D01*
X152816500Y-123072942D01*
X153060500Y-123070000D01*
X153212500Y-122918000D01*
X153212500Y-121566000D01*
X152360500Y-121566000D01*
X152208500Y-121718000D01*
X152205558Y-122462000D01*
X151917951Y-122462000D01*
X151917951Y-120362000D01*
X151912159Y-120303190D01*
X151895004Y-120246640D01*
X151867147Y-120194523D01*
X151829658Y-120148842D01*
X151783977Y-120111353D01*
X151731860Y-120083496D01*
X151675310Y-120066341D01*
X151616500Y-120060549D01*
X150516500Y-120060549D01*
X150457690Y-120066341D01*
X150401140Y-120083496D01*
X150349023Y-120111353D01*
X150303342Y-120148842D01*
X150265853Y-120194523D01*
X150237996Y-120246640D01*
X150220841Y-120303190D01*
X150215049Y-120362000D01*
X150215049Y-122462000D01*
X150220841Y-122520810D01*
X150237996Y-122577360D01*
X150265853Y-122629477D01*
X150303342Y-122675158D01*
X150349023Y-122712647D01*
X150401140Y-122740504D01*
X150457690Y-122757659D01*
X150516500Y-122763451D01*
X150573128Y-122763451D01*
X150509668Y-122858426D01*
X150456901Y-122985818D01*
X150430000Y-123121056D01*
X150430000Y-123258944D01*
X150456901Y-123394182D01*
X150509668Y-123521574D01*
X150586274Y-123636224D01*
X150641501Y-123691451D01*
X150641500Y-126260549D01*
X149316500Y-126260549D01*
X149257690Y-126266341D01*
X149201140Y-126283496D01*
X149149023Y-126311353D01*
X149103342Y-126348842D01*
X149065853Y-126394523D01*
X149037996Y-126446640D01*
X149020841Y-126503190D01*
X149015049Y-126562000D01*
X145503999Y-126562000D01*
X145503999Y-123092999D01*
X147487669Y-123092999D01*
X147511001Y-123095297D01*
X147534333Y-123092999D01*
X147604117Y-123086126D01*
X147693655Y-123058965D01*
X147776174Y-123014858D01*
X147848502Y-122955500D01*
X147863385Y-122937366D01*
X148074491Y-122726260D01*
X148101140Y-122740504D01*
X148157690Y-122757659D01*
X148216500Y-122763451D01*
X149316500Y-122763451D01*
X149375310Y-122757659D01*
X149431860Y-122740504D01*
X149483977Y-122712647D01*
X149529658Y-122675158D01*
X149567147Y-122629477D01*
X149595004Y-122577360D01*
X149612159Y-122520810D01*
X149617951Y-122462000D01*
X149617951Y-120362000D01*
X149612159Y-120303190D01*
X149595004Y-120246640D01*
X149567147Y-120194523D01*
X149529658Y-120148842D01*
X149483977Y-120111353D01*
X149431860Y-120083496D01*
X149375310Y-120066341D01*
X149316500Y-120060549D01*
X148216500Y-120060549D01*
X148157690Y-120066341D01*
X148101140Y-120083496D01*
X148049023Y-120111353D01*
X148003342Y-120148842D01*
X147965853Y-120194523D01*
X147937996Y-120246640D01*
X147920841Y-120303190D01*
X147915049Y-120362000D01*
X147915049Y-121039008D01*
X147751451Y-120875411D01*
X147751451Y-120412500D01*
X147741095Y-120307356D01*
X147710426Y-120206252D01*
X147660621Y-120113075D01*
X147593596Y-120031404D01*
X147511925Y-119964379D01*
X147418748Y-119914574D01*
X147317644Y-119883905D01*
X147212500Y-119873549D01*
X146637500Y-119873549D01*
X146532356Y-119883905D01*
X146431252Y-119914574D01*
X146338075Y-119964379D01*
X146284744Y-120008146D01*
X146264437Y-119941203D01*
X146207980Y-119835579D01*
X146132001Y-119742999D01*
X146039421Y-119667020D01*
X145933797Y-119610563D01*
X145819189Y-119575797D01*
X145700000Y-119564058D01*
X145481000Y-119567000D01*
X145329000Y-119719000D01*
X145329000Y-120496000D01*
X145349000Y-120496000D01*
X145349000Y-120804000D01*
X145329000Y-120804000D01*
X145329000Y-120824000D01*
X145021000Y-120824000D01*
X145021000Y-120804000D01*
X145001000Y-120804000D01*
X145001000Y-120496000D01*
X145021000Y-120496000D01*
X145021000Y-119719000D01*
X144869000Y-119567000D01*
X144650000Y-119564058D01*
X144530811Y-119575797D01*
X144416203Y-119610563D01*
X144310579Y-119667020D01*
X144217999Y-119742999D01*
X144142020Y-119835579D01*
X144085563Y-119941203D01*
X144050797Y-120055811D01*
X144039058Y-120175000D01*
X144042000Y-120344000D01*
X144193998Y-120495998D01*
X144042000Y-120495998D01*
X144042000Y-120513970D01*
X143917000Y-120388970D01*
X143917000Y-112745679D01*
X143940426Y-112761332D01*
X143940426Y-112761332D01*
G37*
X143940426Y-112761332D02*
X144067818Y-112814099D01*
X144203056Y-112841000D01*
X144340944Y-112841000D01*
X144365980Y-112836020D01*
X144755667Y-113225708D01*
X144721944Y-113219000D01*
X144584056Y-113219000D01*
X144448818Y-113245901D01*
X144321426Y-113298668D01*
X144206776Y-113375274D01*
X144109274Y-113472776D01*
X144032668Y-113587426D01*
X143979901Y-113714818D01*
X143953000Y-113850056D01*
X143953000Y-113987944D01*
X143979901Y-114123182D01*
X144032668Y-114250574D01*
X144109274Y-114365224D01*
X144206776Y-114462726D01*
X144321426Y-114539332D01*
X144448818Y-114592099D01*
X144584056Y-114619000D01*
X144721944Y-114619000D01*
X144857182Y-114592099D01*
X144984574Y-114539332D01*
X145052549Y-114493913D01*
X145052549Y-114824000D01*
X145058341Y-114882810D01*
X145075496Y-114939360D01*
X145103353Y-114991477D01*
X145140842Y-115037158D01*
X145154626Y-115048470D01*
X145131953Y-115054838D01*
X145025182Y-115109094D01*
X144931047Y-115183137D01*
X144853165Y-115274122D01*
X144794531Y-115378553D01*
X144757397Y-115492416D01*
X144746000Y-115572000D01*
X144898000Y-115724000D01*
X146150000Y-115724000D01*
X146150000Y-115650000D01*
X146458000Y-115650000D01*
X146458000Y-115724000D01*
X146478000Y-115724000D01*
X146478000Y-115924000D01*
X146458000Y-115924000D01*
X146458000Y-115998000D01*
X146150000Y-115998000D01*
X146150000Y-115924000D01*
X144898000Y-115924000D01*
X144746000Y-116076000D01*
X144757397Y-116155584D01*
X144794531Y-116269447D01*
X144853165Y-116373878D01*
X144931047Y-116464863D01*
X145025182Y-116538906D01*
X145131953Y-116593162D01*
X145154626Y-116599530D01*
X145140842Y-116610842D01*
X145103353Y-116656523D01*
X145075496Y-116708640D01*
X145058341Y-116765190D01*
X145052549Y-116824000D01*
X145052549Y-117224000D01*
X145058341Y-117282810D01*
X145075496Y-117339360D01*
X145103353Y-117391477D01*
X145140842Y-117437158D01*
X145186523Y-117474647D01*
X145238640Y-117502504D01*
X145295190Y-117519659D01*
X145354000Y-117525451D01*
X147254000Y-117525451D01*
X147312810Y-117519659D01*
X147369360Y-117502504D01*
X147421477Y-117474647D01*
X147452728Y-117449000D01*
X148120535Y-117449000D01*
X148134153Y-117474477D01*
X148171642Y-117520158D01*
X148217323Y-117557647D01*
X148269440Y-117585504D01*
X148325990Y-117602659D01*
X148384800Y-117608451D01*
X148665953Y-117608451D01*
X148491918Y-117724737D01*
X148331737Y-117884918D01*
X148205884Y-118073271D01*
X148119194Y-118282557D01*
X148075000Y-118504735D01*
X148075000Y-118731265D01*
X148119194Y-118953443D01*
X148205884Y-119162729D01*
X148331737Y-119351082D01*
X148491918Y-119511263D01*
X148680271Y-119637116D01*
X148889557Y-119723806D01*
X149111735Y-119768000D01*
X149338265Y-119768000D01*
X149560443Y-119723806D01*
X149590369Y-119711410D01*
X149798721Y-119919762D01*
X149812026Y-119935974D01*
X149876740Y-119989084D01*
X149950573Y-120028548D01*
X150006383Y-120045478D01*
X150030685Y-120052850D01*
X150038327Y-120053603D01*
X150093126Y-120059000D01*
X150093133Y-120059000D01*
X150114000Y-120061055D01*
X150134867Y-120059000D01*
X152289053Y-120059000D01*
X152252063Y-120128203D01*
X152217297Y-120242811D01*
X152205558Y-120362000D01*
X152208500Y-121106000D01*
X152360500Y-121258000D01*
X153212500Y-121258000D01*
X153212500Y-121238000D01*
X153520500Y-121238000D01*
X153520500Y-121258000D01*
X153540500Y-121258000D01*
X153540500Y-121566000D01*
X153520500Y-121566000D01*
X153520500Y-122918000D01*
X153672500Y-123070000D01*
X153916500Y-123072942D01*
X154035689Y-123061203D01*
X154150297Y-123026437D01*
X154255921Y-122969980D01*
X154348501Y-122894001D01*
X154424480Y-122801421D01*
X154480937Y-122695797D01*
X154515703Y-122581189D01*
X154527442Y-122462000D01*
X154524593Y-121741489D01*
X154553404Y-121776596D01*
X154635075Y-121843621D01*
X154728252Y-121893426D01*
X154769001Y-121905787D01*
X154769000Y-127168133D01*
X154766945Y-127189000D01*
X154769000Y-127209867D01*
X154769000Y-127209873D01*
X154775150Y-127272313D01*
X154799452Y-127352426D01*
X154838916Y-127426259D01*
X154892026Y-127490974D01*
X154908243Y-127504283D01*
X155481549Y-128077590D01*
X155481549Y-128903000D01*
X155490224Y-128991074D01*
X155515914Y-129075763D01*
X155557632Y-129153813D01*
X155584047Y-129186000D01*
X146558000Y-129186000D01*
X146538491Y-129187921D01*
X146519732Y-129193612D01*
X146502443Y-129202853D01*
X146487289Y-129215289D01*
X146474853Y-129230443D01*
X146465612Y-129247732D01*
X146459921Y-129266491D01*
X146458000Y-129286000D01*
X146458000Y-134545969D01*
X145503999Y-133591969D01*
X145503999Y-126562000D01*
X149015049Y-126562000D01*
X149015049Y-128662000D01*
X149020841Y-128720810D01*
X149037996Y-128777360D01*
X149065853Y-128829477D01*
X149103342Y-128875158D01*
X149149023Y-128912647D01*
X149201140Y-128940504D01*
X149257690Y-128957659D01*
X149316500Y-128963451D01*
X152816500Y-128963451D01*
X152875310Y-128957659D01*
X152931860Y-128940504D01*
X152983977Y-128912647D01*
X153029658Y-128875158D01*
X153067147Y-128829477D01*
X153095004Y-128777360D01*
X153112159Y-128720810D01*
X153117951Y-128662000D01*
X153117951Y-126562000D01*
X153112159Y-126503190D01*
X153095004Y-126446640D01*
X153067147Y-126394523D01*
X153029658Y-126348842D01*
X152983977Y-126311353D01*
X152931860Y-126283496D01*
X152875310Y-126266341D01*
X152816500Y-126260549D01*
X151491500Y-126260549D01*
X151491500Y-123790336D01*
X151576224Y-123733726D01*
X151673726Y-123636224D01*
X151750332Y-123521574D01*
X151803099Y-123394182D01*
X151830000Y-123258944D01*
X151830000Y-123121056D01*
X151803099Y-122985818D01*
X151750332Y-122858426D01*
X151681706Y-122755719D01*
X151731860Y-122740504D01*
X151783977Y-122712647D01*
X151829658Y-122675158D01*
X151867147Y-122629477D01*
X151895004Y-122577360D01*
X151912159Y-122520810D01*
X151917951Y-122462000D01*
X152205558Y-122462000D01*
X152217297Y-122581189D01*
X152252063Y-122695797D01*
X152308520Y-122801421D01*
X152384499Y-122894001D01*
X152477079Y-122969980D01*
X152582703Y-123026437D01*
X152697311Y-123061203D01*
X152816500Y-123072942D01*
X153060500Y-123070000D01*
X153212500Y-122918000D01*
X153212500Y-121566000D01*
X152360500Y-121566000D01*
X152208500Y-121718000D01*
X152205558Y-122462000D01*
X151917951Y-122462000D01*
X151917951Y-120362000D01*
X151912159Y-120303190D01*
X151895004Y-120246640D01*
X151867147Y-120194523D01*
X151829658Y-120148842D01*
X151783977Y-120111353D01*
X151731860Y-120083496D01*
X151675310Y-120066341D01*
X151616500Y-120060549D01*
X150516500Y-120060549D01*
X150457690Y-120066341D01*
X150401140Y-120083496D01*
X150349023Y-120111353D01*
X150303342Y-120148842D01*
X150265853Y-120194523D01*
X150237996Y-120246640D01*
X150220841Y-120303190D01*
X150215049Y-120362000D01*
X150215049Y-122462000D01*
X150220841Y-122520810D01*
X150237996Y-122577360D01*
X150265853Y-122629477D01*
X150303342Y-122675158D01*
X150349023Y-122712647D01*
X150401140Y-122740504D01*
X150457690Y-122757659D01*
X150516500Y-122763451D01*
X150573128Y-122763451D01*
X150509668Y-122858426D01*
X150456901Y-122985818D01*
X150430000Y-123121056D01*
X150430000Y-123258944D01*
X150456901Y-123394182D01*
X150509668Y-123521574D01*
X150586274Y-123636224D01*
X150641501Y-123691451D01*
X150641500Y-126260549D01*
X149316500Y-126260549D01*
X149257690Y-126266341D01*
X149201140Y-126283496D01*
X149149023Y-126311353D01*
X149103342Y-126348842D01*
X149065853Y-126394523D01*
X149037996Y-126446640D01*
X149020841Y-126503190D01*
X149015049Y-126562000D01*
X145503999Y-126562000D01*
X145503999Y-123092999D01*
X147487669Y-123092999D01*
X147511001Y-123095297D01*
X147534333Y-123092999D01*
X147604117Y-123086126D01*
X147693655Y-123058965D01*
X147776174Y-123014858D01*
X147848502Y-122955500D01*
X147863385Y-122937366D01*
X148074491Y-122726260D01*
X148101140Y-122740504D01*
X148157690Y-122757659D01*
X148216500Y-122763451D01*
X149316500Y-122763451D01*
X149375310Y-122757659D01*
X149431860Y-122740504D01*
X149483977Y-122712647D01*
X149529658Y-122675158D01*
X149567147Y-122629477D01*
X149595004Y-122577360D01*
X149612159Y-122520810D01*
X149617951Y-122462000D01*
X149617951Y-120362000D01*
X149612159Y-120303190D01*
X149595004Y-120246640D01*
X149567147Y-120194523D01*
X149529658Y-120148842D01*
X149483977Y-120111353D01*
X149431860Y-120083496D01*
X149375310Y-120066341D01*
X149316500Y-120060549D01*
X148216500Y-120060549D01*
X148157690Y-120066341D01*
X148101140Y-120083496D01*
X148049023Y-120111353D01*
X148003342Y-120148842D01*
X147965853Y-120194523D01*
X147937996Y-120246640D01*
X147920841Y-120303190D01*
X147915049Y-120362000D01*
X147915049Y-121039008D01*
X147751451Y-120875411D01*
X147751451Y-120412500D01*
X147741095Y-120307356D01*
X147710426Y-120206252D01*
X147660621Y-120113075D01*
X147593596Y-120031404D01*
X147511925Y-119964379D01*
X147418748Y-119914574D01*
X147317644Y-119883905D01*
X147212500Y-119873549D01*
X146637500Y-119873549D01*
X146532356Y-119883905D01*
X146431252Y-119914574D01*
X146338075Y-119964379D01*
X146284744Y-120008146D01*
X146264437Y-119941203D01*
X146207980Y-119835579D01*
X146132001Y-119742999D01*
X146039421Y-119667020D01*
X145933797Y-119610563D01*
X145819189Y-119575797D01*
X145700000Y-119564058D01*
X145481000Y-119567000D01*
X145329000Y-119719000D01*
X145329000Y-120496000D01*
X145349000Y-120496000D01*
X145349000Y-120804000D01*
X145329000Y-120804000D01*
X145329000Y-120824000D01*
X145021000Y-120824000D01*
X145021000Y-120804000D01*
X145001000Y-120804000D01*
X145001000Y-120496000D01*
X145021000Y-120496000D01*
X145021000Y-119719000D01*
X144869000Y-119567000D01*
X144650000Y-119564058D01*
X144530811Y-119575797D01*
X144416203Y-119610563D01*
X144310579Y-119667020D01*
X144217999Y-119742999D01*
X144142020Y-119835579D01*
X144085563Y-119941203D01*
X144050797Y-120055811D01*
X144039058Y-120175000D01*
X144042000Y-120344000D01*
X144193998Y-120495998D01*
X144042000Y-120495998D01*
X144042000Y-120513970D01*
X143917000Y-120388970D01*
X143917000Y-112745679D01*
X143940426Y-112761332D01*
G36*
X160313563Y-113611797D02*
G01*
X160319307Y-113622543D01*
X160255999Y-113674499D01*
X160180020Y-113767079D01*
X160123563Y-113872703D01*
X160088797Y-113987311D01*
X160077058Y-114106500D01*
X160080000Y-114325500D01*
X160232000Y-114477500D01*
X161009000Y-114477500D01*
X161009000Y-114457500D01*
X161317000Y-114457500D01*
X161317000Y-114477500D01*
X162094000Y-114477500D01*
X162246000Y-114325500D01*
X162248942Y-114106500D01*
X162237203Y-113987311D01*
X162214969Y-113914016D01*
X162267421Y-113885980D01*
X162360001Y-113810001D01*
X162435980Y-113717421D01*
X162474549Y-113645263D01*
X162474549Y-113866000D01*
X162480341Y-113924810D01*
X162497496Y-113981360D01*
X162525353Y-114033477D01*
X162562842Y-114079158D01*
X162608523Y-114116647D01*
X162660640Y-114144504D01*
X162717190Y-114161659D01*
X162776000Y-114167451D01*
X163151000Y-114167451D01*
X163151000Y-114370124D01*
X163148944Y-114390998D01*
X163157150Y-114474312D01*
X163181452Y-114554425D01*
X163220916Y-114628258D01*
X163271709Y-114690149D01*
X163274026Y-114692972D01*
X163338740Y-114746082D01*
X163412573Y-114785546D01*
X163492686Y-114809848D01*
X163576000Y-114818054D01*
X163596874Y-114815998D01*
X163653960Y-114815998D01*
X163891511Y-115053549D01*
X162599000Y-115053549D01*
X162540190Y-115059341D01*
X162483640Y-115076496D01*
X162431523Y-115104353D01*
X162385842Y-115141842D01*
X162348353Y-115187523D01*
X162320496Y-115239640D01*
X162303341Y-115296190D01*
X162297549Y-115355000D01*
X162297549Y-116755410D01*
X161710682Y-117342277D01*
X161709099Y-117334318D01*
X161656332Y-117206926D01*
X161623590Y-117157924D01*
X161699925Y-117117121D01*
X161781596Y-117050096D01*
X161848621Y-116968425D01*
X161898426Y-116875248D01*
X161929095Y-116774144D01*
X161939451Y-116669000D01*
X161939451Y-116094000D01*
X161929095Y-115988856D01*
X161898426Y-115887752D01*
X161848621Y-115794575D01*
X161804854Y-115741244D01*
X161871797Y-115720937D01*
X161977421Y-115664480D01*
X162070001Y-115588501D01*
X162145980Y-115495921D01*
X162202437Y-115390297D01*
X162237203Y-115275689D01*
X162248942Y-115156500D01*
X162246000Y-114937500D01*
X162094000Y-114785500D01*
X161317000Y-114785500D01*
X161317000Y-114805500D01*
X161009000Y-114805500D01*
X161009000Y-114785500D01*
X160232000Y-114785500D01*
X160080000Y-114937500D01*
X160077058Y-115156500D01*
X160088797Y-115275689D01*
X160123563Y-115390297D01*
X160180020Y-115495921D01*
X160255999Y-115588501D01*
X160348579Y-115664480D01*
X160454203Y-115720937D01*
X160521146Y-115741244D01*
X160477379Y-115794575D01*
X160427574Y-115887752D01*
X160406720Y-115956500D01*
X159618126Y-115956500D01*
X159555686Y-115962650D01*
X159529808Y-115970500D01*
X159074340Y-115970500D01*
X159050084Y-115946244D01*
X159036774Y-115930026D01*
X158972060Y-115876916D01*
X158898227Y-115837452D01*
X158818114Y-115813150D01*
X158767607Y-115808175D01*
X158780459Y-115765810D01*
X158786251Y-115707000D01*
X158786251Y-115157000D01*
X158780459Y-115098190D01*
X158767607Y-115055825D01*
X158818114Y-115050850D01*
X158898227Y-115026548D01*
X158972060Y-114987084D01*
X159036774Y-114933974D01*
X159048044Y-114920242D01*
X159061775Y-114908973D01*
X159114885Y-114844259D01*
X159154349Y-114770426D01*
X159178651Y-114690313D01*
X159184801Y-114627873D01*
X159184801Y-114627865D01*
X159186856Y-114606999D01*
X159184801Y-114586132D01*
X159184801Y-113958239D01*
X159463589Y-113679451D01*
X159940500Y-113679451D01*
X160045644Y-113669095D01*
X160146748Y-113638426D01*
X160239925Y-113588621D01*
X160293256Y-113544854D01*
X160313563Y-113611797D01*
X160313563Y-113611797D01*
G37*
X160313563Y-113611797D02*
X160319307Y-113622543D01*
X160255999Y-113674499D01*
X160180020Y-113767079D01*
X160123563Y-113872703D01*
X160088797Y-113987311D01*
X160077058Y-114106500D01*
X160080000Y-114325500D01*
X160232000Y-114477500D01*
X161009000Y-114477500D01*
X161009000Y-114457500D01*
X161317000Y-114457500D01*
X161317000Y-114477500D01*
X162094000Y-114477500D01*
X162246000Y-114325500D01*
X162248942Y-114106500D01*
X162237203Y-113987311D01*
X162214969Y-113914016D01*
X162267421Y-113885980D01*
X162360001Y-113810001D01*
X162435980Y-113717421D01*
X162474549Y-113645263D01*
X162474549Y-113866000D01*
X162480341Y-113924810D01*
X162497496Y-113981360D01*
X162525353Y-114033477D01*
X162562842Y-114079158D01*
X162608523Y-114116647D01*
X162660640Y-114144504D01*
X162717190Y-114161659D01*
X162776000Y-114167451D01*
X163151000Y-114167451D01*
X163151000Y-114370124D01*
X163148944Y-114390998D01*
X163157150Y-114474312D01*
X163181452Y-114554425D01*
X163220916Y-114628258D01*
X163271709Y-114690149D01*
X163274026Y-114692972D01*
X163338740Y-114746082D01*
X163412573Y-114785546D01*
X163492686Y-114809848D01*
X163576000Y-114818054D01*
X163596874Y-114815998D01*
X163653960Y-114815998D01*
X163891511Y-115053549D01*
X162599000Y-115053549D01*
X162540190Y-115059341D01*
X162483640Y-115076496D01*
X162431523Y-115104353D01*
X162385842Y-115141842D01*
X162348353Y-115187523D01*
X162320496Y-115239640D01*
X162303341Y-115296190D01*
X162297549Y-115355000D01*
X162297549Y-116755410D01*
X161710682Y-117342277D01*
X161709099Y-117334318D01*
X161656332Y-117206926D01*
X161623590Y-117157924D01*
X161699925Y-117117121D01*
X161781596Y-117050096D01*
X161848621Y-116968425D01*
X161898426Y-116875248D01*
X161929095Y-116774144D01*
X161939451Y-116669000D01*
X161939451Y-116094000D01*
X161929095Y-115988856D01*
X161898426Y-115887752D01*
X161848621Y-115794575D01*
X161804854Y-115741244D01*
X161871797Y-115720937D01*
X161977421Y-115664480D01*
X162070001Y-115588501D01*
X162145980Y-115495921D01*
X162202437Y-115390297D01*
X162237203Y-115275689D01*
X162248942Y-115156500D01*
X162246000Y-114937500D01*
X162094000Y-114785500D01*
X161317000Y-114785500D01*
X161317000Y-114805500D01*
X161009000Y-114805500D01*
X161009000Y-114785500D01*
X160232000Y-114785500D01*
X160080000Y-114937500D01*
X160077058Y-115156500D01*
X160088797Y-115275689D01*
X160123563Y-115390297D01*
X160180020Y-115495921D01*
X160255999Y-115588501D01*
X160348579Y-115664480D01*
X160454203Y-115720937D01*
X160521146Y-115741244D01*
X160477379Y-115794575D01*
X160427574Y-115887752D01*
X160406720Y-115956500D01*
X159618126Y-115956500D01*
X159555686Y-115962650D01*
X159529808Y-115970500D01*
X159074340Y-115970500D01*
X159050084Y-115946244D01*
X159036774Y-115930026D01*
X158972060Y-115876916D01*
X158898227Y-115837452D01*
X158818114Y-115813150D01*
X158767607Y-115808175D01*
X158780459Y-115765810D01*
X158786251Y-115707000D01*
X158786251Y-115157000D01*
X158780459Y-115098190D01*
X158767607Y-115055825D01*
X158818114Y-115050850D01*
X158898227Y-115026548D01*
X158972060Y-114987084D01*
X159036774Y-114933974D01*
X159048044Y-114920242D01*
X159061775Y-114908973D01*
X159114885Y-114844259D01*
X159154349Y-114770426D01*
X159178651Y-114690313D01*
X159184801Y-114627873D01*
X159184801Y-114627865D01*
X159186856Y-114606999D01*
X159184801Y-114586132D01*
X159184801Y-113958239D01*
X159463589Y-113679451D01*
X159940500Y-113679451D01*
X160045644Y-113669095D01*
X160146748Y-113638426D01*
X160239925Y-113588621D01*
X160293256Y-113544854D01*
X160313563Y-113611797D01*
G36*
X153676443Y-114907484D02*
G01*
X153689750Y-114923698D01*
X153705962Y-114937003D01*
X153705963Y-114937004D01*
X153707177Y-114938000D01*
X153743732Y-114968000D01*
X151390950Y-114968000D01*
X151322224Y-114899274D01*
X151207574Y-114822668D01*
X151080182Y-114769901D01*
X150944944Y-114743000D01*
X150807056Y-114743000D01*
X150671818Y-114769901D01*
X150544426Y-114822668D01*
X150504287Y-114849487D01*
X150440800Y-114786000D01*
X149338800Y-114786000D01*
X149338800Y-114806000D01*
X149030800Y-114806000D01*
X149030800Y-114786000D01*
X149010800Y-114786000D01*
X149010800Y-114478000D01*
X149030800Y-114478000D01*
X149030800Y-114458000D01*
X149338800Y-114458000D01*
X149338800Y-114478000D01*
X150440800Y-114478000D01*
X150592800Y-114326000D01*
X150582271Y-114229411D01*
X150545899Y-114115302D01*
X150487965Y-114010481D01*
X150410694Y-113918977D01*
X150317056Y-113844305D01*
X150293236Y-113832000D01*
X150317056Y-113819695D01*
X150410694Y-113745023D01*
X150487965Y-113653519D01*
X150545899Y-113548698D01*
X150582271Y-113434589D01*
X150592800Y-113338000D01*
X150440800Y-113186000D01*
X149338800Y-113186000D01*
X149338800Y-113206000D01*
X149030800Y-113206000D01*
X149030800Y-113186000D01*
X149010800Y-113186000D01*
X149010800Y-112878000D01*
X149030800Y-112878000D01*
X149030800Y-112858000D01*
X149338800Y-112858000D01*
X149338800Y-112878000D01*
X150274963Y-112878000D01*
X150290426Y-112888332D01*
X150417818Y-112941099D01*
X150553056Y-112968000D01*
X150690944Y-112968000D01*
X150826182Y-112941099D01*
X150953574Y-112888332D01*
X151068224Y-112811726D01*
X151165726Y-112714224D01*
X151242332Y-112599574D01*
X151279295Y-112510336D01*
X153676443Y-114907484D01*
X153676443Y-114907484D01*
G37*
X153676443Y-114907484D02*
X153689750Y-114923698D01*
X153705962Y-114937003D01*
X153705963Y-114937004D01*
X153707177Y-114938000D01*
X153743732Y-114968000D01*
X151390950Y-114968000D01*
X151322224Y-114899274D01*
X151207574Y-114822668D01*
X151080182Y-114769901D01*
X150944944Y-114743000D01*
X150807056Y-114743000D01*
X150671818Y-114769901D01*
X150544426Y-114822668D01*
X150504287Y-114849487D01*
X150440800Y-114786000D01*
X149338800Y-114786000D01*
X149338800Y-114806000D01*
X149030800Y-114806000D01*
X149030800Y-114786000D01*
X149010800Y-114786000D01*
X149010800Y-114478000D01*
X149030800Y-114478000D01*
X149030800Y-114458000D01*
X149338800Y-114458000D01*
X149338800Y-114478000D01*
X150440800Y-114478000D01*
X150592800Y-114326000D01*
X150582271Y-114229411D01*
X150545899Y-114115302D01*
X150487965Y-114010481D01*
X150410694Y-113918977D01*
X150317056Y-113844305D01*
X150293236Y-113832000D01*
X150317056Y-113819695D01*
X150410694Y-113745023D01*
X150487965Y-113653519D01*
X150545899Y-113548698D01*
X150582271Y-113434589D01*
X150592800Y-113338000D01*
X150440800Y-113186000D01*
X149338800Y-113186000D01*
X149338800Y-113206000D01*
X149030800Y-113206000D01*
X149030800Y-113186000D01*
X149010800Y-113186000D01*
X149010800Y-112878000D01*
X149030800Y-112878000D01*
X149030800Y-112858000D01*
X149338800Y-112858000D01*
X149338800Y-112878000D01*
X150274963Y-112878000D01*
X150290426Y-112888332D01*
X150417818Y-112941099D01*
X150553056Y-112968000D01*
X150690944Y-112968000D01*
X150826182Y-112941099D01*
X150953574Y-112888332D01*
X151068224Y-112811726D01*
X151165726Y-112714224D01*
X151242332Y-112599574D01*
X151279295Y-112510336D01*
X153676443Y-114907484D01*
G36*
X155844440Y-111060504D02*
G01*
X155900990Y-111077659D01*
X155959800Y-111083451D01*
X156509800Y-111083451D01*
X156568610Y-111077659D01*
X156598081Y-111068719D01*
X156589141Y-111098190D01*
X156583349Y-111157000D01*
X156583349Y-111707000D01*
X156589141Y-111765810D01*
X156606296Y-111822360D01*
X156611449Y-111832000D01*
X156606296Y-111841640D01*
X156589141Y-111898190D01*
X156583349Y-111957000D01*
X156583349Y-112507000D01*
X156589141Y-112565810D01*
X156606296Y-112622360D01*
X156611449Y-112632000D01*
X156606296Y-112641640D01*
X156589141Y-112698190D01*
X156583349Y-112757000D01*
X156583349Y-113028391D01*
X156552544Y-113044305D01*
X156458906Y-113118977D01*
X156381635Y-113210481D01*
X156323701Y-113315302D01*
X156287329Y-113429411D01*
X156276800Y-113526000D01*
X156428800Y-113678000D01*
X157530800Y-113678000D01*
X157530800Y-113658000D01*
X157838800Y-113658000D01*
X157838800Y-113678000D01*
X157858800Y-113678000D01*
X157858800Y-113986000D01*
X157838800Y-113986000D01*
X157838800Y-114006000D01*
X157530800Y-114006000D01*
X157530800Y-113986000D01*
X156428800Y-113986000D01*
X156276800Y-114138000D01*
X156287329Y-114234589D01*
X156315103Y-114321723D01*
X156277952Y-114321723D01*
X156254344Y-114326419D01*
X156248871Y-114319750D01*
X156184157Y-114266640D01*
X156110324Y-114227176D01*
X156030211Y-114202874D01*
X155967771Y-114196724D01*
X155967764Y-114196724D01*
X155946897Y-114194669D01*
X155926030Y-114196724D01*
X154167765Y-114196724D01*
X151992457Y-112021417D01*
X152045774Y-111999332D01*
X152160424Y-111922726D01*
X152247600Y-111835550D01*
X152334776Y-111922726D01*
X152449426Y-111999332D01*
X152576818Y-112052099D01*
X152712056Y-112079000D01*
X152849944Y-112079000D01*
X152985182Y-112052099D01*
X153112574Y-111999332D01*
X153227224Y-111922726D01*
X153324726Y-111825224D01*
X153401332Y-111710574D01*
X153454099Y-111583182D01*
X153481000Y-111447944D01*
X153481000Y-111310056D01*
X153454099Y-111174818D01*
X153408804Y-111065466D01*
X153425160Y-111060504D01*
X153434800Y-111055351D01*
X153444440Y-111060504D01*
X153500990Y-111077659D01*
X153559800Y-111083451D01*
X154109800Y-111083451D01*
X154168610Y-111077659D01*
X154225160Y-111060504D01*
X154234800Y-111055351D01*
X154244440Y-111060504D01*
X154300990Y-111077659D01*
X154359800Y-111083451D01*
X154909800Y-111083451D01*
X154968610Y-111077659D01*
X155025160Y-111060504D01*
X155034800Y-111055351D01*
X155044440Y-111060504D01*
X155100990Y-111077659D01*
X155159800Y-111083451D01*
X155709800Y-111083451D01*
X155768610Y-111077659D01*
X155825160Y-111060504D01*
X155834800Y-111055351D01*
X155844440Y-111060504D01*
X155844440Y-111060504D01*
G37*
X155844440Y-111060504D02*
X155900990Y-111077659D01*
X155959800Y-111083451D01*
X156509800Y-111083451D01*
X156568610Y-111077659D01*
X156598081Y-111068719D01*
X156589141Y-111098190D01*
X156583349Y-111157000D01*
X156583349Y-111707000D01*
X156589141Y-111765810D01*
X156606296Y-111822360D01*
X156611449Y-111832000D01*
X156606296Y-111841640D01*
X156589141Y-111898190D01*
X156583349Y-111957000D01*
X156583349Y-112507000D01*
X156589141Y-112565810D01*
X156606296Y-112622360D01*
X156611449Y-112632000D01*
X156606296Y-112641640D01*
X156589141Y-112698190D01*
X156583349Y-112757000D01*
X156583349Y-113028391D01*
X156552544Y-113044305D01*
X156458906Y-113118977D01*
X156381635Y-113210481D01*
X156323701Y-113315302D01*
X156287329Y-113429411D01*
X156276800Y-113526000D01*
X156428800Y-113678000D01*
X157530800Y-113678000D01*
X157530800Y-113658000D01*
X157838800Y-113658000D01*
X157838800Y-113678000D01*
X157858800Y-113678000D01*
X157858800Y-113986000D01*
X157838800Y-113986000D01*
X157838800Y-114006000D01*
X157530800Y-114006000D01*
X157530800Y-113986000D01*
X156428800Y-113986000D01*
X156276800Y-114138000D01*
X156287329Y-114234589D01*
X156315103Y-114321723D01*
X156277952Y-114321723D01*
X156254344Y-114326419D01*
X156248871Y-114319750D01*
X156184157Y-114266640D01*
X156110324Y-114227176D01*
X156030211Y-114202874D01*
X155967771Y-114196724D01*
X155967764Y-114196724D01*
X155946897Y-114194669D01*
X155926030Y-114196724D01*
X154167765Y-114196724D01*
X151992457Y-112021417D01*
X152045774Y-111999332D01*
X152160424Y-111922726D01*
X152247600Y-111835550D01*
X152334776Y-111922726D01*
X152449426Y-111999332D01*
X152576818Y-112052099D01*
X152712056Y-112079000D01*
X152849944Y-112079000D01*
X152985182Y-112052099D01*
X153112574Y-111999332D01*
X153227224Y-111922726D01*
X153324726Y-111825224D01*
X153401332Y-111710574D01*
X153454099Y-111583182D01*
X153481000Y-111447944D01*
X153481000Y-111310056D01*
X153454099Y-111174818D01*
X153408804Y-111065466D01*
X153425160Y-111060504D01*
X153434800Y-111055351D01*
X153444440Y-111060504D01*
X153500990Y-111077659D01*
X153559800Y-111083451D01*
X154109800Y-111083451D01*
X154168610Y-111077659D01*
X154225160Y-111060504D01*
X154234800Y-111055351D01*
X154244440Y-111060504D01*
X154300990Y-111077659D01*
X154359800Y-111083451D01*
X154909800Y-111083451D01*
X154968610Y-111077659D01*
X155025160Y-111060504D01*
X155034800Y-111055351D01*
X155044440Y-111060504D01*
X155100990Y-111077659D01*
X155159800Y-111083451D01*
X155709800Y-111083451D01*
X155768610Y-111077659D01*
X155825160Y-111060504D01*
X155834800Y-111055351D01*
X155844440Y-111060504D01*
G36*
X159348500Y-141734133D02*
G01*
X155424058Y-143727500D01*
X151992000Y-143727500D01*
X151992000Y-139509500D01*
X151990079Y-139489991D01*
X151984388Y-139471232D01*
X151975147Y-139453943D01*
X151962711Y-139438789D01*
X151947557Y-139426353D01*
X151930268Y-139417112D01*
X151911509Y-139411421D01*
X151892000Y-139409500D01*
X151039500Y-139409500D01*
X151039500Y-138406257D01*
X153141604Y-136180500D01*
X159348500Y-136180500D01*
X159348500Y-141734133D01*
X159348500Y-141734133D01*
G37*
X159348500Y-141734133D02*
X155424058Y-143727500D01*
X151992000Y-143727500D01*
X151992000Y-139509500D01*
X151990079Y-139489991D01*
X151984388Y-139471232D01*
X151975147Y-139453943D01*
X151962711Y-139438789D01*
X151947557Y-139426353D01*
X151930268Y-139417112D01*
X151911509Y-139411421D01*
X151892000Y-139409500D01*
X151039500Y-139409500D01*
X151039500Y-138406257D01*
X153141604Y-136180500D01*
X159348500Y-136180500D01*
X159348500Y-141734133D01*
M02*
