M48
; DRILL file {KiCad 5.1.9} date Sun Jan 31 09:53:11 2021
; FORMAT={-:-/ absolute / inch / decimal}
; #@! TF.CreationDate,2021-01-31T09:53:11+01:00
; #@! TF.GenerationSoftware,Kicad,Pcbnew,5.1.9
; #@! TF.FileFunction,Plated,1,2,PTH
FMAT,2
INCH
T1C0.0118
T2C0.0157
T3C0.0354
T4C0.0394
T5C0.0598
%
G90
G05
T1
X4.9311Y-4.0211
X4.9311Y-4.0802
X4.9311Y-4.1392
X4.9311Y-4.1983
X4.9311Y-4.2573
X4.9902Y-4.0211
X4.9902Y-4.0802
X4.9902Y-4.1392
X4.9902Y-4.1983
X4.9902Y-4.2573
X5.0315Y-4.4443
X5.0315Y-4.5034
X5.0315Y-4.5624
X5.0492Y-4.0211
X5.0492Y-4.0802
X5.0492Y-4.1392
X5.0492Y-4.1983
X5.0492Y-4.2573
X5.0807Y-4.4443
X5.0807Y-4.5034
X5.0807Y-4.5624
X5.1083Y-4.0211
X5.1083Y-4.0802
X5.1083Y-4.1392
X5.1083Y-4.1983
X5.1083Y-4.2573
X5.1299Y-4.4443
X5.1299Y-4.5034
X5.1299Y-4.5624
X5.1624Y-5.0293
X5.1624Y-5.0805
X5.1673Y-4.0211
X5.1673Y-4.0802
X5.1673Y-4.1392
X5.1673Y-4.1983
X5.1673Y-4.2573
X5.2136Y-5.0293
X5.2136Y-5.0805
X5.2264Y-4.0211
X5.2264Y-4.0802
X5.2264Y-4.1392
X5.2264Y-4.1983
X5.2264Y-4.2573
X5.374Y-4.4134
X5.374Y-4.4724
X5.374Y-4.5315
X5.374Y-4.5906
X5.4232Y-4.4134
X5.4232Y-4.4724
X5.4232Y-4.5315
X5.4232Y-4.5906
X5.4921Y-4.4134
X5.4921Y-4.4724
X5.4921Y-4.5315
X5.4921Y-4.5906
X5.5413Y-4.4134
X5.5413Y-4.4724
X5.5413Y-4.5315
X5.5413Y-4.5906
T2
X4.8819Y-3.1102
X4.8819Y-3.1496
X4.9213Y-3.1102
X4.9213Y-3.1496
X4.9606Y-3.1102
X4.9606Y-3.1496
X5.0Y-3.1102
X5.0Y-3.1496
X5.0169Y-5.2177
X5.0366Y-4.824
X5.0366Y-5.0012
X5.0394Y-3.1102
X5.0394Y-3.1496
X5.0787Y-3.1102
X5.0787Y-3.1496
X5.0886Y-4.9606
X5.0984Y-5.2559
X5.1181Y-3.1102
X5.1181Y-3.1496
X5.1575Y-3.1102
X5.1575Y-3.1496
X5.1969Y-3.1102
X5.1969Y-3.1496
X5.2362Y-3.1102
X5.2362Y-3.1496
X5.2975Y-3.5214
X5.315Y-4.9606
X5.374Y-3.7008
X5.4331Y-2.5984
X5.4331Y-2.6378
X5.4331Y-2.6772
X5.4331Y-2.7165
X5.4331Y-2.7559
X5.4331Y-2.7953
X5.4331Y-2.8346
X5.4331Y-2.874
X5.5086Y-4.9575
X5.5189Y-5.2319
X5.5189Y-5.2713
X5.5512Y-5.5512
X5.5512Y-5.5906
X5.5583Y-5.2319
X5.5583Y-5.2713
X5.5709Y-3.878
X5.5906Y-3.7598
X5.5906Y-5.5512
X5.5906Y-5.5906
X5.6102Y-3.6417
X5.6299Y-5.5512
X5.6299Y-5.5906
X5.6496Y-3.878
X5.6606Y-5.1138
X5.6606Y-5.1531
X5.6693Y-5.5512
X5.6693Y-5.5906
X5.689Y-3.7598
X5.6911Y-3.6438
X5.7Y-5.1138
X5.7Y-5.1531
X5.7244Y-4.8661
X5.748Y-3.3327
X5.748Y-3.4055
X5.748Y-3.7598
X5.7579Y-4.3799
X5.7874Y-4.4094
X5.8169Y-4.1614
X5.8366Y-4.2913
X5.8465Y-4.7205
X5.8465Y-5.0276
X5.8594Y-3.8646
X5.8909Y-3.7437
X5.9291Y-3.9232
X5.9291Y-4.0295
X5.9449Y-3.8458
X5.9449Y-4.4094
X5.9606Y-4.8661
X6.0039Y-3.8583
X6.0039Y-5.2362
X6.0039Y-5.2756
X6.0039Y-5.315
X6.0039Y-5.3543
X6.0374Y-4.1693
X6.0374Y-4.285
X6.0433Y-4.0945
X6.0433Y-5.2362
X6.0433Y-5.2756
X6.0433Y-5.315
X6.0433Y-5.3543
X6.063Y-3.7205
X6.0866Y-4.4882
X6.0866Y-4.5276
X6.0925Y-3.9272
X6.0929Y-3.8091
X6.1024Y-4.8189
X6.1024Y-4.9606
X6.1083Y-3.5925
X6.1102Y-3.7461
X6.1122Y-4.1732
X6.1511Y-3.9267
X6.2185Y-3.7461
X6.2205Y-3.4449
X6.2303Y-4.3307
X6.2303Y-4.4587
X6.252Y-3.4724
X6.2576Y-3.5829
X6.2713Y-3.6177
X6.2795Y-3.7402
X6.2921Y-3.352
X6.3079Y-4.065
X6.3228Y-3.4465
X6.3709Y-3.8681
X6.3858Y-3.4461
X6.3996Y-3.9764
X6.4075Y-4.0256
X6.4075Y-4.065
X6.411Y-3.352
X6.4535Y-3.4606
X6.4535Y-3.5453
X6.4587Y-4.037
X6.4646Y-3.8287
X6.498Y-3.3898
X6.5157Y-3.587
X6.5551Y-3.4016
X6.5748Y-4.0748
X6.5945Y-3.9626
X6.602Y-3.2846
X6.602Y-3.5638
X6.6161Y-4.378
X6.665Y-3.7189
X6.7028Y-3.7579
X6.7535Y-3.574
T3
X5.0417Y-5.4457
X5.0417Y-5.5244
X5.0417Y-5.6031
X5.2386Y-5.4457
X5.2386Y-5.5244
X5.2386Y-5.6031
T4
X6.5512Y-3.1409
X6.5512Y-3.2409
X6.5512Y-3.3409
X6.6512Y-3.1409
X6.6512Y-3.2409
X6.6512Y-3.3409
T5
X5.3937Y-5.689
X5.5677Y-2.7362
X5.5937Y-5.689
X5.7677Y-2.7362
X5.9677Y-2.7362
T4
G00X6.122Y-5.2953
M15
G01X6.2008Y-5.2953
M16
G05
G00X6.122Y-5.5315
M15
G01X6.2008Y-5.5315
M16
G05
G00X6.3465Y-5.4528
M15
G01X6.3465Y-5.374
M16
G05
T0
M30
