G04 #@! TF.GenerationSoftware,KiCad,Pcbnew,5.1.9*
G04 #@! TF.CreationDate,2021-01-31T09:53:20+01:00*
G04 #@! TF.ProjectId,blueled,626c7565-6c65-4642-9e6b-696361645f70,rev?*
G04 #@! TF.SameCoordinates,Original*
G04 #@! TF.FileFunction,Legend,Top*
G04 #@! TF.FilePolarity,Positive*
%FSLAX46Y46*%
G04 Gerber Fmt 4.6, Leading zero omitted, Abs format (unit mm)*
G04 Created by KiCad (PCBNEW 5.1.9) date 2021-01-31 09:53:20*
%MOMM*%
%LPD*%
G01*
G04 APERTURE LIST*
%ADD10C,0.120000*%
%ADD11C,0.127000*%
%ADD12C,0.254000*%
%ADD13C,0.381000*%
%ADD14C,0.100000*%
%ADD15C,0.150000*%
%ADD16C,0.050000*%
G04 APERTURE END LIST*
D10*
X153760000Y-119780000D02*
X152300000Y-119780000D01*
X153760000Y-116620000D02*
X151600000Y-116620000D01*
X153760000Y-116620000D02*
X153760000Y-117550000D01*
X153760000Y-119780000D02*
X153760000Y-118850000D01*
X145075000Y-133765000D02*
X146325000Y-133765000D01*
X145700000Y-134390000D02*
X145700000Y-133140000D01*
X152655563Y-132900000D02*
X153720000Y-131835563D01*
X144264437Y-132900000D02*
X143200000Y-131835563D01*
X144264437Y-132900000D02*
X146950000Y-132900000D01*
X152655563Y-132900000D02*
X149970000Y-132900000D01*
X153720000Y-131835563D02*
X153720000Y-122380000D01*
X143200000Y-131835563D02*
X143200000Y-122380000D01*
X143200000Y-122380000D02*
X146950000Y-122380000D01*
X153720000Y-122380000D02*
X149970000Y-122380000D01*
X131776001Y-126775001D02*
X128776001Y-126775001D01*
X132776001Y-130015001D02*
X130776001Y-130015001D01*
X135050000Y-117470000D02*
X135050000Y-118970000D01*
X135050000Y-118970000D02*
X135320000Y-118970000D01*
X135320000Y-118970000D02*
X135320000Y-121800000D01*
X141950000Y-117470000D02*
X141950000Y-118970000D01*
X141950000Y-118970000D02*
X141680000Y-118970000D01*
X141680000Y-118970000D02*
X141680000Y-120070000D01*
X123800000Y-110086000D02*
X123800000Y-111586000D01*
X123800000Y-111586000D02*
X125610000Y-111586000D01*
X125610000Y-111586000D02*
X125610000Y-116711000D01*
X134200000Y-110086000D02*
X134200000Y-111586000D01*
X134200000Y-111586000D02*
X132390000Y-111586000D01*
X132390000Y-111586000D02*
X132390000Y-112686000D01*
X150238748Y-87710000D02*
X150761252Y-87710000D01*
X150238748Y-86290000D02*
X150761252Y-86290000D01*
X156738748Y-82210000D02*
X157261252Y-82210000D01*
X156738748Y-80790000D02*
X157261252Y-80790000D01*
X153740000Y-83420000D02*
X155200000Y-83420000D01*
X153740000Y-86580000D02*
X155900000Y-86580000D01*
X153740000Y-86580000D02*
X153740000Y-85650000D01*
X153740000Y-83420000D02*
X153740000Y-84350000D01*
X136397936Y-86140000D02*
X137602064Y-86140000D01*
X136397936Y-88860000D02*
X137602064Y-88860000D01*
X136397936Y-81140000D02*
X137602064Y-81140000D01*
X136397936Y-83860000D02*
X137602064Y-83860000D01*
X134460000Y-148310000D02*
X144620000Y-148310000D01*
X134460000Y-140690000D02*
X134460000Y-148310000D01*
X144620000Y-140690000D02*
X134460000Y-140690000D01*
X144620000Y-148310000D02*
X144620000Y-140690000D01*
X144620000Y-147040000D02*
X134460000Y-147040000D01*
X165070000Y-86190000D02*
X170270000Y-86190000D01*
X165070000Y-81050000D02*
X165070000Y-86190000D01*
X170270000Y-78450000D02*
X170270000Y-86190000D01*
X165070000Y-81050000D02*
X167670000Y-81050000D01*
X167670000Y-81050000D02*
X167670000Y-78450000D01*
X167670000Y-78450000D02*
X170270000Y-78450000D01*
X165070000Y-79780000D02*
X165070000Y-78450000D01*
X165070000Y-78450000D02*
X166400000Y-78450000D01*
D11*
X156500000Y-104100000D02*
X169500000Y-104100000D01*
X169500000Y-104100000D02*
X169500000Y-109410000D01*
X156500000Y-109410000D02*
X156500000Y-104100000D01*
D12*
X169000000Y-109250000D02*
X169000000Y-104750000D01*
X169000000Y-104750000D02*
X167125000Y-104750000D01*
X167125000Y-104750000D02*
X167125000Y-108125000D01*
X167125000Y-108125000D02*
X165250000Y-108125000D01*
X165250000Y-108125000D02*
X165250000Y-104750000D01*
X165250000Y-104750000D02*
X163375000Y-104750000D01*
X163375000Y-104750000D02*
X163375000Y-108125000D01*
X163375000Y-108125000D02*
X161500000Y-108125000D01*
X161500000Y-108125000D02*
X161500000Y-104750000D01*
X161500000Y-104750000D02*
X159625000Y-104750000D01*
X159625000Y-104750000D02*
X159625000Y-108125000D01*
X159625000Y-108125000D02*
X157750000Y-108125000D01*
X157750000Y-108125000D02*
X157750000Y-104750000D01*
X157750000Y-104750000D02*
X157006000Y-104750000D01*
D13*
X157412000Y-110045000D02*
G75*
G03*
X157412000Y-110045000I-127000J0D01*
G01*
D11*
X169500000Y-109410000D02*
X156500000Y-109410000D01*
X168800000Y-131000000D02*
X169500000Y-131000000D01*
X169500000Y-131000000D02*
X169500000Y-129800000D01*
X169500000Y-110600000D02*
X169500000Y-109410000D01*
X156500000Y-110600000D02*
X156500000Y-109410000D01*
X156500000Y-129800000D02*
X156500000Y-131000000D01*
X156500000Y-131000000D02*
X157200000Y-131000000D01*
D10*
X143900000Y-114935000D02*
X147985000Y-114935000D01*
X147985000Y-114935000D02*
X147985000Y-113065000D01*
X147985000Y-113065000D02*
X143900000Y-113065000D01*
X154930000Y-112170000D02*
G75*
G03*
X154930000Y-112170000I-700000J0D01*
G01*
X155300000Y-116700000D02*
G75*
G03*
X155300000Y-116700000I-700000J0D01*
G01*
X163990000Y-95410000D02*
G75*
G03*
X163990000Y-95410000I-700000J0D01*
G01*
X152750000Y-133400000D02*
X151700000Y-133400000D01*
X151700000Y-134450000D02*
X151700000Y-133400000D01*
X158400000Y-133600000D02*
X161100000Y-133600000D01*
X161100000Y-133600000D02*
X161100000Y-135500000D01*
X151900000Y-133600000D02*
X154500000Y-133600000D01*
X130560000Y-137780000D02*
X130560000Y-142733000D01*
X127016000Y-142155000D02*
X127016000Y-143355000D01*
X127016000Y-143355000D02*
X128216000Y-143355000D01*
D14*
G36*
X130306000Y-142479000D02*
G01*
X130814000Y-142479000D01*
X130560000Y-142860000D01*
X130306000Y-142479000D01*
G37*
X130306000Y-142479000D02*
X130814000Y-142479000D01*
X130560000Y-142860000D01*
X130306000Y-142479000D01*
G36*
X129163000Y-137780000D02*
G01*
X130052000Y-137780000D01*
X130052000Y-140955000D01*
X129163000Y-140955000D01*
X129163000Y-137780000D01*
G37*
X129163000Y-137780000D02*
X130052000Y-137780000D01*
X130052000Y-140955000D01*
X129163000Y-140955000D01*
X129163000Y-137780000D01*
G36*
X131068000Y-137780000D02*
G01*
X131957000Y-137780000D01*
X131957000Y-140955000D01*
X131068000Y-140955000D01*
X131068000Y-137780000D01*
G37*
X131068000Y-137780000D02*
X131957000Y-137780000D01*
X131957000Y-140955000D01*
X131068000Y-140955000D01*
X131068000Y-137780000D01*
D10*
X169946000Y-95185000D02*
X169946000Y-93235000D01*
X169946000Y-95185000D02*
X169946000Y-97135000D01*
X164826000Y-95185000D02*
X164826000Y-93235000D01*
X164826000Y-95185000D02*
X164826000Y-98635000D01*
X149410000Y-111910000D02*
X149410000Y-110650000D01*
X149410000Y-105090000D02*
X149410000Y-106350000D01*
X145650000Y-111910000D02*
X149410000Y-111910000D01*
X143400000Y-105090000D02*
X149410000Y-105090000D01*
X170210000Y-101238748D02*
X170210000Y-101761252D01*
X168790000Y-101238748D02*
X168790000Y-101761252D01*
X145738748Y-99290000D02*
X146261252Y-99290000D01*
X145738748Y-100710000D02*
X146261252Y-100710000D01*
X153210000Y-114138748D02*
X153210000Y-114661252D01*
X151790000Y-114138748D02*
X151790000Y-114661252D01*
X142475000Y-99040000D02*
X139615000Y-99040000D01*
X139615000Y-99040000D02*
X139615000Y-100960000D01*
X139615000Y-100960000D02*
X142475000Y-100960000D01*
X164890000Y-101761252D02*
X164890000Y-101238748D01*
X166310000Y-101761252D02*
X166310000Y-101238748D01*
X145738748Y-96290000D02*
X146261252Y-96290000D01*
X145738748Y-97710000D02*
X146261252Y-97710000D01*
X145738748Y-90290000D02*
X146261252Y-90290000D01*
X145738748Y-91710000D02*
X146261252Y-91710000D01*
X151290000Y-102261252D02*
X151290000Y-101738748D01*
X152710000Y-102261252D02*
X152710000Y-101738748D01*
X142500000Y-96040000D02*
X139640000Y-96040000D01*
X139640000Y-96040000D02*
X139640000Y-97960000D01*
X139640000Y-97960000D02*
X142500000Y-97960000D01*
X142500000Y-90040000D02*
X139640000Y-90040000D01*
X139640000Y-90040000D02*
X139640000Y-91960000D01*
X139640000Y-91960000D02*
X142500000Y-91960000D01*
X164790000Y-89261252D02*
X164790000Y-88738748D01*
X166210000Y-89261252D02*
X166210000Y-88738748D01*
X154290000Y-102261252D02*
X154290000Y-101738748D01*
X155710000Y-102261252D02*
X155710000Y-101738748D01*
D15*
X153145000Y-97515000D02*
X153370000Y-97515000D01*
X153145000Y-90265000D02*
X153470000Y-90265000D01*
X160395000Y-90265000D02*
X160070000Y-90265000D01*
X153145000Y-97515000D02*
X153145000Y-97190000D01*
X160395000Y-90265000D02*
X160395000Y-90590000D01*
X153145000Y-90265000D02*
X153145000Y-90590000D01*
X153370000Y-97515000D02*
X153370000Y-98940000D01*
D10*
X159490000Y-83610000D02*
X159490000Y-77490000D01*
X159490000Y-77490000D02*
X163110000Y-77490000D01*
X163110000Y-77490000D02*
X163110000Y-83610000D01*
X163110000Y-83610000D02*
X159490000Y-83610000D01*
X143900000Y-103996000D02*
X147985000Y-103996000D01*
X147985000Y-103996000D02*
X147985000Y-102126000D01*
X147985000Y-102126000D02*
X143900000Y-102126000D01*
X155225000Y-119965000D02*
X151140000Y-119965000D01*
X155225000Y-121835000D02*
X155225000Y-119965000D01*
X151140000Y-121835000D02*
X155225000Y-121835000D01*
X126640000Y-122791252D02*
X126640000Y-122268748D01*
X125220000Y-122791252D02*
X125220000Y-122268748D01*
X134668748Y-123320000D02*
X135191252Y-123320000D01*
X134668748Y-124740000D02*
X135191252Y-124740000D01*
X136260000Y-91198748D02*
X136260000Y-91721252D01*
X134840000Y-91198748D02*
X134840000Y-91721252D01*
X130691252Y-123320000D02*
X130168748Y-123320000D01*
X130691252Y-124740000D02*
X130168748Y-124740000D01*
X139375000Y-76615000D02*
X139375000Y-77865000D01*
X138750000Y-77240000D02*
X140000000Y-77240000D01*
X140240000Y-84195563D02*
X141304437Y-85260000D01*
X140240000Y-75804437D02*
X141304437Y-74740000D01*
X140240000Y-75804437D02*
X140240000Y-78490000D01*
X140240000Y-84195563D02*
X140240000Y-81510000D01*
X141304437Y-85260000D02*
X150760000Y-85260000D01*
X141304437Y-74740000D02*
X150760000Y-74740000D01*
X150760000Y-74740000D02*
X150760000Y-78490000D01*
X150760000Y-85260000D02*
X150760000Y-81510000D01*
X139615000Y-94960000D02*
X142475000Y-94960000D01*
X139615000Y-93040000D02*
X139615000Y-94960000D01*
X142475000Y-93040000D02*
X139615000Y-93040000D01*
X145410000Y-85780000D02*
X146870000Y-85780000D01*
X145410000Y-88940000D02*
X147570000Y-88940000D01*
X145410000Y-88940000D02*
X145410000Y-88010000D01*
X145410000Y-85780000D02*
X145410000Y-86710000D01*
X172200000Y-89000000D02*
G75*
G03*
X172200000Y-89000000I-700000J0D01*
G01*
X152600000Y-106500000D02*
X155400000Y-106500000D01*
X155400000Y-106500000D02*
X155400000Y-108500000D01*
X155400000Y-108500000D02*
X152600000Y-108500000D01*
X152600000Y-108500000D02*
X152600000Y-106500000D01*
X152600000Y-111000000D02*
X152600000Y-109000000D01*
X155400000Y-111000000D02*
X152600000Y-111000000D01*
X155400000Y-109000000D02*
X155400000Y-111000000D01*
X152600000Y-109000000D02*
X155400000Y-109000000D01*
X123100000Y-81150000D02*
X126250000Y-81150000D01*
X123250000Y-92850000D02*
X123250000Y-81150000D01*
X126250000Y-92850000D02*
X123250000Y-92850000D01*
X133750000Y-92850000D02*
X130800000Y-92850000D01*
X133750000Y-81150000D02*
X133750000Y-92850000D01*
X130800000Y-81150000D02*
X133750000Y-81150000D01*
X126640000Y-126768748D02*
X126640000Y-127291252D01*
X125220000Y-126768748D02*
X125220000Y-127291252D01*
X131168748Y-135740000D02*
X131691252Y-135740000D01*
X131168748Y-134320000D02*
X131691252Y-134320000D01*
X126668748Y-135740000D02*
X127191252Y-135740000D01*
X126668748Y-134320000D02*
X127191252Y-134320000D01*
X157290000Y-85261252D02*
X157290000Y-84738748D01*
X158710000Y-85261252D02*
X158710000Y-84738748D01*
X126640000Y-131791252D02*
X126640000Y-131268748D01*
X125220000Y-131791252D02*
X125220000Y-131268748D01*
X138720000Y-124447936D02*
X138720000Y-128552064D01*
X142140000Y-124447936D02*
X142140000Y-128552064D01*
X136238748Y-77290000D02*
X136761252Y-77290000D01*
X136238748Y-78710000D02*
X136761252Y-78710000D01*
X145713748Y-94710000D02*
X146236252Y-94710000D01*
X145713748Y-93290000D02*
X146236252Y-93290000D01*
X160278000Y-102516000D02*
X160278000Y-100484000D01*
X160278000Y-100484000D02*
X156722000Y-100484000D01*
D15*
X150204761Y-118647619D02*
X150109523Y-118600000D01*
X150014285Y-118504761D01*
X149871428Y-118361904D01*
X149776190Y-118314285D01*
X149680952Y-118314285D01*
X149728571Y-118552380D02*
X149633333Y-118504761D01*
X149538095Y-118409523D01*
X149490476Y-118219047D01*
X149490476Y-117885714D01*
X149538095Y-117695238D01*
X149633333Y-117600000D01*
X149728571Y-117552380D01*
X149919047Y-117552380D01*
X150014285Y-117600000D01*
X150109523Y-117695238D01*
X150157142Y-117885714D01*
X150157142Y-118219047D01*
X150109523Y-118409523D01*
X150014285Y-118504761D01*
X149919047Y-118552380D01*
X149728571Y-118552380D01*
X151014285Y-117885714D02*
X151014285Y-118552380D01*
X150776190Y-117504761D02*
X150538095Y-118219047D01*
X151157142Y-118219047D01*
X144643333Y-121877142D02*
X144595714Y-121924761D01*
X144452857Y-121972380D01*
X144357619Y-121972380D01*
X144214761Y-121924761D01*
X144119523Y-121829523D01*
X144071904Y-121734285D01*
X144024285Y-121543809D01*
X144024285Y-121400952D01*
X144071904Y-121210476D01*
X144119523Y-121115238D01*
X144214761Y-121020000D01*
X144357619Y-120972380D01*
X144452857Y-120972380D01*
X144595714Y-121020000D01*
X144643333Y-121067619D01*
X145500476Y-120972380D02*
X145310000Y-120972380D01*
X145214761Y-121020000D01*
X145167142Y-121067619D01*
X145071904Y-121210476D01*
X145024285Y-121400952D01*
X145024285Y-121781904D01*
X145071904Y-121877142D01*
X145119523Y-121924761D01*
X145214761Y-121972380D01*
X145405238Y-121972380D01*
X145500476Y-121924761D01*
X145548095Y-121877142D01*
X145595714Y-121781904D01*
X145595714Y-121543809D01*
X145548095Y-121448571D01*
X145500476Y-121400952D01*
X145405238Y-121353333D01*
X145214761Y-121353333D01*
X145119523Y-121400952D01*
X145071904Y-121448571D01*
X145024285Y-121543809D01*
X131014096Y-130482380D02*
X131014096Y-131291904D01*
X131061715Y-131387142D01*
X131109334Y-131434761D01*
X131204572Y-131482380D01*
X131395048Y-131482380D01*
X131490286Y-131434761D01*
X131537905Y-131387142D01*
X131585524Y-131291904D01*
X131585524Y-130482380D01*
X132537905Y-130482380D02*
X132061715Y-130482380D01*
X132014096Y-130958571D01*
X132061715Y-130910952D01*
X132156953Y-130863333D01*
X132395048Y-130863333D01*
X132490286Y-130910952D01*
X132537905Y-130958571D01*
X132585524Y-131053809D01*
X132585524Y-131291904D01*
X132537905Y-131387142D01*
X132490286Y-131434761D01*
X132395048Y-131482380D01*
X132156953Y-131482380D01*
X132061715Y-131434761D01*
X132014096Y-131387142D01*
X134497619Y-114705238D02*
X134450000Y-114800476D01*
X134354761Y-114895714D01*
X134211904Y-115038571D01*
X134164285Y-115133809D01*
X134164285Y-115229047D01*
X134402380Y-115181428D02*
X134354761Y-115276666D01*
X134259523Y-115371904D01*
X134069047Y-115419523D01*
X133735714Y-115419523D01*
X133545238Y-115371904D01*
X133450000Y-115276666D01*
X133402380Y-115181428D01*
X133402380Y-114990952D01*
X133450000Y-114895714D01*
X133545238Y-114800476D01*
X133735714Y-114752857D01*
X134069047Y-114752857D01*
X134259523Y-114800476D01*
X134354761Y-114895714D01*
X134402380Y-114990952D01*
X134402380Y-115181428D01*
X134402380Y-113800476D02*
X134402380Y-114371904D01*
X134402380Y-114086190D02*
X133402380Y-114086190D01*
X133545238Y-114181428D01*
X133640476Y-114276666D01*
X133688095Y-114371904D01*
X122872380Y-105184095D02*
X121872380Y-105184095D01*
X121872380Y-104946000D01*
X121920000Y-104803142D01*
X122015238Y-104707904D01*
X122110476Y-104660285D01*
X122300952Y-104612666D01*
X122443809Y-104612666D01*
X122634285Y-104660285D01*
X122729523Y-104707904D01*
X122824761Y-104803142D01*
X122872380Y-104946000D01*
X122872380Y-105184095D01*
X121872380Y-103707904D02*
X121872380Y-104184095D01*
X122348571Y-104231714D01*
X122300952Y-104184095D01*
X122253333Y-104088857D01*
X122253333Y-103850761D01*
X122300952Y-103755523D01*
X122348571Y-103707904D01*
X122443809Y-103660285D01*
X122681904Y-103660285D01*
X122777142Y-103707904D01*
X122824761Y-103755523D01*
X122872380Y-103850761D01*
X122872380Y-104088857D01*
X122824761Y-104184095D01*
X122777142Y-104231714D01*
X149357142Y-89452380D02*
X149023809Y-88976190D01*
X148785714Y-89452380D02*
X148785714Y-88452380D01*
X149166666Y-88452380D01*
X149261904Y-88500000D01*
X149309523Y-88547619D01*
X149357142Y-88642857D01*
X149357142Y-88785714D01*
X149309523Y-88880952D01*
X149261904Y-88928571D01*
X149166666Y-88976190D01*
X148785714Y-88976190D01*
X150309523Y-89452380D02*
X149738095Y-89452380D01*
X150023809Y-89452380D02*
X150023809Y-88452380D01*
X149928571Y-88595238D01*
X149833333Y-88690476D01*
X149738095Y-88738095D01*
X150642857Y-88452380D02*
X151309523Y-88452380D01*
X150880952Y-89452380D01*
X156357142Y-80302380D02*
X156023809Y-79826190D01*
X155785714Y-80302380D02*
X155785714Y-79302380D01*
X156166666Y-79302380D01*
X156261904Y-79350000D01*
X156309523Y-79397619D01*
X156357142Y-79492857D01*
X156357142Y-79635714D01*
X156309523Y-79730952D01*
X156261904Y-79778571D01*
X156166666Y-79826190D01*
X155785714Y-79826190D01*
X157309523Y-80302380D02*
X156738095Y-80302380D01*
X157023809Y-80302380D02*
X157023809Y-79302380D01*
X156928571Y-79445238D01*
X156833333Y-79540476D01*
X156738095Y-79588095D01*
X158166666Y-79302380D02*
X157976190Y-79302380D01*
X157880952Y-79350000D01*
X157833333Y-79397619D01*
X157738095Y-79540476D01*
X157690476Y-79730952D01*
X157690476Y-80111904D01*
X157738095Y-80207142D01*
X157785714Y-80254761D01*
X157880952Y-80302380D01*
X158071428Y-80302380D01*
X158166666Y-80254761D01*
X158214285Y-80207142D01*
X158261904Y-80111904D01*
X158261904Y-79873809D01*
X158214285Y-79778571D01*
X158166666Y-79730952D01*
X158071428Y-79683333D01*
X157880952Y-79683333D01*
X157785714Y-79730952D01*
X157738095Y-79778571D01*
X157690476Y-79873809D01*
X154404761Y-88047619D02*
X154309523Y-88000000D01*
X154214285Y-87904761D01*
X154071428Y-87761904D01*
X153976190Y-87714285D01*
X153880952Y-87714285D01*
X153928571Y-87952380D02*
X153833333Y-87904761D01*
X153738095Y-87809523D01*
X153690476Y-87619047D01*
X153690476Y-87285714D01*
X153738095Y-87095238D01*
X153833333Y-87000000D01*
X153928571Y-86952380D01*
X154119047Y-86952380D01*
X154214285Y-87000000D01*
X154309523Y-87095238D01*
X154357142Y-87285714D01*
X154357142Y-87619047D01*
X154309523Y-87809523D01*
X154214285Y-87904761D01*
X154119047Y-87952380D01*
X153928571Y-87952380D01*
X154690476Y-86952380D02*
X155309523Y-86952380D01*
X154976190Y-87333333D01*
X155119047Y-87333333D01*
X155214285Y-87380952D01*
X155261904Y-87428571D01*
X155309523Y-87523809D01*
X155309523Y-87761904D01*
X155261904Y-87857142D01*
X155214285Y-87904761D01*
X155119047Y-87952380D01*
X154833333Y-87952380D01*
X154738095Y-87904761D01*
X154690476Y-87857142D01*
X136357142Y-85577142D02*
X136309523Y-85624761D01*
X136166666Y-85672380D01*
X136071428Y-85672380D01*
X135928571Y-85624761D01*
X135833333Y-85529523D01*
X135785714Y-85434285D01*
X135738095Y-85243809D01*
X135738095Y-85100952D01*
X135785714Y-84910476D01*
X135833333Y-84815238D01*
X135928571Y-84720000D01*
X136071428Y-84672380D01*
X136166666Y-84672380D01*
X136309523Y-84720000D01*
X136357142Y-84767619D01*
X137309523Y-85672380D02*
X136738095Y-85672380D01*
X137023809Y-85672380D02*
X137023809Y-84672380D01*
X136928571Y-84815238D01*
X136833333Y-84910476D01*
X136738095Y-84958095D01*
X137642857Y-84672380D02*
X138261904Y-84672380D01*
X137928571Y-85053333D01*
X138071428Y-85053333D01*
X138166666Y-85100952D01*
X138214285Y-85148571D01*
X138261904Y-85243809D01*
X138261904Y-85481904D01*
X138214285Y-85577142D01*
X138166666Y-85624761D01*
X138071428Y-85672380D01*
X137785714Y-85672380D01*
X137690476Y-85624761D01*
X137642857Y-85577142D01*
X136357142Y-80577142D02*
X136309523Y-80624761D01*
X136166666Y-80672380D01*
X136071428Y-80672380D01*
X135928571Y-80624761D01*
X135833333Y-80529523D01*
X135785714Y-80434285D01*
X135738095Y-80243809D01*
X135738095Y-80100952D01*
X135785714Y-79910476D01*
X135833333Y-79815238D01*
X135928571Y-79720000D01*
X136071428Y-79672380D01*
X136166666Y-79672380D01*
X136309523Y-79720000D01*
X136357142Y-79767619D01*
X137309523Y-80672380D02*
X136738095Y-80672380D01*
X137023809Y-80672380D02*
X137023809Y-79672380D01*
X136928571Y-79815238D01*
X136833333Y-79910476D01*
X136738095Y-79958095D01*
X137928571Y-79672380D02*
X138023809Y-79672380D01*
X138119047Y-79720000D01*
X138166666Y-79767619D01*
X138214285Y-79862857D01*
X138261904Y-80053333D01*
X138261904Y-80291428D01*
X138214285Y-80481904D01*
X138166666Y-80577142D01*
X138119047Y-80624761D01*
X138023809Y-80672380D01*
X137928571Y-80672380D01*
X137833333Y-80624761D01*
X137785714Y-80577142D01*
X137738095Y-80481904D01*
X137690476Y-80291428D01*
X137690476Y-80053333D01*
X137738095Y-79862857D01*
X137785714Y-79767619D01*
X137833333Y-79720000D01*
X137928571Y-79672380D01*
X171773619Y-81986666D02*
X171059333Y-81986666D01*
X170916476Y-81939047D01*
X170821238Y-81843809D01*
X170773619Y-81700952D01*
X170773619Y-81605714D01*
X171773619Y-82367619D02*
X171773619Y-82986666D01*
X171392666Y-82653333D01*
X171392666Y-82796190D01*
X171345047Y-82891428D01*
X171297428Y-82939047D01*
X171202190Y-82986666D01*
X170964095Y-82986666D01*
X170868857Y-82939047D01*
X170821238Y-82891428D01*
X170773619Y-82796190D01*
X170773619Y-82510476D01*
X170821238Y-82415238D01*
X170868857Y-82367619D01*
D16*
X161665155Y-120694023D02*
X161665155Y-119992793D01*
X161665155Y-120326712D02*
X162065858Y-120326712D01*
X162065858Y-120694023D02*
X162065858Y-119992793D01*
X162800480Y-120627239D02*
X162767088Y-120660631D01*
X162666912Y-120694023D01*
X162600129Y-120694023D01*
X162499953Y-120660631D01*
X162433169Y-120593847D01*
X162399777Y-120527063D01*
X162366385Y-120393495D01*
X162366385Y-120293320D01*
X162399777Y-120159752D01*
X162433169Y-120092968D01*
X162499953Y-120026185D01*
X162600129Y-119992793D01*
X162666912Y-119992793D01*
X162767088Y-120026185D01*
X162800480Y-120059576D01*
X163101007Y-120426887D02*
X163635278Y-120426887D01*
X164102764Y-119992793D02*
X164169548Y-119992793D01*
X164236332Y-120026185D01*
X164269724Y-120059576D01*
X164303116Y-120126360D01*
X164336508Y-120259928D01*
X164336508Y-120426887D01*
X164303116Y-120560455D01*
X164269724Y-120627239D01*
X164236332Y-120660631D01*
X164169548Y-120694023D01*
X164102764Y-120694023D01*
X164035980Y-120660631D01*
X164002589Y-120627239D01*
X163969197Y-120560455D01*
X163935805Y-120426887D01*
X163935805Y-120259928D01*
X163969197Y-120126360D01*
X164002589Y-120059576D01*
X164035980Y-120026185D01*
X164102764Y-119992793D01*
X164970954Y-119992793D02*
X164637035Y-119992793D01*
X164603643Y-120326712D01*
X164637035Y-120293320D01*
X164703819Y-120259928D01*
X164870778Y-120259928D01*
X164937562Y-120293320D01*
X164970954Y-120326712D01*
X165004346Y-120393495D01*
X165004346Y-120560455D01*
X164970954Y-120627239D01*
X164937562Y-120660631D01*
X164870778Y-120694023D01*
X164703819Y-120694023D01*
X164637035Y-120660631D01*
X164603643Y-120627239D01*
D15*
X149333333Y-114357142D02*
X149285714Y-114404761D01*
X149142857Y-114452380D01*
X149047619Y-114452380D01*
X148904761Y-114404761D01*
X148809523Y-114309523D01*
X148761904Y-114214285D01*
X148714285Y-114023809D01*
X148714285Y-113880952D01*
X148761904Y-113690476D01*
X148809523Y-113595238D01*
X148904761Y-113500000D01*
X149047619Y-113452380D01*
X149142857Y-113452380D01*
X149285714Y-113500000D01*
X149333333Y-113547619D01*
X150285714Y-114452380D02*
X149714285Y-114452380D01*
X150000000Y-114452380D02*
X150000000Y-113452380D01*
X149904761Y-113595238D01*
X149809523Y-113690476D01*
X149714285Y-113738095D01*
X163832380Y-100248095D02*
X162832380Y-100248095D01*
X162832380Y-100010000D01*
X162880000Y-99867142D01*
X162975238Y-99771904D01*
X163070476Y-99724285D01*
X163260952Y-99676666D01*
X163403809Y-99676666D01*
X163594285Y-99724285D01*
X163689523Y-99771904D01*
X163784761Y-99867142D01*
X163832380Y-100010000D01*
X163832380Y-100248095D01*
X163308571Y-98914761D02*
X163356190Y-98771904D01*
X163403809Y-98724285D01*
X163499047Y-98676666D01*
X163641904Y-98676666D01*
X163737142Y-98724285D01*
X163784761Y-98771904D01*
X163832380Y-98867142D01*
X163832380Y-99248095D01*
X162832380Y-99248095D01*
X162832380Y-98914761D01*
X162880000Y-98819523D01*
X162927619Y-98771904D01*
X163022857Y-98724285D01*
X163118095Y-98724285D01*
X163213333Y-98771904D01*
X163260952Y-98819523D01*
X163308571Y-98914761D01*
X163308571Y-99248095D01*
X162880000Y-97724285D02*
X162832380Y-97819523D01*
X162832380Y-97962380D01*
X162880000Y-98105238D01*
X162975238Y-98200476D01*
X163070476Y-98248095D01*
X163260952Y-98295714D01*
X163403809Y-98295714D01*
X163594285Y-98248095D01*
X163689523Y-98200476D01*
X163784761Y-98105238D01*
X163832380Y-97962380D01*
X163832380Y-97867142D01*
X163784761Y-97724285D01*
X163737142Y-97676666D01*
X163403809Y-97676666D01*
X163403809Y-97867142D01*
X162832380Y-97057619D02*
X162832380Y-96962380D01*
X162880000Y-96867142D01*
X162927619Y-96819523D01*
X163022857Y-96771904D01*
X163213333Y-96724285D01*
X163451428Y-96724285D01*
X163641904Y-96771904D01*
X163737142Y-96819523D01*
X163784761Y-96867142D01*
X163832380Y-96962380D01*
X163832380Y-97057619D01*
X163784761Y-97152857D01*
X163737142Y-97200476D01*
X163641904Y-97248095D01*
X163451428Y-97295714D01*
X163213333Y-97295714D01*
X163022857Y-97248095D01*
X162927619Y-97200476D01*
X162880000Y-97152857D01*
X162832380Y-97057619D01*
X140204761Y-139052380D02*
X140204761Y-138052380D01*
X140442857Y-138052380D01*
X140585714Y-138100000D01*
X140680952Y-138195238D01*
X140728571Y-138290476D01*
X140776190Y-138480952D01*
X140776190Y-138623809D01*
X140728571Y-138814285D01*
X140680952Y-138909523D01*
X140585714Y-139004761D01*
X140442857Y-139052380D01*
X140204761Y-139052380D01*
X141776190Y-138957142D02*
X141728571Y-139004761D01*
X141585714Y-139052380D01*
X141490476Y-139052380D01*
X141347619Y-139004761D01*
X141252380Y-138909523D01*
X141204761Y-138814285D01*
X141157142Y-138623809D01*
X141157142Y-138480952D01*
X141204761Y-138290476D01*
X141252380Y-138195238D01*
X141347619Y-138100000D01*
X141490476Y-138052380D01*
X141585714Y-138052380D01*
X141728571Y-138100000D01*
X141776190Y-138147619D01*
X143442857Y-138052380D02*
X142966666Y-138052380D01*
X142919047Y-138528571D01*
X142966666Y-138480952D01*
X143061904Y-138433333D01*
X143300000Y-138433333D01*
X143395238Y-138480952D01*
X143442857Y-138528571D01*
X143490476Y-138623809D01*
X143490476Y-138861904D01*
X143442857Y-138957142D01*
X143395238Y-139004761D01*
X143300000Y-139052380D01*
X143061904Y-139052380D01*
X142966666Y-139004761D01*
X142919047Y-138957142D01*
X143919047Y-138957142D02*
X143966666Y-139004761D01*
X143919047Y-139052380D01*
X143871428Y-139004761D01*
X143919047Y-138957142D01*
X143919047Y-139052380D01*
X144871428Y-138052380D02*
X144395238Y-138052380D01*
X144347619Y-138528571D01*
X144395238Y-138480952D01*
X144490476Y-138433333D01*
X144728571Y-138433333D01*
X144823809Y-138480952D01*
X144871428Y-138528571D01*
X144919047Y-138623809D01*
X144919047Y-138861904D01*
X144871428Y-138957142D01*
X144823809Y-139004761D01*
X144728571Y-139052380D01*
X144490476Y-139052380D01*
X144395238Y-139004761D01*
X144347619Y-138957142D01*
X146109523Y-138671428D02*
X146871428Y-138671428D01*
X148538095Y-138385714D02*
X148538095Y-139052380D01*
X148300000Y-138004761D02*
X148061904Y-138719047D01*
X148680952Y-138719047D01*
X149014285Y-138147619D02*
X149061904Y-138100000D01*
X149157142Y-138052380D01*
X149395238Y-138052380D01*
X149490476Y-138100000D01*
X149538095Y-138147619D01*
X149585714Y-138242857D01*
X149585714Y-138338095D01*
X149538095Y-138480952D01*
X148966666Y-139052380D01*
X149585714Y-139052380D01*
X149871428Y-138052380D02*
X150204761Y-139052380D01*
X150538095Y-138052380D01*
X170452380Y-96261904D02*
X171261904Y-96261904D01*
X171357142Y-96214285D01*
X171404761Y-96166666D01*
X171452380Y-96071428D01*
X171452380Y-95880952D01*
X171404761Y-95785714D01*
X171357142Y-95738095D01*
X171261904Y-95690476D01*
X170452380Y-95690476D01*
X170785714Y-94785714D02*
X171452380Y-94785714D01*
X170404761Y-95023809D02*
X171119047Y-95261904D01*
X171119047Y-94642857D01*
X168352380Y-101666666D02*
X167876190Y-102000000D01*
X168352380Y-102238095D02*
X167352380Y-102238095D01*
X167352380Y-101857142D01*
X167400000Y-101761904D01*
X167447619Y-101714285D01*
X167542857Y-101666666D01*
X167685714Y-101666666D01*
X167780952Y-101714285D01*
X167828571Y-101761904D01*
X167876190Y-101857142D01*
X167876190Y-102238095D01*
X167352380Y-101333333D02*
X167352380Y-100666666D01*
X168352380Y-101095238D01*
X148833333Y-100452380D02*
X148500000Y-99976190D01*
X148261904Y-100452380D02*
X148261904Y-99452380D01*
X148642857Y-99452380D01*
X148738095Y-99500000D01*
X148785714Y-99547619D01*
X148833333Y-99642857D01*
X148833333Y-99785714D01*
X148785714Y-99880952D01*
X148738095Y-99928571D01*
X148642857Y-99976190D01*
X148261904Y-99976190D01*
X149690476Y-99452380D02*
X149500000Y-99452380D01*
X149404761Y-99500000D01*
X149357142Y-99547619D01*
X149261904Y-99690476D01*
X149214285Y-99880952D01*
X149214285Y-100261904D01*
X149261904Y-100357142D01*
X149309523Y-100404761D01*
X149404761Y-100452380D01*
X149595238Y-100452380D01*
X149690476Y-100404761D01*
X149738095Y-100357142D01*
X149785714Y-100261904D01*
X149785714Y-100023809D01*
X149738095Y-99928571D01*
X149690476Y-99880952D01*
X149595238Y-99833333D01*
X149404761Y-99833333D01*
X149309523Y-99880952D01*
X149261904Y-99928571D01*
X149214285Y-100023809D01*
X154602380Y-114566666D02*
X154126190Y-114900000D01*
X154602380Y-115138095D02*
X153602380Y-115138095D01*
X153602380Y-114757142D01*
X153650000Y-114661904D01*
X153697619Y-114614285D01*
X153792857Y-114566666D01*
X153935714Y-114566666D01*
X154030952Y-114614285D01*
X154078571Y-114661904D01*
X154126190Y-114757142D01*
X154126190Y-115138095D01*
X153602380Y-113661904D02*
X153602380Y-114138095D01*
X154078571Y-114185714D01*
X154030952Y-114138095D01*
X153983333Y-114042857D01*
X153983333Y-113804761D01*
X154030952Y-113709523D01*
X154078571Y-113661904D01*
X154173809Y-113614285D01*
X154411904Y-113614285D01*
X154507142Y-113661904D01*
X154554761Y-113709523D01*
X154602380Y-113804761D01*
X154602380Y-114042857D01*
X154554761Y-114138095D01*
X154507142Y-114185714D01*
X137275095Y-99452380D02*
X137846523Y-99452380D01*
X137560809Y-100452380D02*
X137560809Y-99452380D01*
X138084619Y-99452380D02*
X138751285Y-100452380D01*
X138751285Y-99452380D02*
X138084619Y-100452380D01*
X164402380Y-101666666D02*
X163926190Y-102000000D01*
X164402380Y-102238095D02*
X163402380Y-102238095D01*
X163402380Y-101857142D01*
X163450000Y-101761904D01*
X163497619Y-101714285D01*
X163592857Y-101666666D01*
X163735714Y-101666666D01*
X163830952Y-101714285D01*
X163878571Y-101761904D01*
X163926190Y-101857142D01*
X163926190Y-102238095D01*
X163735714Y-100809523D02*
X164402380Y-100809523D01*
X163354761Y-101047619D02*
X164069047Y-101285714D01*
X164069047Y-100666666D01*
X148833333Y-97452380D02*
X148500000Y-96976190D01*
X148261904Y-97452380D02*
X148261904Y-96452380D01*
X148642857Y-96452380D01*
X148738095Y-96500000D01*
X148785714Y-96547619D01*
X148833333Y-96642857D01*
X148833333Y-96785714D01*
X148785714Y-96880952D01*
X148738095Y-96928571D01*
X148642857Y-96976190D01*
X148261904Y-96976190D01*
X149166666Y-96452380D02*
X149785714Y-96452380D01*
X149452380Y-96833333D01*
X149595238Y-96833333D01*
X149690476Y-96880952D01*
X149738095Y-96928571D01*
X149785714Y-97023809D01*
X149785714Y-97261904D01*
X149738095Y-97357142D01*
X149690476Y-97404761D01*
X149595238Y-97452380D01*
X149309523Y-97452380D01*
X149214285Y-97404761D01*
X149166666Y-97357142D01*
X148833333Y-91452380D02*
X148500000Y-90976190D01*
X148261904Y-91452380D02*
X148261904Y-90452380D01*
X148642857Y-90452380D01*
X148738095Y-90500000D01*
X148785714Y-90547619D01*
X148833333Y-90642857D01*
X148833333Y-90785714D01*
X148785714Y-90880952D01*
X148738095Y-90928571D01*
X148642857Y-90976190D01*
X148261904Y-90976190D01*
X149214285Y-90547619D02*
X149261904Y-90500000D01*
X149357142Y-90452380D01*
X149595238Y-90452380D01*
X149690476Y-90500000D01*
X149738095Y-90547619D01*
X149785714Y-90642857D01*
X149785714Y-90738095D01*
X149738095Y-90880952D01*
X149166666Y-91452380D01*
X149785714Y-91452380D01*
X152452380Y-105166666D02*
X151976190Y-105500000D01*
X152452380Y-105738095D02*
X151452380Y-105738095D01*
X151452380Y-105357142D01*
X151500000Y-105261904D01*
X151547619Y-105214285D01*
X151642857Y-105166666D01*
X151785714Y-105166666D01*
X151880952Y-105214285D01*
X151928571Y-105261904D01*
X151976190Y-105357142D01*
X151976190Y-105738095D01*
X152452380Y-104214285D02*
X152452380Y-104785714D01*
X152452380Y-104500000D02*
X151452380Y-104500000D01*
X151595238Y-104595238D01*
X151690476Y-104690476D01*
X151738095Y-104785714D01*
X137895333Y-97452380D02*
X137562000Y-96976190D01*
X137323904Y-97452380D02*
X137323904Y-96452380D01*
X137704857Y-96452380D01*
X137800095Y-96500000D01*
X137847714Y-96547619D01*
X137895333Y-96642857D01*
X137895333Y-96785714D01*
X137847714Y-96880952D01*
X137800095Y-96928571D01*
X137704857Y-96976190D01*
X137323904Y-96976190D01*
X138228666Y-96452380D02*
X138895333Y-97452380D01*
X138895333Y-96452380D02*
X138228666Y-97452380D01*
X139500000Y-89271428D02*
X140261904Y-89271428D01*
X139880952Y-89652380D02*
X139880952Y-88890476D01*
X140642857Y-88652380D02*
X141261904Y-88652380D01*
X140928571Y-89033333D01*
X141071428Y-89033333D01*
X141166666Y-89080952D01*
X141214285Y-89128571D01*
X141261904Y-89223809D01*
X141261904Y-89461904D01*
X141214285Y-89557142D01*
X141166666Y-89604761D01*
X141071428Y-89652380D01*
X140785714Y-89652380D01*
X140690476Y-89604761D01*
X140642857Y-89557142D01*
X141690476Y-89557142D02*
X141738095Y-89604761D01*
X141690476Y-89652380D01*
X141642857Y-89604761D01*
X141690476Y-89557142D01*
X141690476Y-89652380D01*
X142071428Y-88652380D02*
X142690476Y-88652380D01*
X142357142Y-89033333D01*
X142500000Y-89033333D01*
X142595238Y-89080952D01*
X142642857Y-89128571D01*
X142690476Y-89223809D01*
X142690476Y-89461904D01*
X142642857Y-89557142D01*
X142595238Y-89604761D01*
X142500000Y-89652380D01*
X142214285Y-89652380D01*
X142119047Y-89604761D01*
X142071428Y-89557142D01*
X142976190Y-88652380D02*
X143309523Y-89652380D01*
X143642857Y-88652380D01*
X167833333Y-90357142D02*
X167785714Y-90404761D01*
X167642857Y-90452380D01*
X167547619Y-90452380D01*
X167404761Y-90404761D01*
X167309523Y-90309523D01*
X167261904Y-90214285D01*
X167214285Y-90023809D01*
X167214285Y-89880952D01*
X167261904Y-89690476D01*
X167309523Y-89595238D01*
X167404761Y-89500000D01*
X167547619Y-89452380D01*
X167642857Y-89452380D01*
X167785714Y-89500000D01*
X167833333Y-89547619D01*
X168690476Y-89785714D02*
X168690476Y-90452380D01*
X168452380Y-89404761D02*
X168214285Y-90119047D01*
X168833333Y-90119047D01*
X155357142Y-105166666D02*
X155404761Y-105214285D01*
X155452380Y-105357142D01*
X155452380Y-105452380D01*
X155404761Y-105595238D01*
X155309523Y-105690476D01*
X155214285Y-105738095D01*
X155023809Y-105785714D01*
X154880952Y-105785714D01*
X154690476Y-105738095D01*
X154595238Y-105690476D01*
X154500000Y-105595238D01*
X154452380Y-105452380D01*
X154452380Y-105357142D01*
X154500000Y-105214285D01*
X154547619Y-105166666D01*
X154452380Y-104833333D02*
X154452380Y-104214285D01*
X154833333Y-104547619D01*
X154833333Y-104404761D01*
X154880952Y-104309523D01*
X154928571Y-104261904D01*
X155023809Y-104214285D01*
X155261904Y-104214285D01*
X155357142Y-104261904D01*
X155404761Y-104309523D01*
X155452380Y-104404761D01*
X155452380Y-104690476D01*
X155404761Y-104785714D01*
X155357142Y-104833333D01*
X135209523Y-68952380D02*
X134733333Y-68952380D01*
X134685714Y-69428571D01*
X134733333Y-69380952D01*
X134828571Y-69333333D01*
X135066666Y-69333333D01*
X135161904Y-69380952D01*
X135209523Y-69428571D01*
X135257142Y-69523809D01*
X135257142Y-69761904D01*
X135209523Y-69857142D01*
X135161904Y-69904761D01*
X135066666Y-69952380D01*
X134828571Y-69952380D01*
X134733333Y-69904761D01*
X134685714Y-69857142D01*
X135542857Y-68952380D02*
X135876190Y-69952380D01*
X136209523Y-68952380D01*
X145000000Y-64452380D02*
X145000000Y-63452380D01*
X145238095Y-63452380D01*
X145380952Y-63500000D01*
X145476190Y-63595238D01*
X145523809Y-63690476D01*
X145571428Y-63880952D01*
X145571428Y-64023809D01*
X145523809Y-64214285D01*
X145476190Y-64309523D01*
X145380952Y-64404761D01*
X145238095Y-64452380D01*
X145000000Y-64452380D01*
X145952380Y-64166666D02*
X146428571Y-64166666D01*
X145857142Y-64452380D02*
X146190476Y-63452380D01*
X146523809Y-64452380D01*
X146714285Y-63452380D02*
X147285714Y-63452380D01*
X147000000Y-64452380D02*
X147000000Y-63452380D01*
X147571428Y-64166666D02*
X148047619Y-64166666D01*
X147476190Y-64452380D02*
X147809523Y-63452380D01*
X148142857Y-64452380D01*
X156538095Y-69000000D02*
X156442857Y-68952380D01*
X156300000Y-68952380D01*
X156157142Y-69000000D01*
X156061904Y-69095238D01*
X156014285Y-69190476D01*
X155966666Y-69380952D01*
X155966666Y-69523809D01*
X156014285Y-69714285D01*
X156061904Y-69809523D01*
X156157142Y-69904761D01*
X156300000Y-69952380D01*
X156395238Y-69952380D01*
X156538095Y-69904761D01*
X156585714Y-69857142D01*
X156585714Y-69523809D01*
X156395238Y-69523809D01*
X157014285Y-69952380D02*
X157014285Y-68952380D01*
X157585714Y-69952380D01*
X157585714Y-68952380D01*
X158061904Y-69952380D02*
X158061904Y-68952380D01*
X158300000Y-68952380D01*
X158442857Y-69000000D01*
X158538095Y-69095238D01*
X158585714Y-69190476D01*
X158633333Y-69380952D01*
X158633333Y-69523809D01*
X158585714Y-69714285D01*
X158538095Y-69809523D01*
X158442857Y-69904761D01*
X158300000Y-69952380D01*
X158061904Y-69952380D01*
X158904761Y-77833333D02*
X158952380Y-77690476D01*
X158952380Y-77452380D01*
X158904761Y-77357142D01*
X158857142Y-77309523D01*
X158761904Y-77261904D01*
X158666666Y-77261904D01*
X158571428Y-77309523D01*
X158523809Y-77357142D01*
X158476190Y-77452380D01*
X158428571Y-77642857D01*
X158380952Y-77738095D01*
X158333333Y-77785714D01*
X158238095Y-77833333D01*
X158142857Y-77833333D01*
X158047619Y-77785714D01*
X158000000Y-77738095D01*
X157952380Y-77642857D01*
X157952380Y-77404761D01*
X158000000Y-77261904D01*
X157952380Y-76928571D02*
X158952380Y-76690476D01*
X158238095Y-76500000D01*
X158952380Y-76309523D01*
X157952380Y-76071428D01*
X158047619Y-75738095D02*
X158000000Y-75690476D01*
X157952380Y-75595238D01*
X157952380Y-75357142D01*
X158000000Y-75261904D01*
X158047619Y-75214285D01*
X158142857Y-75166666D01*
X158238095Y-75166666D01*
X158380952Y-75214285D01*
X158952380Y-75785714D01*
X158952380Y-75166666D01*
X141333333Y-103357142D02*
X141285714Y-103404761D01*
X141142857Y-103452380D01*
X141047619Y-103452380D01*
X140904761Y-103404761D01*
X140809523Y-103309523D01*
X140761904Y-103214285D01*
X140714285Y-103023809D01*
X140714285Y-102880952D01*
X140761904Y-102690476D01*
X140809523Y-102595238D01*
X140904761Y-102500000D01*
X141047619Y-102452380D01*
X141142857Y-102452380D01*
X141285714Y-102500000D01*
X141333333Y-102547619D01*
X141714285Y-102547619D02*
X141761904Y-102500000D01*
X141857142Y-102452380D01*
X142095238Y-102452380D01*
X142190476Y-102500000D01*
X142238095Y-102547619D01*
X142285714Y-102642857D01*
X142285714Y-102738095D01*
X142238095Y-102880952D01*
X141666666Y-103452380D01*
X142285714Y-103452380D01*
X148973333Y-120717142D02*
X148925714Y-120764761D01*
X148782857Y-120812380D01*
X148687619Y-120812380D01*
X148544761Y-120764761D01*
X148449523Y-120669523D01*
X148401904Y-120574285D01*
X148354285Y-120383809D01*
X148354285Y-120240952D01*
X148401904Y-120050476D01*
X148449523Y-119955238D01*
X148544761Y-119860000D01*
X148687619Y-119812380D01*
X148782857Y-119812380D01*
X148925714Y-119860000D01*
X148973333Y-119907619D01*
X149878095Y-119812380D02*
X149401904Y-119812380D01*
X149354285Y-120288571D01*
X149401904Y-120240952D01*
X149497142Y-120193333D01*
X149735238Y-120193333D01*
X149830476Y-120240952D01*
X149878095Y-120288571D01*
X149925714Y-120383809D01*
X149925714Y-120621904D01*
X149878095Y-120717142D01*
X149830476Y-120764761D01*
X149735238Y-120812380D01*
X149497142Y-120812380D01*
X149401904Y-120764761D01*
X149354285Y-120717142D01*
X124637142Y-122696666D02*
X124684761Y-122744285D01*
X124732380Y-122887142D01*
X124732380Y-122982380D01*
X124684761Y-123125238D01*
X124589523Y-123220476D01*
X124494285Y-123268095D01*
X124303809Y-123315714D01*
X124160952Y-123315714D01*
X123970476Y-123268095D01*
X123875238Y-123220476D01*
X123780000Y-123125238D01*
X123732380Y-122982380D01*
X123732380Y-122887142D01*
X123780000Y-122744285D01*
X123827619Y-122696666D01*
X123732380Y-122363333D02*
X123732380Y-121696666D01*
X124732380Y-122125238D01*
X134733333Y-122857142D02*
X134685714Y-122904761D01*
X134542857Y-122952380D01*
X134447619Y-122952380D01*
X134304761Y-122904761D01*
X134209523Y-122809523D01*
X134161904Y-122714285D01*
X134114285Y-122523809D01*
X134114285Y-122380952D01*
X134161904Y-122190476D01*
X134209523Y-122095238D01*
X134304761Y-122000000D01*
X134447619Y-121952380D01*
X134542857Y-121952380D01*
X134685714Y-122000000D01*
X134733333Y-122047619D01*
X135304761Y-122380952D02*
X135209523Y-122333333D01*
X135161904Y-122285714D01*
X135114285Y-122190476D01*
X135114285Y-122142857D01*
X135161904Y-122047619D01*
X135209523Y-122000000D01*
X135304761Y-121952380D01*
X135495238Y-121952380D01*
X135590476Y-122000000D01*
X135638095Y-122047619D01*
X135685714Y-122142857D01*
X135685714Y-122190476D01*
X135638095Y-122285714D01*
X135590476Y-122333333D01*
X135495238Y-122380952D01*
X135304761Y-122380952D01*
X135209523Y-122428571D01*
X135161904Y-122476190D01*
X135114285Y-122571428D01*
X135114285Y-122761904D01*
X135161904Y-122857142D01*
X135209523Y-122904761D01*
X135304761Y-122952380D01*
X135495238Y-122952380D01*
X135590476Y-122904761D01*
X135638095Y-122857142D01*
X135685714Y-122761904D01*
X135685714Y-122571428D01*
X135638095Y-122476190D01*
X135590476Y-122428571D01*
X135495238Y-122380952D01*
X137657142Y-91566666D02*
X137704761Y-91614285D01*
X137752380Y-91757142D01*
X137752380Y-91852380D01*
X137704761Y-91995238D01*
X137609523Y-92090476D01*
X137514285Y-92138095D01*
X137323809Y-92185714D01*
X137180952Y-92185714D01*
X136990476Y-92138095D01*
X136895238Y-92090476D01*
X136800000Y-91995238D01*
X136752380Y-91852380D01*
X136752380Y-91757142D01*
X136800000Y-91614285D01*
X136847619Y-91566666D01*
X137752380Y-91090476D02*
X137752380Y-90900000D01*
X137704761Y-90804761D01*
X137657142Y-90757142D01*
X137514285Y-90661904D01*
X137323809Y-90614285D01*
X136942857Y-90614285D01*
X136847619Y-90661904D01*
X136800000Y-90709523D01*
X136752380Y-90804761D01*
X136752380Y-90995238D01*
X136800000Y-91090476D01*
X136847619Y-91138095D01*
X136942857Y-91185714D01*
X137180952Y-91185714D01*
X137276190Y-91138095D01*
X137323809Y-91090476D01*
X137371428Y-90995238D01*
X137371428Y-90804761D01*
X137323809Y-90709523D01*
X137276190Y-90661904D01*
X137180952Y-90614285D01*
X129757142Y-122757142D02*
X129709523Y-122804761D01*
X129566666Y-122852380D01*
X129471428Y-122852380D01*
X129328571Y-122804761D01*
X129233333Y-122709523D01*
X129185714Y-122614285D01*
X129138095Y-122423809D01*
X129138095Y-122280952D01*
X129185714Y-122090476D01*
X129233333Y-121995238D01*
X129328571Y-121900000D01*
X129471428Y-121852380D01*
X129566666Y-121852380D01*
X129709523Y-121900000D01*
X129757142Y-121947619D01*
X130709523Y-122852380D02*
X130138095Y-122852380D01*
X130423809Y-122852380D02*
X130423809Y-121852380D01*
X130328571Y-121995238D01*
X130233333Y-122090476D01*
X130138095Y-122138095D01*
X131661904Y-122852380D02*
X131090476Y-122852380D01*
X131376190Y-122852380D02*
X131376190Y-121852380D01*
X131280952Y-121995238D01*
X131185714Y-122090476D01*
X131090476Y-122138095D01*
X151977142Y-76687142D02*
X151929523Y-76734761D01*
X151786666Y-76782380D01*
X151691428Y-76782380D01*
X151548571Y-76734761D01*
X151453333Y-76639523D01*
X151405714Y-76544285D01*
X151358095Y-76353809D01*
X151358095Y-76210952D01*
X151405714Y-76020476D01*
X151453333Y-75925238D01*
X151548571Y-75830000D01*
X151691428Y-75782380D01*
X151786666Y-75782380D01*
X151929523Y-75830000D01*
X151977142Y-75877619D01*
X152929523Y-76782380D02*
X152358095Y-76782380D01*
X152643809Y-76782380D02*
X152643809Y-75782380D01*
X152548571Y-75925238D01*
X152453333Y-76020476D01*
X152358095Y-76068095D01*
X153310476Y-75877619D02*
X153358095Y-75830000D01*
X153453333Y-75782380D01*
X153691428Y-75782380D01*
X153786666Y-75830000D01*
X153834285Y-75877619D01*
X153881904Y-75972857D01*
X153881904Y-76068095D01*
X153834285Y-76210952D01*
X153262857Y-76782380D01*
X153881904Y-76782380D01*
X136214285Y-94071428D02*
X136976190Y-94071428D01*
X136595238Y-94452380D02*
X136595238Y-93690476D01*
X137928571Y-93452380D02*
X137452380Y-93452380D01*
X137404761Y-93928571D01*
X137452380Y-93880952D01*
X137547619Y-93833333D01*
X137785714Y-93833333D01*
X137880952Y-93880952D01*
X137928571Y-93928571D01*
X137976190Y-94023809D01*
X137976190Y-94261904D01*
X137928571Y-94357142D01*
X137880952Y-94404761D01*
X137785714Y-94452380D01*
X137547619Y-94452380D01*
X137452380Y-94404761D01*
X137404761Y-94357142D01*
X138261904Y-93452380D02*
X138595238Y-94452380D01*
X138928571Y-93452380D01*
X142471904Y-87912380D02*
X142471904Y-86912380D01*
X142710000Y-86912380D01*
X142852857Y-86960000D01*
X142948095Y-87055238D01*
X142995714Y-87150476D01*
X143043333Y-87340952D01*
X143043333Y-87483809D01*
X142995714Y-87674285D01*
X142948095Y-87769523D01*
X142852857Y-87864761D01*
X142710000Y-87912380D01*
X142471904Y-87912380D01*
X143900476Y-86912380D02*
X143710000Y-86912380D01*
X143614761Y-86960000D01*
X143567142Y-87007619D01*
X143471904Y-87150476D01*
X143424285Y-87340952D01*
X143424285Y-87721904D01*
X143471904Y-87817142D01*
X143519523Y-87864761D01*
X143614761Y-87912380D01*
X143805238Y-87912380D01*
X143900476Y-87864761D01*
X143948095Y-87817142D01*
X143995714Y-87721904D01*
X143995714Y-87483809D01*
X143948095Y-87388571D01*
X143900476Y-87340952D01*
X143805238Y-87293333D01*
X143614761Y-87293333D01*
X143519523Y-87340952D01*
X143471904Y-87388571D01*
X143424285Y-87483809D01*
X169857142Y-88004380D02*
X169857142Y-87004380D01*
X169857142Y-87480571D02*
X170428571Y-87480571D01*
X170428571Y-88004380D02*
X170428571Y-87004380D01*
X171476190Y-88004380D02*
X171142857Y-87528190D01*
X170904761Y-88004380D02*
X170904761Y-87004380D01*
X171285714Y-87004380D01*
X171380952Y-87052000D01*
X171428571Y-87099619D01*
X171476190Y-87194857D01*
X171476190Y-87337714D01*
X171428571Y-87432952D01*
X171380952Y-87480571D01*
X171285714Y-87528190D01*
X170904761Y-87528190D01*
X171761904Y-87004380D02*
X172333333Y-87004380D01*
X172047619Y-88004380D02*
X172047619Y-87004380D01*
X173190476Y-88004380D02*
X172619047Y-88004380D01*
X172904761Y-88004380D02*
X172904761Y-87004380D01*
X172809523Y-87147238D01*
X172714285Y-87242476D01*
X172619047Y-87290095D01*
X150966666Y-111352380D02*
X150966666Y-112066666D01*
X150919047Y-112209523D01*
X150823809Y-112304761D01*
X150680952Y-112352380D01*
X150585714Y-112352380D01*
X151442857Y-112352380D02*
X151442857Y-111352380D01*
X151823809Y-111352380D01*
X151919047Y-111400000D01*
X151966666Y-111447619D01*
X152014285Y-111542857D01*
X152014285Y-111685714D01*
X151966666Y-111780952D01*
X151919047Y-111828571D01*
X151823809Y-111876190D01*
X151442857Y-111876190D01*
X152395238Y-111447619D02*
X152442857Y-111400000D01*
X152538095Y-111352380D01*
X152776190Y-111352380D01*
X152871428Y-111400000D01*
X152919047Y-111447619D01*
X152966666Y-111542857D01*
X152966666Y-111638095D01*
X152919047Y-111780952D01*
X152347619Y-112352380D01*
X152966666Y-112352380D01*
X122602380Y-87166666D02*
X122602380Y-87642857D01*
X121602380Y-87642857D01*
X122602380Y-86309523D02*
X122602380Y-86880952D01*
X122602380Y-86595238D02*
X121602380Y-86595238D01*
X121745238Y-86690476D01*
X121840476Y-86785714D01*
X121888095Y-86880952D01*
X124882380Y-127196666D02*
X124406190Y-127530000D01*
X124882380Y-127768095D02*
X123882380Y-127768095D01*
X123882380Y-127387142D01*
X123930000Y-127291904D01*
X123977619Y-127244285D01*
X124072857Y-127196666D01*
X124215714Y-127196666D01*
X124310952Y-127244285D01*
X124358571Y-127291904D01*
X124406190Y-127387142D01*
X124406190Y-127768095D01*
X124310952Y-126625238D02*
X124263333Y-126720476D01*
X124215714Y-126768095D01*
X124120476Y-126815714D01*
X124072857Y-126815714D01*
X123977619Y-126768095D01*
X123930000Y-126720476D01*
X123882380Y-126625238D01*
X123882380Y-126434761D01*
X123930000Y-126339523D01*
X123977619Y-126291904D01*
X124072857Y-126244285D01*
X124120476Y-126244285D01*
X124215714Y-126291904D01*
X124263333Y-126339523D01*
X124310952Y-126434761D01*
X124310952Y-126625238D01*
X124358571Y-126720476D01*
X124406190Y-126768095D01*
X124501428Y-126815714D01*
X124691904Y-126815714D01*
X124787142Y-126768095D01*
X124834761Y-126720476D01*
X124882380Y-126625238D01*
X124882380Y-126434761D01*
X124834761Y-126339523D01*
X124787142Y-126291904D01*
X124691904Y-126244285D01*
X124501428Y-126244285D01*
X124406190Y-126291904D01*
X124358571Y-126339523D01*
X124310952Y-126434761D01*
X131263333Y-133832380D02*
X130930000Y-133356190D01*
X130691904Y-133832380D02*
X130691904Y-132832380D01*
X131072857Y-132832380D01*
X131168095Y-132880000D01*
X131215714Y-132927619D01*
X131263333Y-133022857D01*
X131263333Y-133165714D01*
X131215714Y-133260952D01*
X131168095Y-133308571D01*
X131072857Y-133356190D01*
X130691904Y-133356190D01*
X131739523Y-133832380D02*
X131930000Y-133832380D01*
X132025238Y-133784761D01*
X132072857Y-133737142D01*
X132168095Y-133594285D01*
X132215714Y-133403809D01*
X132215714Y-133022857D01*
X132168095Y-132927619D01*
X132120476Y-132880000D01*
X132025238Y-132832380D01*
X131834761Y-132832380D01*
X131739523Y-132880000D01*
X131691904Y-132927619D01*
X131644285Y-133022857D01*
X131644285Y-133260952D01*
X131691904Y-133356190D01*
X131739523Y-133403809D01*
X131834761Y-133451428D01*
X132025238Y-133451428D01*
X132120476Y-133403809D01*
X132168095Y-133356190D01*
X132215714Y-133260952D01*
X124882380Y-135672857D02*
X124406190Y-136006190D01*
X124882380Y-136244285D02*
X123882380Y-136244285D01*
X123882380Y-135863333D01*
X123930000Y-135768095D01*
X123977619Y-135720476D01*
X124072857Y-135672857D01*
X124215714Y-135672857D01*
X124310952Y-135720476D01*
X124358571Y-135768095D01*
X124406190Y-135863333D01*
X124406190Y-136244285D01*
X124882380Y-134720476D02*
X124882380Y-135291904D01*
X124882380Y-135006190D02*
X123882380Y-135006190D01*
X124025238Y-135101428D01*
X124120476Y-135196666D01*
X124168095Y-135291904D01*
X123882380Y-134101428D02*
X123882380Y-134006190D01*
X123930000Y-133910952D01*
X123977619Y-133863333D01*
X124072857Y-133815714D01*
X124263333Y-133768095D01*
X124501428Y-133768095D01*
X124691904Y-133815714D01*
X124787142Y-133863333D01*
X124834761Y-133910952D01*
X124882380Y-134006190D01*
X124882380Y-134101428D01*
X124834761Y-134196666D01*
X124787142Y-134244285D01*
X124691904Y-134291904D01*
X124501428Y-134339523D01*
X124263333Y-134339523D01*
X124072857Y-134291904D01*
X123977619Y-134244285D01*
X123930000Y-134196666D01*
X123882380Y-134101428D01*
X159857142Y-87952380D02*
X159523809Y-87476190D01*
X159285714Y-87952380D02*
X159285714Y-86952380D01*
X159666666Y-86952380D01*
X159761904Y-87000000D01*
X159809523Y-87047619D01*
X159857142Y-87142857D01*
X159857142Y-87285714D01*
X159809523Y-87380952D01*
X159761904Y-87428571D01*
X159666666Y-87476190D01*
X159285714Y-87476190D01*
X160809523Y-87952380D02*
X160238095Y-87952380D01*
X160523809Y-87952380D02*
X160523809Y-86952380D01*
X160428571Y-87095238D01*
X160333333Y-87190476D01*
X160238095Y-87238095D01*
X161761904Y-87952380D02*
X161190476Y-87952380D01*
X161476190Y-87952380D02*
X161476190Y-86952380D01*
X161380952Y-87095238D01*
X161285714Y-87190476D01*
X161190476Y-87238095D01*
X124732380Y-132172857D02*
X124256190Y-132506190D01*
X124732380Y-132744285D02*
X123732380Y-132744285D01*
X123732380Y-132363333D01*
X123780000Y-132268095D01*
X123827619Y-132220476D01*
X123922857Y-132172857D01*
X124065714Y-132172857D01*
X124160952Y-132220476D01*
X124208571Y-132268095D01*
X124256190Y-132363333D01*
X124256190Y-132744285D01*
X124732380Y-131220476D02*
X124732380Y-131791904D01*
X124732380Y-131506190D02*
X123732380Y-131506190D01*
X123875238Y-131601428D01*
X123970476Y-131696666D01*
X124018095Y-131791904D01*
X123827619Y-130839523D02*
X123780000Y-130791904D01*
X123732380Y-130696666D01*
X123732380Y-130458571D01*
X123780000Y-130363333D01*
X123827619Y-130315714D01*
X123922857Y-130268095D01*
X124018095Y-130268095D01*
X124160952Y-130315714D01*
X124732380Y-130887142D01*
X124732380Y-130268095D01*
X139767142Y-132122380D02*
X139433809Y-131646190D01*
X139195714Y-132122380D02*
X139195714Y-131122380D01*
X139576666Y-131122380D01*
X139671904Y-131170000D01*
X139719523Y-131217619D01*
X139767142Y-131312857D01*
X139767142Y-131455714D01*
X139719523Y-131550952D01*
X139671904Y-131598571D01*
X139576666Y-131646190D01*
X139195714Y-131646190D01*
X140719523Y-132122380D02*
X140148095Y-132122380D01*
X140433809Y-132122380D02*
X140433809Y-131122380D01*
X140338571Y-131265238D01*
X140243333Y-131360476D01*
X140148095Y-131408095D01*
X141052857Y-131122380D02*
X141671904Y-131122380D01*
X141338571Y-131503333D01*
X141481428Y-131503333D01*
X141576666Y-131550952D01*
X141624285Y-131598571D01*
X141671904Y-131693809D01*
X141671904Y-131931904D01*
X141624285Y-132027142D01*
X141576666Y-132074761D01*
X141481428Y-132122380D01*
X141195714Y-132122380D01*
X141100476Y-132074761D01*
X141052857Y-132027142D01*
X135857142Y-76802380D02*
X135523809Y-76326190D01*
X135285714Y-76802380D02*
X135285714Y-75802380D01*
X135666666Y-75802380D01*
X135761904Y-75850000D01*
X135809523Y-75897619D01*
X135857142Y-75992857D01*
X135857142Y-76135714D01*
X135809523Y-76230952D01*
X135761904Y-76278571D01*
X135666666Y-76326190D01*
X135285714Y-76326190D01*
X136809523Y-76802380D02*
X136238095Y-76802380D01*
X136523809Y-76802380D02*
X136523809Y-75802380D01*
X136428571Y-75945238D01*
X136333333Y-76040476D01*
X136238095Y-76088095D01*
X137666666Y-76135714D02*
X137666666Y-76802380D01*
X137428571Y-75754761D02*
X137190476Y-76469047D01*
X137809523Y-76469047D01*
X148857142Y-94452380D02*
X148523809Y-93976190D01*
X148285714Y-94452380D02*
X148285714Y-93452380D01*
X148666666Y-93452380D01*
X148761904Y-93500000D01*
X148809523Y-93547619D01*
X148857142Y-93642857D01*
X148857142Y-93785714D01*
X148809523Y-93880952D01*
X148761904Y-93928571D01*
X148666666Y-93976190D01*
X148285714Y-93976190D01*
X149809523Y-94452380D02*
X149238095Y-94452380D01*
X149523809Y-94452380D02*
X149523809Y-93452380D01*
X149428571Y-93595238D01*
X149333333Y-93690476D01*
X149238095Y-93738095D01*
X150714285Y-93452380D02*
X150238095Y-93452380D01*
X150190476Y-93928571D01*
X150238095Y-93880952D01*
X150333333Y-93833333D01*
X150571428Y-93833333D01*
X150666666Y-93880952D01*
X150714285Y-93928571D01*
X150761904Y-94023809D01*
X150761904Y-94261904D01*
X150714285Y-94357142D01*
X150666666Y-94404761D01*
X150571428Y-94452380D01*
X150333333Y-94452380D01*
X150238095Y-94404761D01*
X150190476Y-94357142D01*
X160690476Y-100952380D02*
X161357142Y-101952380D01*
X161357142Y-100952380D02*
X160690476Y-101952380D01*
X162261904Y-101952380D02*
X161690476Y-101952380D01*
X161976190Y-101952380D02*
X161976190Y-100952380D01*
X161880952Y-101095238D01*
X161785714Y-101190476D01*
X161690476Y-101238095D01*
M02*
