G04 #@! TF.GenerationSoftware,KiCad,Pcbnew,5.1.9*
G04 #@! TF.CreationDate,2021-01-31T09:53:20+01:00*
G04 #@! TF.ProjectId,blueled,626c7565-6c65-4642-9e6b-696361645f70,rev?*
G04 #@! TF.SameCoordinates,Original*
G04 #@! TF.FileFunction,Copper,L2,Bot*
G04 #@! TF.FilePolarity,Positive*
%FSLAX46Y46*%
G04 Gerber Fmt 4.6, Leading zero omitted, Abs format (unit mm)*
G04 Created by KiCad (PCBNEW 5.1.9) date 2021-01-31 09:53:20*
%MOMM*%
%LPD*%
G01*
G04 APERTURE LIST*
G04 #@! TA.AperFunction,ComponentPad*
%ADD10C,0.800000*%
G04 #@! TD*
G04 #@! TA.AperFunction,ComponentPad*
%ADD11C,1.000000*%
G04 #@! TD*
G04 #@! TA.AperFunction,ComponentPad*
%ADD12C,3.000000*%
G04 #@! TD*
G04 #@! TA.AperFunction,ComponentPad*
%ADD13R,3.000000X3.000000*%
G04 #@! TD*
G04 #@! TA.AperFunction,ComponentPad*
%ADD14O,1.700000X1.700000*%
G04 #@! TD*
G04 #@! TA.AperFunction,ComponentPad*
%ADD15R,1.700000X1.700000*%
G04 #@! TD*
G04 #@! TA.AperFunction,ComponentPad*
%ADD16R,3.500000X3.500000*%
G04 #@! TD*
G04 #@! TA.AperFunction,ComponentPad*
%ADD17C,1.400000*%
G04 #@! TD*
G04 #@! TA.AperFunction,ComponentPad*
%ADD18R,1.400000X1.400000*%
G04 #@! TD*
G04 #@! TA.AperFunction,ViaPad*
%ADD19C,0.800000*%
G04 #@! TD*
G04 #@! TA.AperFunction,Conductor*
%ADD20C,0.500000*%
G04 #@! TD*
G04 #@! TA.AperFunction,Conductor*
%ADD21C,1.500000*%
G04 #@! TD*
G04 #@! TA.AperFunction,Conductor*
%ADD22C,0.254000*%
G04 #@! TD*
G04 #@! TA.AperFunction,Conductor*
%ADD23C,0.100000*%
G04 #@! TD*
G04 APERTURE END LIST*
D10*
X132426001Y-127745001D03*
X131126001Y-127745001D03*
X131126001Y-129045001D03*
X132426001Y-129045001D03*
D11*
X136500000Y-116600000D03*
X136500000Y-115100000D03*
X136500000Y-113600000D03*
X136500000Y-112100000D03*
X137750000Y-115100000D03*
X137750000Y-112100000D03*
X137750000Y-116600000D03*
X137750000Y-113600000D03*
X139500000Y-115100000D03*
X139500000Y-112100000D03*
X139500000Y-116600000D03*
X139500000Y-113600000D03*
X140750000Y-115100000D03*
X140750000Y-112100000D03*
X140750000Y-116600000D03*
X140750000Y-113600000D03*
X127800000Y-115886000D03*
X127800000Y-114386000D03*
X127800000Y-112886000D03*
X129050000Y-115886000D03*
X129050000Y-114386000D03*
X129050000Y-112886000D03*
X130300000Y-115886000D03*
X130300000Y-114386000D03*
X130300000Y-112886000D03*
X126750000Y-108136000D03*
X126750000Y-106636000D03*
X126750000Y-105136000D03*
X128250000Y-108136000D03*
X128250000Y-106636000D03*
X128250000Y-105136000D03*
X129750000Y-108136000D03*
X129750000Y-106636000D03*
X129750000Y-105136000D03*
X131250000Y-108136000D03*
X131250000Y-106636000D03*
X131250000Y-105136000D03*
X132750000Y-108136000D03*
X132750000Y-106636000D03*
X132750000Y-105136000D03*
X125250000Y-108136000D03*
X125250000Y-106636000D03*
X125250000Y-105136000D03*
X132750000Y-103636000D03*
X132750000Y-102136000D03*
X125250000Y-103636000D03*
X128250000Y-103636000D03*
X126750000Y-102136000D03*
X129750000Y-103636000D03*
X128250000Y-102136000D03*
X125250000Y-102136000D03*
X131250000Y-103636000D03*
X131250000Y-102136000D03*
X126750000Y-103636000D03*
X129750000Y-102136000D03*
D12*
X142080000Y-144500000D03*
D13*
X137000000Y-144500000D03*
D14*
X168940000Y-84860000D03*
X166400000Y-84860000D03*
X168940000Y-82320000D03*
X166400000Y-82320000D03*
X168940000Y-79780000D03*
D15*
X166400000Y-79780000D03*
G04 #@! TA.AperFunction,ComponentPad*
G36*
G01*
X162075000Y-139250000D02*
X160325000Y-139250000D01*
G75*
G02*
X159450000Y-138375000I0J875000D01*
G01*
X159450000Y-136625000D01*
G75*
G02*
X160325000Y-135750000I875000J0D01*
G01*
X162075000Y-135750000D01*
G75*
G02*
X162950000Y-136625000I0J-875000D01*
G01*
X162950000Y-138375000D01*
G75*
G02*
X162075000Y-139250000I-875000J0D01*
G01*
G37*
G04 #@! TD.AperFunction*
G04 #@! TA.AperFunction,ComponentPad*
G36*
G01*
X157500000Y-142000000D02*
X155500000Y-142000000D01*
G75*
G02*
X154750000Y-141250000I0J750000D01*
G01*
X154750000Y-139750000D01*
G75*
G02*
X155500000Y-139000000I750000J0D01*
G01*
X157500000Y-139000000D01*
G75*
G02*
X158250000Y-139750000I0J-750000D01*
G01*
X158250000Y-141250000D01*
G75*
G02*
X157500000Y-142000000I-750000J0D01*
G01*
G37*
G04 #@! TD.AperFunction*
D16*
X156500000Y-134500000D03*
D17*
X128060000Y-138320000D03*
D18*
X128060000Y-142320000D03*
D17*
X133060000Y-142320000D03*
X133060000Y-138320000D03*
X133060000Y-140320000D03*
X128060000Y-140320000D03*
D12*
X151580000Y-69500000D03*
X146500000Y-69500000D03*
D13*
X141420000Y-69500000D03*
D19*
X160600000Y-87540000D03*
X162200000Y-87530000D03*
X165050000Y-86100000D03*
X166500000Y-86400000D03*
X170250000Y-95450000D03*
X167500000Y-100650000D03*
X164200000Y-97250000D03*
X150600000Y-99650000D03*
X155150000Y-91250000D03*
X155200000Y-95150000D03*
X157950000Y-95150000D03*
X146000000Y-84650000D03*
X148250000Y-109000000D03*
X147750000Y-105700000D03*
X150600000Y-102350000D03*
X129500000Y-133500000D03*
X129250000Y-126000000D03*
X151000000Y-112000000D03*
X158250000Y-110000000D03*
X158250000Y-113250000D03*
X155250000Y-106000000D03*
X162750000Y-102250000D03*
X162750000Y-103250000D03*
X167000000Y-103500000D03*
X154600000Y-114000000D03*
X155000000Y-122400000D03*
X155000000Y-126000000D03*
X154600000Y-115000000D03*
X148500000Y-127700000D03*
X145400000Y-123600000D03*
X151400000Y-123600000D03*
X148500000Y-119900000D03*
X142000000Y-95500000D03*
X144500000Y-95500000D03*
X152500000Y-134000000D03*
X153500000Y-135000000D03*
X153500000Y-136000000D03*
X152500000Y-136000000D03*
X152500000Y-135000000D03*
X153500000Y-133000000D03*
X152500000Y-133000000D03*
X153500000Y-134000000D03*
X141180000Y-133890000D03*
X143780000Y-129890000D03*
X144780000Y-129890000D03*
X144780000Y-130890000D03*
X143780000Y-130890000D03*
X140180000Y-132890000D03*
X140180000Y-133890000D03*
X141180000Y-132890000D03*
X142000000Y-142000000D03*
X143000000Y-142000000D03*
X144000000Y-142000000D03*
X142000000Y-141000000D03*
X143000000Y-141000000D03*
X144000000Y-141000000D03*
X141000000Y-141000000D03*
X141000000Y-142000000D03*
X127930000Y-122530000D03*
X135000000Y-126000000D03*
X141500000Y-98500000D03*
X143500000Y-98500000D03*
X152500000Y-98000000D03*
X154000000Y-94500000D03*
X162840000Y-85140000D03*
X159820000Y-85140000D03*
X167689999Y-83430001D03*
X167690000Y-90520000D03*
X169291000Y-94459000D03*
X159290000Y-91890000D03*
X163920000Y-87900000D03*
X163920000Y-90050000D03*
X153350000Y-105900000D03*
X149630000Y-95090000D03*
X153500000Y-104000000D03*
X154750000Y-99750000D03*
X153350000Y-108840000D03*
X148830000Y-98160000D03*
X161820000Y-98250000D03*
X151000000Y-97684002D03*
X160220000Y-103250000D03*
X162550000Y-101000000D03*
X168050000Y-111200000D03*
X154760000Y-96750000D03*
X164050000Y-102540000D03*
X165500000Y-91110000D03*
X158800001Y-88199999D03*
X156237500Y-99737500D03*
X138000000Y-68000000D03*
X138000000Y-71000000D03*
X124000000Y-80000000D03*
X125000000Y-80000000D03*
X126000000Y-80000000D03*
X127000000Y-80000000D03*
X128000000Y-80000000D03*
X129000000Y-80000000D03*
X130000000Y-80000000D03*
X131000000Y-80000000D03*
X132000000Y-80000000D03*
X133000000Y-80000000D03*
X133000000Y-79000000D03*
X132000000Y-79000000D03*
X131000000Y-79000000D03*
X130000000Y-79000000D03*
X129000000Y-79000000D03*
X128000000Y-79000000D03*
X127000000Y-79000000D03*
X126000000Y-79000000D03*
X125000000Y-79000000D03*
X124000000Y-79000000D03*
X138000000Y-66000000D03*
X138000000Y-67000000D03*
X138000000Y-69000000D03*
X138000000Y-70000000D03*
X138000000Y-72000000D03*
X138000000Y-73000000D03*
X146000000Y-95500000D03*
X134557500Y-89442500D03*
X147000000Y-112000000D03*
X146250000Y-111250000D03*
X146000000Y-86500000D03*
X136500000Y-94000000D03*
X139919252Y-125919252D03*
X127930000Y-127030000D03*
X127430000Y-132530000D03*
X142500000Y-92500000D03*
X144553186Y-92553186D03*
X158942564Y-91005810D03*
X171540000Y-90780000D03*
X159500000Y-95000000D03*
X158000000Y-87500000D03*
D20*
X142000000Y-95500000D02*
X144500000Y-95500000D01*
X129430000Y-122530000D02*
X132930000Y-126030000D01*
X127930000Y-122530000D02*
X129430000Y-122530000D01*
X134970000Y-126030000D02*
X135000000Y-126000000D01*
X132930000Y-126030000D02*
X134970000Y-126030000D01*
X135000000Y-127710000D02*
X140180000Y-132890000D01*
X135000000Y-126000000D02*
X135000000Y-127710000D01*
X141500000Y-98500000D02*
X143500000Y-98500000D01*
X152500000Y-98000000D02*
X154000000Y-96500000D01*
X154000000Y-96500000D02*
X154000000Y-94500000D01*
X163580000Y-85140000D02*
X166400000Y-82320000D01*
X162840000Y-85140000D02*
X163580000Y-85140000D01*
X154000000Y-90315998D02*
X154000000Y-94500000D01*
X159175998Y-85140000D02*
X154000000Y-90315998D01*
X159820000Y-85140000D02*
X159175998Y-85140000D01*
X167689999Y-83430001D02*
X167690000Y-83995687D01*
X167690000Y-83995687D02*
X167690000Y-90520000D01*
X169291000Y-94459000D02*
X161709000Y-94459000D01*
X161709000Y-94459000D02*
X161709000Y-94309000D01*
X161709000Y-94309000D02*
X159290000Y-91890000D01*
X163920000Y-87900000D02*
X163920000Y-90050000D01*
X151239998Y-105900000D02*
X149630000Y-104290002D01*
X153350000Y-105900000D02*
X151239998Y-105900000D01*
X149630000Y-104290002D02*
X149630000Y-95090000D01*
X153500000Y-104000000D02*
X153500000Y-101000000D01*
X153500000Y-101000000D02*
X154750000Y-99750000D01*
X152784315Y-108840000D02*
X148860000Y-104915685D01*
X153350000Y-108840000D02*
X152784315Y-108840000D01*
X148860000Y-104915685D02*
X148860000Y-98160000D01*
X148860000Y-98160000D02*
X148830000Y-98160000D01*
X152115999Y-98800001D02*
X151000000Y-97684002D01*
X161269999Y-98800001D02*
X152115999Y-98800001D01*
X161820000Y-98250000D02*
X161269999Y-98800001D01*
X160220000Y-103250000D02*
X162470000Y-101000000D01*
X162470000Y-101000000D02*
X162550000Y-101000000D01*
X168050000Y-103295998D02*
X168050000Y-103390000D01*
X154760000Y-96750000D02*
X161504002Y-96750000D01*
X161504002Y-96750000D02*
X168050000Y-103295998D01*
X168050000Y-103390000D02*
X168050000Y-111200000D01*
X162433265Y-91110000D02*
X165500000Y-91110000D01*
X158800001Y-88199999D02*
X162433265Y-91110000D01*
X167689999Y-81069999D02*
X168940000Y-82320000D01*
X158800001Y-87634314D02*
X165364316Y-81069999D01*
X165364316Y-81069999D02*
X167689999Y-81069999D01*
X158800001Y-88199999D02*
X158800001Y-87634314D01*
X164050000Y-101315998D02*
X164050000Y-102540000D01*
X162471502Y-99737500D02*
X164050000Y-101315998D01*
X156237500Y-99737500D02*
X162471502Y-99737500D01*
X145199999Y-94699999D02*
X146000000Y-95500000D01*
X139814999Y-94699999D02*
X145199999Y-94699999D01*
X134557500Y-89442500D02*
X139814999Y-94699999D01*
D21*
X146000000Y-94934315D02*
X146000000Y-95500000D01*
X145265684Y-94199999D02*
X146000000Y-94934315D01*
X142275997Y-94199999D02*
X145265684Y-94199999D01*
X133000000Y-84924002D02*
X142275997Y-94199999D01*
X133000000Y-80000000D02*
X133000000Y-84924002D01*
X146000000Y-95500000D02*
X146000000Y-111000000D01*
X146000000Y-111000000D02*
X146250000Y-111250000D01*
X146250000Y-111250000D02*
X147000000Y-112000000D01*
D20*
X146000000Y-95500000D02*
X146000000Y-88000000D01*
X146000000Y-88000000D02*
X146000000Y-86500000D01*
D21*
X133000000Y-80000000D02*
X130000000Y-80000000D01*
D20*
X136500000Y-99000000D02*
X136500000Y-94000000D01*
X142000000Y-104500000D02*
X136500000Y-99000000D01*
X142000000Y-123838504D02*
X142000000Y-104500000D01*
X139919252Y-125919252D02*
X142000000Y-123838504D01*
X127930000Y-127030000D02*
X127930000Y-132030000D01*
X127930000Y-132030000D02*
X127430000Y-132530000D01*
X142500000Y-92500000D02*
X144500000Y-92500000D01*
X144500000Y-92500000D02*
X144553186Y-92553186D01*
X161368510Y-91089999D02*
X162188512Y-91910001D01*
X159079999Y-91089999D02*
X161368510Y-91089999D01*
X158995810Y-91005810D02*
X159079999Y-91089999D01*
X162188512Y-91910001D02*
X170409999Y-91910001D01*
X158942564Y-91005810D02*
X158995810Y-91005810D01*
X170409999Y-91910001D02*
X171540000Y-90780000D01*
X158000000Y-93500000D02*
X159500000Y-95000000D01*
X158000000Y-88000000D02*
X158000000Y-93500000D01*
X158000000Y-88000000D02*
X158000000Y-87500000D01*
D22*
X171504242Y-63453369D02*
X171989286Y-63599812D01*
X172436642Y-63837674D01*
X172829282Y-64157904D01*
X173152241Y-64548294D01*
X173393222Y-64993980D01*
X173543048Y-65477987D01*
X173598000Y-66000820D01*
X173598000Y-66000827D01*
X173598001Y-145580333D01*
X173546631Y-146104243D01*
X173400187Y-146589288D01*
X173162324Y-147036646D01*
X172842096Y-147429282D01*
X172451706Y-147752241D01*
X172006018Y-147993223D01*
X171522013Y-148143048D01*
X170999180Y-148198000D01*
X123019657Y-148198000D01*
X122495757Y-148146631D01*
X122010712Y-148000187D01*
X121563354Y-147762324D01*
X121170718Y-147442096D01*
X120847759Y-147051706D01*
X120606777Y-146606018D01*
X120593413Y-146562845D01*
X122116761Y-146562845D01*
X122284802Y-146888643D01*
X122676607Y-147089426D01*
X123100055Y-147209914D01*
X123538873Y-147245476D01*
X123976197Y-147194746D01*
X124395221Y-147059674D01*
X124715198Y-146888643D01*
X124883239Y-146562845D01*
X123500000Y-145179605D01*
X122116761Y-146562845D01*
X120593413Y-146562845D01*
X120456952Y-146122013D01*
X120402000Y-145599180D01*
X120402000Y-145038873D01*
X121254524Y-145038873D01*
X121305254Y-145476197D01*
X121440326Y-145895221D01*
X121611357Y-146215198D01*
X121937155Y-146383239D01*
X123320395Y-145000000D01*
X123679605Y-145000000D01*
X125062845Y-146383239D01*
X125388643Y-146215198D01*
X125498922Y-146000000D01*
X134861928Y-146000000D01*
X134874188Y-146124482D01*
X134910498Y-146244180D01*
X134969463Y-146354494D01*
X135048815Y-146451185D01*
X135145506Y-146530537D01*
X135255820Y-146589502D01*
X135375518Y-146625812D01*
X135500000Y-146638072D01*
X136714250Y-146635000D01*
X136873000Y-146476250D01*
X136873000Y-144627000D01*
X137127000Y-144627000D01*
X137127000Y-146476250D01*
X137285750Y-146635000D01*
X138500000Y-146638072D01*
X138624482Y-146625812D01*
X138744180Y-146589502D01*
X138854494Y-146530537D01*
X138951185Y-146451185D01*
X139030537Y-146354494D01*
X139089502Y-146244180D01*
X139125812Y-146124482D01*
X139138072Y-146000000D01*
X139135000Y-144785750D01*
X138976250Y-144627000D01*
X137127000Y-144627000D01*
X136873000Y-144627000D01*
X135023750Y-144627000D01*
X134865000Y-144785750D01*
X134861928Y-146000000D01*
X125498922Y-146000000D01*
X125589426Y-145823393D01*
X125709914Y-145399945D01*
X125745476Y-144961127D01*
X125694746Y-144523803D01*
X125559674Y-144104779D01*
X125388643Y-143784802D01*
X125062845Y-143616761D01*
X123679605Y-145000000D01*
X123320395Y-145000000D01*
X121937155Y-143616761D01*
X121611357Y-143784802D01*
X121410574Y-144176607D01*
X121290086Y-144600055D01*
X121254524Y-145038873D01*
X120402000Y-145038873D01*
X120402000Y-143437155D01*
X122116761Y-143437155D01*
X123500000Y-144820395D01*
X124883239Y-143437155D01*
X124715198Y-143111357D01*
X124323393Y-142910574D01*
X123899945Y-142790086D01*
X123461127Y-142754524D01*
X123023803Y-142805254D01*
X122604779Y-142940326D01*
X122284802Y-143111357D01*
X122116761Y-143437155D01*
X120402000Y-143437155D01*
X120402000Y-141620000D01*
X126981176Y-141620000D01*
X126981176Y-143020000D01*
X126988455Y-143093905D01*
X127010012Y-143164970D01*
X127045019Y-143230463D01*
X127092131Y-143287869D01*
X127149537Y-143334981D01*
X127215030Y-143369988D01*
X127286095Y-143391545D01*
X127360000Y-143398824D01*
X128760000Y-143398824D01*
X128833905Y-143391545D01*
X128904970Y-143369988D01*
X128970463Y-143334981D01*
X129027869Y-143287869D01*
X129066112Y-143241269D01*
X132318336Y-143241269D01*
X132377797Y-143475037D01*
X132616242Y-143585934D01*
X132871740Y-143648183D01*
X133134473Y-143659390D01*
X133394344Y-143619125D01*
X133641366Y-143528935D01*
X133742203Y-143475037D01*
X133801664Y-143241269D01*
X133060000Y-142499605D01*
X132318336Y-143241269D01*
X129066112Y-143241269D01*
X129074981Y-143230463D01*
X129109988Y-143164970D01*
X129131545Y-143093905D01*
X129138824Y-143020000D01*
X129138824Y-142394473D01*
X131720610Y-142394473D01*
X131760875Y-142654344D01*
X131851065Y-142901366D01*
X131904963Y-143002203D01*
X132138731Y-143061664D01*
X132880395Y-142320000D01*
X133239605Y-142320000D01*
X133981269Y-143061664D01*
X134215037Y-143002203D01*
X134216061Y-143000000D01*
X134861928Y-143000000D01*
X134865000Y-144214250D01*
X135023750Y-144373000D01*
X136873000Y-144373000D01*
X136873000Y-142523750D01*
X137127000Y-142523750D01*
X137127000Y-144373000D01*
X138976250Y-144373000D01*
X139135000Y-144214250D01*
X139138072Y-143000000D01*
X139125812Y-142875518D01*
X139089502Y-142755820D01*
X139030537Y-142645506D01*
X138951185Y-142548815D01*
X138854494Y-142469463D01*
X138744180Y-142410498D01*
X138624482Y-142374188D01*
X138500000Y-142361928D01*
X137285750Y-142365000D01*
X137127000Y-142523750D01*
X136873000Y-142523750D01*
X136714250Y-142365000D01*
X135500000Y-142361928D01*
X135375518Y-142374188D01*
X135255820Y-142410498D01*
X135145506Y-142469463D01*
X135048815Y-142548815D01*
X134969463Y-142645506D01*
X134910498Y-142755820D01*
X134874188Y-142875518D01*
X134861928Y-143000000D01*
X134216061Y-143000000D01*
X134325934Y-142763758D01*
X134388183Y-142508260D01*
X134399390Y-142245527D01*
X134359125Y-141985656D01*
X134268935Y-141738634D01*
X134215037Y-141637797D01*
X133981269Y-141578336D01*
X133239605Y-142320000D01*
X132880395Y-142320000D01*
X132138731Y-141578336D01*
X131904963Y-141637797D01*
X131794066Y-141876242D01*
X131731817Y-142131740D01*
X131720610Y-142394473D01*
X129138824Y-142394473D01*
X129138824Y-141620000D01*
X129131545Y-141546095D01*
X129109988Y-141475030D01*
X129074981Y-141409537D01*
X129027869Y-141352131D01*
X128970463Y-141305019D01*
X128904970Y-141270012D01*
X128833905Y-141248455D01*
X128760000Y-141241176D01*
X128619911Y-141241176D01*
X128746547Y-141156560D01*
X128896560Y-141006547D01*
X129014425Y-140830151D01*
X129095611Y-140634149D01*
X129137000Y-140426075D01*
X129137000Y-140213925D01*
X129095611Y-140005851D01*
X129014425Y-139809849D01*
X128896560Y-139633453D01*
X128746547Y-139483440D01*
X128570151Y-139365575D01*
X128460122Y-139320000D01*
X128570151Y-139274425D01*
X128746547Y-139156560D01*
X128896560Y-139006547D01*
X129014425Y-138830151D01*
X129095611Y-138634149D01*
X129137000Y-138426075D01*
X129137000Y-138213925D01*
X131983000Y-138213925D01*
X131983000Y-138426075D01*
X132024389Y-138634149D01*
X132105575Y-138830151D01*
X132223440Y-139006547D01*
X132373453Y-139156560D01*
X132549849Y-139274425D01*
X132659878Y-139320000D01*
X132549849Y-139365575D01*
X132373453Y-139483440D01*
X132223440Y-139633453D01*
X132105575Y-139809849D01*
X132024389Y-140005851D01*
X131983000Y-140213925D01*
X131983000Y-140426075D01*
X132024389Y-140634149D01*
X132105575Y-140830151D01*
X132223440Y-141006547D01*
X132373453Y-141156560D01*
X132382370Y-141162518D01*
X132377797Y-141164963D01*
X132318336Y-141398731D01*
X133060000Y-142140395D01*
X133801664Y-141398731D01*
X133742203Y-141164963D01*
X133737349Y-141162706D01*
X133746547Y-141156560D01*
X133896560Y-141006547D01*
X134014425Y-140830151D01*
X134095611Y-140634149D01*
X134137000Y-140426075D01*
X134137000Y-140213925D01*
X134095611Y-140005851D01*
X134014425Y-139809849D01*
X133896560Y-139633453D01*
X133746547Y-139483440D01*
X133570151Y-139365575D01*
X133460122Y-139320000D01*
X133570151Y-139274425D01*
X133746547Y-139156560D01*
X133896560Y-139006547D01*
X134014425Y-138830151D01*
X134095611Y-138634149D01*
X134137000Y-138426075D01*
X134137000Y-138213925D01*
X134095611Y-138005851D01*
X134014425Y-137809849D01*
X133896560Y-137633453D01*
X133746547Y-137483440D01*
X133570151Y-137365575D01*
X133374149Y-137284389D01*
X133166075Y-137243000D01*
X132953925Y-137243000D01*
X132745851Y-137284389D01*
X132549849Y-137365575D01*
X132373453Y-137483440D01*
X132223440Y-137633453D01*
X132105575Y-137809849D01*
X132024389Y-138005851D01*
X131983000Y-138213925D01*
X129137000Y-138213925D01*
X129095611Y-138005851D01*
X129014425Y-137809849D01*
X128896560Y-137633453D01*
X128746547Y-137483440D01*
X128570151Y-137365575D01*
X128374149Y-137284389D01*
X128166075Y-137243000D01*
X127953925Y-137243000D01*
X127745851Y-137284389D01*
X127549849Y-137365575D01*
X127373453Y-137483440D01*
X127223440Y-137633453D01*
X127105575Y-137809849D01*
X127024389Y-138005851D01*
X126983000Y-138213925D01*
X126983000Y-138426075D01*
X127024389Y-138634149D01*
X127105575Y-138830151D01*
X127223440Y-139006547D01*
X127373453Y-139156560D01*
X127549849Y-139274425D01*
X127659878Y-139320000D01*
X127549849Y-139365575D01*
X127373453Y-139483440D01*
X127223440Y-139633453D01*
X127105575Y-139809849D01*
X127024389Y-140005851D01*
X126983000Y-140213925D01*
X126983000Y-140426075D01*
X127024389Y-140634149D01*
X127105575Y-140830151D01*
X127223440Y-141006547D01*
X127373453Y-141156560D01*
X127500089Y-141241176D01*
X127360000Y-141241176D01*
X127286095Y-141248455D01*
X127215030Y-141270012D01*
X127149537Y-141305019D01*
X127092131Y-141352131D01*
X127045019Y-141409537D01*
X127010012Y-141475030D01*
X126988455Y-141546095D01*
X126981176Y-141620000D01*
X120402000Y-141620000D01*
X120402000Y-132453472D01*
X126653000Y-132453472D01*
X126653000Y-132606528D01*
X126682859Y-132756643D01*
X126741431Y-132898048D01*
X126826464Y-133025309D01*
X126934691Y-133133536D01*
X127061952Y-133218569D01*
X127203357Y-133277141D01*
X127353472Y-133307000D01*
X127506528Y-133307000D01*
X127656643Y-133277141D01*
X127798048Y-133218569D01*
X127925309Y-133133536D01*
X128033536Y-133025309D01*
X128118569Y-132898048D01*
X128177141Y-132756643D01*
X128198761Y-132647951D01*
X128351578Y-132495134D01*
X128375501Y-132475501D01*
X128453853Y-132380028D01*
X128512075Y-132271103D01*
X128547927Y-132152913D01*
X128557000Y-132060794D01*
X128560033Y-132030000D01*
X128557000Y-131999206D01*
X128557000Y-127490193D01*
X128618569Y-127398048D01*
X128677141Y-127256643D01*
X128707000Y-127106528D01*
X128707000Y-126953472D01*
X128677141Y-126803357D01*
X128618569Y-126661952D01*
X128533536Y-126534691D01*
X128425309Y-126426464D01*
X128298048Y-126341431D01*
X128156643Y-126282859D01*
X128006528Y-126253000D01*
X127853472Y-126253000D01*
X127703357Y-126282859D01*
X127561952Y-126341431D01*
X127434691Y-126426464D01*
X127326464Y-126534691D01*
X127241431Y-126661952D01*
X127182859Y-126803357D01*
X127153000Y-126953472D01*
X127153000Y-127106528D01*
X127182859Y-127256643D01*
X127241431Y-127398048D01*
X127303000Y-127490193D01*
X127303001Y-131763039D01*
X127203357Y-131782859D01*
X127061952Y-131841431D01*
X126934691Y-131926464D01*
X126826464Y-132034691D01*
X126741431Y-132161952D01*
X126682859Y-132303357D01*
X126653000Y-132453472D01*
X120402000Y-132453472D01*
X120402000Y-122453472D01*
X127153000Y-122453472D01*
X127153000Y-122606528D01*
X127182859Y-122756643D01*
X127241431Y-122898048D01*
X127326464Y-123025309D01*
X127434691Y-123133536D01*
X127561952Y-123218569D01*
X127703357Y-123277141D01*
X127853472Y-123307000D01*
X128006528Y-123307000D01*
X128156643Y-123277141D01*
X128298048Y-123218569D01*
X128390193Y-123157000D01*
X129170289Y-123157000D01*
X132464866Y-126451578D01*
X132484499Y-126475501D01*
X132579972Y-126553853D01*
X132688897Y-126612075D01*
X132807087Y-126647927D01*
X132899206Y-126657000D01*
X132899207Y-126657000D01*
X132929999Y-126660033D01*
X132960791Y-126657000D01*
X134373000Y-126657000D01*
X134373001Y-127679196D01*
X134369967Y-127710000D01*
X134382073Y-127832912D01*
X134417926Y-127951103D01*
X134476148Y-128060028D01*
X134554500Y-128155501D01*
X134578423Y-128175134D01*
X138019000Y-131615712D01*
X138019000Y-133050000D01*
X138028020Y-133132412D01*
X138051245Y-133203398D01*
X138087873Y-133268489D01*
X138859000Y-134370099D01*
X138859000Y-140450000D01*
X138868821Y-140535950D01*
X138892722Y-140606712D01*
X138929968Y-140671452D01*
X139609226Y-141622414D01*
X139619001Y-146900706D01*
X139626321Y-146974329D01*
X139648002Y-147045802D01*
X139683210Y-147111672D01*
X139730592Y-147169408D01*
X139788328Y-147216790D01*
X139854198Y-147251998D01*
X139925671Y-147273679D01*
X140000000Y-147281000D01*
X144800000Y-147281000D01*
X144874329Y-147273679D01*
X144945802Y-147251998D01*
X145011672Y-147216790D01*
X145069408Y-147169408D01*
X145116790Y-147111672D01*
X145151998Y-147045802D01*
X145173679Y-146974329D01*
X145181000Y-146900000D01*
X145181000Y-146562845D01*
X169116761Y-146562845D01*
X169284802Y-146888643D01*
X169676607Y-147089426D01*
X170100055Y-147209914D01*
X170538873Y-147245476D01*
X170976197Y-147194746D01*
X171395221Y-147059674D01*
X171715198Y-146888643D01*
X171883239Y-146562845D01*
X170500000Y-145179605D01*
X169116761Y-146562845D01*
X145181000Y-146562845D01*
X145181000Y-145038873D01*
X168254524Y-145038873D01*
X168305254Y-145476197D01*
X168440326Y-145895221D01*
X168611357Y-146215198D01*
X168937155Y-146383239D01*
X170320395Y-145000000D01*
X170679605Y-145000000D01*
X172062845Y-146383239D01*
X172388643Y-146215198D01*
X172589426Y-145823393D01*
X172709914Y-145399945D01*
X172745476Y-144961127D01*
X172694746Y-144523803D01*
X172559674Y-144104779D01*
X172388643Y-143784802D01*
X172062845Y-143616761D01*
X170679605Y-145000000D01*
X170320395Y-145000000D01*
X168937155Y-143616761D01*
X168611357Y-143784802D01*
X168410574Y-144176607D01*
X168290086Y-144600055D01*
X168254524Y-145038873D01*
X145181000Y-145038873D01*
X145181000Y-143468052D01*
X145214839Y-143437155D01*
X169116761Y-143437155D01*
X170500000Y-144820395D01*
X171883239Y-143437155D01*
X171715198Y-143111357D01*
X171323393Y-142910574D01*
X170899945Y-142790086D01*
X170461127Y-142754524D01*
X170023803Y-142805254D01*
X169604779Y-142940326D01*
X169284802Y-143111357D01*
X169116761Y-143437155D01*
X145214839Y-143437155D01*
X146788866Y-142000000D01*
X154111928Y-142000000D01*
X154124188Y-142124482D01*
X154160498Y-142244180D01*
X154219463Y-142354494D01*
X154298815Y-142451185D01*
X154395506Y-142530537D01*
X154505820Y-142589502D01*
X154625518Y-142625812D01*
X154750000Y-142638072D01*
X156214250Y-142635000D01*
X156373000Y-142476250D01*
X156373000Y-140627000D01*
X156627000Y-140627000D01*
X156627000Y-142476250D01*
X156785750Y-142635000D01*
X158250000Y-142638072D01*
X158374482Y-142625812D01*
X158494180Y-142589502D01*
X158604494Y-142530537D01*
X158701185Y-142451185D01*
X158780537Y-142354494D01*
X158839502Y-142244180D01*
X158875812Y-142124482D01*
X158888072Y-142000000D01*
X158885000Y-140785750D01*
X158726250Y-140627000D01*
X156627000Y-140627000D01*
X156373000Y-140627000D01*
X154273750Y-140627000D01*
X154115000Y-140785750D01*
X154111928Y-142000000D01*
X146788866Y-142000000D01*
X150074580Y-139000000D01*
X154111928Y-139000000D01*
X154115000Y-140214250D01*
X154273750Y-140373000D01*
X156373000Y-140373000D01*
X156373000Y-138523750D01*
X156627000Y-138523750D01*
X156627000Y-140373000D01*
X158726250Y-140373000D01*
X158885000Y-140214250D01*
X158888072Y-139000000D01*
X158875812Y-138875518D01*
X158839502Y-138755820D01*
X158780537Y-138645506D01*
X158701185Y-138548815D01*
X158604494Y-138469463D01*
X158494180Y-138410498D01*
X158374482Y-138374188D01*
X158250000Y-138361928D01*
X156785750Y-138365000D01*
X156627000Y-138523750D01*
X156373000Y-138523750D01*
X156214250Y-138365000D01*
X154750000Y-138361928D01*
X154625518Y-138374188D01*
X154505820Y-138410498D01*
X154395506Y-138469463D01*
X154298815Y-138548815D01*
X154219463Y-138645506D01*
X154160498Y-138755820D01*
X154124188Y-138875518D01*
X154111928Y-139000000D01*
X150074580Y-139000000D01*
X151847771Y-137381000D01*
X158700000Y-137381000D01*
X158774329Y-137373679D01*
X158845802Y-137351998D01*
X158911672Y-137316790D01*
X158969408Y-137269408D01*
X159016790Y-137211672D01*
X159051998Y-137145802D01*
X159071176Y-137082580D01*
X159071176Y-138375000D01*
X159095268Y-138619609D01*
X159166618Y-138854818D01*
X159282483Y-139071587D01*
X159438413Y-139261587D01*
X159628413Y-139417517D01*
X159845182Y-139533382D01*
X160080391Y-139604732D01*
X160325000Y-139628824D01*
X162075000Y-139628824D01*
X162319609Y-139604732D01*
X162554818Y-139533382D01*
X162771587Y-139417517D01*
X162961587Y-139261587D01*
X163117517Y-139071587D01*
X163233382Y-138854818D01*
X163304732Y-138619609D01*
X163328824Y-138375000D01*
X163328824Y-136625000D01*
X163304732Y-136380391D01*
X163233382Y-136145182D01*
X163117517Y-135928413D01*
X162961587Y-135738413D01*
X162771587Y-135582483D01*
X162554818Y-135466618D01*
X162319609Y-135395268D01*
X162075000Y-135371176D01*
X160325000Y-135371176D01*
X160080391Y-135395268D01*
X159845182Y-135466618D01*
X159628413Y-135582483D01*
X159438413Y-135738413D01*
X159282483Y-135928413D01*
X159166618Y-136145182D01*
X159095268Y-136380391D01*
X159081000Y-136525256D01*
X159081000Y-132325000D01*
X159074115Y-132252896D01*
X159052860Y-132181295D01*
X159018044Y-132115217D01*
X158971006Y-132057201D01*
X158913554Y-132009476D01*
X158847895Y-131973876D01*
X158776552Y-131951770D01*
X158702268Y-131944007D01*
X154809048Y-131920833D01*
X154172707Y-128920941D01*
X154151998Y-128854198D01*
X154116790Y-128788328D01*
X154069408Y-128730592D01*
X154011672Y-128683210D01*
X153945802Y-128648002D01*
X153874329Y-128626321D01*
X153800000Y-128619000D01*
X143327000Y-128619000D01*
X142628600Y-128095200D01*
X142545802Y-128048002D01*
X142474329Y-128026321D01*
X142400000Y-128019000D01*
X138400000Y-128019000D01*
X138325671Y-128026321D01*
X138254198Y-128048002D01*
X138188328Y-128083210D01*
X138130592Y-128130592D01*
X138083210Y-128188328D01*
X138048002Y-128254198D01*
X138026321Y-128325671D01*
X138019000Y-128400000D01*
X138019000Y-129842289D01*
X135627000Y-127450289D01*
X135627000Y-126460193D01*
X135688569Y-126368048D01*
X135747141Y-126226643D01*
X135777000Y-126076528D01*
X135777000Y-125923472D01*
X135747141Y-125773357D01*
X135688569Y-125631952D01*
X135603536Y-125504691D01*
X135495309Y-125396464D01*
X135368048Y-125311431D01*
X135226643Y-125252859D01*
X135076528Y-125223000D01*
X134923472Y-125223000D01*
X134773357Y-125252859D01*
X134631952Y-125311431D01*
X134504691Y-125396464D01*
X134498155Y-125403000D01*
X133189712Y-125403000D01*
X129895138Y-122108427D01*
X129875501Y-122084499D01*
X129780028Y-122006147D01*
X129671103Y-121947925D01*
X129552913Y-121912073D01*
X129460794Y-121903000D01*
X129430000Y-121899967D01*
X129399206Y-121903000D01*
X128390193Y-121903000D01*
X128298048Y-121841431D01*
X128156643Y-121782859D01*
X128006528Y-121753000D01*
X127853472Y-121753000D01*
X127703357Y-121782859D01*
X127561952Y-121841431D01*
X127434691Y-121926464D01*
X127326464Y-122034691D01*
X127241431Y-122161952D01*
X127182859Y-122303357D01*
X127153000Y-122453472D01*
X120402000Y-122453472D01*
X120402000Y-93750000D01*
X122609000Y-93750000D01*
X122609000Y-110500000D01*
X122616321Y-110574329D01*
X122638002Y-110645802D01*
X122673210Y-110711672D01*
X122720592Y-110769408D01*
X122778328Y-110816790D01*
X122844198Y-110851998D01*
X122915671Y-110873679D01*
X122990000Y-110881000D01*
X131852060Y-110881000D01*
X134609000Y-113178450D01*
X134609000Y-118000000D01*
X134616321Y-118074329D01*
X134638002Y-118145802D01*
X134673210Y-118211672D01*
X134720592Y-118269408D01*
X134778328Y-118316790D01*
X134844198Y-118351998D01*
X134915671Y-118373679D01*
X134990000Y-118381000D01*
X141373000Y-118381000D01*
X141373000Y-123578792D01*
X139801302Y-125150491D01*
X139692609Y-125172111D01*
X139551204Y-125230683D01*
X139423943Y-125315716D01*
X139315716Y-125423943D01*
X139230683Y-125551204D01*
X139172111Y-125692609D01*
X139142252Y-125842724D01*
X139142252Y-125995780D01*
X139172111Y-126145895D01*
X139230683Y-126287300D01*
X139315716Y-126414561D01*
X139423943Y-126522788D01*
X139551204Y-126607821D01*
X139692609Y-126666393D01*
X139842724Y-126696252D01*
X139995780Y-126696252D01*
X140145895Y-126666393D01*
X140287300Y-126607821D01*
X140414561Y-126522788D01*
X140522788Y-126414561D01*
X140607821Y-126287300D01*
X140666393Y-126145895D01*
X140688013Y-126037202D01*
X142421579Y-124303637D01*
X142445501Y-124284005D01*
X142523853Y-124188532D01*
X142582075Y-124079607D01*
X142617927Y-123961417D01*
X142627000Y-123869298D01*
X142627000Y-123869297D01*
X142630033Y-123838505D01*
X142627000Y-123807711D01*
X142627000Y-104530794D01*
X142630033Y-104500000D01*
X142617927Y-104377087D01*
X142582075Y-104258896D01*
X142523853Y-104149972D01*
X142501646Y-104122913D01*
X142445501Y-104054499D01*
X142421578Y-104034866D01*
X137127000Y-98740289D01*
X137127000Y-98423472D01*
X140723000Y-98423472D01*
X140723000Y-98576528D01*
X140752859Y-98726643D01*
X140811431Y-98868048D01*
X140896464Y-98995309D01*
X141004691Y-99103536D01*
X141131952Y-99188569D01*
X141273357Y-99247141D01*
X141423472Y-99277000D01*
X141576528Y-99277000D01*
X141726643Y-99247141D01*
X141868048Y-99188569D01*
X141960193Y-99127000D01*
X143039807Y-99127000D01*
X143131952Y-99188569D01*
X143273357Y-99247141D01*
X143423472Y-99277000D01*
X143576528Y-99277000D01*
X143726643Y-99247141D01*
X143868048Y-99188569D01*
X143995309Y-99103536D01*
X144103536Y-98995309D01*
X144188569Y-98868048D01*
X144247141Y-98726643D01*
X144277000Y-98576528D01*
X144277000Y-98423472D01*
X144247141Y-98273357D01*
X144188569Y-98131952D01*
X144103536Y-98004691D01*
X143995309Y-97896464D01*
X143868048Y-97811431D01*
X143726643Y-97752859D01*
X143576528Y-97723000D01*
X143423472Y-97723000D01*
X143273357Y-97752859D01*
X143131952Y-97811431D01*
X143039807Y-97873000D01*
X141960193Y-97873000D01*
X141868048Y-97811431D01*
X141726643Y-97752859D01*
X141576528Y-97723000D01*
X141423472Y-97723000D01*
X141273357Y-97752859D01*
X141131952Y-97811431D01*
X141004691Y-97896464D01*
X140896464Y-98004691D01*
X140811431Y-98131952D01*
X140752859Y-98273357D01*
X140723000Y-98423472D01*
X137127000Y-98423472D01*
X137127000Y-94460193D01*
X137188569Y-94368048D01*
X137247141Y-94226643D01*
X137277000Y-94076528D01*
X137277000Y-93923472D01*
X137247141Y-93773357D01*
X137188569Y-93631952D01*
X137103536Y-93504691D01*
X136995309Y-93396464D01*
X136868048Y-93311431D01*
X136726643Y-93252859D01*
X136576528Y-93223000D01*
X136423472Y-93223000D01*
X136273357Y-93252859D01*
X136131952Y-93311431D01*
X136004691Y-93396464D01*
X135896464Y-93504691D01*
X135811431Y-93631952D01*
X135752859Y-93773357D01*
X135723000Y-93923472D01*
X135723000Y-94076528D01*
X135752859Y-94226643D01*
X135811431Y-94368048D01*
X135873001Y-94460194D01*
X135873000Y-98469640D01*
X134621000Y-97331458D01*
X134621000Y-94000000D01*
X134607575Y-93899752D01*
X134580955Y-93829968D01*
X134541232Y-93766718D01*
X134489933Y-93712433D01*
X134429029Y-93669199D01*
X132871000Y-92778897D01*
X132871000Y-88500000D01*
X132863679Y-88425671D01*
X132841998Y-88354198D01*
X132806790Y-88288328D01*
X132759408Y-88230592D01*
X132701672Y-88183210D01*
X132635802Y-88148002D01*
X132564329Y-88126321D01*
X132490000Y-88119000D01*
X124490000Y-88119000D01*
X124415671Y-88126321D01*
X124344198Y-88148002D01*
X124278328Y-88183210D01*
X124220592Y-88230592D01*
X124173210Y-88288328D01*
X124138002Y-88354198D01*
X124116321Y-88425671D01*
X124109000Y-88500000D01*
X124109000Y-92764529D01*
X122819612Y-93409223D01*
X122778328Y-93433210D01*
X122720592Y-93480592D01*
X122673210Y-93538328D01*
X122638002Y-93604198D01*
X122616321Y-93675671D01*
X122609000Y-93750000D01*
X120402000Y-93750000D01*
X120402000Y-71500000D01*
X122619000Y-71500000D01*
X122619000Y-85500000D01*
X122626321Y-85574329D01*
X122648002Y-85645802D01*
X122683210Y-85711672D01*
X122730592Y-85769408D01*
X122788328Y-85816790D01*
X122854198Y-85851998D01*
X122925671Y-85873679D01*
X123000000Y-85881000D01*
X132363180Y-85881000D01*
X140555178Y-94072999D01*
X140074711Y-94072999D01*
X135326261Y-89324550D01*
X135304641Y-89215857D01*
X135246069Y-89074452D01*
X135161036Y-88947191D01*
X135052809Y-88838964D01*
X134925548Y-88753931D01*
X134784143Y-88695359D01*
X134634028Y-88665500D01*
X134480972Y-88665500D01*
X134330857Y-88695359D01*
X134189452Y-88753931D01*
X134062191Y-88838964D01*
X133953964Y-88947191D01*
X133868931Y-89074452D01*
X133810359Y-89215857D01*
X133780500Y-89365972D01*
X133780500Y-89519028D01*
X133810359Y-89669143D01*
X133868931Y-89810548D01*
X133953964Y-89937809D01*
X134062191Y-90046036D01*
X134189452Y-90131069D01*
X134330857Y-90189641D01*
X134439550Y-90211261D01*
X139349865Y-95121577D01*
X139369498Y-95145500D01*
X139464971Y-95223852D01*
X139573896Y-95282074D01*
X139692086Y-95317926D01*
X139784205Y-95326999D01*
X139784206Y-95326999D01*
X139814998Y-95330032D01*
X139845790Y-95326999D01*
X141242189Y-95326999D01*
X141223000Y-95423472D01*
X141223000Y-95576528D01*
X141252859Y-95726643D01*
X141311431Y-95868048D01*
X141396464Y-95995309D01*
X141504691Y-96103536D01*
X141631952Y-96188569D01*
X141773357Y-96247141D01*
X141923472Y-96277000D01*
X142076528Y-96277000D01*
X142226643Y-96247141D01*
X142368048Y-96188569D01*
X142460193Y-96127000D01*
X144039807Y-96127000D01*
X144131952Y-96188569D01*
X144273357Y-96247141D01*
X144423472Y-96277000D01*
X144576528Y-96277000D01*
X144726643Y-96247141D01*
X144868048Y-96188569D01*
X144873000Y-96185260D01*
X144873001Y-110944636D01*
X144867548Y-111000000D01*
X144889308Y-111220930D01*
X144953750Y-111433370D01*
X145058400Y-111629156D01*
X145163942Y-111757760D01*
X145163946Y-111757764D01*
X145199236Y-111800765D01*
X145242237Y-111836055D01*
X146242240Y-112836058D01*
X146370843Y-112941600D01*
X146566628Y-113046249D01*
X146779069Y-113110692D01*
X146999999Y-113132452D01*
X147220930Y-113110692D01*
X147433370Y-113046249D01*
X147629156Y-112941600D01*
X147800765Y-112800765D01*
X147941600Y-112629156D01*
X148046249Y-112433370D01*
X148110692Y-112220930D01*
X148132452Y-111999999D01*
X148110692Y-111779069D01*
X148046249Y-111566628D01*
X147941600Y-111370843D01*
X147836058Y-111242240D01*
X147127000Y-110533182D01*
X147127000Y-98083472D01*
X148053000Y-98083472D01*
X148053000Y-98236528D01*
X148082859Y-98386643D01*
X148141431Y-98528048D01*
X148226464Y-98655309D01*
X148233001Y-98661846D01*
X148233000Y-104884891D01*
X148229967Y-104915685D01*
X148233000Y-104946478D01*
X148242073Y-105038597D01*
X148277925Y-105156787D01*
X148336147Y-105265712D01*
X148414499Y-105361186D01*
X148438427Y-105380823D01*
X152319181Y-109261578D01*
X152338814Y-109285501D01*
X152434287Y-109363853D01*
X152543212Y-109422075D01*
X152661402Y-109457927D01*
X152753521Y-109467000D01*
X152753522Y-109467000D01*
X152784314Y-109470033D01*
X152815106Y-109467000D01*
X152889807Y-109467000D01*
X152981952Y-109528569D01*
X153123357Y-109587141D01*
X153273472Y-109617000D01*
X153426528Y-109617000D01*
X153576643Y-109587141D01*
X153718048Y-109528569D01*
X153845309Y-109443536D01*
X153953536Y-109335309D01*
X154038569Y-109208048D01*
X154097141Y-109066643D01*
X154127000Y-108916528D01*
X154127000Y-108763472D01*
X154097141Y-108613357D01*
X154038569Y-108471952D01*
X153953536Y-108344691D01*
X153845309Y-108236464D01*
X153718048Y-108151431D01*
X153576643Y-108092859D01*
X153426528Y-108063000D01*
X153273472Y-108063000D01*
X153123357Y-108092859D01*
X152982310Y-108151283D01*
X151358027Y-106527000D01*
X152889807Y-106527000D01*
X152981952Y-106588569D01*
X153123357Y-106647141D01*
X153273472Y-106677000D01*
X153426528Y-106677000D01*
X153576643Y-106647141D01*
X153718048Y-106588569D01*
X153845309Y-106503536D01*
X153953536Y-106395309D01*
X154038569Y-106268048D01*
X154097141Y-106126643D01*
X154127000Y-105976528D01*
X154127000Y-105823472D01*
X154097141Y-105673357D01*
X154038569Y-105531952D01*
X153953536Y-105404691D01*
X153845309Y-105296464D01*
X153718048Y-105211431D01*
X153576643Y-105152859D01*
X153426528Y-105123000D01*
X153273472Y-105123000D01*
X153123357Y-105152859D01*
X152981952Y-105211431D01*
X152889807Y-105273000D01*
X151499710Y-105273000D01*
X150257000Y-104030291D01*
X150257000Y-97920642D01*
X150311431Y-98052050D01*
X150396464Y-98179311D01*
X150504691Y-98287538D01*
X150631952Y-98372571D01*
X150773357Y-98431143D01*
X150882049Y-98452763D01*
X151650865Y-99221579D01*
X151670498Y-99245502D01*
X151765971Y-99323854D01*
X151874896Y-99382076D01*
X151993086Y-99417928D01*
X152115999Y-99430034D01*
X152146793Y-99427001D01*
X154042771Y-99427001D01*
X154002859Y-99523357D01*
X153981239Y-99632049D01*
X153078422Y-100534867D01*
X153054500Y-100554499D01*
X152976148Y-100649972D01*
X152931275Y-100733923D01*
X152917926Y-100758897D01*
X152882073Y-100877088D01*
X152869967Y-101000000D01*
X152873001Y-101030804D01*
X152873000Y-103539807D01*
X152811431Y-103631952D01*
X152752859Y-103773357D01*
X152723000Y-103923472D01*
X152723000Y-104076528D01*
X152752859Y-104226643D01*
X152811431Y-104368048D01*
X152896464Y-104495309D01*
X153004691Y-104603536D01*
X153131952Y-104688569D01*
X153273357Y-104747141D01*
X153423472Y-104777000D01*
X153576528Y-104777000D01*
X153726643Y-104747141D01*
X153868048Y-104688569D01*
X153995309Y-104603536D01*
X154103536Y-104495309D01*
X154188569Y-104368048D01*
X154247141Y-104226643D01*
X154277000Y-104076528D01*
X154277000Y-103923472D01*
X154247141Y-103773357D01*
X154188569Y-103631952D01*
X154127000Y-103539807D01*
X154127000Y-101259711D01*
X154867951Y-100518761D01*
X154976643Y-100497141D01*
X155118048Y-100438569D01*
X155245309Y-100353536D01*
X155353536Y-100245309D01*
X155438569Y-100118048D01*
X155496339Y-99978580D01*
X155548931Y-100105548D01*
X155633964Y-100232809D01*
X155742191Y-100341036D01*
X155869452Y-100426069D01*
X156010857Y-100484641D01*
X156160972Y-100514500D01*
X156314028Y-100514500D01*
X156464143Y-100484641D01*
X156605548Y-100426069D01*
X156697693Y-100364500D01*
X162102529Y-100364500D01*
X162054691Y-100396464D01*
X161946464Y-100504691D01*
X161861431Y-100631952D01*
X161802859Y-100773357D01*
X161801103Y-100782186D01*
X160102050Y-102481239D01*
X159993357Y-102502859D01*
X159851952Y-102561431D01*
X159724691Y-102646464D01*
X159616464Y-102754691D01*
X159531431Y-102881952D01*
X159472859Y-103023357D01*
X159443000Y-103173472D01*
X159443000Y-103326528D01*
X159472859Y-103476643D01*
X159531431Y-103618048D01*
X159616464Y-103745309D01*
X159724691Y-103853536D01*
X159753821Y-103873000D01*
X156500000Y-103873000D01*
X156475224Y-103875440D01*
X156451399Y-103882667D01*
X156429443Y-103894403D01*
X156410197Y-103910197D01*
X156394403Y-103929443D01*
X156382667Y-103951399D01*
X156375440Y-103975224D01*
X156373000Y-104000000D01*
X156373000Y-109500000D01*
X156375440Y-109524776D01*
X156382667Y-109548601D01*
X156394403Y-109570557D01*
X156410197Y-109589803D01*
X156429443Y-109605597D01*
X156451399Y-109617333D01*
X156475224Y-109624560D01*
X156500000Y-109627000D01*
X167423001Y-109627000D01*
X167423001Y-110739806D01*
X167361431Y-110831952D01*
X167302859Y-110973357D01*
X167273000Y-111123472D01*
X167273000Y-111276528D01*
X167302859Y-111426643D01*
X167361431Y-111568048D01*
X167446464Y-111695309D01*
X167554691Y-111803536D01*
X167681952Y-111888569D01*
X167823357Y-111947141D01*
X167973472Y-111977000D01*
X168126528Y-111977000D01*
X168276643Y-111947141D01*
X168418048Y-111888569D01*
X168545309Y-111803536D01*
X168653536Y-111695309D01*
X168738569Y-111568048D01*
X168797141Y-111426643D01*
X168827000Y-111276528D01*
X168827000Y-111123472D01*
X168797141Y-110973357D01*
X168738569Y-110831952D01*
X168677000Y-110739807D01*
X168677000Y-109627000D01*
X169500000Y-109627000D01*
X169524776Y-109624560D01*
X169548601Y-109617333D01*
X169570557Y-109605597D01*
X169589803Y-109589803D01*
X169605597Y-109570557D01*
X169617333Y-109548601D01*
X169624560Y-109524776D01*
X169627000Y-109500000D01*
X169627000Y-104000000D01*
X169624560Y-103975224D01*
X169617333Y-103951399D01*
X169605597Y-103929443D01*
X169589803Y-103910197D01*
X169570557Y-103894403D01*
X169548601Y-103882667D01*
X169524776Y-103875440D01*
X169500000Y-103873000D01*
X168677000Y-103873000D01*
X168677000Y-103326791D01*
X168680033Y-103295997D01*
X168667927Y-103173085D01*
X168660590Y-103148897D01*
X168632075Y-103054895D01*
X168573853Y-102945970D01*
X168495501Y-102850497D01*
X168471579Y-102830865D01*
X161969140Y-96328427D01*
X161949503Y-96304499D01*
X161854030Y-96226147D01*
X161745105Y-96167925D01*
X161626915Y-96132073D01*
X161534796Y-96123000D01*
X161504002Y-96119967D01*
X161473208Y-96123000D01*
X155220193Y-96123000D01*
X155128048Y-96061431D01*
X154986643Y-96002859D01*
X154836528Y-95973000D01*
X154683472Y-95973000D01*
X154627000Y-95984233D01*
X154627000Y-94960193D01*
X154688569Y-94868048D01*
X154747141Y-94726643D01*
X154777000Y-94576528D01*
X154777000Y-94423472D01*
X154747141Y-94273357D01*
X154688569Y-94131952D01*
X154627000Y-94039807D01*
X154627000Y-90575709D01*
X157320736Y-87881974D01*
X157373000Y-87960193D01*
X157373000Y-87969207D01*
X157373001Y-93469196D01*
X157369967Y-93500000D01*
X157382073Y-93622912D01*
X157413625Y-93726925D01*
X157417926Y-93741103D01*
X157476148Y-93850028D01*
X157554500Y-93945501D01*
X157578422Y-93965133D01*
X158731239Y-95117951D01*
X158752859Y-95226643D01*
X158811431Y-95368048D01*
X158896464Y-95495309D01*
X159004691Y-95603536D01*
X159131952Y-95688569D01*
X159273357Y-95747141D01*
X159423472Y-95777000D01*
X159576528Y-95777000D01*
X159726643Y-95747141D01*
X159868048Y-95688569D01*
X159995309Y-95603536D01*
X160103536Y-95495309D01*
X160188569Y-95368048D01*
X160247141Y-95226643D01*
X160277000Y-95076528D01*
X160277000Y-94923472D01*
X160247141Y-94773357D01*
X160188569Y-94631952D01*
X160103536Y-94504691D01*
X159995309Y-94396464D01*
X159868048Y-94311431D01*
X159726643Y-94252859D01*
X159617951Y-94231239D01*
X158627000Y-93240289D01*
X158627000Y-92296315D01*
X158686464Y-92385309D01*
X158794691Y-92493536D01*
X158921952Y-92578569D01*
X159063357Y-92637141D01*
X159172050Y-92658761D01*
X161090622Y-94577334D01*
X161091073Y-94581913D01*
X161126925Y-94700103D01*
X161185147Y-94809028D01*
X161242530Y-94878950D01*
X161263499Y-94904501D01*
X161358972Y-94982853D01*
X161467897Y-95041075D01*
X161586087Y-95076927D01*
X161709000Y-95089033D01*
X161739794Y-95086000D01*
X168830807Y-95086000D01*
X168922952Y-95147569D01*
X169064357Y-95206141D01*
X169214472Y-95236000D01*
X169367528Y-95236000D01*
X169517643Y-95206141D01*
X169659048Y-95147569D01*
X169786309Y-95062536D01*
X169894536Y-94954309D01*
X169979569Y-94827048D01*
X170038141Y-94685643D01*
X170068000Y-94535528D01*
X170068000Y-94382472D01*
X170038141Y-94232357D01*
X169979569Y-94090952D01*
X169894536Y-93963691D01*
X169786309Y-93855464D01*
X169659048Y-93770431D01*
X169517643Y-93711859D01*
X169367528Y-93682000D01*
X169214472Y-93682000D01*
X169064357Y-93711859D01*
X168922952Y-93770431D01*
X168830807Y-93832000D01*
X162118712Y-93832000D01*
X160058761Y-91772050D01*
X160047811Y-91716999D01*
X161108799Y-91716999D01*
X161723378Y-92331579D01*
X161743011Y-92355502D01*
X161838484Y-92433854D01*
X161947409Y-92492076D01*
X162065599Y-92527928D01*
X162188512Y-92540034D01*
X162219306Y-92537001D01*
X170379205Y-92537001D01*
X170409999Y-92540034D01*
X170440793Y-92537001D01*
X170532912Y-92527928D01*
X170651102Y-92492076D01*
X170760027Y-92433854D01*
X170855500Y-92355502D01*
X170875137Y-92331574D01*
X171657951Y-91548761D01*
X171766643Y-91527141D01*
X171908048Y-91468569D01*
X172035309Y-91383536D01*
X172143536Y-91275309D01*
X172228569Y-91148048D01*
X172287141Y-91006643D01*
X172317000Y-90856528D01*
X172317000Y-90703472D01*
X172287141Y-90553357D01*
X172228569Y-90411952D01*
X172143536Y-90284691D01*
X172035309Y-90176464D01*
X171908048Y-90091431D01*
X171766643Y-90032859D01*
X171616528Y-90003000D01*
X171463472Y-90003000D01*
X171313357Y-90032859D01*
X171171952Y-90091431D01*
X171044691Y-90176464D01*
X170936464Y-90284691D01*
X170851431Y-90411952D01*
X170792859Y-90553357D01*
X170771239Y-90662049D01*
X170150288Y-91283001D01*
X167836907Y-91283001D01*
X167916643Y-91267141D01*
X168058048Y-91208569D01*
X168185309Y-91123536D01*
X168293536Y-91015309D01*
X168378569Y-90888048D01*
X168437141Y-90746643D01*
X168467000Y-90596528D01*
X168467000Y-90443472D01*
X168437141Y-90293357D01*
X168378569Y-90151952D01*
X168317000Y-90059807D01*
X168317000Y-86207084D01*
X168583109Y-86301481D01*
X168813000Y-86180814D01*
X168813000Y-84987000D01*
X169067000Y-84987000D01*
X169067000Y-86180814D01*
X169296891Y-86301481D01*
X169571252Y-86204157D01*
X169821355Y-86055178D01*
X170037588Y-85860269D01*
X170211641Y-85626920D01*
X170336825Y-85364099D01*
X170381476Y-85216890D01*
X170260155Y-84987000D01*
X169067000Y-84987000D01*
X168813000Y-84987000D01*
X168793000Y-84987000D01*
X168793000Y-84733000D01*
X168813000Y-84733000D01*
X168813000Y-84713000D01*
X169067000Y-84713000D01*
X169067000Y-84733000D01*
X170260155Y-84733000D01*
X170381476Y-84503110D01*
X170336825Y-84355901D01*
X170211641Y-84093080D01*
X170037588Y-83859731D01*
X169821355Y-83664822D01*
X169571252Y-83515843D01*
X169403202Y-83456231D01*
X169521202Y-83407353D01*
X169722167Y-83273073D01*
X169893073Y-83102167D01*
X170027353Y-82901202D01*
X170119847Y-82677903D01*
X170167000Y-82440849D01*
X170167000Y-82199151D01*
X170119847Y-81962097D01*
X170027353Y-81738798D01*
X169893073Y-81537833D01*
X169722167Y-81366927D01*
X169521202Y-81232647D01*
X169297903Y-81140153D01*
X169060849Y-81093000D01*
X168819151Y-81093000D01*
X168636119Y-81129407D01*
X168384859Y-80878148D01*
X168582097Y-80959847D01*
X168819151Y-81007000D01*
X169060849Y-81007000D01*
X169297903Y-80959847D01*
X169521202Y-80867353D01*
X169722167Y-80733073D01*
X169893073Y-80562167D01*
X170027353Y-80361202D01*
X170119847Y-80137903D01*
X170167000Y-79900849D01*
X170167000Y-79659151D01*
X170119847Y-79422097D01*
X170027353Y-79198798D01*
X169893073Y-78997833D01*
X169722167Y-78826927D01*
X169521202Y-78692647D01*
X169297903Y-78600153D01*
X169060849Y-78553000D01*
X168819151Y-78553000D01*
X168582097Y-78600153D01*
X168358798Y-78692647D01*
X168157833Y-78826927D01*
X167986927Y-78997833D01*
X167852647Y-79198798D01*
X167760153Y-79422097D01*
X167713000Y-79659151D01*
X167713000Y-79900849D01*
X167760153Y-80137903D01*
X167852647Y-80361202D01*
X167940774Y-80493094D01*
X167931102Y-80487924D01*
X167812912Y-80452072D01*
X167720793Y-80442999D01*
X167689999Y-80439966D01*
X167659205Y-80442999D01*
X167628824Y-80442999D01*
X167628824Y-78930000D01*
X167621545Y-78856095D01*
X167599988Y-78785030D01*
X167564981Y-78719537D01*
X167517869Y-78662131D01*
X167460463Y-78615019D01*
X167394970Y-78580012D01*
X167323905Y-78558455D01*
X167250000Y-78551176D01*
X165550000Y-78551176D01*
X165476095Y-78558455D01*
X165405030Y-78580012D01*
X165339537Y-78615019D01*
X165282131Y-78662131D01*
X165235019Y-78719537D01*
X165200012Y-78785030D01*
X165178455Y-78856095D01*
X165171176Y-78930000D01*
X165171176Y-80473375D01*
X165123213Y-80487924D01*
X165014288Y-80546146D01*
X164918815Y-80624498D01*
X164899182Y-80648421D01*
X160578274Y-84969329D01*
X160567141Y-84913357D01*
X160508569Y-84771952D01*
X160423536Y-84644691D01*
X160315309Y-84536464D01*
X160188048Y-84451431D01*
X160046643Y-84392859D01*
X159896528Y-84363000D01*
X159743472Y-84363000D01*
X159593357Y-84392859D01*
X159451952Y-84451431D01*
X159359807Y-84513000D01*
X159206792Y-84513000D01*
X159175998Y-84509967D01*
X159053085Y-84522073D01*
X158934894Y-84557925D01*
X158830711Y-84613613D01*
X158825970Y-84616147D01*
X158730497Y-84694499D01*
X158710867Y-84718419D01*
X153578427Y-89850860D01*
X153554499Y-89870497D01*
X153476147Y-89965971D01*
X153417925Y-90074896D01*
X153395153Y-90149967D01*
X153382073Y-90193086D01*
X153369967Y-90315998D01*
X153373000Y-90346792D01*
X153373001Y-94039806D01*
X153311431Y-94131952D01*
X153252859Y-94273357D01*
X153223000Y-94423472D01*
X153223000Y-94576528D01*
X153252859Y-94726643D01*
X153311431Y-94868048D01*
X153373001Y-94960194D01*
X153373000Y-96240288D01*
X152382050Y-97231239D01*
X152273357Y-97252859D01*
X152131952Y-97311431D01*
X152004691Y-97396464D01*
X151896464Y-97504691D01*
X151820736Y-97618026D01*
X151768761Y-97566051D01*
X151747141Y-97457359D01*
X151688569Y-97315954D01*
X151603536Y-97188693D01*
X151495309Y-97080466D01*
X151368048Y-96995433D01*
X151226643Y-96936861D01*
X151076528Y-96907002D01*
X150923472Y-96907002D01*
X150773357Y-96936861D01*
X150631952Y-96995433D01*
X150504691Y-97080466D01*
X150396464Y-97188693D01*
X150311431Y-97315954D01*
X150257000Y-97447362D01*
X150257000Y-95550193D01*
X150318569Y-95458048D01*
X150377141Y-95316643D01*
X150407000Y-95166528D01*
X150407000Y-95013472D01*
X150377141Y-94863357D01*
X150318569Y-94721952D01*
X150233536Y-94594691D01*
X150125309Y-94486464D01*
X149998048Y-94401431D01*
X149856643Y-94342859D01*
X149706528Y-94313000D01*
X149553472Y-94313000D01*
X149403357Y-94342859D01*
X149261952Y-94401431D01*
X149134691Y-94486464D01*
X149026464Y-94594691D01*
X148941431Y-94721952D01*
X148882859Y-94863357D01*
X148853000Y-95013472D01*
X148853000Y-95166528D01*
X148882859Y-95316643D01*
X148941431Y-95458048D01*
X149003001Y-95550194D01*
X149003001Y-97402189D01*
X148906528Y-97383000D01*
X148753472Y-97383000D01*
X148603357Y-97412859D01*
X148461952Y-97471431D01*
X148334691Y-97556464D01*
X148226464Y-97664691D01*
X148141431Y-97791952D01*
X148082859Y-97933357D01*
X148053000Y-98083472D01*
X147127000Y-98083472D01*
X147127000Y-94989672D01*
X147132452Y-94934315D01*
X147127000Y-94878958D01*
X147127000Y-94878950D01*
X147110693Y-94713384D01*
X147046250Y-94500944D01*
X146941600Y-94305158D01*
X146800765Y-94133550D01*
X146757758Y-94098255D01*
X146627000Y-93967497D01*
X146627000Y-86960193D01*
X146688569Y-86868048D01*
X146747141Y-86726643D01*
X146777000Y-86576528D01*
X146777000Y-86423472D01*
X146747141Y-86273357D01*
X146688569Y-86131952D01*
X146603536Y-86004691D01*
X146495309Y-85896464D01*
X146368048Y-85811431D01*
X146226643Y-85752859D01*
X146076528Y-85723000D01*
X145923472Y-85723000D01*
X145773357Y-85752859D01*
X145631952Y-85811431D01*
X145504691Y-85896464D01*
X145396464Y-86004691D01*
X145311431Y-86131952D01*
X145252859Y-86273357D01*
X145223000Y-86423472D01*
X145223000Y-86576528D01*
X145252859Y-86726643D01*
X145311431Y-86868048D01*
X145373001Y-86960194D01*
X145373000Y-88030793D01*
X145373001Y-88030803D01*
X145373000Y-93078116D01*
X145321049Y-93072999D01*
X145321038Y-93072999D01*
X145265684Y-93067547D01*
X145210330Y-93072999D01*
X145132218Y-93072999D01*
X145156722Y-93048495D01*
X145241755Y-92921234D01*
X145300327Y-92779829D01*
X145330186Y-92629714D01*
X145330186Y-92476658D01*
X145300327Y-92326543D01*
X145241755Y-92185138D01*
X145156722Y-92057877D01*
X145048495Y-91949650D01*
X144921234Y-91864617D01*
X144779829Y-91806045D01*
X144629714Y-91776186D01*
X144476658Y-91776186D01*
X144326543Y-91806045D01*
X144185138Y-91864617D01*
X144172592Y-91873000D01*
X142960193Y-91873000D01*
X142868048Y-91811431D01*
X142726643Y-91752859D01*
X142576528Y-91723000D01*
X142423472Y-91723000D01*
X142273357Y-91752859D01*
X142131952Y-91811431D01*
X142004691Y-91896464D01*
X141896464Y-92004691D01*
X141811431Y-92131952D01*
X141808601Y-92138784D01*
X134381000Y-84711184D01*
X134381000Y-77140942D01*
X137175236Y-73881000D01*
X143500000Y-73881000D01*
X143574329Y-73873679D01*
X143645802Y-73851998D01*
X143711672Y-73816790D01*
X143769408Y-73769408D01*
X143816790Y-73711672D01*
X143851998Y-73645802D01*
X143873679Y-73574329D01*
X143881000Y-73500000D01*
X143881000Y-69315132D01*
X144623000Y-69315132D01*
X144623000Y-69684868D01*
X144695132Y-70047501D01*
X144836624Y-70389093D01*
X145042039Y-70696518D01*
X145303482Y-70957961D01*
X145610907Y-71163376D01*
X145952499Y-71304868D01*
X146315132Y-71377000D01*
X146684868Y-71377000D01*
X147047501Y-71304868D01*
X147389093Y-71163376D01*
X147646094Y-70991653D01*
X150267952Y-70991653D01*
X150423962Y-71307214D01*
X150798745Y-71498020D01*
X151203551Y-71612044D01*
X151622824Y-71644902D01*
X152040451Y-71595334D01*
X152440383Y-71465243D01*
X152736038Y-71307214D01*
X152892048Y-70991653D01*
X151580000Y-69679605D01*
X150267952Y-70991653D01*
X147646094Y-70991653D01*
X147696518Y-70957961D01*
X147957961Y-70696518D01*
X148163376Y-70389093D01*
X148304868Y-70047501D01*
X148377000Y-69684868D01*
X148377000Y-69542824D01*
X149435098Y-69542824D01*
X149484666Y-69960451D01*
X149614757Y-70360383D01*
X149772786Y-70656038D01*
X150088347Y-70812048D01*
X151400395Y-69500000D01*
X151759605Y-69500000D01*
X153071653Y-70812048D01*
X153387214Y-70656038D01*
X153578020Y-70281255D01*
X153692044Y-69876449D01*
X153724902Y-69457176D01*
X153675334Y-69039549D01*
X153545243Y-68639617D01*
X153387214Y-68343962D01*
X153071653Y-68187952D01*
X151759605Y-69500000D01*
X151400395Y-69500000D01*
X150088347Y-68187952D01*
X149772786Y-68343962D01*
X149581980Y-68718745D01*
X149467956Y-69123551D01*
X149435098Y-69542824D01*
X148377000Y-69542824D01*
X148377000Y-69315132D01*
X148304868Y-68952499D01*
X148163376Y-68610907D01*
X147957961Y-68303482D01*
X147696518Y-68042039D01*
X147646095Y-68008347D01*
X150267952Y-68008347D01*
X151580000Y-69320395D01*
X152837550Y-68062845D01*
X169116761Y-68062845D01*
X169284802Y-68388643D01*
X169676607Y-68589426D01*
X170100055Y-68709914D01*
X170538873Y-68745476D01*
X170976197Y-68694746D01*
X171395221Y-68559674D01*
X171715198Y-68388643D01*
X171883239Y-68062845D01*
X170500000Y-66679605D01*
X169116761Y-68062845D01*
X152837550Y-68062845D01*
X152892048Y-68008347D01*
X152736038Y-67692786D01*
X152361255Y-67501980D01*
X151956449Y-67387956D01*
X151537176Y-67355098D01*
X151119549Y-67404666D01*
X150719617Y-67534757D01*
X150423962Y-67692786D01*
X150267952Y-68008347D01*
X147646095Y-68008347D01*
X147389093Y-67836624D01*
X147047501Y-67695132D01*
X146684868Y-67623000D01*
X146315132Y-67623000D01*
X145952499Y-67695132D01*
X145610907Y-67836624D01*
X145303482Y-68042039D01*
X145042039Y-68303482D01*
X144836624Y-68610907D01*
X144695132Y-68952499D01*
X144623000Y-69315132D01*
X143881000Y-69315132D01*
X143881000Y-66538873D01*
X168254524Y-66538873D01*
X168305254Y-66976197D01*
X168440326Y-67395221D01*
X168611357Y-67715198D01*
X168937155Y-67883239D01*
X170320395Y-66500000D01*
X170679605Y-66500000D01*
X172062845Y-67883239D01*
X172388643Y-67715198D01*
X172589426Y-67323393D01*
X172709914Y-66899945D01*
X172745476Y-66461127D01*
X172694746Y-66023803D01*
X172559674Y-65604779D01*
X172388643Y-65284802D01*
X172062845Y-65116761D01*
X170679605Y-66500000D01*
X170320395Y-66500000D01*
X168937155Y-65116761D01*
X168611357Y-65284802D01*
X168410574Y-65676607D01*
X168290086Y-66100055D01*
X168254524Y-66538873D01*
X143881000Y-66538873D01*
X143881000Y-65500000D01*
X143873679Y-65425671D01*
X143851998Y-65354198D01*
X143816790Y-65288328D01*
X143769408Y-65230592D01*
X143711672Y-65183210D01*
X143645802Y-65148002D01*
X143574329Y-65126321D01*
X143500000Y-65119000D01*
X129000000Y-65119000D01*
X128925671Y-65126321D01*
X128854198Y-65148002D01*
X128788328Y-65183210D01*
X128730592Y-65230592D01*
X122730592Y-71230592D01*
X122683210Y-71288328D01*
X122648002Y-71354198D01*
X122626321Y-71425671D01*
X122619000Y-71500000D01*
X120402000Y-71500000D01*
X120402000Y-68062845D01*
X122116761Y-68062845D01*
X122284802Y-68388643D01*
X122676607Y-68589426D01*
X123100055Y-68709914D01*
X123538873Y-68745476D01*
X123976197Y-68694746D01*
X124395221Y-68559674D01*
X124715198Y-68388643D01*
X124883239Y-68062845D01*
X123500000Y-66679605D01*
X122116761Y-68062845D01*
X120402000Y-68062845D01*
X120402000Y-66538873D01*
X121254524Y-66538873D01*
X121305254Y-66976197D01*
X121440326Y-67395221D01*
X121611357Y-67715198D01*
X121937155Y-67883239D01*
X123320395Y-66500000D01*
X123679605Y-66500000D01*
X125062845Y-67883239D01*
X125388643Y-67715198D01*
X125589426Y-67323393D01*
X125709914Y-66899945D01*
X125745476Y-66461127D01*
X125694746Y-66023803D01*
X125559674Y-65604779D01*
X125388643Y-65284802D01*
X125062845Y-65116761D01*
X123679605Y-66500000D01*
X123320395Y-66500000D01*
X121937155Y-65116761D01*
X121611357Y-65284802D01*
X121410574Y-65676607D01*
X121290086Y-66100055D01*
X121254524Y-66538873D01*
X120402000Y-66538873D01*
X120402000Y-66019658D01*
X120453369Y-65495758D01*
X120599812Y-65010714D01*
X120638923Y-64937155D01*
X122116761Y-64937155D01*
X123500000Y-66320395D01*
X124883239Y-64937155D01*
X169116761Y-64937155D01*
X170500000Y-66320395D01*
X171883239Y-64937155D01*
X171715198Y-64611357D01*
X171323393Y-64410574D01*
X170899945Y-64290086D01*
X170461127Y-64254524D01*
X170023803Y-64305254D01*
X169604779Y-64440326D01*
X169284802Y-64611357D01*
X169116761Y-64937155D01*
X124883239Y-64937155D01*
X124715198Y-64611357D01*
X124323393Y-64410574D01*
X123899945Y-64290086D01*
X123461127Y-64254524D01*
X123023803Y-64305254D01*
X122604779Y-64440326D01*
X122284802Y-64611357D01*
X122116761Y-64937155D01*
X120638923Y-64937155D01*
X120837674Y-64563358D01*
X121157904Y-64170718D01*
X121548294Y-63847759D01*
X121993980Y-63606778D01*
X122477987Y-63456952D01*
X123000820Y-63402000D01*
X170980342Y-63402000D01*
X171504242Y-63453369D01*
G04 #@! TA.AperFunction,Conductor*
D23*
G36*
X171504242Y-63453369D02*
G01*
X171989286Y-63599812D01*
X172436642Y-63837674D01*
X172829282Y-64157904D01*
X173152241Y-64548294D01*
X173393222Y-64993980D01*
X173543048Y-65477987D01*
X173598000Y-66000820D01*
X173598000Y-66000827D01*
X173598001Y-145580333D01*
X173546631Y-146104243D01*
X173400187Y-146589288D01*
X173162324Y-147036646D01*
X172842096Y-147429282D01*
X172451706Y-147752241D01*
X172006018Y-147993223D01*
X171522013Y-148143048D01*
X170999180Y-148198000D01*
X123019657Y-148198000D01*
X122495757Y-148146631D01*
X122010712Y-148000187D01*
X121563354Y-147762324D01*
X121170718Y-147442096D01*
X120847759Y-147051706D01*
X120606777Y-146606018D01*
X120593413Y-146562845D01*
X122116761Y-146562845D01*
X122284802Y-146888643D01*
X122676607Y-147089426D01*
X123100055Y-147209914D01*
X123538873Y-147245476D01*
X123976197Y-147194746D01*
X124395221Y-147059674D01*
X124715198Y-146888643D01*
X124883239Y-146562845D01*
X123500000Y-145179605D01*
X122116761Y-146562845D01*
X120593413Y-146562845D01*
X120456952Y-146122013D01*
X120402000Y-145599180D01*
X120402000Y-145038873D01*
X121254524Y-145038873D01*
X121305254Y-145476197D01*
X121440326Y-145895221D01*
X121611357Y-146215198D01*
X121937155Y-146383239D01*
X123320395Y-145000000D01*
X123679605Y-145000000D01*
X125062845Y-146383239D01*
X125388643Y-146215198D01*
X125498922Y-146000000D01*
X134861928Y-146000000D01*
X134874188Y-146124482D01*
X134910498Y-146244180D01*
X134969463Y-146354494D01*
X135048815Y-146451185D01*
X135145506Y-146530537D01*
X135255820Y-146589502D01*
X135375518Y-146625812D01*
X135500000Y-146638072D01*
X136714250Y-146635000D01*
X136873000Y-146476250D01*
X136873000Y-144627000D01*
X137127000Y-144627000D01*
X137127000Y-146476250D01*
X137285750Y-146635000D01*
X138500000Y-146638072D01*
X138624482Y-146625812D01*
X138744180Y-146589502D01*
X138854494Y-146530537D01*
X138951185Y-146451185D01*
X139030537Y-146354494D01*
X139089502Y-146244180D01*
X139125812Y-146124482D01*
X139138072Y-146000000D01*
X139135000Y-144785750D01*
X138976250Y-144627000D01*
X137127000Y-144627000D01*
X136873000Y-144627000D01*
X135023750Y-144627000D01*
X134865000Y-144785750D01*
X134861928Y-146000000D01*
X125498922Y-146000000D01*
X125589426Y-145823393D01*
X125709914Y-145399945D01*
X125745476Y-144961127D01*
X125694746Y-144523803D01*
X125559674Y-144104779D01*
X125388643Y-143784802D01*
X125062845Y-143616761D01*
X123679605Y-145000000D01*
X123320395Y-145000000D01*
X121937155Y-143616761D01*
X121611357Y-143784802D01*
X121410574Y-144176607D01*
X121290086Y-144600055D01*
X121254524Y-145038873D01*
X120402000Y-145038873D01*
X120402000Y-143437155D01*
X122116761Y-143437155D01*
X123500000Y-144820395D01*
X124883239Y-143437155D01*
X124715198Y-143111357D01*
X124323393Y-142910574D01*
X123899945Y-142790086D01*
X123461127Y-142754524D01*
X123023803Y-142805254D01*
X122604779Y-142940326D01*
X122284802Y-143111357D01*
X122116761Y-143437155D01*
X120402000Y-143437155D01*
X120402000Y-141620000D01*
X126981176Y-141620000D01*
X126981176Y-143020000D01*
X126988455Y-143093905D01*
X127010012Y-143164970D01*
X127045019Y-143230463D01*
X127092131Y-143287869D01*
X127149537Y-143334981D01*
X127215030Y-143369988D01*
X127286095Y-143391545D01*
X127360000Y-143398824D01*
X128760000Y-143398824D01*
X128833905Y-143391545D01*
X128904970Y-143369988D01*
X128970463Y-143334981D01*
X129027869Y-143287869D01*
X129066112Y-143241269D01*
X132318336Y-143241269D01*
X132377797Y-143475037D01*
X132616242Y-143585934D01*
X132871740Y-143648183D01*
X133134473Y-143659390D01*
X133394344Y-143619125D01*
X133641366Y-143528935D01*
X133742203Y-143475037D01*
X133801664Y-143241269D01*
X133060000Y-142499605D01*
X132318336Y-143241269D01*
X129066112Y-143241269D01*
X129074981Y-143230463D01*
X129109988Y-143164970D01*
X129131545Y-143093905D01*
X129138824Y-143020000D01*
X129138824Y-142394473D01*
X131720610Y-142394473D01*
X131760875Y-142654344D01*
X131851065Y-142901366D01*
X131904963Y-143002203D01*
X132138731Y-143061664D01*
X132880395Y-142320000D01*
X133239605Y-142320000D01*
X133981269Y-143061664D01*
X134215037Y-143002203D01*
X134216061Y-143000000D01*
X134861928Y-143000000D01*
X134865000Y-144214250D01*
X135023750Y-144373000D01*
X136873000Y-144373000D01*
X136873000Y-142523750D01*
X137127000Y-142523750D01*
X137127000Y-144373000D01*
X138976250Y-144373000D01*
X139135000Y-144214250D01*
X139138072Y-143000000D01*
X139125812Y-142875518D01*
X139089502Y-142755820D01*
X139030537Y-142645506D01*
X138951185Y-142548815D01*
X138854494Y-142469463D01*
X138744180Y-142410498D01*
X138624482Y-142374188D01*
X138500000Y-142361928D01*
X137285750Y-142365000D01*
X137127000Y-142523750D01*
X136873000Y-142523750D01*
X136714250Y-142365000D01*
X135500000Y-142361928D01*
X135375518Y-142374188D01*
X135255820Y-142410498D01*
X135145506Y-142469463D01*
X135048815Y-142548815D01*
X134969463Y-142645506D01*
X134910498Y-142755820D01*
X134874188Y-142875518D01*
X134861928Y-143000000D01*
X134216061Y-143000000D01*
X134325934Y-142763758D01*
X134388183Y-142508260D01*
X134399390Y-142245527D01*
X134359125Y-141985656D01*
X134268935Y-141738634D01*
X134215037Y-141637797D01*
X133981269Y-141578336D01*
X133239605Y-142320000D01*
X132880395Y-142320000D01*
X132138731Y-141578336D01*
X131904963Y-141637797D01*
X131794066Y-141876242D01*
X131731817Y-142131740D01*
X131720610Y-142394473D01*
X129138824Y-142394473D01*
X129138824Y-141620000D01*
X129131545Y-141546095D01*
X129109988Y-141475030D01*
X129074981Y-141409537D01*
X129027869Y-141352131D01*
X128970463Y-141305019D01*
X128904970Y-141270012D01*
X128833905Y-141248455D01*
X128760000Y-141241176D01*
X128619911Y-141241176D01*
X128746547Y-141156560D01*
X128896560Y-141006547D01*
X129014425Y-140830151D01*
X129095611Y-140634149D01*
X129137000Y-140426075D01*
X129137000Y-140213925D01*
X129095611Y-140005851D01*
X129014425Y-139809849D01*
X128896560Y-139633453D01*
X128746547Y-139483440D01*
X128570151Y-139365575D01*
X128460122Y-139320000D01*
X128570151Y-139274425D01*
X128746547Y-139156560D01*
X128896560Y-139006547D01*
X129014425Y-138830151D01*
X129095611Y-138634149D01*
X129137000Y-138426075D01*
X129137000Y-138213925D01*
X131983000Y-138213925D01*
X131983000Y-138426075D01*
X132024389Y-138634149D01*
X132105575Y-138830151D01*
X132223440Y-139006547D01*
X132373453Y-139156560D01*
X132549849Y-139274425D01*
X132659878Y-139320000D01*
X132549849Y-139365575D01*
X132373453Y-139483440D01*
X132223440Y-139633453D01*
X132105575Y-139809849D01*
X132024389Y-140005851D01*
X131983000Y-140213925D01*
X131983000Y-140426075D01*
X132024389Y-140634149D01*
X132105575Y-140830151D01*
X132223440Y-141006547D01*
X132373453Y-141156560D01*
X132382370Y-141162518D01*
X132377797Y-141164963D01*
X132318336Y-141398731D01*
X133060000Y-142140395D01*
X133801664Y-141398731D01*
X133742203Y-141164963D01*
X133737349Y-141162706D01*
X133746547Y-141156560D01*
X133896560Y-141006547D01*
X134014425Y-140830151D01*
X134095611Y-140634149D01*
X134137000Y-140426075D01*
X134137000Y-140213925D01*
X134095611Y-140005851D01*
X134014425Y-139809849D01*
X133896560Y-139633453D01*
X133746547Y-139483440D01*
X133570151Y-139365575D01*
X133460122Y-139320000D01*
X133570151Y-139274425D01*
X133746547Y-139156560D01*
X133896560Y-139006547D01*
X134014425Y-138830151D01*
X134095611Y-138634149D01*
X134137000Y-138426075D01*
X134137000Y-138213925D01*
X134095611Y-138005851D01*
X134014425Y-137809849D01*
X133896560Y-137633453D01*
X133746547Y-137483440D01*
X133570151Y-137365575D01*
X133374149Y-137284389D01*
X133166075Y-137243000D01*
X132953925Y-137243000D01*
X132745851Y-137284389D01*
X132549849Y-137365575D01*
X132373453Y-137483440D01*
X132223440Y-137633453D01*
X132105575Y-137809849D01*
X132024389Y-138005851D01*
X131983000Y-138213925D01*
X129137000Y-138213925D01*
X129095611Y-138005851D01*
X129014425Y-137809849D01*
X128896560Y-137633453D01*
X128746547Y-137483440D01*
X128570151Y-137365575D01*
X128374149Y-137284389D01*
X128166075Y-137243000D01*
X127953925Y-137243000D01*
X127745851Y-137284389D01*
X127549849Y-137365575D01*
X127373453Y-137483440D01*
X127223440Y-137633453D01*
X127105575Y-137809849D01*
X127024389Y-138005851D01*
X126983000Y-138213925D01*
X126983000Y-138426075D01*
X127024389Y-138634149D01*
X127105575Y-138830151D01*
X127223440Y-139006547D01*
X127373453Y-139156560D01*
X127549849Y-139274425D01*
X127659878Y-139320000D01*
X127549849Y-139365575D01*
X127373453Y-139483440D01*
X127223440Y-139633453D01*
X127105575Y-139809849D01*
X127024389Y-140005851D01*
X126983000Y-140213925D01*
X126983000Y-140426075D01*
X127024389Y-140634149D01*
X127105575Y-140830151D01*
X127223440Y-141006547D01*
X127373453Y-141156560D01*
X127500089Y-141241176D01*
X127360000Y-141241176D01*
X127286095Y-141248455D01*
X127215030Y-141270012D01*
X127149537Y-141305019D01*
X127092131Y-141352131D01*
X127045019Y-141409537D01*
X127010012Y-141475030D01*
X126988455Y-141546095D01*
X126981176Y-141620000D01*
X120402000Y-141620000D01*
X120402000Y-132453472D01*
X126653000Y-132453472D01*
X126653000Y-132606528D01*
X126682859Y-132756643D01*
X126741431Y-132898048D01*
X126826464Y-133025309D01*
X126934691Y-133133536D01*
X127061952Y-133218569D01*
X127203357Y-133277141D01*
X127353472Y-133307000D01*
X127506528Y-133307000D01*
X127656643Y-133277141D01*
X127798048Y-133218569D01*
X127925309Y-133133536D01*
X128033536Y-133025309D01*
X128118569Y-132898048D01*
X128177141Y-132756643D01*
X128198761Y-132647951D01*
X128351578Y-132495134D01*
X128375501Y-132475501D01*
X128453853Y-132380028D01*
X128512075Y-132271103D01*
X128547927Y-132152913D01*
X128557000Y-132060794D01*
X128560033Y-132030000D01*
X128557000Y-131999206D01*
X128557000Y-127490193D01*
X128618569Y-127398048D01*
X128677141Y-127256643D01*
X128707000Y-127106528D01*
X128707000Y-126953472D01*
X128677141Y-126803357D01*
X128618569Y-126661952D01*
X128533536Y-126534691D01*
X128425309Y-126426464D01*
X128298048Y-126341431D01*
X128156643Y-126282859D01*
X128006528Y-126253000D01*
X127853472Y-126253000D01*
X127703357Y-126282859D01*
X127561952Y-126341431D01*
X127434691Y-126426464D01*
X127326464Y-126534691D01*
X127241431Y-126661952D01*
X127182859Y-126803357D01*
X127153000Y-126953472D01*
X127153000Y-127106528D01*
X127182859Y-127256643D01*
X127241431Y-127398048D01*
X127303000Y-127490193D01*
X127303001Y-131763039D01*
X127203357Y-131782859D01*
X127061952Y-131841431D01*
X126934691Y-131926464D01*
X126826464Y-132034691D01*
X126741431Y-132161952D01*
X126682859Y-132303357D01*
X126653000Y-132453472D01*
X120402000Y-132453472D01*
X120402000Y-122453472D01*
X127153000Y-122453472D01*
X127153000Y-122606528D01*
X127182859Y-122756643D01*
X127241431Y-122898048D01*
X127326464Y-123025309D01*
X127434691Y-123133536D01*
X127561952Y-123218569D01*
X127703357Y-123277141D01*
X127853472Y-123307000D01*
X128006528Y-123307000D01*
X128156643Y-123277141D01*
X128298048Y-123218569D01*
X128390193Y-123157000D01*
X129170289Y-123157000D01*
X132464866Y-126451578D01*
X132484499Y-126475501D01*
X132579972Y-126553853D01*
X132688897Y-126612075D01*
X132807087Y-126647927D01*
X132899206Y-126657000D01*
X132899207Y-126657000D01*
X132929999Y-126660033D01*
X132960791Y-126657000D01*
X134373000Y-126657000D01*
X134373001Y-127679196D01*
X134369967Y-127710000D01*
X134382073Y-127832912D01*
X134417926Y-127951103D01*
X134476148Y-128060028D01*
X134554500Y-128155501D01*
X134578423Y-128175134D01*
X138019000Y-131615712D01*
X138019000Y-133050000D01*
X138028020Y-133132412D01*
X138051245Y-133203398D01*
X138087873Y-133268489D01*
X138859000Y-134370099D01*
X138859000Y-140450000D01*
X138868821Y-140535950D01*
X138892722Y-140606712D01*
X138929968Y-140671452D01*
X139609226Y-141622414D01*
X139619001Y-146900706D01*
X139626321Y-146974329D01*
X139648002Y-147045802D01*
X139683210Y-147111672D01*
X139730592Y-147169408D01*
X139788328Y-147216790D01*
X139854198Y-147251998D01*
X139925671Y-147273679D01*
X140000000Y-147281000D01*
X144800000Y-147281000D01*
X144874329Y-147273679D01*
X144945802Y-147251998D01*
X145011672Y-147216790D01*
X145069408Y-147169408D01*
X145116790Y-147111672D01*
X145151998Y-147045802D01*
X145173679Y-146974329D01*
X145181000Y-146900000D01*
X145181000Y-146562845D01*
X169116761Y-146562845D01*
X169284802Y-146888643D01*
X169676607Y-147089426D01*
X170100055Y-147209914D01*
X170538873Y-147245476D01*
X170976197Y-147194746D01*
X171395221Y-147059674D01*
X171715198Y-146888643D01*
X171883239Y-146562845D01*
X170500000Y-145179605D01*
X169116761Y-146562845D01*
X145181000Y-146562845D01*
X145181000Y-145038873D01*
X168254524Y-145038873D01*
X168305254Y-145476197D01*
X168440326Y-145895221D01*
X168611357Y-146215198D01*
X168937155Y-146383239D01*
X170320395Y-145000000D01*
X170679605Y-145000000D01*
X172062845Y-146383239D01*
X172388643Y-146215198D01*
X172589426Y-145823393D01*
X172709914Y-145399945D01*
X172745476Y-144961127D01*
X172694746Y-144523803D01*
X172559674Y-144104779D01*
X172388643Y-143784802D01*
X172062845Y-143616761D01*
X170679605Y-145000000D01*
X170320395Y-145000000D01*
X168937155Y-143616761D01*
X168611357Y-143784802D01*
X168410574Y-144176607D01*
X168290086Y-144600055D01*
X168254524Y-145038873D01*
X145181000Y-145038873D01*
X145181000Y-143468052D01*
X145214839Y-143437155D01*
X169116761Y-143437155D01*
X170500000Y-144820395D01*
X171883239Y-143437155D01*
X171715198Y-143111357D01*
X171323393Y-142910574D01*
X170899945Y-142790086D01*
X170461127Y-142754524D01*
X170023803Y-142805254D01*
X169604779Y-142940326D01*
X169284802Y-143111357D01*
X169116761Y-143437155D01*
X145214839Y-143437155D01*
X146788866Y-142000000D01*
X154111928Y-142000000D01*
X154124188Y-142124482D01*
X154160498Y-142244180D01*
X154219463Y-142354494D01*
X154298815Y-142451185D01*
X154395506Y-142530537D01*
X154505820Y-142589502D01*
X154625518Y-142625812D01*
X154750000Y-142638072D01*
X156214250Y-142635000D01*
X156373000Y-142476250D01*
X156373000Y-140627000D01*
X156627000Y-140627000D01*
X156627000Y-142476250D01*
X156785750Y-142635000D01*
X158250000Y-142638072D01*
X158374482Y-142625812D01*
X158494180Y-142589502D01*
X158604494Y-142530537D01*
X158701185Y-142451185D01*
X158780537Y-142354494D01*
X158839502Y-142244180D01*
X158875812Y-142124482D01*
X158888072Y-142000000D01*
X158885000Y-140785750D01*
X158726250Y-140627000D01*
X156627000Y-140627000D01*
X156373000Y-140627000D01*
X154273750Y-140627000D01*
X154115000Y-140785750D01*
X154111928Y-142000000D01*
X146788866Y-142000000D01*
X150074580Y-139000000D01*
X154111928Y-139000000D01*
X154115000Y-140214250D01*
X154273750Y-140373000D01*
X156373000Y-140373000D01*
X156373000Y-138523750D01*
X156627000Y-138523750D01*
X156627000Y-140373000D01*
X158726250Y-140373000D01*
X158885000Y-140214250D01*
X158888072Y-139000000D01*
X158875812Y-138875518D01*
X158839502Y-138755820D01*
X158780537Y-138645506D01*
X158701185Y-138548815D01*
X158604494Y-138469463D01*
X158494180Y-138410498D01*
X158374482Y-138374188D01*
X158250000Y-138361928D01*
X156785750Y-138365000D01*
X156627000Y-138523750D01*
X156373000Y-138523750D01*
X156214250Y-138365000D01*
X154750000Y-138361928D01*
X154625518Y-138374188D01*
X154505820Y-138410498D01*
X154395506Y-138469463D01*
X154298815Y-138548815D01*
X154219463Y-138645506D01*
X154160498Y-138755820D01*
X154124188Y-138875518D01*
X154111928Y-139000000D01*
X150074580Y-139000000D01*
X151847771Y-137381000D01*
X158700000Y-137381000D01*
X158774329Y-137373679D01*
X158845802Y-137351998D01*
X158911672Y-137316790D01*
X158969408Y-137269408D01*
X159016790Y-137211672D01*
X159051998Y-137145802D01*
X159071176Y-137082580D01*
X159071176Y-138375000D01*
X159095268Y-138619609D01*
X159166618Y-138854818D01*
X159282483Y-139071587D01*
X159438413Y-139261587D01*
X159628413Y-139417517D01*
X159845182Y-139533382D01*
X160080391Y-139604732D01*
X160325000Y-139628824D01*
X162075000Y-139628824D01*
X162319609Y-139604732D01*
X162554818Y-139533382D01*
X162771587Y-139417517D01*
X162961587Y-139261587D01*
X163117517Y-139071587D01*
X163233382Y-138854818D01*
X163304732Y-138619609D01*
X163328824Y-138375000D01*
X163328824Y-136625000D01*
X163304732Y-136380391D01*
X163233382Y-136145182D01*
X163117517Y-135928413D01*
X162961587Y-135738413D01*
X162771587Y-135582483D01*
X162554818Y-135466618D01*
X162319609Y-135395268D01*
X162075000Y-135371176D01*
X160325000Y-135371176D01*
X160080391Y-135395268D01*
X159845182Y-135466618D01*
X159628413Y-135582483D01*
X159438413Y-135738413D01*
X159282483Y-135928413D01*
X159166618Y-136145182D01*
X159095268Y-136380391D01*
X159081000Y-136525256D01*
X159081000Y-132325000D01*
X159074115Y-132252896D01*
X159052860Y-132181295D01*
X159018044Y-132115217D01*
X158971006Y-132057201D01*
X158913554Y-132009476D01*
X158847895Y-131973876D01*
X158776552Y-131951770D01*
X158702268Y-131944007D01*
X154809048Y-131920833D01*
X154172707Y-128920941D01*
X154151998Y-128854198D01*
X154116790Y-128788328D01*
X154069408Y-128730592D01*
X154011672Y-128683210D01*
X153945802Y-128648002D01*
X153874329Y-128626321D01*
X153800000Y-128619000D01*
X143327000Y-128619000D01*
X142628600Y-128095200D01*
X142545802Y-128048002D01*
X142474329Y-128026321D01*
X142400000Y-128019000D01*
X138400000Y-128019000D01*
X138325671Y-128026321D01*
X138254198Y-128048002D01*
X138188328Y-128083210D01*
X138130592Y-128130592D01*
X138083210Y-128188328D01*
X138048002Y-128254198D01*
X138026321Y-128325671D01*
X138019000Y-128400000D01*
X138019000Y-129842289D01*
X135627000Y-127450289D01*
X135627000Y-126460193D01*
X135688569Y-126368048D01*
X135747141Y-126226643D01*
X135777000Y-126076528D01*
X135777000Y-125923472D01*
X135747141Y-125773357D01*
X135688569Y-125631952D01*
X135603536Y-125504691D01*
X135495309Y-125396464D01*
X135368048Y-125311431D01*
X135226643Y-125252859D01*
X135076528Y-125223000D01*
X134923472Y-125223000D01*
X134773357Y-125252859D01*
X134631952Y-125311431D01*
X134504691Y-125396464D01*
X134498155Y-125403000D01*
X133189712Y-125403000D01*
X129895138Y-122108427D01*
X129875501Y-122084499D01*
X129780028Y-122006147D01*
X129671103Y-121947925D01*
X129552913Y-121912073D01*
X129460794Y-121903000D01*
X129430000Y-121899967D01*
X129399206Y-121903000D01*
X128390193Y-121903000D01*
X128298048Y-121841431D01*
X128156643Y-121782859D01*
X128006528Y-121753000D01*
X127853472Y-121753000D01*
X127703357Y-121782859D01*
X127561952Y-121841431D01*
X127434691Y-121926464D01*
X127326464Y-122034691D01*
X127241431Y-122161952D01*
X127182859Y-122303357D01*
X127153000Y-122453472D01*
X120402000Y-122453472D01*
X120402000Y-93750000D01*
X122609000Y-93750000D01*
X122609000Y-110500000D01*
X122616321Y-110574329D01*
X122638002Y-110645802D01*
X122673210Y-110711672D01*
X122720592Y-110769408D01*
X122778328Y-110816790D01*
X122844198Y-110851998D01*
X122915671Y-110873679D01*
X122990000Y-110881000D01*
X131852060Y-110881000D01*
X134609000Y-113178450D01*
X134609000Y-118000000D01*
X134616321Y-118074329D01*
X134638002Y-118145802D01*
X134673210Y-118211672D01*
X134720592Y-118269408D01*
X134778328Y-118316790D01*
X134844198Y-118351998D01*
X134915671Y-118373679D01*
X134990000Y-118381000D01*
X141373000Y-118381000D01*
X141373000Y-123578792D01*
X139801302Y-125150491D01*
X139692609Y-125172111D01*
X139551204Y-125230683D01*
X139423943Y-125315716D01*
X139315716Y-125423943D01*
X139230683Y-125551204D01*
X139172111Y-125692609D01*
X139142252Y-125842724D01*
X139142252Y-125995780D01*
X139172111Y-126145895D01*
X139230683Y-126287300D01*
X139315716Y-126414561D01*
X139423943Y-126522788D01*
X139551204Y-126607821D01*
X139692609Y-126666393D01*
X139842724Y-126696252D01*
X139995780Y-126696252D01*
X140145895Y-126666393D01*
X140287300Y-126607821D01*
X140414561Y-126522788D01*
X140522788Y-126414561D01*
X140607821Y-126287300D01*
X140666393Y-126145895D01*
X140688013Y-126037202D01*
X142421579Y-124303637D01*
X142445501Y-124284005D01*
X142523853Y-124188532D01*
X142582075Y-124079607D01*
X142617927Y-123961417D01*
X142627000Y-123869298D01*
X142627000Y-123869297D01*
X142630033Y-123838505D01*
X142627000Y-123807711D01*
X142627000Y-104530794D01*
X142630033Y-104500000D01*
X142617927Y-104377087D01*
X142582075Y-104258896D01*
X142523853Y-104149972D01*
X142501646Y-104122913D01*
X142445501Y-104054499D01*
X142421578Y-104034866D01*
X137127000Y-98740289D01*
X137127000Y-98423472D01*
X140723000Y-98423472D01*
X140723000Y-98576528D01*
X140752859Y-98726643D01*
X140811431Y-98868048D01*
X140896464Y-98995309D01*
X141004691Y-99103536D01*
X141131952Y-99188569D01*
X141273357Y-99247141D01*
X141423472Y-99277000D01*
X141576528Y-99277000D01*
X141726643Y-99247141D01*
X141868048Y-99188569D01*
X141960193Y-99127000D01*
X143039807Y-99127000D01*
X143131952Y-99188569D01*
X143273357Y-99247141D01*
X143423472Y-99277000D01*
X143576528Y-99277000D01*
X143726643Y-99247141D01*
X143868048Y-99188569D01*
X143995309Y-99103536D01*
X144103536Y-98995309D01*
X144188569Y-98868048D01*
X144247141Y-98726643D01*
X144277000Y-98576528D01*
X144277000Y-98423472D01*
X144247141Y-98273357D01*
X144188569Y-98131952D01*
X144103536Y-98004691D01*
X143995309Y-97896464D01*
X143868048Y-97811431D01*
X143726643Y-97752859D01*
X143576528Y-97723000D01*
X143423472Y-97723000D01*
X143273357Y-97752859D01*
X143131952Y-97811431D01*
X143039807Y-97873000D01*
X141960193Y-97873000D01*
X141868048Y-97811431D01*
X141726643Y-97752859D01*
X141576528Y-97723000D01*
X141423472Y-97723000D01*
X141273357Y-97752859D01*
X141131952Y-97811431D01*
X141004691Y-97896464D01*
X140896464Y-98004691D01*
X140811431Y-98131952D01*
X140752859Y-98273357D01*
X140723000Y-98423472D01*
X137127000Y-98423472D01*
X137127000Y-94460193D01*
X137188569Y-94368048D01*
X137247141Y-94226643D01*
X137277000Y-94076528D01*
X137277000Y-93923472D01*
X137247141Y-93773357D01*
X137188569Y-93631952D01*
X137103536Y-93504691D01*
X136995309Y-93396464D01*
X136868048Y-93311431D01*
X136726643Y-93252859D01*
X136576528Y-93223000D01*
X136423472Y-93223000D01*
X136273357Y-93252859D01*
X136131952Y-93311431D01*
X136004691Y-93396464D01*
X135896464Y-93504691D01*
X135811431Y-93631952D01*
X135752859Y-93773357D01*
X135723000Y-93923472D01*
X135723000Y-94076528D01*
X135752859Y-94226643D01*
X135811431Y-94368048D01*
X135873001Y-94460194D01*
X135873000Y-98469640D01*
X134621000Y-97331458D01*
X134621000Y-94000000D01*
X134607575Y-93899752D01*
X134580955Y-93829968D01*
X134541232Y-93766718D01*
X134489933Y-93712433D01*
X134429029Y-93669199D01*
X132871000Y-92778897D01*
X132871000Y-88500000D01*
X132863679Y-88425671D01*
X132841998Y-88354198D01*
X132806790Y-88288328D01*
X132759408Y-88230592D01*
X132701672Y-88183210D01*
X132635802Y-88148002D01*
X132564329Y-88126321D01*
X132490000Y-88119000D01*
X124490000Y-88119000D01*
X124415671Y-88126321D01*
X124344198Y-88148002D01*
X124278328Y-88183210D01*
X124220592Y-88230592D01*
X124173210Y-88288328D01*
X124138002Y-88354198D01*
X124116321Y-88425671D01*
X124109000Y-88500000D01*
X124109000Y-92764529D01*
X122819612Y-93409223D01*
X122778328Y-93433210D01*
X122720592Y-93480592D01*
X122673210Y-93538328D01*
X122638002Y-93604198D01*
X122616321Y-93675671D01*
X122609000Y-93750000D01*
X120402000Y-93750000D01*
X120402000Y-71500000D01*
X122619000Y-71500000D01*
X122619000Y-85500000D01*
X122626321Y-85574329D01*
X122648002Y-85645802D01*
X122683210Y-85711672D01*
X122730592Y-85769408D01*
X122788328Y-85816790D01*
X122854198Y-85851998D01*
X122925671Y-85873679D01*
X123000000Y-85881000D01*
X132363180Y-85881000D01*
X140555178Y-94072999D01*
X140074711Y-94072999D01*
X135326261Y-89324550D01*
X135304641Y-89215857D01*
X135246069Y-89074452D01*
X135161036Y-88947191D01*
X135052809Y-88838964D01*
X134925548Y-88753931D01*
X134784143Y-88695359D01*
X134634028Y-88665500D01*
X134480972Y-88665500D01*
X134330857Y-88695359D01*
X134189452Y-88753931D01*
X134062191Y-88838964D01*
X133953964Y-88947191D01*
X133868931Y-89074452D01*
X133810359Y-89215857D01*
X133780500Y-89365972D01*
X133780500Y-89519028D01*
X133810359Y-89669143D01*
X133868931Y-89810548D01*
X133953964Y-89937809D01*
X134062191Y-90046036D01*
X134189452Y-90131069D01*
X134330857Y-90189641D01*
X134439550Y-90211261D01*
X139349865Y-95121577D01*
X139369498Y-95145500D01*
X139464971Y-95223852D01*
X139573896Y-95282074D01*
X139692086Y-95317926D01*
X139784205Y-95326999D01*
X139784206Y-95326999D01*
X139814998Y-95330032D01*
X139845790Y-95326999D01*
X141242189Y-95326999D01*
X141223000Y-95423472D01*
X141223000Y-95576528D01*
X141252859Y-95726643D01*
X141311431Y-95868048D01*
X141396464Y-95995309D01*
X141504691Y-96103536D01*
X141631952Y-96188569D01*
X141773357Y-96247141D01*
X141923472Y-96277000D01*
X142076528Y-96277000D01*
X142226643Y-96247141D01*
X142368048Y-96188569D01*
X142460193Y-96127000D01*
X144039807Y-96127000D01*
X144131952Y-96188569D01*
X144273357Y-96247141D01*
X144423472Y-96277000D01*
X144576528Y-96277000D01*
X144726643Y-96247141D01*
X144868048Y-96188569D01*
X144873000Y-96185260D01*
X144873001Y-110944636D01*
X144867548Y-111000000D01*
X144889308Y-111220930D01*
X144953750Y-111433370D01*
X145058400Y-111629156D01*
X145163942Y-111757760D01*
X145163946Y-111757764D01*
X145199236Y-111800765D01*
X145242237Y-111836055D01*
X146242240Y-112836058D01*
X146370843Y-112941600D01*
X146566628Y-113046249D01*
X146779069Y-113110692D01*
X146999999Y-113132452D01*
X147220930Y-113110692D01*
X147433370Y-113046249D01*
X147629156Y-112941600D01*
X147800765Y-112800765D01*
X147941600Y-112629156D01*
X148046249Y-112433370D01*
X148110692Y-112220930D01*
X148132452Y-111999999D01*
X148110692Y-111779069D01*
X148046249Y-111566628D01*
X147941600Y-111370843D01*
X147836058Y-111242240D01*
X147127000Y-110533182D01*
X147127000Y-98083472D01*
X148053000Y-98083472D01*
X148053000Y-98236528D01*
X148082859Y-98386643D01*
X148141431Y-98528048D01*
X148226464Y-98655309D01*
X148233001Y-98661846D01*
X148233000Y-104884891D01*
X148229967Y-104915685D01*
X148233000Y-104946478D01*
X148242073Y-105038597D01*
X148277925Y-105156787D01*
X148336147Y-105265712D01*
X148414499Y-105361186D01*
X148438427Y-105380823D01*
X152319181Y-109261578D01*
X152338814Y-109285501D01*
X152434287Y-109363853D01*
X152543212Y-109422075D01*
X152661402Y-109457927D01*
X152753521Y-109467000D01*
X152753522Y-109467000D01*
X152784314Y-109470033D01*
X152815106Y-109467000D01*
X152889807Y-109467000D01*
X152981952Y-109528569D01*
X153123357Y-109587141D01*
X153273472Y-109617000D01*
X153426528Y-109617000D01*
X153576643Y-109587141D01*
X153718048Y-109528569D01*
X153845309Y-109443536D01*
X153953536Y-109335309D01*
X154038569Y-109208048D01*
X154097141Y-109066643D01*
X154127000Y-108916528D01*
X154127000Y-108763472D01*
X154097141Y-108613357D01*
X154038569Y-108471952D01*
X153953536Y-108344691D01*
X153845309Y-108236464D01*
X153718048Y-108151431D01*
X153576643Y-108092859D01*
X153426528Y-108063000D01*
X153273472Y-108063000D01*
X153123357Y-108092859D01*
X152982310Y-108151283D01*
X151358027Y-106527000D01*
X152889807Y-106527000D01*
X152981952Y-106588569D01*
X153123357Y-106647141D01*
X153273472Y-106677000D01*
X153426528Y-106677000D01*
X153576643Y-106647141D01*
X153718048Y-106588569D01*
X153845309Y-106503536D01*
X153953536Y-106395309D01*
X154038569Y-106268048D01*
X154097141Y-106126643D01*
X154127000Y-105976528D01*
X154127000Y-105823472D01*
X154097141Y-105673357D01*
X154038569Y-105531952D01*
X153953536Y-105404691D01*
X153845309Y-105296464D01*
X153718048Y-105211431D01*
X153576643Y-105152859D01*
X153426528Y-105123000D01*
X153273472Y-105123000D01*
X153123357Y-105152859D01*
X152981952Y-105211431D01*
X152889807Y-105273000D01*
X151499710Y-105273000D01*
X150257000Y-104030291D01*
X150257000Y-97920642D01*
X150311431Y-98052050D01*
X150396464Y-98179311D01*
X150504691Y-98287538D01*
X150631952Y-98372571D01*
X150773357Y-98431143D01*
X150882049Y-98452763D01*
X151650865Y-99221579D01*
X151670498Y-99245502D01*
X151765971Y-99323854D01*
X151874896Y-99382076D01*
X151993086Y-99417928D01*
X152115999Y-99430034D01*
X152146793Y-99427001D01*
X154042771Y-99427001D01*
X154002859Y-99523357D01*
X153981239Y-99632049D01*
X153078422Y-100534867D01*
X153054500Y-100554499D01*
X152976148Y-100649972D01*
X152931275Y-100733923D01*
X152917926Y-100758897D01*
X152882073Y-100877088D01*
X152869967Y-101000000D01*
X152873001Y-101030804D01*
X152873000Y-103539807D01*
X152811431Y-103631952D01*
X152752859Y-103773357D01*
X152723000Y-103923472D01*
X152723000Y-104076528D01*
X152752859Y-104226643D01*
X152811431Y-104368048D01*
X152896464Y-104495309D01*
X153004691Y-104603536D01*
X153131952Y-104688569D01*
X153273357Y-104747141D01*
X153423472Y-104777000D01*
X153576528Y-104777000D01*
X153726643Y-104747141D01*
X153868048Y-104688569D01*
X153995309Y-104603536D01*
X154103536Y-104495309D01*
X154188569Y-104368048D01*
X154247141Y-104226643D01*
X154277000Y-104076528D01*
X154277000Y-103923472D01*
X154247141Y-103773357D01*
X154188569Y-103631952D01*
X154127000Y-103539807D01*
X154127000Y-101259711D01*
X154867951Y-100518761D01*
X154976643Y-100497141D01*
X155118048Y-100438569D01*
X155245309Y-100353536D01*
X155353536Y-100245309D01*
X155438569Y-100118048D01*
X155496339Y-99978580D01*
X155548931Y-100105548D01*
X155633964Y-100232809D01*
X155742191Y-100341036D01*
X155869452Y-100426069D01*
X156010857Y-100484641D01*
X156160972Y-100514500D01*
X156314028Y-100514500D01*
X156464143Y-100484641D01*
X156605548Y-100426069D01*
X156697693Y-100364500D01*
X162102529Y-100364500D01*
X162054691Y-100396464D01*
X161946464Y-100504691D01*
X161861431Y-100631952D01*
X161802859Y-100773357D01*
X161801103Y-100782186D01*
X160102050Y-102481239D01*
X159993357Y-102502859D01*
X159851952Y-102561431D01*
X159724691Y-102646464D01*
X159616464Y-102754691D01*
X159531431Y-102881952D01*
X159472859Y-103023357D01*
X159443000Y-103173472D01*
X159443000Y-103326528D01*
X159472859Y-103476643D01*
X159531431Y-103618048D01*
X159616464Y-103745309D01*
X159724691Y-103853536D01*
X159753821Y-103873000D01*
X156500000Y-103873000D01*
X156475224Y-103875440D01*
X156451399Y-103882667D01*
X156429443Y-103894403D01*
X156410197Y-103910197D01*
X156394403Y-103929443D01*
X156382667Y-103951399D01*
X156375440Y-103975224D01*
X156373000Y-104000000D01*
X156373000Y-109500000D01*
X156375440Y-109524776D01*
X156382667Y-109548601D01*
X156394403Y-109570557D01*
X156410197Y-109589803D01*
X156429443Y-109605597D01*
X156451399Y-109617333D01*
X156475224Y-109624560D01*
X156500000Y-109627000D01*
X167423001Y-109627000D01*
X167423001Y-110739806D01*
X167361431Y-110831952D01*
X167302859Y-110973357D01*
X167273000Y-111123472D01*
X167273000Y-111276528D01*
X167302859Y-111426643D01*
X167361431Y-111568048D01*
X167446464Y-111695309D01*
X167554691Y-111803536D01*
X167681952Y-111888569D01*
X167823357Y-111947141D01*
X167973472Y-111977000D01*
X168126528Y-111977000D01*
X168276643Y-111947141D01*
X168418048Y-111888569D01*
X168545309Y-111803536D01*
X168653536Y-111695309D01*
X168738569Y-111568048D01*
X168797141Y-111426643D01*
X168827000Y-111276528D01*
X168827000Y-111123472D01*
X168797141Y-110973357D01*
X168738569Y-110831952D01*
X168677000Y-110739807D01*
X168677000Y-109627000D01*
X169500000Y-109627000D01*
X169524776Y-109624560D01*
X169548601Y-109617333D01*
X169570557Y-109605597D01*
X169589803Y-109589803D01*
X169605597Y-109570557D01*
X169617333Y-109548601D01*
X169624560Y-109524776D01*
X169627000Y-109500000D01*
X169627000Y-104000000D01*
X169624560Y-103975224D01*
X169617333Y-103951399D01*
X169605597Y-103929443D01*
X169589803Y-103910197D01*
X169570557Y-103894403D01*
X169548601Y-103882667D01*
X169524776Y-103875440D01*
X169500000Y-103873000D01*
X168677000Y-103873000D01*
X168677000Y-103326791D01*
X168680033Y-103295997D01*
X168667927Y-103173085D01*
X168660590Y-103148897D01*
X168632075Y-103054895D01*
X168573853Y-102945970D01*
X168495501Y-102850497D01*
X168471579Y-102830865D01*
X161969140Y-96328427D01*
X161949503Y-96304499D01*
X161854030Y-96226147D01*
X161745105Y-96167925D01*
X161626915Y-96132073D01*
X161534796Y-96123000D01*
X161504002Y-96119967D01*
X161473208Y-96123000D01*
X155220193Y-96123000D01*
X155128048Y-96061431D01*
X154986643Y-96002859D01*
X154836528Y-95973000D01*
X154683472Y-95973000D01*
X154627000Y-95984233D01*
X154627000Y-94960193D01*
X154688569Y-94868048D01*
X154747141Y-94726643D01*
X154777000Y-94576528D01*
X154777000Y-94423472D01*
X154747141Y-94273357D01*
X154688569Y-94131952D01*
X154627000Y-94039807D01*
X154627000Y-90575709D01*
X157320736Y-87881974D01*
X157373000Y-87960193D01*
X157373000Y-87969207D01*
X157373001Y-93469196D01*
X157369967Y-93500000D01*
X157382073Y-93622912D01*
X157413625Y-93726925D01*
X157417926Y-93741103D01*
X157476148Y-93850028D01*
X157554500Y-93945501D01*
X157578422Y-93965133D01*
X158731239Y-95117951D01*
X158752859Y-95226643D01*
X158811431Y-95368048D01*
X158896464Y-95495309D01*
X159004691Y-95603536D01*
X159131952Y-95688569D01*
X159273357Y-95747141D01*
X159423472Y-95777000D01*
X159576528Y-95777000D01*
X159726643Y-95747141D01*
X159868048Y-95688569D01*
X159995309Y-95603536D01*
X160103536Y-95495309D01*
X160188569Y-95368048D01*
X160247141Y-95226643D01*
X160277000Y-95076528D01*
X160277000Y-94923472D01*
X160247141Y-94773357D01*
X160188569Y-94631952D01*
X160103536Y-94504691D01*
X159995309Y-94396464D01*
X159868048Y-94311431D01*
X159726643Y-94252859D01*
X159617951Y-94231239D01*
X158627000Y-93240289D01*
X158627000Y-92296315D01*
X158686464Y-92385309D01*
X158794691Y-92493536D01*
X158921952Y-92578569D01*
X159063357Y-92637141D01*
X159172050Y-92658761D01*
X161090622Y-94577334D01*
X161091073Y-94581913D01*
X161126925Y-94700103D01*
X161185147Y-94809028D01*
X161242530Y-94878950D01*
X161263499Y-94904501D01*
X161358972Y-94982853D01*
X161467897Y-95041075D01*
X161586087Y-95076927D01*
X161709000Y-95089033D01*
X161739794Y-95086000D01*
X168830807Y-95086000D01*
X168922952Y-95147569D01*
X169064357Y-95206141D01*
X169214472Y-95236000D01*
X169367528Y-95236000D01*
X169517643Y-95206141D01*
X169659048Y-95147569D01*
X169786309Y-95062536D01*
X169894536Y-94954309D01*
X169979569Y-94827048D01*
X170038141Y-94685643D01*
X170068000Y-94535528D01*
X170068000Y-94382472D01*
X170038141Y-94232357D01*
X169979569Y-94090952D01*
X169894536Y-93963691D01*
X169786309Y-93855464D01*
X169659048Y-93770431D01*
X169517643Y-93711859D01*
X169367528Y-93682000D01*
X169214472Y-93682000D01*
X169064357Y-93711859D01*
X168922952Y-93770431D01*
X168830807Y-93832000D01*
X162118712Y-93832000D01*
X160058761Y-91772050D01*
X160047811Y-91716999D01*
X161108799Y-91716999D01*
X161723378Y-92331579D01*
X161743011Y-92355502D01*
X161838484Y-92433854D01*
X161947409Y-92492076D01*
X162065599Y-92527928D01*
X162188512Y-92540034D01*
X162219306Y-92537001D01*
X170379205Y-92537001D01*
X170409999Y-92540034D01*
X170440793Y-92537001D01*
X170532912Y-92527928D01*
X170651102Y-92492076D01*
X170760027Y-92433854D01*
X170855500Y-92355502D01*
X170875137Y-92331574D01*
X171657951Y-91548761D01*
X171766643Y-91527141D01*
X171908048Y-91468569D01*
X172035309Y-91383536D01*
X172143536Y-91275309D01*
X172228569Y-91148048D01*
X172287141Y-91006643D01*
X172317000Y-90856528D01*
X172317000Y-90703472D01*
X172287141Y-90553357D01*
X172228569Y-90411952D01*
X172143536Y-90284691D01*
X172035309Y-90176464D01*
X171908048Y-90091431D01*
X171766643Y-90032859D01*
X171616528Y-90003000D01*
X171463472Y-90003000D01*
X171313357Y-90032859D01*
X171171952Y-90091431D01*
X171044691Y-90176464D01*
X170936464Y-90284691D01*
X170851431Y-90411952D01*
X170792859Y-90553357D01*
X170771239Y-90662049D01*
X170150288Y-91283001D01*
X167836907Y-91283001D01*
X167916643Y-91267141D01*
X168058048Y-91208569D01*
X168185309Y-91123536D01*
X168293536Y-91015309D01*
X168378569Y-90888048D01*
X168437141Y-90746643D01*
X168467000Y-90596528D01*
X168467000Y-90443472D01*
X168437141Y-90293357D01*
X168378569Y-90151952D01*
X168317000Y-90059807D01*
X168317000Y-86207084D01*
X168583109Y-86301481D01*
X168813000Y-86180814D01*
X168813000Y-84987000D01*
X169067000Y-84987000D01*
X169067000Y-86180814D01*
X169296891Y-86301481D01*
X169571252Y-86204157D01*
X169821355Y-86055178D01*
X170037588Y-85860269D01*
X170211641Y-85626920D01*
X170336825Y-85364099D01*
X170381476Y-85216890D01*
X170260155Y-84987000D01*
X169067000Y-84987000D01*
X168813000Y-84987000D01*
X168793000Y-84987000D01*
X168793000Y-84733000D01*
X168813000Y-84733000D01*
X168813000Y-84713000D01*
X169067000Y-84713000D01*
X169067000Y-84733000D01*
X170260155Y-84733000D01*
X170381476Y-84503110D01*
X170336825Y-84355901D01*
X170211641Y-84093080D01*
X170037588Y-83859731D01*
X169821355Y-83664822D01*
X169571252Y-83515843D01*
X169403202Y-83456231D01*
X169521202Y-83407353D01*
X169722167Y-83273073D01*
X169893073Y-83102167D01*
X170027353Y-82901202D01*
X170119847Y-82677903D01*
X170167000Y-82440849D01*
X170167000Y-82199151D01*
X170119847Y-81962097D01*
X170027353Y-81738798D01*
X169893073Y-81537833D01*
X169722167Y-81366927D01*
X169521202Y-81232647D01*
X169297903Y-81140153D01*
X169060849Y-81093000D01*
X168819151Y-81093000D01*
X168636119Y-81129407D01*
X168384859Y-80878148D01*
X168582097Y-80959847D01*
X168819151Y-81007000D01*
X169060849Y-81007000D01*
X169297903Y-80959847D01*
X169521202Y-80867353D01*
X169722167Y-80733073D01*
X169893073Y-80562167D01*
X170027353Y-80361202D01*
X170119847Y-80137903D01*
X170167000Y-79900849D01*
X170167000Y-79659151D01*
X170119847Y-79422097D01*
X170027353Y-79198798D01*
X169893073Y-78997833D01*
X169722167Y-78826927D01*
X169521202Y-78692647D01*
X169297903Y-78600153D01*
X169060849Y-78553000D01*
X168819151Y-78553000D01*
X168582097Y-78600153D01*
X168358798Y-78692647D01*
X168157833Y-78826927D01*
X167986927Y-78997833D01*
X167852647Y-79198798D01*
X167760153Y-79422097D01*
X167713000Y-79659151D01*
X167713000Y-79900849D01*
X167760153Y-80137903D01*
X167852647Y-80361202D01*
X167940774Y-80493094D01*
X167931102Y-80487924D01*
X167812912Y-80452072D01*
X167720793Y-80442999D01*
X167689999Y-80439966D01*
X167659205Y-80442999D01*
X167628824Y-80442999D01*
X167628824Y-78930000D01*
X167621545Y-78856095D01*
X167599988Y-78785030D01*
X167564981Y-78719537D01*
X167517869Y-78662131D01*
X167460463Y-78615019D01*
X167394970Y-78580012D01*
X167323905Y-78558455D01*
X167250000Y-78551176D01*
X165550000Y-78551176D01*
X165476095Y-78558455D01*
X165405030Y-78580012D01*
X165339537Y-78615019D01*
X165282131Y-78662131D01*
X165235019Y-78719537D01*
X165200012Y-78785030D01*
X165178455Y-78856095D01*
X165171176Y-78930000D01*
X165171176Y-80473375D01*
X165123213Y-80487924D01*
X165014288Y-80546146D01*
X164918815Y-80624498D01*
X164899182Y-80648421D01*
X160578274Y-84969329D01*
X160567141Y-84913357D01*
X160508569Y-84771952D01*
X160423536Y-84644691D01*
X160315309Y-84536464D01*
X160188048Y-84451431D01*
X160046643Y-84392859D01*
X159896528Y-84363000D01*
X159743472Y-84363000D01*
X159593357Y-84392859D01*
X159451952Y-84451431D01*
X159359807Y-84513000D01*
X159206792Y-84513000D01*
X159175998Y-84509967D01*
X159053085Y-84522073D01*
X158934894Y-84557925D01*
X158830711Y-84613613D01*
X158825970Y-84616147D01*
X158730497Y-84694499D01*
X158710867Y-84718419D01*
X153578427Y-89850860D01*
X153554499Y-89870497D01*
X153476147Y-89965971D01*
X153417925Y-90074896D01*
X153395153Y-90149967D01*
X153382073Y-90193086D01*
X153369967Y-90315998D01*
X153373000Y-90346792D01*
X153373001Y-94039806D01*
X153311431Y-94131952D01*
X153252859Y-94273357D01*
X153223000Y-94423472D01*
X153223000Y-94576528D01*
X153252859Y-94726643D01*
X153311431Y-94868048D01*
X153373001Y-94960194D01*
X153373000Y-96240288D01*
X152382050Y-97231239D01*
X152273357Y-97252859D01*
X152131952Y-97311431D01*
X152004691Y-97396464D01*
X151896464Y-97504691D01*
X151820736Y-97618026D01*
X151768761Y-97566051D01*
X151747141Y-97457359D01*
X151688569Y-97315954D01*
X151603536Y-97188693D01*
X151495309Y-97080466D01*
X151368048Y-96995433D01*
X151226643Y-96936861D01*
X151076528Y-96907002D01*
X150923472Y-96907002D01*
X150773357Y-96936861D01*
X150631952Y-96995433D01*
X150504691Y-97080466D01*
X150396464Y-97188693D01*
X150311431Y-97315954D01*
X150257000Y-97447362D01*
X150257000Y-95550193D01*
X150318569Y-95458048D01*
X150377141Y-95316643D01*
X150407000Y-95166528D01*
X150407000Y-95013472D01*
X150377141Y-94863357D01*
X150318569Y-94721952D01*
X150233536Y-94594691D01*
X150125309Y-94486464D01*
X149998048Y-94401431D01*
X149856643Y-94342859D01*
X149706528Y-94313000D01*
X149553472Y-94313000D01*
X149403357Y-94342859D01*
X149261952Y-94401431D01*
X149134691Y-94486464D01*
X149026464Y-94594691D01*
X148941431Y-94721952D01*
X148882859Y-94863357D01*
X148853000Y-95013472D01*
X148853000Y-95166528D01*
X148882859Y-95316643D01*
X148941431Y-95458048D01*
X149003001Y-95550194D01*
X149003001Y-97402189D01*
X148906528Y-97383000D01*
X148753472Y-97383000D01*
X148603357Y-97412859D01*
X148461952Y-97471431D01*
X148334691Y-97556464D01*
X148226464Y-97664691D01*
X148141431Y-97791952D01*
X148082859Y-97933357D01*
X148053000Y-98083472D01*
X147127000Y-98083472D01*
X147127000Y-94989672D01*
X147132452Y-94934315D01*
X147127000Y-94878958D01*
X147127000Y-94878950D01*
X147110693Y-94713384D01*
X147046250Y-94500944D01*
X146941600Y-94305158D01*
X146800765Y-94133550D01*
X146757758Y-94098255D01*
X146627000Y-93967497D01*
X146627000Y-86960193D01*
X146688569Y-86868048D01*
X146747141Y-86726643D01*
X146777000Y-86576528D01*
X146777000Y-86423472D01*
X146747141Y-86273357D01*
X146688569Y-86131952D01*
X146603536Y-86004691D01*
X146495309Y-85896464D01*
X146368048Y-85811431D01*
X146226643Y-85752859D01*
X146076528Y-85723000D01*
X145923472Y-85723000D01*
X145773357Y-85752859D01*
X145631952Y-85811431D01*
X145504691Y-85896464D01*
X145396464Y-86004691D01*
X145311431Y-86131952D01*
X145252859Y-86273357D01*
X145223000Y-86423472D01*
X145223000Y-86576528D01*
X145252859Y-86726643D01*
X145311431Y-86868048D01*
X145373001Y-86960194D01*
X145373000Y-88030793D01*
X145373001Y-88030803D01*
X145373000Y-93078116D01*
X145321049Y-93072999D01*
X145321038Y-93072999D01*
X145265684Y-93067547D01*
X145210330Y-93072999D01*
X145132218Y-93072999D01*
X145156722Y-93048495D01*
X145241755Y-92921234D01*
X145300327Y-92779829D01*
X145330186Y-92629714D01*
X145330186Y-92476658D01*
X145300327Y-92326543D01*
X145241755Y-92185138D01*
X145156722Y-92057877D01*
X145048495Y-91949650D01*
X144921234Y-91864617D01*
X144779829Y-91806045D01*
X144629714Y-91776186D01*
X144476658Y-91776186D01*
X144326543Y-91806045D01*
X144185138Y-91864617D01*
X144172592Y-91873000D01*
X142960193Y-91873000D01*
X142868048Y-91811431D01*
X142726643Y-91752859D01*
X142576528Y-91723000D01*
X142423472Y-91723000D01*
X142273357Y-91752859D01*
X142131952Y-91811431D01*
X142004691Y-91896464D01*
X141896464Y-92004691D01*
X141811431Y-92131952D01*
X141808601Y-92138784D01*
X134381000Y-84711184D01*
X134381000Y-77140942D01*
X137175236Y-73881000D01*
X143500000Y-73881000D01*
X143574329Y-73873679D01*
X143645802Y-73851998D01*
X143711672Y-73816790D01*
X143769408Y-73769408D01*
X143816790Y-73711672D01*
X143851998Y-73645802D01*
X143873679Y-73574329D01*
X143881000Y-73500000D01*
X143881000Y-69315132D01*
X144623000Y-69315132D01*
X144623000Y-69684868D01*
X144695132Y-70047501D01*
X144836624Y-70389093D01*
X145042039Y-70696518D01*
X145303482Y-70957961D01*
X145610907Y-71163376D01*
X145952499Y-71304868D01*
X146315132Y-71377000D01*
X146684868Y-71377000D01*
X147047501Y-71304868D01*
X147389093Y-71163376D01*
X147646094Y-70991653D01*
X150267952Y-70991653D01*
X150423962Y-71307214D01*
X150798745Y-71498020D01*
X151203551Y-71612044D01*
X151622824Y-71644902D01*
X152040451Y-71595334D01*
X152440383Y-71465243D01*
X152736038Y-71307214D01*
X152892048Y-70991653D01*
X151580000Y-69679605D01*
X150267952Y-70991653D01*
X147646094Y-70991653D01*
X147696518Y-70957961D01*
X147957961Y-70696518D01*
X148163376Y-70389093D01*
X148304868Y-70047501D01*
X148377000Y-69684868D01*
X148377000Y-69542824D01*
X149435098Y-69542824D01*
X149484666Y-69960451D01*
X149614757Y-70360383D01*
X149772786Y-70656038D01*
X150088347Y-70812048D01*
X151400395Y-69500000D01*
X151759605Y-69500000D01*
X153071653Y-70812048D01*
X153387214Y-70656038D01*
X153578020Y-70281255D01*
X153692044Y-69876449D01*
X153724902Y-69457176D01*
X153675334Y-69039549D01*
X153545243Y-68639617D01*
X153387214Y-68343962D01*
X153071653Y-68187952D01*
X151759605Y-69500000D01*
X151400395Y-69500000D01*
X150088347Y-68187952D01*
X149772786Y-68343962D01*
X149581980Y-68718745D01*
X149467956Y-69123551D01*
X149435098Y-69542824D01*
X148377000Y-69542824D01*
X148377000Y-69315132D01*
X148304868Y-68952499D01*
X148163376Y-68610907D01*
X147957961Y-68303482D01*
X147696518Y-68042039D01*
X147646095Y-68008347D01*
X150267952Y-68008347D01*
X151580000Y-69320395D01*
X152837550Y-68062845D01*
X169116761Y-68062845D01*
X169284802Y-68388643D01*
X169676607Y-68589426D01*
X170100055Y-68709914D01*
X170538873Y-68745476D01*
X170976197Y-68694746D01*
X171395221Y-68559674D01*
X171715198Y-68388643D01*
X171883239Y-68062845D01*
X170500000Y-66679605D01*
X169116761Y-68062845D01*
X152837550Y-68062845D01*
X152892048Y-68008347D01*
X152736038Y-67692786D01*
X152361255Y-67501980D01*
X151956449Y-67387956D01*
X151537176Y-67355098D01*
X151119549Y-67404666D01*
X150719617Y-67534757D01*
X150423962Y-67692786D01*
X150267952Y-68008347D01*
X147646095Y-68008347D01*
X147389093Y-67836624D01*
X147047501Y-67695132D01*
X146684868Y-67623000D01*
X146315132Y-67623000D01*
X145952499Y-67695132D01*
X145610907Y-67836624D01*
X145303482Y-68042039D01*
X145042039Y-68303482D01*
X144836624Y-68610907D01*
X144695132Y-68952499D01*
X144623000Y-69315132D01*
X143881000Y-69315132D01*
X143881000Y-66538873D01*
X168254524Y-66538873D01*
X168305254Y-66976197D01*
X168440326Y-67395221D01*
X168611357Y-67715198D01*
X168937155Y-67883239D01*
X170320395Y-66500000D01*
X170679605Y-66500000D01*
X172062845Y-67883239D01*
X172388643Y-67715198D01*
X172589426Y-67323393D01*
X172709914Y-66899945D01*
X172745476Y-66461127D01*
X172694746Y-66023803D01*
X172559674Y-65604779D01*
X172388643Y-65284802D01*
X172062845Y-65116761D01*
X170679605Y-66500000D01*
X170320395Y-66500000D01*
X168937155Y-65116761D01*
X168611357Y-65284802D01*
X168410574Y-65676607D01*
X168290086Y-66100055D01*
X168254524Y-66538873D01*
X143881000Y-66538873D01*
X143881000Y-65500000D01*
X143873679Y-65425671D01*
X143851998Y-65354198D01*
X143816790Y-65288328D01*
X143769408Y-65230592D01*
X143711672Y-65183210D01*
X143645802Y-65148002D01*
X143574329Y-65126321D01*
X143500000Y-65119000D01*
X129000000Y-65119000D01*
X128925671Y-65126321D01*
X128854198Y-65148002D01*
X128788328Y-65183210D01*
X128730592Y-65230592D01*
X122730592Y-71230592D01*
X122683210Y-71288328D01*
X122648002Y-71354198D01*
X122626321Y-71425671D01*
X122619000Y-71500000D01*
X120402000Y-71500000D01*
X120402000Y-68062845D01*
X122116761Y-68062845D01*
X122284802Y-68388643D01*
X122676607Y-68589426D01*
X123100055Y-68709914D01*
X123538873Y-68745476D01*
X123976197Y-68694746D01*
X124395221Y-68559674D01*
X124715198Y-68388643D01*
X124883239Y-68062845D01*
X123500000Y-66679605D01*
X122116761Y-68062845D01*
X120402000Y-68062845D01*
X120402000Y-66538873D01*
X121254524Y-66538873D01*
X121305254Y-66976197D01*
X121440326Y-67395221D01*
X121611357Y-67715198D01*
X121937155Y-67883239D01*
X123320395Y-66500000D01*
X123679605Y-66500000D01*
X125062845Y-67883239D01*
X125388643Y-67715198D01*
X125589426Y-67323393D01*
X125709914Y-66899945D01*
X125745476Y-66461127D01*
X125694746Y-66023803D01*
X125559674Y-65604779D01*
X125388643Y-65284802D01*
X125062845Y-65116761D01*
X123679605Y-66500000D01*
X123320395Y-66500000D01*
X121937155Y-65116761D01*
X121611357Y-65284802D01*
X121410574Y-65676607D01*
X121290086Y-66100055D01*
X121254524Y-66538873D01*
X120402000Y-66538873D01*
X120402000Y-66019658D01*
X120453369Y-65495758D01*
X120599812Y-65010714D01*
X120638923Y-64937155D01*
X122116761Y-64937155D01*
X123500000Y-66320395D01*
X124883239Y-64937155D01*
X169116761Y-64937155D01*
X170500000Y-66320395D01*
X171883239Y-64937155D01*
X171715198Y-64611357D01*
X171323393Y-64410574D01*
X170899945Y-64290086D01*
X170461127Y-64254524D01*
X170023803Y-64305254D01*
X169604779Y-64440326D01*
X169284802Y-64611357D01*
X169116761Y-64937155D01*
X124883239Y-64937155D01*
X124715198Y-64611357D01*
X124323393Y-64410574D01*
X123899945Y-64290086D01*
X123461127Y-64254524D01*
X123023803Y-64305254D01*
X122604779Y-64440326D01*
X122284802Y-64611357D01*
X122116761Y-64937155D01*
X120638923Y-64937155D01*
X120837674Y-64563358D01*
X121157904Y-64170718D01*
X121548294Y-63847759D01*
X121993980Y-63606778D01*
X122477987Y-63456952D01*
X123000820Y-63402000D01*
X170980342Y-63402000D01*
X171504242Y-63453369D01*
G37*
G04 #@! TD.AperFunction*
D22*
X167423000Y-103555710D02*
X167423000Y-103873000D01*
X160686179Y-103873000D01*
X160715309Y-103853536D01*
X160823536Y-103745309D01*
X160908569Y-103618048D01*
X160967141Y-103476643D01*
X160988761Y-103367950D01*
X162579711Y-101777000D01*
X162626528Y-101777000D01*
X162776643Y-101747141D01*
X162918048Y-101688569D01*
X163045309Y-101603536D01*
X163153536Y-101495309D01*
X163229264Y-101381974D01*
X163423000Y-101575710D01*
X163423001Y-102079806D01*
X163361431Y-102171952D01*
X163302859Y-102313357D01*
X163273000Y-102463472D01*
X163273000Y-102616528D01*
X163302859Y-102766643D01*
X163361431Y-102908048D01*
X163446464Y-103035309D01*
X163554691Y-103143536D01*
X163681952Y-103228569D01*
X163823357Y-103287141D01*
X163973472Y-103317000D01*
X164126528Y-103317000D01*
X164276643Y-103287141D01*
X164418048Y-103228569D01*
X164545309Y-103143536D01*
X164653536Y-103035309D01*
X164738569Y-102908048D01*
X164797141Y-102766643D01*
X164827000Y-102616528D01*
X164827000Y-102463472D01*
X164797141Y-102313357D01*
X164738569Y-102171952D01*
X164677000Y-102079807D01*
X164677000Y-101346789D01*
X164680033Y-101315997D01*
X164671232Y-101226643D01*
X164667927Y-101193085D01*
X164632075Y-101074895D01*
X164573853Y-100965970D01*
X164495501Y-100870497D01*
X164471579Y-100850865D01*
X162936640Y-99315927D01*
X162917003Y-99291999D01*
X162821530Y-99213647D01*
X162712605Y-99155425D01*
X162594415Y-99119573D01*
X162502296Y-99110500D01*
X162471502Y-99107467D01*
X162440708Y-99110500D01*
X161846211Y-99110500D01*
X161937951Y-99018761D01*
X162046643Y-98997141D01*
X162188048Y-98938569D01*
X162315309Y-98853536D01*
X162423536Y-98745309D01*
X162499264Y-98631974D01*
X167423000Y-103555710D01*
G04 #@! TA.AperFunction,Conductor*
D23*
G36*
X167423000Y-103555710D02*
G01*
X167423000Y-103873000D01*
X160686179Y-103873000D01*
X160715309Y-103853536D01*
X160823536Y-103745309D01*
X160908569Y-103618048D01*
X160967141Y-103476643D01*
X160988761Y-103367950D01*
X162579711Y-101777000D01*
X162626528Y-101777000D01*
X162776643Y-101747141D01*
X162918048Y-101688569D01*
X163045309Y-101603536D01*
X163153536Y-101495309D01*
X163229264Y-101381974D01*
X163423000Y-101575710D01*
X163423001Y-102079806D01*
X163361431Y-102171952D01*
X163302859Y-102313357D01*
X163273000Y-102463472D01*
X163273000Y-102616528D01*
X163302859Y-102766643D01*
X163361431Y-102908048D01*
X163446464Y-103035309D01*
X163554691Y-103143536D01*
X163681952Y-103228569D01*
X163823357Y-103287141D01*
X163973472Y-103317000D01*
X164126528Y-103317000D01*
X164276643Y-103287141D01*
X164418048Y-103228569D01*
X164545309Y-103143536D01*
X164653536Y-103035309D01*
X164738569Y-102908048D01*
X164797141Y-102766643D01*
X164827000Y-102616528D01*
X164827000Y-102463472D01*
X164797141Y-102313357D01*
X164738569Y-102171952D01*
X164677000Y-102079807D01*
X164677000Y-101346789D01*
X164680033Y-101315997D01*
X164671232Y-101226643D01*
X164667927Y-101193085D01*
X164632075Y-101074895D01*
X164573853Y-100965970D01*
X164495501Y-100870497D01*
X164471579Y-100850865D01*
X162936640Y-99315927D01*
X162917003Y-99291999D01*
X162821530Y-99213647D01*
X162712605Y-99155425D01*
X162594415Y-99119573D01*
X162502296Y-99110500D01*
X162471502Y-99107467D01*
X162440708Y-99110500D01*
X161846211Y-99110500D01*
X161937951Y-99018761D01*
X162046643Y-98997141D01*
X162188048Y-98938569D01*
X162315309Y-98853536D01*
X162423536Y-98745309D01*
X162499264Y-98631974D01*
X167423000Y-103555710D01*
G37*
G04 #@! TD.AperFunction*
D22*
X165220153Y-84502097D02*
X165173000Y-84739151D01*
X165173000Y-84980849D01*
X165220153Y-85217903D01*
X165312647Y-85441202D01*
X165446927Y-85642167D01*
X165617833Y-85813073D01*
X165818798Y-85947353D01*
X166042097Y-86039847D01*
X166279151Y-86087000D01*
X166520849Y-86087000D01*
X166757903Y-86039847D01*
X166981202Y-85947353D01*
X167063000Y-85892697D01*
X167063001Y-90059806D01*
X167001431Y-90151952D01*
X166942859Y-90293357D01*
X166913000Y-90443472D01*
X166913000Y-90596528D01*
X166942859Y-90746643D01*
X167001431Y-90888048D01*
X167086464Y-91015309D01*
X167194691Y-91123536D01*
X167321952Y-91208569D01*
X167463357Y-91267141D01*
X167543093Y-91283001D01*
X166257811Y-91283001D01*
X166277000Y-91186528D01*
X166277000Y-91033472D01*
X166247141Y-90883357D01*
X166188569Y-90741952D01*
X166103536Y-90614691D01*
X165995309Y-90506464D01*
X165868048Y-90421431D01*
X165726643Y-90362859D01*
X165576528Y-90333000D01*
X165423472Y-90333000D01*
X165273357Y-90362859D01*
X165131952Y-90421431D01*
X165039807Y-90483000D01*
X164565170Y-90483000D01*
X164608569Y-90418048D01*
X164667141Y-90276643D01*
X164697000Y-90126528D01*
X164697000Y-89973472D01*
X164667141Y-89823357D01*
X164608569Y-89681952D01*
X164547000Y-89589807D01*
X164547000Y-88360193D01*
X164608569Y-88268048D01*
X164667141Y-88126643D01*
X164697000Y-87976528D01*
X164697000Y-87823472D01*
X164667141Y-87673357D01*
X164608569Y-87531952D01*
X164523536Y-87404691D01*
X164415309Y-87296464D01*
X164288048Y-87211431D01*
X164146643Y-87152859D01*
X163996528Y-87123000D01*
X163843472Y-87123000D01*
X163693357Y-87152859D01*
X163551952Y-87211431D01*
X163424691Y-87296464D01*
X163316464Y-87404691D01*
X163231431Y-87531952D01*
X163172859Y-87673357D01*
X163143000Y-87823472D01*
X163143000Y-87976528D01*
X163172859Y-88126643D01*
X163231431Y-88268048D01*
X163293000Y-88360193D01*
X163293001Y-89589806D01*
X163231431Y-89681952D01*
X163172859Y-89823357D01*
X163143000Y-89973472D01*
X163143000Y-90126528D01*
X163172859Y-90276643D01*
X163231431Y-90418048D01*
X163274830Y-90483000D01*
X162653404Y-90483000D01*
X159552285Y-87999211D01*
X159547142Y-87973356D01*
X159488718Y-87832308D01*
X162069885Y-85251142D01*
X162092859Y-85366643D01*
X162151431Y-85508048D01*
X162236464Y-85635309D01*
X162344691Y-85743536D01*
X162471952Y-85828569D01*
X162613357Y-85887141D01*
X162763472Y-85917000D01*
X162916528Y-85917000D01*
X163066643Y-85887141D01*
X163208048Y-85828569D01*
X163300193Y-85767000D01*
X163549206Y-85767000D01*
X163580000Y-85770033D01*
X163610794Y-85767000D01*
X163702913Y-85757927D01*
X163821103Y-85722075D01*
X163930028Y-85663853D01*
X164025501Y-85585501D01*
X164045138Y-85561573D01*
X165301852Y-84304860D01*
X165220153Y-84502097D01*
G04 #@! TA.AperFunction,Conductor*
D23*
G36*
X165220153Y-84502097D02*
G01*
X165173000Y-84739151D01*
X165173000Y-84980849D01*
X165220153Y-85217903D01*
X165312647Y-85441202D01*
X165446927Y-85642167D01*
X165617833Y-85813073D01*
X165818798Y-85947353D01*
X166042097Y-86039847D01*
X166279151Y-86087000D01*
X166520849Y-86087000D01*
X166757903Y-86039847D01*
X166981202Y-85947353D01*
X167063000Y-85892697D01*
X167063001Y-90059806D01*
X167001431Y-90151952D01*
X166942859Y-90293357D01*
X166913000Y-90443472D01*
X166913000Y-90596528D01*
X166942859Y-90746643D01*
X167001431Y-90888048D01*
X167086464Y-91015309D01*
X167194691Y-91123536D01*
X167321952Y-91208569D01*
X167463357Y-91267141D01*
X167543093Y-91283001D01*
X166257811Y-91283001D01*
X166277000Y-91186528D01*
X166277000Y-91033472D01*
X166247141Y-90883357D01*
X166188569Y-90741952D01*
X166103536Y-90614691D01*
X165995309Y-90506464D01*
X165868048Y-90421431D01*
X165726643Y-90362859D01*
X165576528Y-90333000D01*
X165423472Y-90333000D01*
X165273357Y-90362859D01*
X165131952Y-90421431D01*
X165039807Y-90483000D01*
X164565170Y-90483000D01*
X164608569Y-90418048D01*
X164667141Y-90276643D01*
X164697000Y-90126528D01*
X164697000Y-89973472D01*
X164667141Y-89823357D01*
X164608569Y-89681952D01*
X164547000Y-89589807D01*
X164547000Y-88360193D01*
X164608569Y-88268048D01*
X164667141Y-88126643D01*
X164697000Y-87976528D01*
X164697000Y-87823472D01*
X164667141Y-87673357D01*
X164608569Y-87531952D01*
X164523536Y-87404691D01*
X164415309Y-87296464D01*
X164288048Y-87211431D01*
X164146643Y-87152859D01*
X163996528Y-87123000D01*
X163843472Y-87123000D01*
X163693357Y-87152859D01*
X163551952Y-87211431D01*
X163424691Y-87296464D01*
X163316464Y-87404691D01*
X163231431Y-87531952D01*
X163172859Y-87673357D01*
X163143000Y-87823472D01*
X163143000Y-87976528D01*
X163172859Y-88126643D01*
X163231431Y-88268048D01*
X163293000Y-88360193D01*
X163293001Y-89589806D01*
X163231431Y-89681952D01*
X163172859Y-89823357D01*
X163143000Y-89973472D01*
X163143000Y-90126528D01*
X163172859Y-90276643D01*
X163231431Y-90418048D01*
X163274830Y-90483000D01*
X162653404Y-90483000D01*
X159552285Y-87999211D01*
X159547142Y-87973356D01*
X159488718Y-87832308D01*
X162069885Y-85251142D01*
X162092859Y-85366643D01*
X162151431Y-85508048D01*
X162236464Y-85635309D01*
X162344691Y-85743536D01*
X162471952Y-85828569D01*
X162613357Y-85887141D01*
X162763472Y-85917000D01*
X162916528Y-85917000D01*
X163066643Y-85887141D01*
X163208048Y-85828569D01*
X163300193Y-85767000D01*
X163549206Y-85767000D01*
X163580000Y-85770033D01*
X163610794Y-85767000D01*
X163702913Y-85757927D01*
X163821103Y-85722075D01*
X163930028Y-85663853D01*
X164025501Y-85585501D01*
X164045138Y-85561573D01*
X165301852Y-84304860D01*
X165220153Y-84502097D01*
G37*
G04 #@! TD.AperFunction*
D22*
X143373000Y-73373000D02*
X137000000Y-73373000D01*
X136975224Y-73375440D01*
X136951399Y-73382667D01*
X136929443Y-73394403D01*
X136903574Y-73417349D01*
X133903574Y-76917349D01*
X133889303Y-76937749D01*
X133879285Y-76960541D01*
X133873907Y-76984850D01*
X133873000Y-77000000D01*
X133873000Y-85373000D01*
X123127000Y-85373000D01*
X123127000Y-71552606D01*
X129052606Y-65627000D01*
X143373000Y-65627000D01*
X143373000Y-73373000D01*
G04 #@! TA.AperFunction,Conductor*
D23*
G36*
X143373000Y-73373000D02*
G01*
X137000000Y-73373000D01*
X136975224Y-73375440D01*
X136951399Y-73382667D01*
X136929443Y-73394403D01*
X136903574Y-73417349D01*
X133903574Y-76917349D01*
X133889303Y-76937749D01*
X133879285Y-76960541D01*
X133873907Y-76984850D01*
X133873000Y-77000000D01*
X133873000Y-85373000D01*
X123127000Y-85373000D01*
X123127000Y-71552606D01*
X129052606Y-65627000D01*
X143373000Y-65627000D01*
X143373000Y-73373000D01*
G37*
G04 #@! TD.AperFunction*
D22*
X132363000Y-93000000D02*
X132365440Y-93024776D01*
X132372667Y-93048601D01*
X132384403Y-93070557D01*
X132400197Y-93089803D01*
X132426990Y-93110267D01*
X134113000Y-94073701D01*
X134113000Y-97500000D01*
X134115440Y-97524776D01*
X134122667Y-97548601D01*
X134134403Y-97570557D01*
X134154571Y-97593972D01*
X135893689Y-99174988D01*
X135914211Y-99242641D01*
X135972804Y-99352260D01*
X136051657Y-99448343D01*
X136075737Y-99468105D01*
X141363000Y-104755369D01*
X141363000Y-117873000D01*
X135117000Y-117873000D01*
X135117000Y-113000000D01*
X135114560Y-112975224D01*
X135107333Y-112951399D01*
X135095597Y-112929443D01*
X135071303Y-112902436D01*
X132071303Y-110402436D01*
X132050707Y-110388449D01*
X132027778Y-110378749D01*
X132003398Y-110373709D01*
X131990000Y-110373000D01*
X123117000Y-110373000D01*
X123117000Y-93828490D01*
X124546796Y-93113592D01*
X124567866Y-93100329D01*
X124585943Y-93083211D01*
X124600333Y-93062894D01*
X124610483Y-93040161D01*
X124616003Y-93015884D01*
X124617000Y-93000000D01*
X124617000Y-88627000D01*
X132363000Y-88627000D01*
X132363000Y-93000000D01*
G04 #@! TA.AperFunction,Conductor*
D23*
G36*
X132363000Y-93000000D02*
G01*
X132365440Y-93024776D01*
X132372667Y-93048601D01*
X132384403Y-93070557D01*
X132400197Y-93089803D01*
X132426990Y-93110267D01*
X134113000Y-94073701D01*
X134113000Y-97500000D01*
X134115440Y-97524776D01*
X134122667Y-97548601D01*
X134134403Y-97570557D01*
X134154571Y-97593972D01*
X135893689Y-99174988D01*
X135914211Y-99242641D01*
X135972804Y-99352260D01*
X136051657Y-99448343D01*
X136075737Y-99468105D01*
X141363000Y-104755369D01*
X141363000Y-117873000D01*
X135117000Y-117873000D01*
X135117000Y-113000000D01*
X135114560Y-112975224D01*
X135107333Y-112951399D01*
X135095597Y-112929443D01*
X135071303Y-112902436D01*
X132071303Y-110402436D01*
X132050707Y-110388449D01*
X132027778Y-110378749D01*
X132003398Y-110373709D01*
X131990000Y-110373000D01*
X123117000Y-110373000D01*
X123117000Y-93828490D01*
X124546796Y-93113592D01*
X124567866Y-93100329D01*
X124585943Y-93083211D01*
X124600333Y-93062894D01*
X124610483Y-93040161D01*
X124616003Y-93015884D01*
X124617000Y-93000000D01*
X124617000Y-88627000D01*
X132363000Y-88627000D01*
X132363000Y-93000000D01*
G37*
G04 #@! TD.AperFunction*
D22*
X143123800Y-129101600D02*
X143145085Y-129114514D01*
X143168481Y-129123027D01*
X143200000Y-129127000D01*
X153697113Y-129127000D01*
X154375764Y-132326353D01*
X154383293Y-132350084D01*
X154395306Y-132371890D01*
X154411343Y-132390933D01*
X154430786Y-132406482D01*
X154452890Y-132417939D01*
X154476804Y-132424864D01*
X154499244Y-132426998D01*
X158573000Y-132451247D01*
X158573000Y-136873000D01*
X151700000Y-136873000D01*
X151675224Y-136875440D01*
X151651399Y-136882667D01*
X151629443Y-136894403D01*
X151614368Y-136906212D01*
X144714368Y-143206212D01*
X144697716Y-143224720D01*
X144684995Y-143246122D01*
X144676694Y-143269593D01*
X144673000Y-143300000D01*
X144673000Y-146773000D01*
X140126765Y-146773000D01*
X140117000Y-141499765D01*
X140114514Y-141474993D01*
X140107242Y-141451182D01*
X140093344Y-141426183D01*
X139367000Y-140409301D01*
X139367000Y-134250000D01*
X139364560Y-134225224D01*
X139357333Y-134201399D01*
X139344042Y-134177170D01*
X138527000Y-133009967D01*
X138527000Y-128527000D01*
X142357667Y-128527000D01*
X143123800Y-129101600D01*
G04 #@! TA.AperFunction,Conductor*
D23*
G36*
X143123800Y-129101600D02*
G01*
X143145085Y-129114514D01*
X143168481Y-129123027D01*
X143200000Y-129127000D01*
X153697113Y-129127000D01*
X154375764Y-132326353D01*
X154383293Y-132350084D01*
X154395306Y-132371890D01*
X154411343Y-132390933D01*
X154430786Y-132406482D01*
X154452890Y-132417939D01*
X154476804Y-132424864D01*
X154499244Y-132426998D01*
X158573000Y-132451247D01*
X158573000Y-136873000D01*
X151700000Y-136873000D01*
X151675224Y-136875440D01*
X151651399Y-136882667D01*
X151629443Y-136894403D01*
X151614368Y-136906212D01*
X144714368Y-143206212D01*
X144697716Y-143224720D01*
X144684995Y-143246122D01*
X144676694Y-143269593D01*
X144673000Y-143300000D01*
X144673000Y-146773000D01*
X140126765Y-146773000D01*
X140117000Y-141499765D01*
X140114514Y-141474993D01*
X140107242Y-141451182D01*
X140093344Y-141426183D01*
X139367000Y-140409301D01*
X139367000Y-134250000D01*
X139364560Y-134225224D01*
X139357333Y-134201399D01*
X139344042Y-134177170D01*
X138527000Y-133009967D01*
X138527000Y-128527000D01*
X142357667Y-128527000D01*
X143123800Y-129101600D01*
G37*
G04 #@! TD.AperFunction*
M02*
