G04 #@! TF.GenerationSoftware,KiCad,Pcbnew,5.1.9*
G04 #@! TF.CreationDate,2021-01-31T09:53:20+01:00*
G04 #@! TF.ProjectId,blueled,626c7565-6c65-4642-9e6b-696361645f70,rev?*
G04 #@! TF.SameCoordinates,Original*
G04 #@! TF.FileFunction,Legend,Bot*
G04 #@! TF.FilePolarity,Positive*
%FSLAX46Y46*%
G04 Gerber Fmt 4.6, Leading zero omitted, Abs format (unit mm)*
G04 Created by KiCad (PCBNEW 5.1.9) date 2021-01-31 09:53:20*
%MOMM*%
%LPD*%
G01*
G04 APERTURE LIST*
%ADD10C,0.150000*%
%ADD11C,0.010000*%
G04 APERTURE END LIST*
D10*
X160595238Y-96352380D02*
X160595238Y-95352380D01*
X160166666Y-96352380D02*
X160166666Y-95828571D01*
X160214285Y-95733333D01*
X160309523Y-95685714D01*
X160452380Y-95685714D01*
X160547619Y-95733333D01*
X160595238Y-95780952D01*
X159833333Y-95685714D02*
X159452380Y-95685714D01*
X159690476Y-95352380D02*
X159690476Y-96209523D01*
X159642857Y-96304761D01*
X159547619Y-96352380D01*
X159452380Y-96352380D01*
X159261904Y-95685714D02*
X158880952Y-95685714D01*
X159119047Y-95352380D02*
X159119047Y-96209523D01*
X159071428Y-96304761D01*
X158976190Y-96352380D01*
X158880952Y-96352380D01*
X158547619Y-95685714D02*
X158547619Y-96685714D01*
X158547619Y-95733333D02*
X158452380Y-95685714D01*
X158261904Y-95685714D01*
X158166666Y-95733333D01*
X158119047Y-95780952D01*
X158071428Y-95876190D01*
X158071428Y-96161904D01*
X158119047Y-96257142D01*
X158166666Y-96304761D01*
X158261904Y-96352380D01*
X158452380Y-96352380D01*
X158547619Y-96304761D01*
X157690476Y-96304761D02*
X157595238Y-96352380D01*
X157404761Y-96352380D01*
X157309523Y-96304761D01*
X157261904Y-96209523D01*
X157261904Y-96161904D01*
X157309523Y-96066666D01*
X157404761Y-96019047D01*
X157547619Y-96019047D01*
X157642857Y-95971428D01*
X157690476Y-95876190D01*
X157690476Y-95828571D01*
X157642857Y-95733333D01*
X157547619Y-95685714D01*
X157404761Y-95685714D01*
X157309523Y-95733333D01*
X156833333Y-96257142D02*
X156785714Y-96304761D01*
X156833333Y-96352380D01*
X156880952Y-96304761D01*
X156833333Y-96257142D01*
X156833333Y-96352380D01*
X156833333Y-95733333D02*
X156785714Y-95780952D01*
X156833333Y-95828571D01*
X156880952Y-95780952D01*
X156833333Y-95733333D01*
X156833333Y-95828571D01*
X155642857Y-95304761D02*
X156500000Y-96590476D01*
X154595238Y-95304761D02*
X155452380Y-96590476D01*
X153833333Y-95685714D02*
X153833333Y-96495238D01*
X153880952Y-96590476D01*
X153928571Y-96638095D01*
X154023809Y-96685714D01*
X154166666Y-96685714D01*
X154261904Y-96638095D01*
X153833333Y-96304761D02*
X153928571Y-96352380D01*
X154119047Y-96352380D01*
X154214285Y-96304761D01*
X154261904Y-96257142D01*
X154309523Y-96161904D01*
X154309523Y-95876190D01*
X154261904Y-95780952D01*
X154214285Y-95733333D01*
X154119047Y-95685714D01*
X153928571Y-95685714D01*
X153833333Y-95733333D01*
X153357142Y-96352380D02*
X153357142Y-95685714D01*
X153357142Y-95352380D02*
X153404761Y-95400000D01*
X153357142Y-95447619D01*
X153309523Y-95400000D01*
X153357142Y-95352380D01*
X153357142Y-95447619D01*
X153023809Y-95685714D02*
X152642857Y-95685714D01*
X152880952Y-95352380D02*
X152880952Y-96209523D01*
X152833333Y-96304761D01*
X152738095Y-96352380D01*
X152642857Y-96352380D01*
X152309523Y-96352380D02*
X152309523Y-95352380D01*
X151880952Y-96352380D02*
X151880952Y-95828571D01*
X151928571Y-95733333D01*
X152023809Y-95685714D01*
X152166666Y-95685714D01*
X152261904Y-95733333D01*
X152309523Y-95780952D01*
X150976190Y-95685714D02*
X150976190Y-96352380D01*
X151404761Y-95685714D02*
X151404761Y-96209523D01*
X151357142Y-96304761D01*
X151261904Y-96352380D01*
X151119047Y-96352380D01*
X151023809Y-96304761D01*
X150976190Y-96257142D01*
X150500000Y-96352380D02*
X150500000Y-95352380D01*
X150500000Y-95733333D02*
X150404761Y-95685714D01*
X150214285Y-95685714D01*
X150119047Y-95733333D01*
X150071428Y-95780952D01*
X150023809Y-95876190D01*
X150023809Y-96161904D01*
X150071428Y-96257142D01*
X150119047Y-96304761D01*
X150214285Y-96352380D01*
X150404761Y-96352380D01*
X150500000Y-96304761D01*
X149595238Y-96257142D02*
X149547619Y-96304761D01*
X149595238Y-96352380D01*
X149642857Y-96304761D01*
X149595238Y-96257142D01*
X149595238Y-96352380D01*
X148690476Y-96304761D02*
X148785714Y-96352380D01*
X148976190Y-96352380D01*
X149071428Y-96304761D01*
X149119047Y-96257142D01*
X149166666Y-96161904D01*
X149166666Y-95876190D01*
X149119047Y-95780952D01*
X149071428Y-95733333D01*
X148976190Y-95685714D01*
X148785714Y-95685714D01*
X148690476Y-95733333D01*
X148119047Y-96352380D02*
X148214285Y-96304761D01*
X148261904Y-96257142D01*
X148309523Y-96161904D01*
X148309523Y-95876190D01*
X148261904Y-95780952D01*
X148214285Y-95733333D01*
X148119047Y-95685714D01*
X147976190Y-95685714D01*
X147880952Y-95733333D01*
X147833333Y-95780952D01*
X147785714Y-95876190D01*
X147785714Y-96161904D01*
X147833333Y-96257142D01*
X147880952Y-96304761D01*
X147976190Y-96352380D01*
X148119047Y-96352380D01*
X147357142Y-96352380D02*
X147357142Y-95685714D01*
X147357142Y-95780952D02*
X147309523Y-95733333D01*
X147214285Y-95685714D01*
X147071428Y-95685714D01*
X146976190Y-95733333D01*
X146928571Y-95828571D01*
X146928571Y-96352380D01*
X146928571Y-95828571D02*
X146880952Y-95733333D01*
X146785714Y-95685714D01*
X146642857Y-95685714D01*
X146547619Y-95733333D01*
X146500000Y-95828571D01*
X146500000Y-96352380D01*
X145309523Y-95304761D02*
X146166666Y-96590476D01*
X144547619Y-96352380D02*
X144547619Y-95828571D01*
X144595238Y-95733333D01*
X144690476Y-95685714D01*
X144880952Y-95685714D01*
X144976190Y-95733333D01*
X144547619Y-96304761D02*
X144642857Y-96352380D01*
X144880952Y-96352380D01*
X144976190Y-96304761D01*
X145023809Y-96209523D01*
X145023809Y-96114285D01*
X144976190Y-96019047D01*
X144880952Y-95971428D01*
X144642857Y-95971428D01*
X144547619Y-95923809D01*
X143928571Y-96352380D02*
X144023809Y-96304761D01*
X144071428Y-96209523D01*
X144071428Y-95352380D01*
X143547619Y-96352380D02*
X143547619Y-95352380D01*
X143547619Y-95733333D02*
X143452380Y-95685714D01*
X143261904Y-95685714D01*
X143166666Y-95733333D01*
X143119047Y-95780952D01*
X143071428Y-95876190D01*
X143071428Y-96161904D01*
X143119047Y-96257142D01*
X143166666Y-96304761D01*
X143261904Y-96352380D01*
X143452380Y-96352380D01*
X143547619Y-96304761D01*
X142261904Y-96304761D02*
X142357142Y-96352380D01*
X142547619Y-96352380D01*
X142642857Y-96304761D01*
X142690476Y-96209523D01*
X142690476Y-95828571D01*
X142642857Y-95733333D01*
X142547619Y-95685714D01*
X142357142Y-95685714D01*
X142261904Y-95733333D01*
X142214285Y-95828571D01*
X142214285Y-95923809D01*
X142690476Y-96019047D01*
X141785714Y-96352380D02*
X141785714Y-95685714D01*
X141785714Y-95876190D02*
X141738095Y-95780952D01*
X141690476Y-95733333D01*
X141595238Y-95685714D01*
X141500000Y-95685714D01*
X140738095Y-96352380D02*
X140738095Y-95828571D01*
X140785714Y-95733333D01*
X140880952Y-95685714D01*
X141071428Y-95685714D01*
X141166666Y-95733333D01*
X140738095Y-96304761D02*
X140833333Y-96352380D01*
X141071428Y-96352380D01*
X141166666Y-96304761D01*
X141214285Y-96209523D01*
X141214285Y-96114285D01*
X141166666Y-96019047D01*
X141071428Y-95971428D01*
X140833333Y-95971428D01*
X140738095Y-95923809D01*
X140261904Y-95685714D02*
X140261904Y-96352380D01*
X140261904Y-95780952D02*
X140214285Y-95733333D01*
X140119047Y-95685714D01*
X139976190Y-95685714D01*
X139880952Y-95733333D01*
X139833333Y-95828571D01*
X139833333Y-96352380D01*
X138928571Y-96352380D02*
X138928571Y-95352380D01*
X138928571Y-96304761D02*
X139023809Y-96352380D01*
X139214285Y-96352380D01*
X139309523Y-96304761D01*
X139357142Y-96257142D01*
X139404761Y-96161904D01*
X139404761Y-95876190D01*
X139357142Y-95780952D01*
X139309523Y-95733333D01*
X139214285Y-95685714D01*
X139023809Y-95685714D01*
X138928571Y-95733333D01*
X137738095Y-95304761D02*
X138595238Y-96590476D01*
X137404761Y-96352380D02*
X137404761Y-95352380D01*
X137404761Y-95733333D02*
X137309523Y-95685714D01*
X137119047Y-95685714D01*
X137023809Y-95733333D01*
X136976190Y-95780952D01*
X136928571Y-95876190D01*
X136928571Y-96161904D01*
X136976190Y-96257142D01*
X137023809Y-96304761D01*
X137119047Y-96352380D01*
X137309523Y-96352380D01*
X137404761Y-96304761D01*
X136357142Y-96352380D02*
X136452380Y-96304761D01*
X136500000Y-96209523D01*
X136500000Y-95352380D01*
X135547619Y-95685714D02*
X135547619Y-96352380D01*
X135976190Y-95685714D02*
X135976190Y-96209523D01*
X135928571Y-96304761D01*
X135833333Y-96352380D01*
X135690476Y-96352380D01*
X135595238Y-96304761D01*
X135547619Y-96257142D01*
X134690476Y-96304761D02*
X134785714Y-96352380D01*
X134976190Y-96352380D01*
X135071428Y-96304761D01*
X135119047Y-96209523D01*
X135119047Y-95828571D01*
X135071428Y-95733333D01*
X134976190Y-95685714D01*
X134785714Y-95685714D01*
X134690476Y-95733333D01*
X134642857Y-95828571D01*
X134642857Y-95923809D01*
X135119047Y-96019047D01*
X134071428Y-96352380D02*
X134166666Y-96304761D01*
X134214285Y-96209523D01*
X134214285Y-95352380D01*
X133309523Y-96304761D02*
X133404761Y-96352380D01*
X133595238Y-96352380D01*
X133690476Y-96304761D01*
X133738095Y-96209523D01*
X133738095Y-95828571D01*
X133690476Y-95733333D01*
X133595238Y-95685714D01*
X133404761Y-95685714D01*
X133309523Y-95733333D01*
X133261904Y-95828571D01*
X133261904Y-95923809D01*
X133738095Y-96019047D01*
X132404761Y-96352380D02*
X132404761Y-95352380D01*
X132404761Y-96304761D02*
X132500000Y-96352380D01*
X132690476Y-96352380D01*
X132785714Y-96304761D01*
X132833333Y-96257142D01*
X132880952Y-96161904D01*
X132880952Y-95876190D01*
X132833333Y-95780952D01*
X132785714Y-95733333D01*
X132690476Y-95685714D01*
X132500000Y-95685714D01*
X132404761Y-95733333D01*
X165714285Y-69028571D02*
X165571428Y-69076190D01*
X165523809Y-69123809D01*
X165476190Y-69219047D01*
X165476190Y-69361904D01*
X165523809Y-69457142D01*
X165571428Y-69504761D01*
X165666666Y-69552380D01*
X166047619Y-69552380D01*
X166047619Y-68552380D01*
X165714285Y-68552380D01*
X165619047Y-68600000D01*
X165571428Y-68647619D01*
X165523809Y-68742857D01*
X165523809Y-68838095D01*
X165571428Y-68933333D01*
X165619047Y-68980952D01*
X165714285Y-69028571D01*
X166047619Y-69028571D01*
X164904761Y-69552380D02*
X165000000Y-69504761D01*
X165047619Y-69409523D01*
X165047619Y-68552380D01*
X164095238Y-68885714D02*
X164095238Y-69552380D01*
X164523809Y-68885714D02*
X164523809Y-69409523D01*
X164476190Y-69504761D01*
X164380952Y-69552380D01*
X164238095Y-69552380D01*
X164142857Y-69504761D01*
X164095238Y-69457142D01*
X163238095Y-69504761D02*
X163333333Y-69552380D01*
X163523809Y-69552380D01*
X163619047Y-69504761D01*
X163666666Y-69409523D01*
X163666666Y-69028571D01*
X163619047Y-68933333D01*
X163523809Y-68885714D01*
X163333333Y-68885714D01*
X163238095Y-68933333D01*
X163190476Y-69028571D01*
X163190476Y-69123809D01*
X163666666Y-69219047D01*
X162619047Y-69552380D02*
X162714285Y-69504761D01*
X162761904Y-69409523D01*
X162761904Y-68552380D01*
X161857142Y-69504761D02*
X161952380Y-69552380D01*
X162142857Y-69552380D01*
X162238095Y-69504761D01*
X162285714Y-69409523D01*
X162285714Y-69028571D01*
X162238095Y-68933333D01*
X162142857Y-68885714D01*
X161952380Y-68885714D01*
X161857142Y-68933333D01*
X161809523Y-69028571D01*
X161809523Y-69123809D01*
X162285714Y-69219047D01*
X160952380Y-69552380D02*
X160952380Y-68552380D01*
X160952380Y-69504761D02*
X161047619Y-69552380D01*
X161238095Y-69552380D01*
X161333333Y-69504761D01*
X161380952Y-69457142D01*
X161428571Y-69361904D01*
X161428571Y-69076190D01*
X161380952Y-68980952D01*
X161333333Y-68933333D01*
X161238095Y-68885714D01*
X161047619Y-68885714D01*
X160952380Y-68933333D01*
X170285714Y-70202380D02*
X170190476Y-70202380D01*
X170095238Y-70250000D01*
X170047619Y-70297619D01*
X170000000Y-70392857D01*
X169952380Y-70583333D01*
X169952380Y-70821428D01*
X170000000Y-71011904D01*
X170047619Y-71107142D01*
X170095238Y-71154761D01*
X170190476Y-71202380D01*
X170285714Y-71202380D01*
X170380952Y-71154761D01*
X170428571Y-71107142D01*
X170476190Y-71011904D01*
X170523809Y-70821428D01*
X170523809Y-70583333D01*
X170476190Y-70392857D01*
X170428571Y-70297619D01*
X170380952Y-70250000D01*
X170285714Y-70202380D01*
X169000000Y-71202380D02*
X169571428Y-71202380D01*
X169285714Y-71202380D02*
X169285714Y-70202380D01*
X169380952Y-70345238D01*
X169476190Y-70440476D01*
X169571428Y-70488095D01*
X167857142Y-70154761D02*
X168714285Y-71440476D01*
X167333333Y-70202380D02*
X167238095Y-70202380D01*
X167142857Y-70250000D01*
X167095238Y-70297619D01*
X167047619Y-70392857D01*
X167000000Y-70583333D01*
X167000000Y-70821428D01*
X167047619Y-71011904D01*
X167095238Y-71107142D01*
X167142857Y-71154761D01*
X167238095Y-71202380D01*
X167333333Y-71202380D01*
X167428571Y-71154761D01*
X167476190Y-71107142D01*
X167523809Y-71011904D01*
X167571428Y-70821428D01*
X167571428Y-70583333D01*
X167523809Y-70392857D01*
X167476190Y-70297619D01*
X167428571Y-70250000D01*
X167333333Y-70202380D01*
X166047619Y-71202380D02*
X166619047Y-71202380D01*
X166333333Y-71202380D02*
X166333333Y-70202380D01*
X166428571Y-70345238D01*
X166523809Y-70440476D01*
X166619047Y-70488095D01*
X164904761Y-70154761D02*
X165761904Y-71440476D01*
X164619047Y-70297619D02*
X164571428Y-70250000D01*
X164476190Y-70202380D01*
X164238095Y-70202380D01*
X164142857Y-70250000D01*
X164095238Y-70297619D01*
X164047619Y-70392857D01*
X164047619Y-70488095D01*
X164095238Y-70630952D01*
X164666666Y-71202380D01*
X164047619Y-71202380D01*
X163428571Y-70202380D02*
X163333333Y-70202380D01*
X163238095Y-70250000D01*
X163190476Y-70297619D01*
X163142857Y-70392857D01*
X163095238Y-70583333D01*
X163095238Y-70821428D01*
X163142857Y-71011904D01*
X163190476Y-71107142D01*
X163238095Y-71154761D01*
X163333333Y-71202380D01*
X163428571Y-71202380D01*
X163523809Y-71154761D01*
X163571428Y-71107142D01*
X163619047Y-71011904D01*
X163666666Y-70821428D01*
X163666666Y-70583333D01*
X163619047Y-70392857D01*
X163571428Y-70297619D01*
X163523809Y-70250000D01*
X163428571Y-70202380D01*
X162714285Y-70297619D02*
X162666666Y-70250000D01*
X162571428Y-70202380D01*
X162333333Y-70202380D01*
X162238095Y-70250000D01*
X162190476Y-70297619D01*
X162142857Y-70392857D01*
X162142857Y-70488095D01*
X162190476Y-70630952D01*
X162761904Y-71202380D01*
X162142857Y-71202380D01*
X161190476Y-71202380D02*
X161761904Y-71202380D01*
X161476190Y-71202380D02*
X161476190Y-70202380D01*
X161571428Y-70345238D01*
X161666666Y-70440476D01*
X161761904Y-70488095D01*
X160000000Y-71202380D02*
X160000000Y-70535714D01*
X160000000Y-70726190D02*
X159952380Y-70630952D01*
X159904761Y-70583333D01*
X159809523Y-70535714D01*
X159714285Y-70535714D01*
X159000000Y-71154761D02*
X159095238Y-71202380D01*
X159285714Y-71202380D01*
X159380952Y-71154761D01*
X159428571Y-71059523D01*
X159428571Y-70678571D01*
X159380952Y-70583333D01*
X159285714Y-70535714D01*
X159095238Y-70535714D01*
X159000000Y-70583333D01*
X158952380Y-70678571D01*
X158952380Y-70773809D01*
X159428571Y-70869047D01*
X158619047Y-70535714D02*
X158380952Y-71202380D01*
X158142857Y-70535714D01*
X157047619Y-70297619D02*
X157000000Y-70250000D01*
X156904761Y-70202380D01*
X156666666Y-70202380D01*
X156571428Y-70250000D01*
X156523809Y-70297619D01*
X156476190Y-70392857D01*
X156476190Y-70488095D01*
X156523809Y-70630952D01*
X157095238Y-71202380D01*
X156476190Y-71202380D01*
X166095238Y-72852380D02*
X166095238Y-72328571D01*
X166142857Y-72233333D01*
X166238095Y-72185714D01*
X166428571Y-72185714D01*
X166523809Y-72233333D01*
X166095238Y-72804761D02*
X166190476Y-72852380D01*
X166428571Y-72852380D01*
X166523809Y-72804761D01*
X166571428Y-72709523D01*
X166571428Y-72614285D01*
X166523809Y-72519047D01*
X166428571Y-72471428D01*
X166190476Y-72471428D01*
X166095238Y-72423809D01*
X165476190Y-72852380D02*
X165571428Y-72804761D01*
X165619047Y-72709523D01*
X165619047Y-71852380D01*
X165095238Y-72852380D02*
X165095238Y-71852380D01*
X165095238Y-72233333D02*
X165000000Y-72185714D01*
X164809523Y-72185714D01*
X164714285Y-72233333D01*
X164666666Y-72280952D01*
X164619047Y-72376190D01*
X164619047Y-72661904D01*
X164666666Y-72757142D01*
X164714285Y-72804761D01*
X164809523Y-72852380D01*
X165000000Y-72852380D01*
X165095238Y-72804761D01*
X163809523Y-72804761D02*
X163904761Y-72852380D01*
X164095238Y-72852380D01*
X164190476Y-72804761D01*
X164238095Y-72709523D01*
X164238095Y-72328571D01*
X164190476Y-72233333D01*
X164095238Y-72185714D01*
X163904761Y-72185714D01*
X163809523Y-72233333D01*
X163761904Y-72328571D01*
X163761904Y-72423809D01*
X164238095Y-72519047D01*
X163333333Y-72852380D02*
X163333333Y-72185714D01*
X163333333Y-72376190D02*
X163285714Y-72280952D01*
X163238095Y-72233333D01*
X163142857Y-72185714D01*
X163047619Y-72185714D01*
X162285714Y-72852380D02*
X162285714Y-72328571D01*
X162333333Y-72233333D01*
X162428571Y-72185714D01*
X162619047Y-72185714D01*
X162714285Y-72233333D01*
X162285714Y-72804761D02*
X162380952Y-72852380D01*
X162619047Y-72852380D01*
X162714285Y-72804761D01*
X162761904Y-72709523D01*
X162761904Y-72614285D01*
X162714285Y-72519047D01*
X162619047Y-72471428D01*
X162380952Y-72471428D01*
X162285714Y-72423809D01*
X161809523Y-72185714D02*
X161809523Y-72852380D01*
X161809523Y-72280952D02*
X161761904Y-72233333D01*
X161666666Y-72185714D01*
X161523809Y-72185714D01*
X161428571Y-72233333D01*
X161380952Y-72328571D01*
X161380952Y-72852380D01*
X160476190Y-72852380D02*
X160476190Y-71852380D01*
X160476190Y-72804761D02*
X160571428Y-72852380D01*
X160761904Y-72852380D01*
X160857142Y-72804761D01*
X160904761Y-72757142D01*
X160952380Y-72661904D01*
X160952380Y-72376190D01*
X160904761Y-72280952D01*
X160857142Y-72233333D01*
X160761904Y-72185714D01*
X160571428Y-72185714D01*
X160476190Y-72233333D01*
D11*
G36*
X146663190Y-73837760D02*
G01*
X146942894Y-73864725D01*
X147211120Y-73914709D01*
X147459199Y-73986488D01*
X147678461Y-74078835D01*
X147682714Y-74080997D01*
X147710335Y-74096307D01*
X147772761Y-74131731D01*
X147868142Y-74186204D01*
X147994628Y-74258660D01*
X148150368Y-74348036D01*
X148333514Y-74453265D01*
X148542215Y-74573284D01*
X148774621Y-74707027D01*
X149028882Y-74853430D01*
X149303148Y-75011426D01*
X149595570Y-75179953D01*
X149904296Y-75357944D01*
X150227478Y-75544335D01*
X150563265Y-75738061D01*
X150909808Y-75938057D01*
X151235785Y-76126242D01*
X151721744Y-76407000D01*
X152171235Y-76667053D01*
X152584600Y-76906604D01*
X152962181Y-77125852D01*
X153304321Y-77325000D01*
X153611363Y-77504248D01*
X153883649Y-77663798D01*
X154121522Y-77803851D01*
X154325324Y-77924608D01*
X154495399Y-78026270D01*
X154632088Y-78109039D01*
X154735734Y-78173116D01*
X154806679Y-78218701D01*
X154845268Y-78245996D01*
X154845773Y-78246407D01*
X155046736Y-78433723D01*
X155235675Y-78654671D01*
X155407879Y-78901189D01*
X155558639Y-79165211D01*
X155683245Y-79438673D01*
X155776988Y-79713512D01*
X155825773Y-79924334D01*
X155829438Y-79966183D01*
X155832876Y-80047826D01*
X155836088Y-80166725D01*
X155839073Y-80320340D01*
X155841831Y-80506134D01*
X155844363Y-80721566D01*
X155846668Y-80964100D01*
X155848747Y-81231196D01*
X155850599Y-81520315D01*
X155852225Y-81828919D01*
X155853624Y-82154469D01*
X155854796Y-82494427D01*
X155855742Y-82846253D01*
X155856462Y-83207410D01*
X155856955Y-83575358D01*
X155857221Y-83947558D01*
X155857261Y-84321473D01*
X155857074Y-84694564D01*
X155856660Y-85064291D01*
X155856020Y-85428116D01*
X155855154Y-85783501D01*
X155854061Y-86127907D01*
X155852741Y-86458795D01*
X155851195Y-86773626D01*
X155849422Y-87069863D01*
X155847423Y-87344965D01*
X155845197Y-87596395D01*
X155842744Y-87821614D01*
X155840065Y-88018084D01*
X155837159Y-88183264D01*
X155834027Y-88314618D01*
X155830668Y-88409606D01*
X155827083Y-88465689D01*
X155825773Y-88475667D01*
X155753283Y-88770587D01*
X155643693Y-89063567D01*
X155501091Y-89348120D01*
X155329563Y-89617763D01*
X155133198Y-89866010D01*
X154916082Y-90086376D01*
X154702083Y-90258517D01*
X154674240Y-90275871D01*
X154611929Y-90313076D01*
X154517367Y-90368851D01*
X154392767Y-90441917D01*
X154240345Y-90530991D01*
X154062316Y-90634794D01*
X153860894Y-90752045D01*
X153638295Y-90881463D01*
X153396733Y-91021767D01*
X153138423Y-91171676D01*
X152865580Y-91329911D01*
X152580419Y-91495190D01*
X152285155Y-91666232D01*
X151982002Y-91841757D01*
X151673176Y-92020484D01*
X151360891Y-92201132D01*
X151047362Y-92382421D01*
X150734805Y-92563070D01*
X150425433Y-92741798D01*
X150121463Y-92917325D01*
X149825108Y-93088369D01*
X149538584Y-93253651D01*
X149264105Y-93411889D01*
X149003887Y-93561803D01*
X148760144Y-93702112D01*
X148535091Y-93831535D01*
X148330943Y-93948791D01*
X148149915Y-94052601D01*
X147994222Y-94141683D01*
X147866079Y-94214756D01*
X147767700Y-94270540D01*
X147701300Y-94307754D01*
X147670068Y-94324635D01*
X147557919Y-94373738D01*
X147418997Y-94423950D01*
X147268433Y-94470367D01*
X147121357Y-94508084D01*
X147070975Y-94518828D01*
X146942834Y-94537981D01*
X146785473Y-94551710D01*
X146611691Y-94559735D01*
X146434288Y-94561773D01*
X146266062Y-94557542D01*
X146119814Y-94546760D01*
X146072237Y-94540826D01*
X145893641Y-94507938D01*
X145706423Y-94461009D01*
X145528198Y-94404945D01*
X145391028Y-94351167D01*
X145360348Y-94335108D01*
X145295263Y-94299088D01*
X145197988Y-94244385D01*
X145070739Y-94172279D01*
X144915730Y-94084046D01*
X144735176Y-93980967D01*
X144531292Y-93864318D01*
X144306294Y-93735380D01*
X144062396Y-93595429D01*
X143801812Y-93445745D01*
X143526759Y-93287606D01*
X143239451Y-93122290D01*
X142942103Y-92951077D01*
X142636930Y-92775243D01*
X142326148Y-92596068D01*
X142011970Y-92414831D01*
X141696612Y-92232809D01*
X141382289Y-92051281D01*
X141071216Y-91871525D01*
X140765607Y-91694821D01*
X140467679Y-91522446D01*
X140179645Y-91355678D01*
X139903722Y-91195797D01*
X139642123Y-91044081D01*
X139397063Y-90901807D01*
X139170759Y-90770256D01*
X138965424Y-90650704D01*
X138783274Y-90544431D01*
X138626524Y-90452714D01*
X138497388Y-90376833D01*
X138398082Y-90318066D01*
X138330820Y-90277691D01*
X138298963Y-90257767D01*
X138088800Y-90093631D01*
X137889659Y-89894114D01*
X137705623Y-89665595D01*
X137540775Y-89414453D01*
X137399199Y-89147068D01*
X137284978Y-88869819D01*
X137202197Y-88589085D01*
X137187293Y-88521074D01*
X137182169Y-88495300D01*
X137177469Y-88469179D01*
X137173176Y-88440866D01*
X137169270Y-88408516D01*
X137165733Y-88370282D01*
X137162548Y-88324321D01*
X137159696Y-88268785D01*
X137157158Y-88201830D01*
X137154916Y-88121611D01*
X137152951Y-88026281D01*
X137151246Y-87913995D01*
X137149782Y-87782909D01*
X137148541Y-87631175D01*
X137147504Y-87456950D01*
X137146653Y-87258387D01*
X137145969Y-87033641D01*
X137145435Y-86780867D01*
X137145031Y-86498219D01*
X137144741Y-86183852D01*
X137144544Y-85835920D01*
X137144424Y-85452577D01*
X137144360Y-85031979D01*
X137144336Y-84572280D01*
X137144333Y-84200000D01*
X137144340Y-83709654D01*
X137144374Y-83259796D01*
X137144451Y-82848582D01*
X137144592Y-82474166D01*
X137144814Y-82134704D01*
X137145134Y-81828350D01*
X137145573Y-81553260D01*
X137146146Y-81307589D01*
X137146874Y-81089492D01*
X137147774Y-80897124D01*
X137148864Y-80728640D01*
X137150162Y-80582194D01*
X137151687Y-80455943D01*
X137153458Y-80348041D01*
X137155491Y-80256644D01*
X137157806Y-80179905D01*
X137160420Y-80115981D01*
X137163352Y-80063027D01*
X137166620Y-80019197D01*
X137170243Y-79982646D01*
X137174238Y-79951530D01*
X137178624Y-79924004D01*
X137183419Y-79898223D01*
X137186997Y-79880379D01*
X137267863Y-79577971D01*
X137384508Y-79280103D01*
X137532854Y-78993706D01*
X137708826Y-78725713D01*
X137908348Y-78483055D01*
X138127344Y-78272662D01*
X138137406Y-78264218D01*
X138166195Y-78242147D01*
X138209209Y-78212313D01*
X138267811Y-78173913D01*
X138343366Y-78126143D01*
X138437237Y-78068202D01*
X138550787Y-77999285D01*
X138685379Y-77918589D01*
X138842376Y-77825310D01*
X139023142Y-77718647D01*
X139229041Y-77597795D01*
X139461435Y-77461950D01*
X139721688Y-77310311D01*
X140011164Y-77142074D01*
X140331225Y-76956434D01*
X140683235Y-76752590D01*
X141068558Y-76529738D01*
X141488556Y-76287074D01*
X141718869Y-76154087D01*
X142071959Y-75950262D01*
X142416327Y-75751505D01*
X142750084Y-75558907D01*
X143071342Y-75373554D01*
X143378213Y-75196536D01*
X143668808Y-75028940D01*
X143941240Y-74871856D01*
X144193620Y-74726370D01*
X144424060Y-74593572D01*
X144630672Y-74474550D01*
X144811568Y-74370392D01*
X144964860Y-74282187D01*
X145088660Y-74211022D01*
X145181078Y-74157986D01*
X145240228Y-74124168D01*
X145262267Y-74111714D01*
X145407151Y-74043242D01*
X145581803Y-73979174D01*
X145773664Y-73923296D01*
X145970174Y-73879398D01*
X146104023Y-73857793D01*
X146380676Y-73835041D01*
X146663190Y-73837760D01*
G37*
X146663190Y-73837760D02*
X146942894Y-73864725D01*
X147211120Y-73914709D01*
X147459199Y-73986488D01*
X147678461Y-74078835D01*
X147682714Y-74080997D01*
X147710335Y-74096307D01*
X147772761Y-74131731D01*
X147868142Y-74186204D01*
X147994628Y-74258660D01*
X148150368Y-74348036D01*
X148333514Y-74453265D01*
X148542215Y-74573284D01*
X148774621Y-74707027D01*
X149028882Y-74853430D01*
X149303148Y-75011426D01*
X149595570Y-75179953D01*
X149904296Y-75357944D01*
X150227478Y-75544335D01*
X150563265Y-75738061D01*
X150909808Y-75938057D01*
X151235785Y-76126242D01*
X151721744Y-76407000D01*
X152171235Y-76667053D01*
X152584600Y-76906604D01*
X152962181Y-77125852D01*
X153304321Y-77325000D01*
X153611363Y-77504248D01*
X153883649Y-77663798D01*
X154121522Y-77803851D01*
X154325324Y-77924608D01*
X154495399Y-78026270D01*
X154632088Y-78109039D01*
X154735734Y-78173116D01*
X154806679Y-78218701D01*
X154845268Y-78245996D01*
X154845773Y-78246407D01*
X155046736Y-78433723D01*
X155235675Y-78654671D01*
X155407879Y-78901189D01*
X155558639Y-79165211D01*
X155683245Y-79438673D01*
X155776988Y-79713512D01*
X155825773Y-79924334D01*
X155829438Y-79966183D01*
X155832876Y-80047826D01*
X155836088Y-80166725D01*
X155839073Y-80320340D01*
X155841831Y-80506134D01*
X155844363Y-80721566D01*
X155846668Y-80964100D01*
X155848747Y-81231196D01*
X155850599Y-81520315D01*
X155852225Y-81828919D01*
X155853624Y-82154469D01*
X155854796Y-82494427D01*
X155855742Y-82846253D01*
X155856462Y-83207410D01*
X155856955Y-83575358D01*
X155857221Y-83947558D01*
X155857261Y-84321473D01*
X155857074Y-84694564D01*
X155856660Y-85064291D01*
X155856020Y-85428116D01*
X155855154Y-85783501D01*
X155854061Y-86127907D01*
X155852741Y-86458795D01*
X155851195Y-86773626D01*
X155849422Y-87069863D01*
X155847423Y-87344965D01*
X155845197Y-87596395D01*
X155842744Y-87821614D01*
X155840065Y-88018084D01*
X155837159Y-88183264D01*
X155834027Y-88314618D01*
X155830668Y-88409606D01*
X155827083Y-88465689D01*
X155825773Y-88475667D01*
X155753283Y-88770587D01*
X155643693Y-89063567D01*
X155501091Y-89348120D01*
X155329563Y-89617763D01*
X155133198Y-89866010D01*
X154916082Y-90086376D01*
X154702083Y-90258517D01*
X154674240Y-90275871D01*
X154611929Y-90313076D01*
X154517367Y-90368851D01*
X154392767Y-90441917D01*
X154240345Y-90530991D01*
X154062316Y-90634794D01*
X153860894Y-90752045D01*
X153638295Y-90881463D01*
X153396733Y-91021767D01*
X153138423Y-91171676D01*
X152865580Y-91329911D01*
X152580419Y-91495190D01*
X152285155Y-91666232D01*
X151982002Y-91841757D01*
X151673176Y-92020484D01*
X151360891Y-92201132D01*
X151047362Y-92382421D01*
X150734805Y-92563070D01*
X150425433Y-92741798D01*
X150121463Y-92917325D01*
X149825108Y-93088369D01*
X149538584Y-93253651D01*
X149264105Y-93411889D01*
X149003887Y-93561803D01*
X148760144Y-93702112D01*
X148535091Y-93831535D01*
X148330943Y-93948791D01*
X148149915Y-94052601D01*
X147994222Y-94141683D01*
X147866079Y-94214756D01*
X147767700Y-94270540D01*
X147701300Y-94307754D01*
X147670068Y-94324635D01*
X147557919Y-94373738D01*
X147418997Y-94423950D01*
X147268433Y-94470367D01*
X147121357Y-94508084D01*
X147070975Y-94518828D01*
X146942834Y-94537981D01*
X146785473Y-94551710D01*
X146611691Y-94559735D01*
X146434288Y-94561773D01*
X146266062Y-94557542D01*
X146119814Y-94546760D01*
X146072237Y-94540826D01*
X145893641Y-94507938D01*
X145706423Y-94461009D01*
X145528198Y-94404945D01*
X145391028Y-94351167D01*
X145360348Y-94335108D01*
X145295263Y-94299088D01*
X145197988Y-94244385D01*
X145070739Y-94172279D01*
X144915730Y-94084046D01*
X144735176Y-93980967D01*
X144531292Y-93864318D01*
X144306294Y-93735380D01*
X144062396Y-93595429D01*
X143801812Y-93445745D01*
X143526759Y-93287606D01*
X143239451Y-93122290D01*
X142942103Y-92951077D01*
X142636930Y-92775243D01*
X142326148Y-92596068D01*
X142011970Y-92414831D01*
X141696612Y-92232809D01*
X141382289Y-92051281D01*
X141071216Y-91871525D01*
X140765607Y-91694821D01*
X140467679Y-91522446D01*
X140179645Y-91355678D01*
X139903722Y-91195797D01*
X139642123Y-91044081D01*
X139397063Y-90901807D01*
X139170759Y-90770256D01*
X138965424Y-90650704D01*
X138783274Y-90544431D01*
X138626524Y-90452714D01*
X138497388Y-90376833D01*
X138398082Y-90318066D01*
X138330820Y-90277691D01*
X138298963Y-90257767D01*
X138088800Y-90093631D01*
X137889659Y-89894114D01*
X137705623Y-89665595D01*
X137540775Y-89414453D01*
X137399199Y-89147068D01*
X137284978Y-88869819D01*
X137202197Y-88589085D01*
X137187293Y-88521074D01*
X137182169Y-88495300D01*
X137177469Y-88469179D01*
X137173176Y-88440866D01*
X137169270Y-88408516D01*
X137165733Y-88370282D01*
X137162548Y-88324321D01*
X137159696Y-88268785D01*
X137157158Y-88201830D01*
X137154916Y-88121611D01*
X137152951Y-88026281D01*
X137151246Y-87913995D01*
X137149782Y-87782909D01*
X137148541Y-87631175D01*
X137147504Y-87456950D01*
X137146653Y-87258387D01*
X137145969Y-87033641D01*
X137145435Y-86780867D01*
X137145031Y-86498219D01*
X137144741Y-86183852D01*
X137144544Y-85835920D01*
X137144424Y-85452577D01*
X137144360Y-85031979D01*
X137144336Y-84572280D01*
X137144333Y-84200000D01*
X137144340Y-83709654D01*
X137144374Y-83259796D01*
X137144451Y-82848582D01*
X137144592Y-82474166D01*
X137144814Y-82134704D01*
X137145134Y-81828350D01*
X137145573Y-81553260D01*
X137146146Y-81307589D01*
X137146874Y-81089492D01*
X137147774Y-80897124D01*
X137148864Y-80728640D01*
X137150162Y-80582194D01*
X137151687Y-80455943D01*
X137153458Y-80348041D01*
X137155491Y-80256644D01*
X137157806Y-80179905D01*
X137160420Y-80115981D01*
X137163352Y-80063027D01*
X137166620Y-80019197D01*
X137170243Y-79982646D01*
X137174238Y-79951530D01*
X137178624Y-79924004D01*
X137183419Y-79898223D01*
X137186997Y-79880379D01*
X137267863Y-79577971D01*
X137384508Y-79280103D01*
X137532854Y-78993706D01*
X137708826Y-78725713D01*
X137908348Y-78483055D01*
X138127344Y-78272662D01*
X138137406Y-78264218D01*
X138166195Y-78242147D01*
X138209209Y-78212313D01*
X138267811Y-78173913D01*
X138343366Y-78126143D01*
X138437237Y-78068202D01*
X138550787Y-77999285D01*
X138685379Y-77918589D01*
X138842376Y-77825310D01*
X139023142Y-77718647D01*
X139229041Y-77597795D01*
X139461435Y-77461950D01*
X139721688Y-77310311D01*
X140011164Y-77142074D01*
X140331225Y-76956434D01*
X140683235Y-76752590D01*
X141068558Y-76529738D01*
X141488556Y-76287074D01*
X141718869Y-76154087D01*
X142071959Y-75950262D01*
X142416327Y-75751505D01*
X142750084Y-75558907D01*
X143071342Y-75373554D01*
X143378213Y-75196536D01*
X143668808Y-75028940D01*
X143941240Y-74871856D01*
X144193620Y-74726370D01*
X144424060Y-74593572D01*
X144630672Y-74474550D01*
X144811568Y-74370392D01*
X144964860Y-74282187D01*
X145088660Y-74211022D01*
X145181078Y-74157986D01*
X145240228Y-74124168D01*
X145262267Y-74111714D01*
X145407151Y-74043242D01*
X145581803Y-73979174D01*
X145773664Y-73923296D01*
X145970174Y-73879398D01*
X146104023Y-73857793D01*
X146380676Y-73835041D01*
X146663190Y-73837760D01*
G36*
X136928100Y-74861903D02*
G01*
X136816550Y-74917522D01*
X136718092Y-75019931D01*
X136690977Y-75057864D01*
X136661438Y-75107500D01*
X136642272Y-75161412D01*
X136631307Y-75233364D01*
X136626371Y-75337122D01*
X136625287Y-75474101D01*
X136630182Y-75661815D01*
X136647196Y-75802758D01*
X136679823Y-75907908D01*
X136731558Y-75988243D01*
X136805896Y-76054741D01*
X136811358Y-76058678D01*
X136884620Y-76098953D01*
X136972840Y-76118880D01*
X137085038Y-76123793D01*
X137267433Y-76123793D01*
X137267509Y-76300857D01*
X137269207Y-76399470D01*
X137279550Y-76457314D01*
X137306578Y-76492006D01*
X137358332Y-76521164D01*
X137370761Y-76527121D01*
X137428923Y-76555039D01*
X137473956Y-76572672D01*
X137507441Y-76574194D01*
X137530962Y-76553781D01*
X137546100Y-76505607D01*
X137554437Y-76423846D01*
X137557556Y-76302672D01*
X137557040Y-76136260D01*
X137554471Y-75918785D01*
X137553668Y-75853736D01*
X137550778Y-75629502D01*
X137548188Y-75482821D01*
X137267586Y-75482821D01*
X137266009Y-75607326D01*
X137259000Y-75688787D01*
X137243142Y-75742515D01*
X137215019Y-75783823D01*
X137195925Y-75803971D01*
X137117865Y-75862921D01*
X137048753Y-75867720D01*
X136977440Y-75819038D01*
X136975632Y-75817241D01*
X136946617Y-75779618D01*
X136928967Y-75728484D01*
X136920064Y-75649738D01*
X136917291Y-75529276D01*
X136917241Y-75502588D01*
X136923942Y-75336583D01*
X136945752Y-75221505D01*
X136985235Y-75151254D01*
X137044956Y-75119729D01*
X137079472Y-75116552D01*
X137161389Y-75131460D01*
X137217579Y-75180548D01*
X137251402Y-75270362D01*
X137266220Y-75407445D01*
X137267586Y-75482821D01*
X137548188Y-75482821D01*
X137547713Y-75455952D01*
X137543753Y-75325382D01*
X137538174Y-75230087D01*
X137530254Y-75162364D01*
X137519269Y-75114507D01*
X137504499Y-75078813D01*
X137485218Y-75047578D01*
X137476951Y-75035824D01*
X137367288Y-74924797D01*
X137228635Y-74861847D01*
X137068246Y-74844297D01*
X136928100Y-74861903D01*
G37*
X136928100Y-74861903D02*
X136816550Y-74917522D01*
X136718092Y-75019931D01*
X136690977Y-75057864D01*
X136661438Y-75107500D01*
X136642272Y-75161412D01*
X136631307Y-75233364D01*
X136626371Y-75337122D01*
X136625287Y-75474101D01*
X136630182Y-75661815D01*
X136647196Y-75802758D01*
X136679823Y-75907908D01*
X136731558Y-75988243D01*
X136805896Y-76054741D01*
X136811358Y-76058678D01*
X136884620Y-76098953D01*
X136972840Y-76118880D01*
X137085038Y-76123793D01*
X137267433Y-76123793D01*
X137267509Y-76300857D01*
X137269207Y-76399470D01*
X137279550Y-76457314D01*
X137306578Y-76492006D01*
X137358332Y-76521164D01*
X137370761Y-76527121D01*
X137428923Y-76555039D01*
X137473956Y-76572672D01*
X137507441Y-76574194D01*
X137530962Y-76553781D01*
X137546100Y-76505607D01*
X137554437Y-76423846D01*
X137557556Y-76302672D01*
X137557040Y-76136260D01*
X137554471Y-75918785D01*
X137553668Y-75853736D01*
X137550778Y-75629502D01*
X137548188Y-75482821D01*
X137267586Y-75482821D01*
X137266009Y-75607326D01*
X137259000Y-75688787D01*
X137243142Y-75742515D01*
X137215019Y-75783823D01*
X137195925Y-75803971D01*
X137117865Y-75862921D01*
X137048753Y-75867720D01*
X136977440Y-75819038D01*
X136975632Y-75817241D01*
X136946617Y-75779618D01*
X136928967Y-75728484D01*
X136920064Y-75649738D01*
X136917291Y-75529276D01*
X136917241Y-75502588D01*
X136923942Y-75336583D01*
X136945752Y-75221505D01*
X136985235Y-75151254D01*
X137044956Y-75119729D01*
X137079472Y-75116552D01*
X137161389Y-75131460D01*
X137217579Y-75180548D01*
X137251402Y-75270362D01*
X137266220Y-75407445D01*
X137267586Y-75482821D01*
X137548188Y-75482821D01*
X137547713Y-75455952D01*
X137543753Y-75325382D01*
X137538174Y-75230087D01*
X137530254Y-75162364D01*
X137519269Y-75114507D01*
X137504499Y-75078813D01*
X137485218Y-75047578D01*
X137476951Y-75035824D01*
X137367288Y-74924797D01*
X137228635Y-74861847D01*
X137068246Y-74844297D01*
X136928100Y-74861903D01*
G36*
X134682571Y-74877719D02*
G01*
X134588877Y-74931914D01*
X134523736Y-74985707D01*
X134476093Y-75042066D01*
X134443272Y-75110987D01*
X134422594Y-75202468D01*
X134411380Y-75326506D01*
X134406951Y-75493098D01*
X134406437Y-75612851D01*
X134406437Y-76053659D01*
X134530517Y-76109283D01*
X134654598Y-76164907D01*
X134669195Y-75682095D01*
X134675227Y-75501779D01*
X134681555Y-75370901D01*
X134689394Y-75280511D01*
X134699963Y-75221664D01*
X134714477Y-75185413D01*
X134734152Y-75162810D01*
X134740465Y-75157917D01*
X134836112Y-75119706D01*
X134932793Y-75134827D01*
X134990345Y-75174943D01*
X135013755Y-75203370D01*
X135029961Y-75240672D01*
X135040259Y-75297223D01*
X135045951Y-75383394D01*
X135048336Y-75509558D01*
X135048736Y-75641042D01*
X135048814Y-75805999D01*
X135051639Y-75922761D01*
X135061093Y-76001510D01*
X135081060Y-76052431D01*
X135115424Y-76085706D01*
X135168068Y-76111520D01*
X135238383Y-76138344D01*
X135315180Y-76167542D01*
X135306038Y-75649346D01*
X135302357Y-75462539D01*
X135298050Y-75324490D01*
X135291877Y-75225568D01*
X135282598Y-75156145D01*
X135268973Y-75106590D01*
X135249761Y-75067273D01*
X135226598Y-75032584D01*
X135114848Y-74921770D01*
X134978487Y-74857689D01*
X134830175Y-74842339D01*
X134682571Y-74877719D01*
G37*
X134682571Y-74877719D02*
X134588877Y-74931914D01*
X134523736Y-74985707D01*
X134476093Y-75042066D01*
X134443272Y-75110987D01*
X134422594Y-75202468D01*
X134411380Y-75326506D01*
X134406951Y-75493098D01*
X134406437Y-75612851D01*
X134406437Y-76053659D01*
X134530517Y-76109283D01*
X134654598Y-76164907D01*
X134669195Y-75682095D01*
X134675227Y-75501779D01*
X134681555Y-75370901D01*
X134689394Y-75280511D01*
X134699963Y-75221664D01*
X134714477Y-75185413D01*
X134734152Y-75162810D01*
X134740465Y-75157917D01*
X134836112Y-75119706D01*
X134932793Y-75134827D01*
X134990345Y-75174943D01*
X135013755Y-75203370D01*
X135029961Y-75240672D01*
X135040259Y-75297223D01*
X135045951Y-75383394D01*
X135048336Y-75509558D01*
X135048736Y-75641042D01*
X135048814Y-75805999D01*
X135051639Y-75922761D01*
X135061093Y-76001510D01*
X135081060Y-76052431D01*
X135115424Y-76085706D01*
X135168068Y-76111520D01*
X135238383Y-76138344D01*
X135315180Y-76167542D01*
X135306038Y-75649346D01*
X135302357Y-75462539D01*
X135298050Y-75324490D01*
X135291877Y-75225568D01*
X135282598Y-75156145D01*
X135268973Y-75106590D01*
X135249761Y-75067273D01*
X135226598Y-75032584D01*
X135114848Y-74921770D01*
X134978487Y-74857689D01*
X134830175Y-74842339D01*
X134682571Y-74877719D01*
G36*
X138051779Y-74866015D02*
G01*
X137914939Y-74937968D01*
X137813949Y-75053766D01*
X137778075Y-75128213D01*
X137750161Y-75239992D01*
X137735871Y-75381227D01*
X137734516Y-75535371D01*
X137745405Y-75685879D01*
X137767847Y-75816205D01*
X137801150Y-75909803D01*
X137811385Y-75925922D01*
X137932618Y-76046249D01*
X138076613Y-76118317D01*
X138232861Y-76139408D01*
X138390852Y-76106802D01*
X138434820Y-76087253D01*
X138520444Y-76027012D01*
X138595592Y-75947135D01*
X138602694Y-75937004D01*
X138631561Y-75888181D01*
X138650643Y-75835990D01*
X138661916Y-75767285D01*
X138667355Y-75668918D01*
X138668938Y-75527744D01*
X138668965Y-75496092D01*
X138668893Y-75486019D01*
X138377011Y-75486019D01*
X138375313Y-75619256D01*
X138368628Y-75707674D01*
X138354575Y-75764785D01*
X138330771Y-75804102D01*
X138318621Y-75817241D01*
X138248764Y-75867172D01*
X138180941Y-75864895D01*
X138112365Y-75821584D01*
X138071465Y-75775346D01*
X138047242Y-75707857D01*
X138033639Y-75601433D01*
X138032706Y-75589020D01*
X138030384Y-75396147D01*
X138054650Y-75252900D01*
X138105176Y-75160160D01*
X138181632Y-75118807D01*
X138208924Y-75116552D01*
X138280589Y-75127893D01*
X138329610Y-75167184D01*
X138359582Y-75242326D01*
X138374101Y-75361222D01*
X138377011Y-75486019D01*
X138668893Y-75486019D01*
X138667878Y-75345659D01*
X138663312Y-75240549D01*
X138653312Y-75167714D01*
X138635921Y-75114108D01*
X138609184Y-75066681D01*
X138603276Y-75057864D01*
X138503968Y-74939007D01*
X138395758Y-74870008D01*
X138264019Y-74842619D01*
X138219283Y-74841281D01*
X138051779Y-74866015D01*
G37*
X138051779Y-74866015D02*
X137914939Y-74937968D01*
X137813949Y-75053766D01*
X137778075Y-75128213D01*
X137750161Y-75239992D01*
X137735871Y-75381227D01*
X137734516Y-75535371D01*
X137745405Y-75685879D01*
X137767847Y-75816205D01*
X137801150Y-75909803D01*
X137811385Y-75925922D01*
X137932618Y-76046249D01*
X138076613Y-76118317D01*
X138232861Y-76139408D01*
X138390852Y-76106802D01*
X138434820Y-76087253D01*
X138520444Y-76027012D01*
X138595592Y-75947135D01*
X138602694Y-75937004D01*
X138631561Y-75888181D01*
X138650643Y-75835990D01*
X138661916Y-75767285D01*
X138667355Y-75668918D01*
X138668938Y-75527744D01*
X138668965Y-75496092D01*
X138668893Y-75486019D01*
X138377011Y-75486019D01*
X138375313Y-75619256D01*
X138368628Y-75707674D01*
X138354575Y-75764785D01*
X138330771Y-75804102D01*
X138318621Y-75817241D01*
X138248764Y-75867172D01*
X138180941Y-75864895D01*
X138112365Y-75821584D01*
X138071465Y-75775346D01*
X138047242Y-75707857D01*
X138033639Y-75601433D01*
X138032706Y-75589020D01*
X138030384Y-75396147D01*
X138054650Y-75252900D01*
X138105176Y-75160160D01*
X138181632Y-75118807D01*
X138208924Y-75116552D01*
X138280589Y-75127893D01*
X138329610Y-75167184D01*
X138359582Y-75242326D01*
X138374101Y-75361222D01*
X138377011Y-75486019D01*
X138668893Y-75486019D01*
X138667878Y-75345659D01*
X138663312Y-75240549D01*
X138653312Y-75167714D01*
X138635921Y-75114108D01*
X138609184Y-75066681D01*
X138603276Y-75057864D01*
X138503968Y-74939007D01*
X138395758Y-74870008D01*
X138264019Y-74842619D01*
X138219283Y-74841281D01*
X138051779Y-74866015D01*
G36*
X135784448Y-74884676D02*
G01*
X135669342Y-74962111D01*
X135580389Y-75073949D01*
X135527251Y-75216265D01*
X135516503Y-75321015D01*
X135517724Y-75364726D01*
X135527944Y-75398194D01*
X135556039Y-75428179D01*
X135610884Y-75461440D01*
X135701355Y-75504738D01*
X135836328Y-75564833D01*
X135837011Y-75565134D01*
X135961249Y-75622037D01*
X136063127Y-75672565D01*
X136132233Y-75711280D01*
X136158154Y-75732740D01*
X136158161Y-75732913D01*
X136135315Y-75779644D01*
X136081891Y-75831154D01*
X136020558Y-75868261D01*
X135989485Y-75875632D01*
X135904711Y-75850138D01*
X135831707Y-75786291D01*
X135796087Y-75716094D01*
X135761820Y-75664343D01*
X135694697Y-75605409D01*
X135615792Y-75554496D01*
X135546179Y-75526809D01*
X135531623Y-75525287D01*
X135515237Y-75550321D01*
X135514250Y-75614311D01*
X135526292Y-75700593D01*
X135548993Y-75792501D01*
X135579986Y-75873369D01*
X135581552Y-75876509D01*
X135674819Y-76006734D01*
X135795696Y-76095311D01*
X135932973Y-76138786D01*
X136075440Y-76133706D01*
X136211888Y-76076616D01*
X136217955Y-76072602D01*
X136325290Y-75975326D01*
X136395868Y-75848409D01*
X136434926Y-75681526D01*
X136440168Y-75634639D01*
X136449452Y-75413329D01*
X136438322Y-75310124D01*
X136158161Y-75310124D01*
X136154521Y-75374503D01*
X136134611Y-75393291D01*
X136084974Y-75379235D01*
X136006733Y-75346009D01*
X135919274Y-75304359D01*
X135917101Y-75303256D01*
X135842970Y-75264265D01*
X135813219Y-75238244D01*
X135820555Y-75210965D01*
X135851447Y-75175121D01*
X135930040Y-75123251D01*
X136014677Y-75119439D01*
X136090597Y-75157189D01*
X136143035Y-75230001D01*
X136158161Y-75310124D01*
X136438322Y-75310124D01*
X136430356Y-75236261D01*
X136381366Y-75095829D01*
X136313164Y-74997447D01*
X136190065Y-74898030D01*
X136054472Y-74848711D01*
X135916045Y-74845568D01*
X135784448Y-74884676D01*
G37*
X135784448Y-74884676D02*
X135669342Y-74962111D01*
X135580389Y-75073949D01*
X135527251Y-75216265D01*
X135516503Y-75321015D01*
X135517724Y-75364726D01*
X135527944Y-75398194D01*
X135556039Y-75428179D01*
X135610884Y-75461440D01*
X135701355Y-75504738D01*
X135836328Y-75564833D01*
X135837011Y-75565134D01*
X135961249Y-75622037D01*
X136063127Y-75672565D01*
X136132233Y-75711280D01*
X136158154Y-75732740D01*
X136158161Y-75732913D01*
X136135315Y-75779644D01*
X136081891Y-75831154D01*
X136020558Y-75868261D01*
X135989485Y-75875632D01*
X135904711Y-75850138D01*
X135831707Y-75786291D01*
X135796087Y-75716094D01*
X135761820Y-75664343D01*
X135694697Y-75605409D01*
X135615792Y-75554496D01*
X135546179Y-75526809D01*
X135531623Y-75525287D01*
X135515237Y-75550321D01*
X135514250Y-75614311D01*
X135526292Y-75700593D01*
X135548993Y-75792501D01*
X135579986Y-75873369D01*
X135581552Y-75876509D01*
X135674819Y-76006734D01*
X135795696Y-76095311D01*
X135932973Y-76138786D01*
X136075440Y-76133706D01*
X136211888Y-76076616D01*
X136217955Y-76072602D01*
X136325290Y-75975326D01*
X136395868Y-75848409D01*
X136434926Y-75681526D01*
X136440168Y-75634639D01*
X136449452Y-75413329D01*
X136438322Y-75310124D01*
X136158161Y-75310124D01*
X136154521Y-75374503D01*
X136134611Y-75393291D01*
X136084974Y-75379235D01*
X136006733Y-75346009D01*
X135919274Y-75304359D01*
X135917101Y-75303256D01*
X135842970Y-75264265D01*
X135813219Y-75238244D01*
X135820555Y-75210965D01*
X135851447Y-75175121D01*
X135930040Y-75123251D01*
X136014677Y-75119439D01*
X136090597Y-75157189D01*
X136143035Y-75230001D01*
X136158161Y-75310124D01*
X136438322Y-75310124D01*
X136430356Y-75236261D01*
X136381366Y-75095829D01*
X136313164Y-74997447D01*
X136190065Y-74898030D01*
X136054472Y-74848711D01*
X135916045Y-74845568D01*
X135784448Y-74884676D01*
G36*
X133355402Y-74723857D02*
G01*
X133346846Y-74843188D01*
X133337019Y-74913506D01*
X133323401Y-74944179D01*
X133303473Y-74944571D01*
X133297011Y-74940910D01*
X133211060Y-74914398D01*
X133099255Y-74915946D01*
X132985586Y-74943199D01*
X132914490Y-74978455D01*
X132841595Y-75034778D01*
X132788307Y-75098519D01*
X132751725Y-75179510D01*
X132728950Y-75287586D01*
X132717081Y-75432580D01*
X132713218Y-75624326D01*
X132713149Y-75661109D01*
X132713103Y-76074288D01*
X132805046Y-76106339D01*
X132870348Y-76128144D01*
X132906176Y-76138297D01*
X132907230Y-76138391D01*
X132910758Y-76110860D01*
X132913761Y-76034923D01*
X132916010Y-75920565D01*
X132917276Y-75777769D01*
X132917471Y-75690951D01*
X132917877Y-75519773D01*
X132919968Y-75397088D01*
X132925053Y-75313000D01*
X132934440Y-75257614D01*
X132949439Y-75221032D01*
X132971358Y-75193359D01*
X132985043Y-75180032D01*
X133079051Y-75126328D01*
X133181636Y-75122307D01*
X133274710Y-75167725D01*
X133291922Y-75184123D01*
X133317168Y-75214957D01*
X133334680Y-75251531D01*
X133345858Y-75304415D01*
X133352104Y-75384177D01*
X133354818Y-75501385D01*
X133355402Y-75662991D01*
X133355402Y-76074288D01*
X133447345Y-76106339D01*
X133512647Y-76128144D01*
X133548475Y-76138297D01*
X133549529Y-76138391D01*
X133552225Y-76110448D01*
X133554655Y-76031630D01*
X133556722Y-75909453D01*
X133558329Y-75751432D01*
X133559377Y-75565083D01*
X133559769Y-75357920D01*
X133559770Y-75348706D01*
X133559770Y-74559020D01*
X133464885Y-74518997D01*
X133370000Y-74478973D01*
X133355402Y-74723857D01*
G37*
X133355402Y-74723857D02*
X133346846Y-74843188D01*
X133337019Y-74913506D01*
X133323401Y-74944179D01*
X133303473Y-74944571D01*
X133297011Y-74940910D01*
X133211060Y-74914398D01*
X133099255Y-74915946D01*
X132985586Y-74943199D01*
X132914490Y-74978455D01*
X132841595Y-75034778D01*
X132788307Y-75098519D01*
X132751725Y-75179510D01*
X132728950Y-75287586D01*
X132717081Y-75432580D01*
X132713218Y-75624326D01*
X132713149Y-75661109D01*
X132713103Y-76074288D01*
X132805046Y-76106339D01*
X132870348Y-76128144D01*
X132906176Y-76138297D01*
X132907230Y-76138391D01*
X132910758Y-76110860D01*
X132913761Y-76034923D01*
X132916010Y-75920565D01*
X132917276Y-75777769D01*
X132917471Y-75690951D01*
X132917877Y-75519773D01*
X132919968Y-75397088D01*
X132925053Y-75313000D01*
X132934440Y-75257614D01*
X132949439Y-75221032D01*
X132971358Y-75193359D01*
X132985043Y-75180032D01*
X133079051Y-75126328D01*
X133181636Y-75122307D01*
X133274710Y-75167725D01*
X133291922Y-75184123D01*
X133317168Y-75214957D01*
X133334680Y-75251531D01*
X133345858Y-75304415D01*
X133352104Y-75384177D01*
X133354818Y-75501385D01*
X133355402Y-75662991D01*
X133355402Y-76074288D01*
X133447345Y-76106339D01*
X133512647Y-76128144D01*
X133548475Y-76138297D01*
X133549529Y-76138391D01*
X133552225Y-76110448D01*
X133554655Y-76031630D01*
X133556722Y-75909453D01*
X133558329Y-75751432D01*
X133559377Y-75565083D01*
X133559769Y-75357920D01*
X133559770Y-75348706D01*
X133559770Y-74559020D01*
X133464885Y-74518997D01*
X133370000Y-74478973D01*
X133355402Y-74723857D01*
G36*
X132020056Y-74924360D02*
G01*
X131905657Y-74966842D01*
X131904348Y-74967658D01*
X131833597Y-75019730D01*
X131781364Y-75080584D01*
X131744629Y-75159887D01*
X131720366Y-75267309D01*
X131705555Y-75412517D01*
X131697171Y-75605179D01*
X131696436Y-75632628D01*
X131685880Y-76046521D01*
X131774709Y-76092456D01*
X131838982Y-76123498D01*
X131877790Y-76138206D01*
X131879585Y-76138391D01*
X131886300Y-76111250D01*
X131891635Y-76038041D01*
X131894917Y-75931081D01*
X131895632Y-75844469D01*
X131895649Y-75704162D01*
X131902063Y-75616051D01*
X131924420Y-75574025D01*
X131972268Y-75571975D01*
X132055151Y-75603790D01*
X132180287Y-75662272D01*
X132272303Y-75710845D01*
X132319629Y-75752986D01*
X132333542Y-75798916D01*
X132333563Y-75801189D01*
X132310605Y-75880311D01*
X132242630Y-75923055D01*
X132138602Y-75929246D01*
X132063670Y-75928172D01*
X132024161Y-75949753D01*
X131999522Y-76001591D01*
X131985341Y-76067632D01*
X132005777Y-76105104D01*
X132013472Y-76110467D01*
X132085917Y-76132006D01*
X132187367Y-76135055D01*
X132291843Y-76120778D01*
X132365875Y-76094688D01*
X132468228Y-76007785D01*
X132526409Y-75886816D01*
X132537931Y-75792308D01*
X132529138Y-75707062D01*
X132497320Y-75637476D01*
X132434316Y-75575672D01*
X132331969Y-75513772D01*
X132182118Y-75443897D01*
X132172988Y-75439948D01*
X132038003Y-75377588D01*
X131954706Y-75326446D01*
X131919003Y-75280488D01*
X131926797Y-75233683D01*
X131973993Y-75179998D01*
X131988106Y-75167644D01*
X132082641Y-75119741D01*
X132180594Y-75121758D01*
X132265903Y-75168724D01*
X132322504Y-75255669D01*
X132327763Y-75272734D01*
X132378977Y-75355504D01*
X132443963Y-75395372D01*
X132537931Y-75434882D01*
X132537931Y-75332658D01*
X132509347Y-75184072D01*
X132424505Y-75047784D01*
X132380355Y-75002191D01*
X132279995Y-74943674D01*
X132152365Y-74917184D01*
X132020056Y-74924360D01*
G37*
X132020056Y-74924360D02*
X131905657Y-74966842D01*
X131904348Y-74967658D01*
X131833597Y-75019730D01*
X131781364Y-75080584D01*
X131744629Y-75159887D01*
X131720366Y-75267309D01*
X131705555Y-75412517D01*
X131697171Y-75605179D01*
X131696436Y-75632628D01*
X131685880Y-76046521D01*
X131774709Y-76092456D01*
X131838982Y-76123498D01*
X131877790Y-76138206D01*
X131879585Y-76138391D01*
X131886300Y-76111250D01*
X131891635Y-76038041D01*
X131894917Y-75931081D01*
X131895632Y-75844469D01*
X131895649Y-75704162D01*
X131902063Y-75616051D01*
X131924420Y-75574025D01*
X131972268Y-75571975D01*
X132055151Y-75603790D01*
X132180287Y-75662272D01*
X132272303Y-75710845D01*
X132319629Y-75752986D01*
X132333542Y-75798916D01*
X132333563Y-75801189D01*
X132310605Y-75880311D01*
X132242630Y-75923055D01*
X132138602Y-75929246D01*
X132063670Y-75928172D01*
X132024161Y-75949753D01*
X131999522Y-76001591D01*
X131985341Y-76067632D01*
X132005777Y-76105104D01*
X132013472Y-76110467D01*
X132085917Y-76132006D01*
X132187367Y-76135055D01*
X132291843Y-76120778D01*
X132365875Y-76094688D01*
X132468228Y-76007785D01*
X132526409Y-75886816D01*
X132537931Y-75792308D01*
X132529138Y-75707062D01*
X132497320Y-75637476D01*
X132434316Y-75575672D01*
X132331969Y-75513772D01*
X132182118Y-75443897D01*
X132172988Y-75439948D01*
X132038003Y-75377588D01*
X131954706Y-75326446D01*
X131919003Y-75280488D01*
X131926797Y-75233683D01*
X131973993Y-75179998D01*
X131988106Y-75167644D01*
X132082641Y-75119741D01*
X132180594Y-75121758D01*
X132265903Y-75168724D01*
X132322504Y-75255669D01*
X132327763Y-75272734D01*
X132378977Y-75355504D01*
X132443963Y-75395372D01*
X132537931Y-75434882D01*
X132537931Y-75332658D01*
X132509347Y-75184072D01*
X132424505Y-75047784D01*
X132380355Y-75002191D01*
X132279995Y-74943674D01*
X132152365Y-74917184D01*
X132020056Y-74924360D01*
G36*
X131034057Y-74921920D02*
G01*
X130901435Y-74970859D01*
X130793990Y-75057419D01*
X130751968Y-75118352D01*
X130706157Y-75230161D01*
X130707109Y-75311006D01*
X130755192Y-75365378D01*
X130772983Y-75374624D01*
X130849796Y-75403450D01*
X130889024Y-75396065D01*
X130902311Y-75347658D01*
X130902988Y-75320920D01*
X130927314Y-75222548D01*
X130990719Y-75153734D01*
X131078846Y-75120498D01*
X131177337Y-75128861D01*
X131257398Y-75172296D01*
X131284439Y-75197072D01*
X131303606Y-75227129D01*
X131316554Y-75272565D01*
X131324936Y-75343476D01*
X131330407Y-75449960D01*
X131334622Y-75602112D01*
X131335713Y-75650287D01*
X131339693Y-75815095D01*
X131344219Y-75931088D01*
X131351005Y-76007833D01*
X131361769Y-76054893D01*
X131378227Y-76081835D01*
X131402094Y-76098223D01*
X131417374Y-76105463D01*
X131482267Y-76130220D01*
X131520466Y-76138391D01*
X131533088Y-76111103D01*
X131540792Y-76028603D01*
X131543620Y-75889941D01*
X131541614Y-75694162D01*
X131540989Y-75663965D01*
X131536579Y-75485349D01*
X131531365Y-75354923D01*
X131523945Y-75262492D01*
X131512918Y-75197858D01*
X131496883Y-75150825D01*
X131474439Y-75111196D01*
X131462698Y-75094215D01*
X131395381Y-75019080D01*
X131320090Y-74960638D01*
X131310872Y-74955536D01*
X131175867Y-74915260D01*
X131034057Y-74921920D01*
G37*
X131034057Y-74921920D02*
X130901435Y-74970859D01*
X130793990Y-75057419D01*
X130751968Y-75118352D01*
X130706157Y-75230161D01*
X130707109Y-75311006D01*
X130755192Y-75365378D01*
X130772983Y-75374624D01*
X130849796Y-75403450D01*
X130889024Y-75396065D01*
X130902311Y-75347658D01*
X130902988Y-75320920D01*
X130927314Y-75222548D01*
X130990719Y-75153734D01*
X131078846Y-75120498D01*
X131177337Y-75128861D01*
X131257398Y-75172296D01*
X131284439Y-75197072D01*
X131303606Y-75227129D01*
X131316554Y-75272565D01*
X131324936Y-75343476D01*
X131330407Y-75449960D01*
X131334622Y-75602112D01*
X131335713Y-75650287D01*
X131339693Y-75815095D01*
X131344219Y-75931088D01*
X131351005Y-76007833D01*
X131361769Y-76054893D01*
X131378227Y-76081835D01*
X131402094Y-76098223D01*
X131417374Y-76105463D01*
X131482267Y-76130220D01*
X131520466Y-76138391D01*
X131533088Y-76111103D01*
X131540792Y-76028603D01*
X131543620Y-75889941D01*
X131541614Y-75694162D01*
X131540989Y-75663965D01*
X131536579Y-75485349D01*
X131531365Y-75354923D01*
X131523945Y-75262492D01*
X131512918Y-75197858D01*
X131496883Y-75150825D01*
X131474439Y-75111196D01*
X131462698Y-75094215D01*
X131395381Y-75019080D01*
X131320090Y-74960638D01*
X131310872Y-74955536D01*
X131175867Y-74915260D01*
X131034057Y-74921920D01*
G36*
X129706086Y-75154455D02*
G01*
X129706457Y-75372661D01*
X129707892Y-75540519D01*
X129710998Y-75666070D01*
X129716378Y-75757355D01*
X129724638Y-75822415D01*
X129736384Y-75869291D01*
X129752219Y-75906024D01*
X129764210Y-75926991D01*
X129863510Y-76040694D01*
X129989412Y-76111965D01*
X130128709Y-76137538D01*
X130268195Y-76114150D01*
X130351257Y-76072119D01*
X130438455Y-75999411D01*
X130497883Y-75910612D01*
X130533739Y-75794320D01*
X130550219Y-75639135D01*
X130552553Y-75525287D01*
X130552239Y-75517106D01*
X130348276Y-75517106D01*
X130347030Y-75647657D01*
X130341322Y-75734080D01*
X130328196Y-75790618D01*
X130304694Y-75831514D01*
X130276614Y-75862362D01*
X130182312Y-75921905D01*
X130081060Y-75926992D01*
X129985364Y-75877279D01*
X129977916Y-75870543D01*
X129946126Y-75835502D01*
X129926192Y-75793811D01*
X129915400Y-75731762D01*
X129911035Y-75635644D01*
X129910345Y-75529379D01*
X129911841Y-75395880D01*
X129918036Y-75306822D01*
X129931486Y-75248293D01*
X129954749Y-75206382D01*
X129973825Y-75184123D01*
X130062437Y-75127985D01*
X130164492Y-75121235D01*
X130261905Y-75164114D01*
X130280704Y-75180032D01*
X130312707Y-75215382D01*
X130332682Y-75257502D01*
X130343407Y-75320251D01*
X130347661Y-75417487D01*
X130348276Y-75517106D01*
X130552239Y-75517106D01*
X130545496Y-75341947D01*
X130521528Y-75204195D01*
X130476452Y-75100632D01*
X130406072Y-75019856D01*
X130351257Y-74978455D01*
X130251624Y-74933728D01*
X130136145Y-74912967D01*
X130028801Y-74918525D01*
X129968736Y-74940943D01*
X129945165Y-74947323D01*
X129929523Y-74923535D01*
X129918605Y-74859788D01*
X129910345Y-74762687D01*
X129901301Y-74654541D01*
X129888739Y-74589475D01*
X129865881Y-74552268D01*
X129825949Y-74527699D01*
X129800862Y-74516819D01*
X129705977Y-74477072D01*
X129706086Y-75154455D01*
G37*
X129706086Y-75154455D02*
X129706457Y-75372661D01*
X129707892Y-75540519D01*
X129710998Y-75666070D01*
X129716378Y-75757355D01*
X129724638Y-75822415D01*
X129736384Y-75869291D01*
X129752219Y-75906024D01*
X129764210Y-75926991D01*
X129863510Y-76040694D01*
X129989412Y-76111965D01*
X130128709Y-76137538D01*
X130268195Y-76114150D01*
X130351257Y-76072119D01*
X130438455Y-75999411D01*
X130497883Y-75910612D01*
X130533739Y-75794320D01*
X130550219Y-75639135D01*
X130552553Y-75525287D01*
X130552239Y-75517106D01*
X130348276Y-75517106D01*
X130347030Y-75647657D01*
X130341322Y-75734080D01*
X130328196Y-75790618D01*
X130304694Y-75831514D01*
X130276614Y-75862362D01*
X130182312Y-75921905D01*
X130081060Y-75926992D01*
X129985364Y-75877279D01*
X129977916Y-75870543D01*
X129946126Y-75835502D01*
X129926192Y-75793811D01*
X129915400Y-75731762D01*
X129911035Y-75635644D01*
X129910345Y-75529379D01*
X129911841Y-75395880D01*
X129918036Y-75306822D01*
X129931486Y-75248293D01*
X129954749Y-75206382D01*
X129973825Y-75184123D01*
X130062437Y-75127985D01*
X130164492Y-75121235D01*
X130261905Y-75164114D01*
X130280704Y-75180032D01*
X130312707Y-75215382D01*
X130332682Y-75257502D01*
X130343407Y-75320251D01*
X130347661Y-75417487D01*
X130348276Y-75517106D01*
X130552239Y-75517106D01*
X130545496Y-75341947D01*
X130521528Y-75204195D01*
X130476452Y-75100632D01*
X130406072Y-75019856D01*
X130351257Y-74978455D01*
X130251624Y-74933728D01*
X130136145Y-74912967D01*
X130028801Y-74918525D01*
X129968736Y-74940943D01*
X129945165Y-74947323D01*
X129929523Y-74923535D01*
X129918605Y-74859788D01*
X129910345Y-74762687D01*
X129901301Y-74654541D01*
X129888739Y-74589475D01*
X129865881Y-74552268D01*
X129825949Y-74527699D01*
X129800862Y-74516819D01*
X129705977Y-74477072D01*
X129706086Y-75154455D01*
G36*
X128519876Y-74939840D02*
G01*
X128515421Y-75016653D01*
X128511929Y-75133391D01*
X128509685Y-75280821D01*
X128508965Y-75435455D01*
X128508965Y-75958727D01*
X128601355Y-76051117D01*
X128665022Y-76108047D01*
X128720911Y-76131107D01*
X128797298Y-76129647D01*
X128827620Y-76125934D01*
X128922390Y-76115126D01*
X129000778Y-76108933D01*
X129019885Y-76108361D01*
X129084301Y-76112102D01*
X129176429Y-76121494D01*
X129212150Y-76125934D01*
X129299886Y-76132801D01*
X129358847Y-76117885D01*
X129417310Y-76071835D01*
X129438415Y-76051117D01*
X129530805Y-75958727D01*
X129530805Y-74979947D01*
X129456442Y-74946066D01*
X129392410Y-74920970D01*
X129354948Y-74912184D01*
X129345343Y-74939950D01*
X129336365Y-75017530D01*
X129328614Y-75136348D01*
X129322686Y-75287828D01*
X129319827Y-75415805D01*
X129311839Y-75919425D01*
X129242152Y-75929278D01*
X129178771Y-75922389D01*
X129147714Y-75900083D01*
X129139033Y-75858379D01*
X129131622Y-75769544D01*
X129126069Y-75644834D01*
X129122964Y-75495507D01*
X129122516Y-75418661D01*
X129122069Y-74976287D01*
X129030126Y-74944235D01*
X128965051Y-74922443D01*
X128929653Y-74912281D01*
X128928632Y-74912184D01*
X128925080Y-74939809D01*
X128921177Y-75016411D01*
X128917249Y-75132579D01*
X128913624Y-75278904D01*
X128911092Y-75415805D01*
X128903103Y-75919425D01*
X128727931Y-75919425D01*
X128719893Y-75459965D01*
X128711854Y-75000505D01*
X128626457Y-74956344D01*
X128563407Y-74926019D01*
X128526090Y-74912258D01*
X128525013Y-74912184D01*
X128519876Y-74939840D01*
G37*
X128519876Y-74939840D02*
X128515421Y-75016653D01*
X128511929Y-75133391D01*
X128509685Y-75280821D01*
X128508965Y-75435455D01*
X128508965Y-75958727D01*
X128601355Y-76051117D01*
X128665022Y-76108047D01*
X128720911Y-76131107D01*
X128797298Y-76129647D01*
X128827620Y-76125934D01*
X128922390Y-76115126D01*
X129000778Y-76108933D01*
X129019885Y-76108361D01*
X129084301Y-76112102D01*
X129176429Y-76121494D01*
X129212150Y-76125934D01*
X129299886Y-76132801D01*
X129358847Y-76117885D01*
X129417310Y-76071835D01*
X129438415Y-76051117D01*
X129530805Y-75958727D01*
X129530805Y-74979947D01*
X129456442Y-74946066D01*
X129392410Y-74920970D01*
X129354948Y-74912184D01*
X129345343Y-74939950D01*
X129336365Y-75017530D01*
X129328614Y-75136348D01*
X129322686Y-75287828D01*
X129319827Y-75415805D01*
X129311839Y-75919425D01*
X129242152Y-75929278D01*
X129178771Y-75922389D01*
X129147714Y-75900083D01*
X129139033Y-75858379D01*
X129131622Y-75769544D01*
X129126069Y-75644834D01*
X129122964Y-75495507D01*
X129122516Y-75418661D01*
X129122069Y-74976287D01*
X129030126Y-74944235D01*
X128965051Y-74922443D01*
X128929653Y-74912281D01*
X128928632Y-74912184D01*
X128925080Y-74939809D01*
X128921177Y-75016411D01*
X128917249Y-75132579D01*
X128913624Y-75278904D01*
X128911092Y-75415805D01*
X128903103Y-75919425D01*
X128727931Y-75919425D01*
X128719893Y-75459965D01*
X128711854Y-75000505D01*
X128626457Y-74956344D01*
X128563407Y-74926019D01*
X128526090Y-74912258D01*
X128525013Y-74912184D01*
X128519876Y-74939840D01*
G36*
X127785594Y-74935156D02*
G01*
X127701531Y-74973393D01*
X127635550Y-75019726D01*
X127587206Y-75071532D01*
X127553828Y-75138363D01*
X127532747Y-75229769D01*
X127521293Y-75355301D01*
X127516797Y-75524508D01*
X127516322Y-75635933D01*
X127516322Y-76070627D01*
X127590684Y-76104509D01*
X127649254Y-76129272D01*
X127678270Y-76138391D01*
X127683821Y-76111257D01*
X127688225Y-76038094D01*
X127690922Y-75931263D01*
X127691494Y-75846437D01*
X127693954Y-75723887D01*
X127700588Y-75626668D01*
X127710274Y-75567134D01*
X127717968Y-75554483D01*
X127769689Y-75567402D01*
X127850883Y-75600539D01*
X127944898Y-75645461D01*
X128035083Y-75693735D01*
X128104785Y-75736928D01*
X128137352Y-75766608D01*
X128137481Y-75766929D01*
X128134680Y-75821857D01*
X128109561Y-75874292D01*
X128065459Y-75916881D01*
X128001091Y-75931126D01*
X127946079Y-75929466D01*
X127868165Y-75928245D01*
X127827268Y-75946498D01*
X127802705Y-75994726D01*
X127799608Y-76003820D01*
X127788960Y-76072598D01*
X127817435Y-76114360D01*
X127891656Y-76134263D01*
X127971832Y-76137944D01*
X128116110Y-76110658D01*
X128190797Y-76071690D01*
X128283037Y-75980148D01*
X128331957Y-75867782D01*
X128336346Y-75749051D01*
X128294999Y-75638411D01*
X128232803Y-75569080D01*
X128170706Y-75530265D01*
X128073105Y-75481125D01*
X127959368Y-75431292D01*
X127940410Y-75423677D01*
X127815479Y-75368545D01*
X127743461Y-75319954D01*
X127720300Y-75271647D01*
X127741936Y-75217370D01*
X127779080Y-75174943D01*
X127866873Y-75122702D01*
X127963470Y-75118784D01*
X128052056Y-75159041D01*
X128115814Y-75239326D01*
X128124183Y-75260040D01*
X128172904Y-75336225D01*
X128244035Y-75392785D01*
X128333793Y-75439201D01*
X128333793Y-75307584D01*
X128328510Y-75227168D01*
X128305858Y-75163786D01*
X128255633Y-75096163D01*
X128207418Y-75044076D01*
X128132446Y-74970322D01*
X128074194Y-74930702D01*
X128011628Y-74914810D01*
X127940807Y-74912184D01*
X127785594Y-74935156D01*
G37*
X127785594Y-74935156D02*
X127701531Y-74973393D01*
X127635550Y-75019726D01*
X127587206Y-75071532D01*
X127553828Y-75138363D01*
X127532747Y-75229769D01*
X127521293Y-75355301D01*
X127516797Y-75524508D01*
X127516322Y-75635933D01*
X127516322Y-76070627D01*
X127590684Y-76104509D01*
X127649254Y-76129272D01*
X127678270Y-76138391D01*
X127683821Y-76111257D01*
X127688225Y-76038094D01*
X127690922Y-75931263D01*
X127691494Y-75846437D01*
X127693954Y-75723887D01*
X127700588Y-75626668D01*
X127710274Y-75567134D01*
X127717968Y-75554483D01*
X127769689Y-75567402D01*
X127850883Y-75600539D01*
X127944898Y-75645461D01*
X128035083Y-75693735D01*
X128104785Y-75736928D01*
X128137352Y-75766608D01*
X128137481Y-75766929D01*
X128134680Y-75821857D01*
X128109561Y-75874292D01*
X128065459Y-75916881D01*
X128001091Y-75931126D01*
X127946079Y-75929466D01*
X127868165Y-75928245D01*
X127827268Y-75946498D01*
X127802705Y-75994726D01*
X127799608Y-76003820D01*
X127788960Y-76072598D01*
X127817435Y-76114360D01*
X127891656Y-76134263D01*
X127971832Y-76137944D01*
X128116110Y-76110658D01*
X128190797Y-76071690D01*
X128283037Y-75980148D01*
X128331957Y-75867782D01*
X128336346Y-75749051D01*
X128294999Y-75638411D01*
X128232803Y-75569080D01*
X128170706Y-75530265D01*
X128073105Y-75481125D01*
X127959368Y-75431292D01*
X127940410Y-75423677D01*
X127815479Y-75368545D01*
X127743461Y-75319954D01*
X127720300Y-75271647D01*
X127741936Y-75217370D01*
X127779080Y-75174943D01*
X127866873Y-75122702D01*
X127963470Y-75118784D01*
X128052056Y-75159041D01*
X128115814Y-75239326D01*
X128124183Y-75260040D01*
X128172904Y-75336225D01*
X128244035Y-75392785D01*
X128333793Y-75439201D01*
X128333793Y-75307584D01*
X128328510Y-75227168D01*
X128305858Y-75163786D01*
X128255633Y-75096163D01*
X128207418Y-75044076D01*
X128132446Y-74970322D01*
X128074194Y-74930702D01*
X128011628Y-74914810D01*
X127940807Y-74912184D01*
X127785594Y-74935156D01*
G36*
X126764310Y-74940018D02*
G01*
X126729415Y-74955269D01*
X126646123Y-75021235D01*
X126574897Y-75116618D01*
X126530847Y-75218406D01*
X126523678Y-75268587D01*
X126547715Y-75338647D01*
X126600439Y-75375717D01*
X126656969Y-75398164D01*
X126682854Y-75402300D01*
X126695458Y-75372283D01*
X126720346Y-75306961D01*
X126731265Y-75277445D01*
X126792492Y-75175348D01*
X126881139Y-75124423D01*
X126994807Y-75125989D01*
X127003226Y-75127994D01*
X127063912Y-75156767D01*
X127108526Y-75212859D01*
X127138998Y-75303163D01*
X127157256Y-75434571D01*
X127165229Y-75613974D01*
X127165977Y-75709433D01*
X127166348Y-75859913D01*
X127168777Y-75962495D01*
X127175240Y-76027672D01*
X127187712Y-76065938D01*
X127208167Y-76087785D01*
X127238581Y-76103707D01*
X127240339Y-76104509D01*
X127298909Y-76129272D01*
X127327925Y-76138391D01*
X127332384Y-76110822D01*
X127336201Y-76034620D01*
X127339101Y-75919541D01*
X127340809Y-75775341D01*
X127341149Y-75669814D01*
X127339412Y-75465613D01*
X127332618Y-75310697D01*
X127318393Y-75196024D01*
X127294362Y-75112551D01*
X127258152Y-75051236D01*
X127207388Y-75003034D01*
X127157261Y-74969393D01*
X127036725Y-74924619D01*
X126896443Y-74914521D01*
X126764310Y-74940018D01*
G37*
X126764310Y-74940018D02*
X126729415Y-74955269D01*
X126646123Y-75021235D01*
X126574897Y-75116618D01*
X126530847Y-75218406D01*
X126523678Y-75268587D01*
X126547715Y-75338647D01*
X126600439Y-75375717D01*
X126656969Y-75398164D01*
X126682854Y-75402300D01*
X126695458Y-75372283D01*
X126720346Y-75306961D01*
X126731265Y-75277445D01*
X126792492Y-75175348D01*
X126881139Y-75124423D01*
X126994807Y-75125989D01*
X127003226Y-75127994D01*
X127063912Y-75156767D01*
X127108526Y-75212859D01*
X127138998Y-75303163D01*
X127157256Y-75434571D01*
X127165229Y-75613974D01*
X127165977Y-75709433D01*
X127166348Y-75859913D01*
X127168777Y-75962495D01*
X127175240Y-76027672D01*
X127187712Y-76065938D01*
X127208167Y-76087785D01*
X127238581Y-76103707D01*
X127240339Y-76104509D01*
X127298909Y-76129272D01*
X127327925Y-76138391D01*
X127332384Y-76110822D01*
X127336201Y-76034620D01*
X127339101Y-75919541D01*
X127340809Y-75775341D01*
X127341149Y-75669814D01*
X127339412Y-75465613D01*
X127332618Y-75310697D01*
X127318393Y-75196024D01*
X127294362Y-75112551D01*
X127258152Y-75051236D01*
X127207388Y-75003034D01*
X127157261Y-74969393D01*
X127036725Y-74924619D01*
X126896443Y-74914521D01*
X126764310Y-74940018D01*
G36*
X125756561Y-74956540D02*
G01*
X125641050Y-75032034D01*
X125585336Y-75099617D01*
X125541196Y-75222255D01*
X125537691Y-75319298D01*
X125545632Y-75449056D01*
X125844885Y-75580039D01*
X125990389Y-75646958D01*
X126085463Y-75700790D01*
X126134899Y-75747416D01*
X126143489Y-75792720D01*
X126116028Y-75842582D01*
X126085747Y-75875632D01*
X125997637Y-75928633D01*
X125901804Y-75932347D01*
X125813788Y-75891041D01*
X125749131Y-75808983D01*
X125737567Y-75780008D01*
X125682175Y-75689509D01*
X125618447Y-75650940D01*
X125531034Y-75617946D01*
X125531034Y-75743034D01*
X125538762Y-75828156D01*
X125569034Y-75899938D01*
X125632482Y-75982356D01*
X125641912Y-75993066D01*
X125712487Y-76066391D01*
X125773153Y-76105742D01*
X125849050Y-76123845D01*
X125911970Y-76129774D01*
X126024513Y-76131251D01*
X126104630Y-76112535D01*
X126154610Y-76084747D01*
X126233162Y-76023641D01*
X126287537Y-75957554D01*
X126321948Y-75874441D01*
X126340612Y-75762254D01*
X126347744Y-75608946D01*
X126348313Y-75531136D01*
X126346378Y-75437853D01*
X126170101Y-75437853D01*
X126168056Y-75487896D01*
X126162961Y-75496092D01*
X126129334Y-75484958D01*
X126056970Y-75455493D01*
X125960253Y-75413601D01*
X125940027Y-75404597D01*
X125817797Y-75342442D01*
X125750453Y-75287815D01*
X125735652Y-75236649D01*
X125771053Y-75184876D01*
X125800289Y-75162000D01*
X125905784Y-75116250D01*
X126004524Y-75123808D01*
X126087188Y-75179651D01*
X126144452Y-75278753D01*
X126162812Y-75357414D01*
X126170101Y-75437853D01*
X126346378Y-75437853D01*
X126344541Y-75349351D01*
X126330641Y-75214853D01*
X126303106Y-75116916D01*
X126258428Y-75044811D01*
X126193099Y-74987813D01*
X126164617Y-74969393D01*
X126035237Y-74921422D01*
X125893588Y-74918403D01*
X125756561Y-74956540D01*
G37*
X125756561Y-74956540D02*
X125641050Y-75032034D01*
X125585336Y-75099617D01*
X125541196Y-75222255D01*
X125537691Y-75319298D01*
X125545632Y-75449056D01*
X125844885Y-75580039D01*
X125990389Y-75646958D01*
X126085463Y-75700790D01*
X126134899Y-75747416D01*
X126143489Y-75792720D01*
X126116028Y-75842582D01*
X126085747Y-75875632D01*
X125997637Y-75928633D01*
X125901804Y-75932347D01*
X125813788Y-75891041D01*
X125749131Y-75808983D01*
X125737567Y-75780008D01*
X125682175Y-75689509D01*
X125618447Y-75650940D01*
X125531034Y-75617946D01*
X125531034Y-75743034D01*
X125538762Y-75828156D01*
X125569034Y-75899938D01*
X125632482Y-75982356D01*
X125641912Y-75993066D01*
X125712487Y-76066391D01*
X125773153Y-76105742D01*
X125849050Y-76123845D01*
X125911970Y-76129774D01*
X126024513Y-76131251D01*
X126104630Y-76112535D01*
X126154610Y-76084747D01*
X126233162Y-76023641D01*
X126287537Y-75957554D01*
X126321948Y-75874441D01*
X126340612Y-75762254D01*
X126347744Y-75608946D01*
X126348313Y-75531136D01*
X126346378Y-75437853D01*
X126170101Y-75437853D01*
X126168056Y-75487896D01*
X126162961Y-75496092D01*
X126129334Y-75484958D01*
X126056970Y-75455493D01*
X125960253Y-75413601D01*
X125940027Y-75404597D01*
X125817797Y-75342442D01*
X125750453Y-75287815D01*
X125735652Y-75236649D01*
X125771053Y-75184876D01*
X125800289Y-75162000D01*
X125905784Y-75116250D01*
X126004524Y-75123808D01*
X126087188Y-75179651D01*
X126144452Y-75278753D01*
X126162812Y-75357414D01*
X126170101Y-75437853D01*
X126346378Y-75437853D01*
X126344541Y-75349351D01*
X126330641Y-75214853D01*
X126303106Y-75116916D01*
X126258428Y-75044811D01*
X126193099Y-74987813D01*
X126164617Y-74969393D01*
X126035237Y-74921422D01*
X125893588Y-74918403D01*
X125756561Y-74956540D01*
G36*
X131890986Y-65452998D02*
G01*
X131732994Y-65453863D01*
X131618653Y-65456205D01*
X131540593Y-65460762D01*
X131491446Y-65468270D01*
X131463841Y-65479466D01*
X131450408Y-65495088D01*
X131443779Y-65515873D01*
X131443135Y-65518563D01*
X131433065Y-65567113D01*
X131414425Y-65662905D01*
X131389155Y-65795743D01*
X131359193Y-65955431D01*
X131326478Y-66131774D01*
X131325336Y-66137967D01*
X131292567Y-66310782D01*
X131261907Y-66463469D01*
X131235336Y-66586871D01*
X131214833Y-66671831D01*
X131202374Y-66709190D01*
X131201780Y-66709852D01*
X131165081Y-66728095D01*
X131089414Y-66758497D01*
X130991122Y-66794493D01*
X130990575Y-66794685D01*
X130866767Y-66841222D01*
X130720804Y-66900504D01*
X130583219Y-66960109D01*
X130576707Y-66963056D01*
X130352610Y-67064765D01*
X129856381Y-66725897D01*
X129704154Y-66622592D01*
X129566259Y-66530237D01*
X129450685Y-66454084D01*
X129365421Y-66399385D01*
X129318456Y-66371393D01*
X129313996Y-66369317D01*
X129279866Y-66378560D01*
X129216119Y-66423156D01*
X129120269Y-66505209D01*
X128989831Y-66626821D01*
X128856672Y-66756205D01*
X128728306Y-66883702D01*
X128613419Y-67000046D01*
X128518927Y-67098052D01*
X128451747Y-67170536D01*
X128418794Y-67210313D01*
X128417568Y-67212361D01*
X128413926Y-67239656D01*
X128427650Y-67284234D01*
X128462131Y-67352112D01*
X128520761Y-67449311D01*
X128606930Y-67581851D01*
X128721800Y-67752476D01*
X128823746Y-67902655D01*
X128914877Y-68037350D01*
X128989927Y-68148740D01*
X129043631Y-68229005D01*
X129070720Y-68270325D01*
X129072426Y-68273130D01*
X129069118Y-68312721D01*
X129044047Y-68389669D01*
X129002202Y-68489432D01*
X128987288Y-68521291D01*
X128922214Y-68663226D01*
X128852788Y-68824273D01*
X128796391Y-68963621D01*
X128755753Y-69067044D01*
X128723474Y-69145642D01*
X128704822Y-69186720D01*
X128702503Y-69189885D01*
X128668197Y-69195128D01*
X128587331Y-69209494D01*
X128470657Y-69230937D01*
X128328925Y-69257413D01*
X128172890Y-69286877D01*
X128013302Y-69317283D01*
X127860915Y-69346588D01*
X127726479Y-69372745D01*
X127620748Y-69393710D01*
X127554474Y-69407439D01*
X127538218Y-69411320D01*
X127521427Y-69420900D01*
X127508751Y-69442536D01*
X127499622Y-69483531D01*
X127493469Y-69551189D01*
X127489720Y-69652812D01*
X127487808Y-69795703D01*
X127487160Y-69987165D01*
X127487126Y-70065645D01*
X127487126Y-70703906D01*
X127640402Y-70734160D01*
X127725678Y-70750564D01*
X127852930Y-70774509D01*
X128006685Y-70803107D01*
X128171466Y-70833467D01*
X128217011Y-70841806D01*
X128369068Y-70871370D01*
X128501532Y-70900442D01*
X128603286Y-70926329D01*
X128663212Y-70946337D01*
X128673195Y-70952301D01*
X128697707Y-70994534D01*
X128732852Y-71076370D01*
X128771827Y-71181683D01*
X128779558Y-71204368D01*
X128830640Y-71345018D01*
X128894046Y-71503714D01*
X128956096Y-71646225D01*
X128956402Y-71646886D01*
X129059733Y-71870440D01*
X128380039Y-72870232D01*
X128816379Y-73307300D01*
X128948351Y-73437381D01*
X129068721Y-73552048D01*
X129170727Y-73645181D01*
X129247609Y-73710658D01*
X129292607Y-73742357D01*
X129299062Y-73744368D01*
X129336960Y-73728529D01*
X129414292Y-73684496D01*
X129522611Y-73617490D01*
X129653468Y-73532734D01*
X129794948Y-73437816D01*
X129938539Y-73340998D01*
X130066565Y-73256751D01*
X130170895Y-73190258D01*
X130243400Y-73146702D01*
X130275842Y-73131264D01*
X130315424Y-73144328D01*
X130390481Y-73178750D01*
X130485532Y-73227380D01*
X130495608Y-73232785D01*
X130623609Y-73296980D01*
X130711382Y-73328463D01*
X130765972Y-73328798D01*
X130794425Y-73299548D01*
X130794590Y-73299138D01*
X130808812Y-73264498D01*
X130842731Y-73182269D01*
X130893716Y-73058814D01*
X130959138Y-72900498D01*
X131036366Y-72713686D01*
X131122771Y-72504742D01*
X131206449Y-72302446D01*
X131298412Y-72079200D01*
X131382850Y-71872392D01*
X131457231Y-71688362D01*
X131519026Y-71533451D01*
X131565703Y-71413996D01*
X131594732Y-71336339D01*
X131603678Y-71307356D01*
X131581244Y-71274110D01*
X131522561Y-71221123D01*
X131444311Y-71162704D01*
X131221466Y-70977952D01*
X131047282Y-70766182D01*
X130923846Y-70531856D01*
X130853246Y-70279434D01*
X130837569Y-70013377D01*
X130848964Y-69890575D01*
X130911050Y-69635793D01*
X131017977Y-69410801D01*
X131163111Y-69217817D01*
X131339822Y-69059061D01*
X131541478Y-68936750D01*
X131761446Y-68853105D01*
X131993094Y-68810344D01*
X132229791Y-68810687D01*
X132464905Y-68856352D01*
X132691804Y-68949559D01*
X132903856Y-69092527D01*
X132992364Y-69173383D01*
X133162111Y-69381007D01*
X133280301Y-69607895D01*
X133347722Y-69847433D01*
X133365160Y-70093007D01*
X133333402Y-70338003D01*
X133253235Y-70575808D01*
X133125445Y-70799807D01*
X132950820Y-71003387D01*
X132755688Y-71162704D01*
X132674409Y-71223602D01*
X132616991Y-71276015D01*
X132596322Y-71307406D01*
X132607144Y-71341639D01*
X132637923Y-71423419D01*
X132686126Y-71546407D01*
X132749222Y-71704263D01*
X132824678Y-71890649D01*
X132909962Y-72099226D01*
X132993781Y-72302496D01*
X133086255Y-72525933D01*
X133171911Y-72732984D01*
X133248118Y-72917286D01*
X133312247Y-73072475D01*
X133361668Y-73192188D01*
X133393752Y-73270061D01*
X133405641Y-73299138D01*
X133433726Y-73328677D01*
X133488051Y-73328591D01*
X133575605Y-73297326D01*
X133703381Y-73233329D01*
X133704392Y-73232785D01*
X133800598Y-73183121D01*
X133878369Y-73146945D01*
X133922223Y-73131408D01*
X133924158Y-73131264D01*
X133957171Y-73147024D01*
X134030054Y-73190850D01*
X134134678Y-73257557D01*
X134262910Y-73341964D01*
X134405052Y-73437816D01*
X134549767Y-73534867D01*
X134680196Y-73619270D01*
X134787890Y-73685801D01*
X134864402Y-73729238D01*
X134900938Y-73744368D01*
X134934582Y-73724482D01*
X135002224Y-73668903D01*
X135097107Y-73583754D01*
X135212470Y-73475153D01*
X135341555Y-73349221D01*
X135383771Y-73307149D01*
X135820261Y-72869931D01*
X135488023Y-72382340D01*
X135387054Y-72232605D01*
X135298438Y-72098220D01*
X135227146Y-71986969D01*
X135178150Y-71906639D01*
X135156422Y-71865014D01*
X135155785Y-71862053D01*
X135167240Y-71822818D01*
X135198051Y-71743895D01*
X135242884Y-71638509D01*
X135274353Y-71567954D01*
X135333192Y-71432876D01*
X135388604Y-71296409D01*
X135431564Y-71181103D01*
X135443234Y-71145977D01*
X135476389Y-71052174D01*
X135508799Y-70979694D01*
X135526601Y-70952301D01*
X135565886Y-70935536D01*
X135651626Y-70911770D01*
X135772697Y-70883697D01*
X135917973Y-70854009D01*
X135982988Y-70841806D01*
X136148087Y-70811468D01*
X136306448Y-70782093D01*
X136442596Y-70756569D01*
X136541057Y-70737785D01*
X136559598Y-70734160D01*
X136712873Y-70703906D01*
X136712873Y-70065645D01*
X136712529Y-69855770D01*
X136711116Y-69696980D01*
X136708064Y-69581973D01*
X136702803Y-69503446D01*
X136694763Y-69454096D01*
X136683373Y-69426619D01*
X136668063Y-69413713D01*
X136661782Y-69411320D01*
X136623896Y-69402833D01*
X136540195Y-69385900D01*
X136421433Y-69362566D01*
X136278361Y-69334875D01*
X136121732Y-69304873D01*
X135962297Y-69274604D01*
X135810809Y-69246115D01*
X135678019Y-69221449D01*
X135574681Y-69202651D01*
X135511545Y-69191767D01*
X135497497Y-69189885D01*
X135484770Y-69164704D01*
X135456600Y-69097622D01*
X135418252Y-69001333D01*
X135403609Y-68963621D01*
X135344548Y-68817921D01*
X135275000Y-68656951D01*
X135212712Y-68521291D01*
X135166879Y-68417561D01*
X135136387Y-68332326D01*
X135126208Y-68280126D01*
X135127831Y-68273130D01*
X135149343Y-68240102D01*
X135198465Y-68166643D01*
X135269923Y-68060577D01*
X135358445Y-67929726D01*
X135458759Y-67781912D01*
X135478594Y-67752734D01*
X135594988Y-67579863D01*
X135680548Y-67448226D01*
X135738684Y-67351761D01*
X135772808Y-67284408D01*
X135786331Y-67240106D01*
X135782664Y-67212794D01*
X135782570Y-67212620D01*
X135753707Y-67176746D01*
X135689867Y-67107391D01*
X135597969Y-67011745D01*
X135484933Y-66896999D01*
X135357679Y-66770341D01*
X135343328Y-66756205D01*
X135182957Y-66600903D01*
X135059195Y-66486870D01*
X134969555Y-66412002D01*
X134911552Y-66374196D01*
X134886004Y-66369317D01*
X134848718Y-66390603D01*
X134771343Y-66439773D01*
X134661867Y-66511575D01*
X134528280Y-66600755D01*
X134378570Y-66702063D01*
X134343618Y-66725897D01*
X133847390Y-67064765D01*
X133623293Y-66963056D01*
X133487011Y-66903783D01*
X133340724Y-66844170D01*
X133214965Y-66796640D01*
X133209425Y-66794685D01*
X133111057Y-66758677D01*
X133035229Y-66728229D01*
X132998282Y-66709905D01*
X132998220Y-66709852D01*
X132986496Y-66676729D01*
X132966568Y-66595267D01*
X132940413Y-66474625D01*
X132910010Y-66323959D01*
X132877337Y-66152428D01*
X132874664Y-66137967D01*
X132841890Y-65961235D01*
X132811802Y-65800810D01*
X132786339Y-65666888D01*
X132767441Y-65569663D01*
X132757047Y-65519332D01*
X132756865Y-65518563D01*
X132750539Y-65497153D01*
X132738239Y-65480988D01*
X132712594Y-65469331D01*
X132666235Y-65461445D01*
X132591792Y-65456593D01*
X132481895Y-65454039D01*
X132329175Y-65453045D01*
X132126262Y-65452874D01*
X132100000Y-65452874D01*
X131890986Y-65452998D01*
G37*
X131890986Y-65452998D02*
X131732994Y-65453863D01*
X131618653Y-65456205D01*
X131540593Y-65460762D01*
X131491446Y-65468270D01*
X131463841Y-65479466D01*
X131450408Y-65495088D01*
X131443779Y-65515873D01*
X131443135Y-65518563D01*
X131433065Y-65567113D01*
X131414425Y-65662905D01*
X131389155Y-65795743D01*
X131359193Y-65955431D01*
X131326478Y-66131774D01*
X131325336Y-66137967D01*
X131292567Y-66310782D01*
X131261907Y-66463469D01*
X131235336Y-66586871D01*
X131214833Y-66671831D01*
X131202374Y-66709190D01*
X131201780Y-66709852D01*
X131165081Y-66728095D01*
X131089414Y-66758497D01*
X130991122Y-66794493D01*
X130990575Y-66794685D01*
X130866767Y-66841222D01*
X130720804Y-66900504D01*
X130583219Y-66960109D01*
X130576707Y-66963056D01*
X130352610Y-67064765D01*
X129856381Y-66725897D01*
X129704154Y-66622592D01*
X129566259Y-66530237D01*
X129450685Y-66454084D01*
X129365421Y-66399385D01*
X129318456Y-66371393D01*
X129313996Y-66369317D01*
X129279866Y-66378560D01*
X129216119Y-66423156D01*
X129120269Y-66505209D01*
X128989831Y-66626821D01*
X128856672Y-66756205D01*
X128728306Y-66883702D01*
X128613419Y-67000046D01*
X128518927Y-67098052D01*
X128451747Y-67170536D01*
X128418794Y-67210313D01*
X128417568Y-67212361D01*
X128413926Y-67239656D01*
X128427650Y-67284234D01*
X128462131Y-67352112D01*
X128520761Y-67449311D01*
X128606930Y-67581851D01*
X128721800Y-67752476D01*
X128823746Y-67902655D01*
X128914877Y-68037350D01*
X128989927Y-68148740D01*
X129043631Y-68229005D01*
X129070720Y-68270325D01*
X129072426Y-68273130D01*
X129069118Y-68312721D01*
X129044047Y-68389669D01*
X129002202Y-68489432D01*
X128987288Y-68521291D01*
X128922214Y-68663226D01*
X128852788Y-68824273D01*
X128796391Y-68963621D01*
X128755753Y-69067044D01*
X128723474Y-69145642D01*
X128704822Y-69186720D01*
X128702503Y-69189885D01*
X128668197Y-69195128D01*
X128587331Y-69209494D01*
X128470657Y-69230937D01*
X128328925Y-69257413D01*
X128172890Y-69286877D01*
X128013302Y-69317283D01*
X127860915Y-69346588D01*
X127726479Y-69372745D01*
X127620748Y-69393710D01*
X127554474Y-69407439D01*
X127538218Y-69411320D01*
X127521427Y-69420900D01*
X127508751Y-69442536D01*
X127499622Y-69483531D01*
X127493469Y-69551189D01*
X127489720Y-69652812D01*
X127487808Y-69795703D01*
X127487160Y-69987165D01*
X127487126Y-70065645D01*
X127487126Y-70703906D01*
X127640402Y-70734160D01*
X127725678Y-70750564D01*
X127852930Y-70774509D01*
X128006685Y-70803107D01*
X128171466Y-70833467D01*
X128217011Y-70841806D01*
X128369068Y-70871370D01*
X128501532Y-70900442D01*
X128603286Y-70926329D01*
X128663212Y-70946337D01*
X128673195Y-70952301D01*
X128697707Y-70994534D01*
X128732852Y-71076370D01*
X128771827Y-71181683D01*
X128779558Y-71204368D01*
X128830640Y-71345018D01*
X128894046Y-71503714D01*
X128956096Y-71646225D01*
X128956402Y-71646886D01*
X129059733Y-71870440D01*
X128380039Y-72870232D01*
X128816379Y-73307300D01*
X128948351Y-73437381D01*
X129068721Y-73552048D01*
X129170727Y-73645181D01*
X129247609Y-73710658D01*
X129292607Y-73742357D01*
X129299062Y-73744368D01*
X129336960Y-73728529D01*
X129414292Y-73684496D01*
X129522611Y-73617490D01*
X129653468Y-73532734D01*
X129794948Y-73437816D01*
X129938539Y-73340998D01*
X130066565Y-73256751D01*
X130170895Y-73190258D01*
X130243400Y-73146702D01*
X130275842Y-73131264D01*
X130315424Y-73144328D01*
X130390481Y-73178750D01*
X130485532Y-73227380D01*
X130495608Y-73232785D01*
X130623609Y-73296980D01*
X130711382Y-73328463D01*
X130765972Y-73328798D01*
X130794425Y-73299548D01*
X130794590Y-73299138D01*
X130808812Y-73264498D01*
X130842731Y-73182269D01*
X130893716Y-73058814D01*
X130959138Y-72900498D01*
X131036366Y-72713686D01*
X131122771Y-72504742D01*
X131206449Y-72302446D01*
X131298412Y-72079200D01*
X131382850Y-71872392D01*
X131457231Y-71688362D01*
X131519026Y-71533451D01*
X131565703Y-71413996D01*
X131594732Y-71336339D01*
X131603678Y-71307356D01*
X131581244Y-71274110D01*
X131522561Y-71221123D01*
X131444311Y-71162704D01*
X131221466Y-70977952D01*
X131047282Y-70766182D01*
X130923846Y-70531856D01*
X130853246Y-70279434D01*
X130837569Y-70013377D01*
X130848964Y-69890575D01*
X130911050Y-69635793D01*
X131017977Y-69410801D01*
X131163111Y-69217817D01*
X131339822Y-69059061D01*
X131541478Y-68936750D01*
X131761446Y-68853105D01*
X131993094Y-68810344D01*
X132229791Y-68810687D01*
X132464905Y-68856352D01*
X132691804Y-68949559D01*
X132903856Y-69092527D01*
X132992364Y-69173383D01*
X133162111Y-69381007D01*
X133280301Y-69607895D01*
X133347722Y-69847433D01*
X133365160Y-70093007D01*
X133333402Y-70338003D01*
X133253235Y-70575808D01*
X133125445Y-70799807D01*
X132950820Y-71003387D01*
X132755688Y-71162704D01*
X132674409Y-71223602D01*
X132616991Y-71276015D01*
X132596322Y-71307406D01*
X132607144Y-71341639D01*
X132637923Y-71423419D01*
X132686126Y-71546407D01*
X132749222Y-71704263D01*
X132824678Y-71890649D01*
X132909962Y-72099226D01*
X132993781Y-72302496D01*
X133086255Y-72525933D01*
X133171911Y-72732984D01*
X133248118Y-72917286D01*
X133312247Y-73072475D01*
X133361668Y-73192188D01*
X133393752Y-73270061D01*
X133405641Y-73299138D01*
X133433726Y-73328677D01*
X133488051Y-73328591D01*
X133575605Y-73297326D01*
X133703381Y-73233329D01*
X133704392Y-73232785D01*
X133800598Y-73183121D01*
X133878369Y-73146945D01*
X133922223Y-73131408D01*
X133924158Y-73131264D01*
X133957171Y-73147024D01*
X134030054Y-73190850D01*
X134134678Y-73257557D01*
X134262910Y-73341964D01*
X134405052Y-73437816D01*
X134549767Y-73534867D01*
X134680196Y-73619270D01*
X134787890Y-73685801D01*
X134864402Y-73729238D01*
X134900938Y-73744368D01*
X134934582Y-73724482D01*
X135002224Y-73668903D01*
X135097107Y-73583754D01*
X135212470Y-73475153D01*
X135341555Y-73349221D01*
X135383771Y-73307149D01*
X135820261Y-72869931D01*
X135488023Y-72382340D01*
X135387054Y-72232605D01*
X135298438Y-72098220D01*
X135227146Y-71986969D01*
X135178150Y-71906639D01*
X135156422Y-71865014D01*
X135155785Y-71862053D01*
X135167240Y-71822818D01*
X135198051Y-71743895D01*
X135242884Y-71638509D01*
X135274353Y-71567954D01*
X135333192Y-71432876D01*
X135388604Y-71296409D01*
X135431564Y-71181103D01*
X135443234Y-71145977D01*
X135476389Y-71052174D01*
X135508799Y-70979694D01*
X135526601Y-70952301D01*
X135565886Y-70935536D01*
X135651626Y-70911770D01*
X135772697Y-70883697D01*
X135917973Y-70854009D01*
X135982988Y-70841806D01*
X136148087Y-70811468D01*
X136306448Y-70782093D01*
X136442596Y-70756569D01*
X136541057Y-70737785D01*
X136559598Y-70734160D01*
X136712873Y-70703906D01*
X136712873Y-70065645D01*
X136712529Y-69855770D01*
X136711116Y-69696980D01*
X136708064Y-69581973D01*
X136702803Y-69503446D01*
X136694763Y-69454096D01*
X136683373Y-69426619D01*
X136668063Y-69413713D01*
X136661782Y-69411320D01*
X136623896Y-69402833D01*
X136540195Y-69385900D01*
X136421433Y-69362566D01*
X136278361Y-69334875D01*
X136121732Y-69304873D01*
X135962297Y-69274604D01*
X135810809Y-69246115D01*
X135678019Y-69221449D01*
X135574681Y-69202651D01*
X135511545Y-69191767D01*
X135497497Y-69189885D01*
X135484770Y-69164704D01*
X135456600Y-69097622D01*
X135418252Y-69001333D01*
X135403609Y-68963621D01*
X135344548Y-68817921D01*
X135275000Y-68656951D01*
X135212712Y-68521291D01*
X135166879Y-68417561D01*
X135136387Y-68332326D01*
X135126208Y-68280126D01*
X135127831Y-68273130D01*
X135149343Y-68240102D01*
X135198465Y-68166643D01*
X135269923Y-68060577D01*
X135358445Y-67929726D01*
X135458759Y-67781912D01*
X135478594Y-67752734D01*
X135594988Y-67579863D01*
X135680548Y-67448226D01*
X135738684Y-67351761D01*
X135772808Y-67284408D01*
X135786331Y-67240106D01*
X135782664Y-67212794D01*
X135782570Y-67212620D01*
X135753707Y-67176746D01*
X135689867Y-67107391D01*
X135597969Y-67011745D01*
X135484933Y-66896999D01*
X135357679Y-66770341D01*
X135343328Y-66756205D01*
X135182957Y-66600903D01*
X135059195Y-66486870D01*
X134969555Y-66412002D01*
X134911552Y-66374196D01*
X134886004Y-66369317D01*
X134848718Y-66390603D01*
X134771343Y-66439773D01*
X134661867Y-66511575D01*
X134528280Y-66600755D01*
X134378570Y-66702063D01*
X134343618Y-66725897D01*
X133847390Y-67064765D01*
X133623293Y-66963056D01*
X133487011Y-66903783D01*
X133340724Y-66844170D01*
X133214965Y-66796640D01*
X133209425Y-66794685D01*
X133111057Y-66758677D01*
X133035229Y-66728229D01*
X132998282Y-66709905D01*
X132998220Y-66709852D01*
X132986496Y-66676729D01*
X132966568Y-66595267D01*
X132940413Y-66474625D01*
X132910010Y-66323959D01*
X132877337Y-66152428D01*
X132874664Y-66137967D01*
X132841890Y-65961235D01*
X132811802Y-65800810D01*
X132786339Y-65666888D01*
X132767441Y-65569663D01*
X132757047Y-65519332D01*
X132756865Y-65518563D01*
X132750539Y-65497153D01*
X132738239Y-65480988D01*
X132712594Y-65469331D01*
X132666235Y-65461445D01*
X132591792Y-65456593D01*
X132481895Y-65454039D01*
X132329175Y-65453045D01*
X132126262Y-65452874D01*
X132100000Y-65452874D01*
X131890986Y-65452998D01*
M02*
