G04 #@! TF.GenerationSoftware,KiCad,Pcbnew,5.1.9*
G04 #@! TF.CreationDate,2021-01-31T09:53:20+01:00*
G04 #@! TF.ProjectId,blueled,626c7565-6c65-4642-9e6b-696361645f70,rev?*
G04 #@! TF.SameCoordinates,Original*
G04 #@! TF.FileFunction,Soldermask,Top*
G04 #@! TF.FilePolarity,Negative*
%FSLAX46Y46*%
G04 Gerber Fmt 4.6, Leading zero omitted, Abs format (unit mm)*
G04 Created by KiCad (PCBNEW 5.1.9) date 2021-01-31 09:53:20*
%MOMM*%
%LPD*%
G01*
G04 APERTURE LIST*
%ADD10C,3.102000*%
%ADD11O,1.802000X1.802000*%
%ADD12C,1.102000*%
%ADD13C,1.502000*%
%ADD14C,3.302000*%
%ADD15C,0.100000*%
G04 APERTURE END LIST*
G36*
G01*
X153499000Y-118600000D02*
X153499000Y-117800000D01*
G75*
G02*
X153550000Y-117749000I51000J0D01*
G01*
X154450000Y-117749000D01*
G75*
G02*
X154501000Y-117800000I0J-51000D01*
G01*
X154501000Y-118600000D01*
G75*
G02*
X154450000Y-118651000I-51000J0D01*
G01*
X153550000Y-118651000D01*
G75*
G02*
X153499000Y-118600000I0J51000D01*
G01*
G37*
G36*
G01*
X151499000Y-119550000D02*
X151499000Y-118750000D01*
G75*
G02*
X151550000Y-118699000I51000J0D01*
G01*
X152450000Y-118699000D01*
G75*
G02*
X152501000Y-118750000I0J-51000D01*
G01*
X152501000Y-119550000D01*
G75*
G02*
X152450000Y-119601000I-51000J0D01*
G01*
X151550000Y-119601000D01*
G75*
G02*
X151499000Y-119550000I0J51000D01*
G01*
G37*
G36*
G01*
X151499000Y-117650000D02*
X151499000Y-116850000D01*
G75*
G02*
X151550000Y-116799000I51000J0D01*
G01*
X152450000Y-116799000D01*
G75*
G02*
X152501000Y-116850000I0J-51000D01*
G01*
X152501000Y-117650000D01*
G75*
G02*
X152450000Y-117701000I-51000J0D01*
G01*
X151550000Y-117701000D01*
G75*
G02*
X151499000Y-117650000I0J51000D01*
G01*
G37*
G36*
G01*
X149500800Y-125691000D02*
X147419200Y-125691000D01*
G75*
G02*
X147159000Y-125430800I0J260200D01*
G01*
X147159000Y-121849200D01*
G75*
G02*
X147419200Y-121589000I260200J0D01*
G01*
X149500800Y-121589000D01*
G75*
G02*
X149761000Y-121849200I0J-260200D01*
G01*
X149761000Y-125430800D01*
G75*
G02*
X149500800Y-125691000I-260200J0D01*
G01*
G37*
G36*
G01*
X149500800Y-133691000D02*
X147419200Y-133691000D01*
G75*
G02*
X147159000Y-133430800I0J260200D01*
G01*
X147159000Y-129849200D01*
G75*
G02*
X147419200Y-129589000I260200J0D01*
G01*
X149500800Y-129589000D01*
G75*
G02*
X149761000Y-129849200I0J-260200D01*
G01*
X149761000Y-133430800D01*
G75*
G02*
X149500800Y-133691000I-260200J0D01*
G01*
G37*
G36*
G01*
X128851001Y-127144001D02*
X130301001Y-127144001D01*
G75*
G02*
X130352001Y-127195001I0J-51000D01*
G01*
X130352001Y-127645001D01*
G75*
G02*
X130301001Y-127696001I-51000J0D01*
G01*
X128851001Y-127696001D01*
G75*
G02*
X128800001Y-127645001I0J51000D01*
G01*
X128800001Y-127195001D01*
G75*
G02*
X128851001Y-127144001I51000J0D01*
G01*
G37*
G36*
G01*
X128851001Y-127794001D02*
X130301001Y-127794001D01*
G75*
G02*
X130352001Y-127845001I0J-51000D01*
G01*
X130352001Y-128295001D01*
G75*
G02*
X130301001Y-128346001I-51000J0D01*
G01*
X128851001Y-128346001D01*
G75*
G02*
X128800001Y-128295001I0J51000D01*
G01*
X128800001Y-127845001D01*
G75*
G02*
X128851001Y-127794001I51000J0D01*
G01*
G37*
G36*
G01*
X128851001Y-128444001D02*
X130301001Y-128444001D01*
G75*
G02*
X130352001Y-128495001I0J-51000D01*
G01*
X130352001Y-128945001D01*
G75*
G02*
X130301001Y-128996001I-51000J0D01*
G01*
X128851001Y-128996001D01*
G75*
G02*
X128800001Y-128945001I0J51000D01*
G01*
X128800001Y-128495001D01*
G75*
G02*
X128851001Y-128444001I51000J0D01*
G01*
G37*
G36*
G01*
X128851001Y-129094001D02*
X130301001Y-129094001D01*
G75*
G02*
X130352001Y-129145001I0J-51000D01*
G01*
X130352001Y-129595001D01*
G75*
G02*
X130301001Y-129646001I-51000J0D01*
G01*
X128851001Y-129646001D01*
G75*
G02*
X128800001Y-129595001I0J51000D01*
G01*
X128800001Y-129145001D01*
G75*
G02*
X128851001Y-129094001I51000J0D01*
G01*
G37*
G36*
G01*
X133251001Y-129094001D02*
X134701001Y-129094001D01*
G75*
G02*
X134752001Y-129145001I0J-51000D01*
G01*
X134752001Y-129595001D01*
G75*
G02*
X134701001Y-129646001I-51000J0D01*
G01*
X133251001Y-129646001D01*
G75*
G02*
X133200001Y-129595001I0J51000D01*
G01*
X133200001Y-129145001D01*
G75*
G02*
X133251001Y-129094001I51000J0D01*
G01*
G37*
G36*
G01*
X133251001Y-128444001D02*
X134701001Y-128444001D01*
G75*
G02*
X134752001Y-128495001I0J-51000D01*
G01*
X134752001Y-128945001D01*
G75*
G02*
X134701001Y-128996001I-51000J0D01*
G01*
X133251001Y-128996001D01*
G75*
G02*
X133200001Y-128945001I0J51000D01*
G01*
X133200001Y-128495001D01*
G75*
G02*
X133251001Y-128444001I51000J0D01*
G01*
G37*
G36*
G01*
X133251001Y-127794001D02*
X134701001Y-127794001D01*
G75*
G02*
X134752001Y-127845001I0J-51000D01*
G01*
X134752001Y-128295001D01*
G75*
G02*
X134701001Y-128346001I-51000J0D01*
G01*
X133251001Y-128346001D01*
G75*
G02*
X133200001Y-128295001I0J51000D01*
G01*
X133200001Y-127845001D01*
G75*
G02*
X133251001Y-127794001I51000J0D01*
G01*
G37*
G36*
G01*
X133251001Y-127144001D02*
X134701001Y-127144001D01*
G75*
G02*
X134752001Y-127195001I0J-51000D01*
G01*
X134752001Y-127645001D01*
G75*
G02*
X134701001Y-127696001I-51000J0D01*
G01*
X133251001Y-127696001D01*
G75*
G02*
X133200001Y-127645001I0J51000D01*
G01*
X133200001Y-127195001D01*
G75*
G02*
X133251001Y-127144001I51000J0D01*
G01*
G37*
G36*
G01*
X130576001Y-127144001D02*
X132976001Y-127144001D01*
G75*
G02*
X133027001Y-127195001I0J-51000D01*
G01*
X133027001Y-129595001D01*
G75*
G02*
X132976001Y-129646001I-51000J0D01*
G01*
X130576001Y-129646001D01*
G75*
G02*
X130525001Y-129595001I0J51000D01*
G01*
X130525001Y-127195001D01*
G75*
G02*
X130576001Y-127144001I51000J0D01*
G01*
G37*
G36*
G01*
X141400001Y-117651000D02*
X135599999Y-117651000D01*
G75*
G02*
X135549000Y-117600001I0J50999D01*
G01*
X135549000Y-111199999D01*
G75*
G02*
X135599999Y-111149000I50999J0D01*
G01*
X141400001Y-111149000D01*
G75*
G02*
X141451000Y-111199999I0J-50999D01*
G01*
X141451000Y-117600001D01*
G75*
G02*
X141400001Y-117651000I-50999J0D01*
G01*
G37*
G36*
G01*
X141380001Y-121851000D02*
X140179999Y-121851000D01*
G75*
G02*
X140129000Y-121800001I0J50999D01*
G01*
X140129000Y-119599999D01*
G75*
G02*
X140179999Y-119549000I50999J0D01*
G01*
X141380001Y-119549000D01*
G75*
G02*
X141431000Y-119599999I0J-50999D01*
G01*
X141431000Y-121800001D01*
G75*
G02*
X141380001Y-121851000I-50999J0D01*
G01*
G37*
G36*
G01*
X136820001Y-121851000D02*
X135619999Y-121851000D01*
G75*
G02*
X135569000Y-121800001I0J50999D01*
G01*
X135569000Y-119599999D01*
G75*
G02*
X135619999Y-119549000I50999J0D01*
G01*
X136820001Y-119549000D01*
G75*
G02*
X136871000Y-119599999I0J-50999D01*
G01*
X136871000Y-121800001D01*
G75*
G02*
X136820001Y-121851000I-50999J0D01*
G01*
G37*
G36*
G01*
X134400000Y-110012000D02*
X123600000Y-110012000D01*
G75*
G02*
X123549000Y-109961000I0J51000D01*
G01*
X123549000Y-100561000D01*
G75*
G02*
X123600000Y-100510000I51000J0D01*
G01*
X134400000Y-100510000D01*
G75*
G02*
X134451000Y-100561000I0J-51000D01*
G01*
X134451000Y-109961000D01*
G75*
G02*
X134400000Y-110012000I-51000J0D01*
G01*
G37*
G36*
G01*
X132090000Y-116762000D02*
X130990000Y-116762000D01*
G75*
G02*
X130939000Y-116711000I0J51000D01*
G01*
X130939000Y-112111000D01*
G75*
G02*
X130990000Y-112060000I51000J0D01*
G01*
X132090000Y-112060000D01*
G75*
G02*
X132141000Y-112111000I0J-51000D01*
G01*
X132141000Y-116711000D01*
G75*
G02*
X132090000Y-116762000I-51000J0D01*
G01*
G37*
G36*
G01*
X127010000Y-116762000D02*
X125910000Y-116762000D01*
G75*
G02*
X125859000Y-116711000I0J51000D01*
G01*
X125859000Y-112111000D01*
G75*
G02*
X125910000Y-112060000I51000J0D01*
G01*
X127010000Y-112060000D01*
G75*
G02*
X127061000Y-112111000I0J-51000D01*
G01*
X127061000Y-116711000D01*
G75*
G02*
X127010000Y-116762000I-51000J0D01*
G01*
G37*
G36*
G01*
X150899000Y-87478828D02*
X150899000Y-86521172D01*
G75*
G02*
X151171172Y-86249000I272172J0D01*
G01*
X151878828Y-86249000D01*
G75*
G02*
X152151000Y-86521172I0J-272172D01*
G01*
X152151000Y-87478828D01*
G75*
G02*
X151878828Y-87751000I-272172J0D01*
G01*
X151171172Y-87751000D01*
G75*
G02*
X150899000Y-87478828I0J272172D01*
G01*
G37*
G36*
G01*
X148849000Y-87478828D02*
X148849000Y-86521172D01*
G75*
G02*
X149121172Y-86249000I272172J0D01*
G01*
X149828828Y-86249000D01*
G75*
G02*
X150101000Y-86521172I0J-272172D01*
G01*
X150101000Y-87478828D01*
G75*
G02*
X149828828Y-87751000I-272172J0D01*
G01*
X149121172Y-87751000D01*
G75*
G02*
X148849000Y-87478828I0J272172D01*
G01*
G37*
G36*
G01*
X157399000Y-81978828D02*
X157399000Y-81021172D01*
G75*
G02*
X157671172Y-80749000I272172J0D01*
G01*
X158378828Y-80749000D01*
G75*
G02*
X158651000Y-81021172I0J-272172D01*
G01*
X158651000Y-81978828D01*
G75*
G02*
X158378828Y-82251000I-272172J0D01*
G01*
X157671172Y-82251000D01*
G75*
G02*
X157399000Y-81978828I0J272172D01*
G01*
G37*
G36*
G01*
X155349000Y-81978828D02*
X155349000Y-81021172D01*
G75*
G02*
X155621172Y-80749000I272172J0D01*
G01*
X156328828Y-80749000D01*
G75*
G02*
X156601000Y-81021172I0J-272172D01*
G01*
X156601000Y-81978828D01*
G75*
G02*
X156328828Y-82251000I-272172J0D01*
G01*
X155621172Y-82251000D01*
G75*
G02*
X155349000Y-81978828I0J272172D01*
G01*
G37*
G36*
G01*
X154001000Y-84600000D02*
X154001000Y-85400000D01*
G75*
G02*
X153950000Y-85451000I-51000J0D01*
G01*
X153050000Y-85451000D01*
G75*
G02*
X152999000Y-85400000I0J51000D01*
G01*
X152999000Y-84600000D01*
G75*
G02*
X153050000Y-84549000I51000J0D01*
G01*
X153950000Y-84549000D01*
G75*
G02*
X154001000Y-84600000I0J-51000D01*
G01*
G37*
G36*
G01*
X156001000Y-83650000D02*
X156001000Y-84450000D01*
G75*
G02*
X155950000Y-84501000I-51000J0D01*
G01*
X155050000Y-84501000D01*
G75*
G02*
X154999000Y-84450000I0J51000D01*
G01*
X154999000Y-83650000D01*
G75*
G02*
X155050000Y-83599000I51000J0D01*
G01*
X155950000Y-83599000D01*
G75*
G02*
X156001000Y-83650000I0J-51000D01*
G01*
G37*
G36*
G01*
X156001000Y-85550000D02*
X156001000Y-86350000D01*
G75*
G02*
X155950000Y-86401000I-51000J0D01*
G01*
X155050000Y-86401000D01*
G75*
G02*
X154999000Y-86350000I0J51000D01*
G01*
X154999000Y-85550000D01*
G75*
G02*
X155050000Y-85499000I51000J0D01*
G01*
X155950000Y-85499000D01*
G75*
G02*
X156001000Y-85550000I0J-51000D01*
G01*
G37*
G36*
G01*
X137724000Y-88608106D02*
X137724000Y-86391894D01*
G75*
G02*
X137991894Y-86124000I267894J0D01*
G01*
X138983106Y-86124000D01*
G75*
G02*
X139251000Y-86391894I0J-267894D01*
G01*
X139251000Y-88608106D01*
G75*
G02*
X138983106Y-88876000I-267894J0D01*
G01*
X137991894Y-88876000D01*
G75*
G02*
X137724000Y-88608106I0J267894D01*
G01*
G37*
G36*
G01*
X134749000Y-88608106D02*
X134749000Y-86391894D01*
G75*
G02*
X135016894Y-86124000I267894J0D01*
G01*
X136008106Y-86124000D01*
G75*
G02*
X136276000Y-86391894I0J-267894D01*
G01*
X136276000Y-88608106D01*
G75*
G02*
X136008106Y-88876000I-267894J0D01*
G01*
X135016894Y-88876000D01*
G75*
G02*
X134749000Y-88608106I0J267894D01*
G01*
G37*
G36*
G01*
X137724000Y-83608106D02*
X137724000Y-81391894D01*
G75*
G02*
X137991894Y-81124000I267894J0D01*
G01*
X138983106Y-81124000D01*
G75*
G02*
X139251000Y-81391894I0J-267894D01*
G01*
X139251000Y-83608106D01*
G75*
G02*
X138983106Y-83876000I-267894J0D01*
G01*
X137991894Y-83876000D01*
G75*
G02*
X137724000Y-83608106I0J267894D01*
G01*
G37*
G36*
G01*
X134749000Y-83608106D02*
X134749000Y-81391894D01*
G75*
G02*
X135016894Y-81124000I267894J0D01*
G01*
X136008106Y-81124000D01*
G75*
G02*
X136276000Y-81391894I0J-267894D01*
G01*
X136276000Y-83608106D01*
G75*
G02*
X136008106Y-83876000I-267894J0D01*
G01*
X135016894Y-83876000D01*
G75*
G02*
X134749000Y-83608106I0J267894D01*
G01*
G37*
D10*
X142080000Y-144500000D03*
G36*
G01*
X135449000Y-146000000D02*
X135449000Y-143000000D01*
G75*
G02*
X135500000Y-142949000I51000J0D01*
G01*
X138500000Y-142949000D01*
G75*
G02*
X138551000Y-143000000I0J-51000D01*
G01*
X138551000Y-146000000D01*
G75*
G02*
X138500000Y-146051000I-51000J0D01*
G01*
X135500000Y-146051000D01*
G75*
G02*
X135449000Y-146000000I0J51000D01*
G01*
G37*
D11*
X168940000Y-84860000D03*
X166400000Y-84860000D03*
X168940000Y-82320000D03*
X166400000Y-82320000D03*
X168940000Y-79780000D03*
G36*
G01*
X165499000Y-80630000D02*
X165499000Y-78930000D01*
G75*
G02*
X165550000Y-78879000I51000J0D01*
G01*
X167250000Y-78879000D01*
G75*
G02*
X167301000Y-78930000I0J-51000D01*
G01*
X167301000Y-80630000D01*
G75*
G02*
X167250000Y-80681000I-51000J0D01*
G01*
X165550000Y-80681000D01*
G75*
G02*
X165499000Y-80630000I0J51000D01*
G01*
G37*
G36*
G01*
X155799000Y-129700000D02*
X155799000Y-128700000D01*
G75*
G02*
X155850000Y-128649000I51000J0D01*
G01*
X157150000Y-128649000D01*
G75*
G02*
X157201000Y-128700000I0J-51000D01*
G01*
X157201000Y-129700000D01*
G75*
G02*
X157150000Y-129751000I-51000J0D01*
G01*
X155850000Y-129751000D01*
G75*
G02*
X155799000Y-129700000I0J51000D01*
G01*
G37*
G36*
G01*
X155799000Y-128200000D02*
X155799000Y-127200000D01*
G75*
G02*
X155850000Y-127149000I51000J0D01*
G01*
X157150000Y-127149000D01*
G75*
G02*
X157201000Y-127200000I0J-51000D01*
G01*
X157201000Y-128200000D01*
G75*
G02*
X157150000Y-128251000I-51000J0D01*
G01*
X155850000Y-128251000D01*
G75*
G02*
X155799000Y-128200000I0J51000D01*
G01*
G37*
G36*
G01*
X155799000Y-126700000D02*
X155799000Y-125700000D01*
G75*
G02*
X155850000Y-125649000I51000J0D01*
G01*
X157150000Y-125649000D01*
G75*
G02*
X157201000Y-125700000I0J-51000D01*
G01*
X157201000Y-126700000D01*
G75*
G02*
X157150000Y-126751000I-51000J0D01*
G01*
X155850000Y-126751000D01*
G75*
G02*
X155799000Y-126700000I0J51000D01*
G01*
G37*
G36*
G01*
X155799000Y-125200000D02*
X155799000Y-124200000D01*
G75*
G02*
X155850000Y-124149000I51000J0D01*
G01*
X157150000Y-124149000D01*
G75*
G02*
X157201000Y-124200000I0J-51000D01*
G01*
X157201000Y-125200000D01*
G75*
G02*
X157150000Y-125251000I-51000J0D01*
G01*
X155850000Y-125251000D01*
G75*
G02*
X155799000Y-125200000I0J51000D01*
G01*
G37*
G36*
G01*
X155799000Y-123700000D02*
X155799000Y-122700000D01*
G75*
G02*
X155850000Y-122649000I51000J0D01*
G01*
X157150000Y-122649000D01*
G75*
G02*
X157201000Y-122700000I0J-51000D01*
G01*
X157201000Y-123700000D01*
G75*
G02*
X157150000Y-123751000I-51000J0D01*
G01*
X155850000Y-123751000D01*
G75*
G02*
X155799000Y-123700000I0J51000D01*
G01*
G37*
G36*
G01*
X155799000Y-122200000D02*
X155799000Y-121200000D01*
G75*
G02*
X155850000Y-121149000I51000J0D01*
G01*
X157150000Y-121149000D01*
G75*
G02*
X157201000Y-121200000I0J-51000D01*
G01*
X157201000Y-122200000D01*
G75*
G02*
X157150000Y-122251000I-51000J0D01*
G01*
X155850000Y-122251000D01*
G75*
G02*
X155799000Y-122200000I0J51000D01*
G01*
G37*
G36*
G01*
X155799000Y-120700000D02*
X155799000Y-119700000D01*
G75*
G02*
X155850000Y-119649000I51000J0D01*
G01*
X157150000Y-119649000D01*
G75*
G02*
X157201000Y-119700000I0J-51000D01*
G01*
X157201000Y-120700000D01*
G75*
G02*
X157150000Y-120751000I-51000J0D01*
G01*
X155850000Y-120751000D01*
G75*
G02*
X155799000Y-120700000I0J51000D01*
G01*
G37*
G36*
G01*
X155799000Y-119200000D02*
X155799000Y-118200000D01*
G75*
G02*
X155850000Y-118149000I51000J0D01*
G01*
X157150000Y-118149000D01*
G75*
G02*
X157201000Y-118200000I0J-51000D01*
G01*
X157201000Y-119200000D01*
G75*
G02*
X157150000Y-119251000I-51000J0D01*
G01*
X155850000Y-119251000D01*
G75*
G02*
X155799000Y-119200000I0J51000D01*
G01*
G37*
G36*
G01*
X155799000Y-117700000D02*
X155799000Y-116700000D01*
G75*
G02*
X155850000Y-116649000I51000J0D01*
G01*
X157150000Y-116649000D01*
G75*
G02*
X157201000Y-116700000I0J-51000D01*
G01*
X157201000Y-117700000D01*
G75*
G02*
X157150000Y-117751000I-51000J0D01*
G01*
X155850000Y-117751000D01*
G75*
G02*
X155799000Y-117700000I0J51000D01*
G01*
G37*
G36*
G01*
X155799000Y-116200000D02*
X155799000Y-115200000D01*
G75*
G02*
X155850000Y-115149000I51000J0D01*
G01*
X157150000Y-115149000D01*
G75*
G02*
X157201000Y-115200000I0J-51000D01*
G01*
X157201000Y-116200000D01*
G75*
G02*
X157150000Y-116251000I-51000J0D01*
G01*
X155850000Y-116251000D01*
G75*
G02*
X155799000Y-116200000I0J51000D01*
G01*
G37*
G36*
G01*
X155799000Y-114700000D02*
X155799000Y-113700000D01*
G75*
G02*
X155850000Y-113649000I51000J0D01*
G01*
X157150000Y-113649000D01*
G75*
G02*
X157201000Y-113700000I0J-51000D01*
G01*
X157201000Y-114700000D01*
G75*
G02*
X157150000Y-114751000I-51000J0D01*
G01*
X155850000Y-114751000D01*
G75*
G02*
X155799000Y-114700000I0J51000D01*
G01*
G37*
G36*
G01*
X155799000Y-113200000D02*
X155799000Y-112200000D01*
G75*
G02*
X155850000Y-112149000I51000J0D01*
G01*
X157150000Y-112149000D01*
G75*
G02*
X157201000Y-112200000I0J-51000D01*
G01*
X157201000Y-113200000D01*
G75*
G02*
X157150000Y-113251000I-51000J0D01*
G01*
X155850000Y-113251000D01*
G75*
G02*
X155799000Y-113200000I0J51000D01*
G01*
G37*
G36*
G01*
X155799000Y-111700000D02*
X155799000Y-110700000D01*
G75*
G02*
X155850000Y-110649000I51000J0D01*
G01*
X157150000Y-110649000D01*
G75*
G02*
X157201000Y-110700000I0J-51000D01*
G01*
X157201000Y-111700000D01*
G75*
G02*
X157150000Y-111751000I-51000J0D01*
G01*
X155850000Y-111751000D01*
G75*
G02*
X155799000Y-111700000I0J51000D01*
G01*
G37*
G36*
G01*
X170201000Y-110700000D02*
X170201000Y-111700000D01*
G75*
G02*
X170150000Y-111751000I-51000J0D01*
G01*
X168850000Y-111751000D01*
G75*
G02*
X168799000Y-111700000I0J51000D01*
G01*
X168799000Y-110700000D01*
G75*
G02*
X168850000Y-110649000I51000J0D01*
G01*
X170150000Y-110649000D01*
G75*
G02*
X170201000Y-110700000I0J-51000D01*
G01*
G37*
G36*
G01*
X170201000Y-112200000D02*
X170201000Y-113200000D01*
G75*
G02*
X170150000Y-113251000I-51000J0D01*
G01*
X168850000Y-113251000D01*
G75*
G02*
X168799000Y-113200000I0J51000D01*
G01*
X168799000Y-112200000D01*
G75*
G02*
X168850000Y-112149000I51000J0D01*
G01*
X170150000Y-112149000D01*
G75*
G02*
X170201000Y-112200000I0J-51000D01*
G01*
G37*
G36*
G01*
X170201000Y-113700000D02*
X170201000Y-114700000D01*
G75*
G02*
X170150000Y-114751000I-51000J0D01*
G01*
X168850000Y-114751000D01*
G75*
G02*
X168799000Y-114700000I0J51000D01*
G01*
X168799000Y-113700000D01*
G75*
G02*
X168850000Y-113649000I51000J0D01*
G01*
X170150000Y-113649000D01*
G75*
G02*
X170201000Y-113700000I0J-51000D01*
G01*
G37*
G36*
G01*
X170201000Y-115200000D02*
X170201000Y-116200000D01*
G75*
G02*
X170150000Y-116251000I-51000J0D01*
G01*
X168850000Y-116251000D01*
G75*
G02*
X168799000Y-116200000I0J51000D01*
G01*
X168799000Y-115200000D01*
G75*
G02*
X168850000Y-115149000I51000J0D01*
G01*
X170150000Y-115149000D01*
G75*
G02*
X170201000Y-115200000I0J-51000D01*
G01*
G37*
G36*
G01*
X170201000Y-116700000D02*
X170201000Y-117700000D01*
G75*
G02*
X170150000Y-117751000I-51000J0D01*
G01*
X168850000Y-117751000D01*
G75*
G02*
X168799000Y-117700000I0J51000D01*
G01*
X168799000Y-116700000D01*
G75*
G02*
X168850000Y-116649000I51000J0D01*
G01*
X170150000Y-116649000D01*
G75*
G02*
X170201000Y-116700000I0J-51000D01*
G01*
G37*
G36*
G01*
X170201000Y-118200000D02*
X170201000Y-119200000D01*
G75*
G02*
X170150000Y-119251000I-51000J0D01*
G01*
X168850000Y-119251000D01*
G75*
G02*
X168799000Y-119200000I0J51000D01*
G01*
X168799000Y-118200000D01*
G75*
G02*
X168850000Y-118149000I51000J0D01*
G01*
X170150000Y-118149000D01*
G75*
G02*
X170201000Y-118200000I0J-51000D01*
G01*
G37*
G36*
G01*
X170201000Y-119700000D02*
X170201000Y-120700000D01*
G75*
G02*
X170150000Y-120751000I-51000J0D01*
G01*
X168850000Y-120751000D01*
G75*
G02*
X168799000Y-120700000I0J51000D01*
G01*
X168799000Y-119700000D01*
G75*
G02*
X168850000Y-119649000I51000J0D01*
G01*
X170150000Y-119649000D01*
G75*
G02*
X170201000Y-119700000I0J-51000D01*
G01*
G37*
G36*
G01*
X170201000Y-121200000D02*
X170201000Y-122200000D01*
G75*
G02*
X170150000Y-122251000I-51000J0D01*
G01*
X168850000Y-122251000D01*
G75*
G02*
X168799000Y-122200000I0J51000D01*
G01*
X168799000Y-121200000D01*
G75*
G02*
X168850000Y-121149000I51000J0D01*
G01*
X170150000Y-121149000D01*
G75*
G02*
X170201000Y-121200000I0J-51000D01*
G01*
G37*
G36*
G01*
X170201000Y-122700000D02*
X170201000Y-123700000D01*
G75*
G02*
X170150000Y-123751000I-51000J0D01*
G01*
X168850000Y-123751000D01*
G75*
G02*
X168799000Y-123700000I0J51000D01*
G01*
X168799000Y-122700000D01*
G75*
G02*
X168850000Y-122649000I51000J0D01*
G01*
X170150000Y-122649000D01*
G75*
G02*
X170201000Y-122700000I0J-51000D01*
G01*
G37*
G36*
G01*
X170201000Y-124200000D02*
X170201000Y-125200000D01*
G75*
G02*
X170150000Y-125251000I-51000J0D01*
G01*
X168850000Y-125251000D01*
G75*
G02*
X168799000Y-125200000I0J51000D01*
G01*
X168799000Y-124200000D01*
G75*
G02*
X168850000Y-124149000I51000J0D01*
G01*
X170150000Y-124149000D01*
G75*
G02*
X170201000Y-124200000I0J-51000D01*
G01*
G37*
G36*
G01*
X170201000Y-125700000D02*
X170201000Y-126700000D01*
G75*
G02*
X170150000Y-126751000I-51000J0D01*
G01*
X168850000Y-126751000D01*
G75*
G02*
X168799000Y-126700000I0J51000D01*
G01*
X168799000Y-125700000D01*
G75*
G02*
X168850000Y-125649000I51000J0D01*
G01*
X170150000Y-125649000D01*
G75*
G02*
X170201000Y-125700000I0J-51000D01*
G01*
G37*
G36*
G01*
X170201000Y-127200000D02*
X170201000Y-128200000D01*
G75*
G02*
X170150000Y-128251000I-51000J0D01*
G01*
X168850000Y-128251000D01*
G75*
G02*
X168799000Y-128200000I0J51000D01*
G01*
X168799000Y-127200000D01*
G75*
G02*
X168850000Y-127149000I51000J0D01*
G01*
X170150000Y-127149000D01*
G75*
G02*
X170201000Y-127200000I0J-51000D01*
G01*
G37*
G36*
G01*
X170201000Y-128700000D02*
X170201000Y-129700000D01*
G75*
G02*
X170150000Y-129751000I-51000J0D01*
G01*
X168850000Y-129751000D01*
G75*
G02*
X168799000Y-129700000I0J51000D01*
G01*
X168799000Y-128700000D01*
G75*
G02*
X168850000Y-128649000I51000J0D01*
G01*
X170150000Y-128649000D01*
G75*
G02*
X170201000Y-128700000I0J-51000D01*
G01*
G37*
G36*
G01*
X168750000Y-131701000D02*
X167750000Y-131701000D01*
G75*
G02*
X167699000Y-131650000I0J51000D01*
G01*
X167699000Y-130350000D01*
G75*
G02*
X167750000Y-130299000I51000J0D01*
G01*
X168750000Y-130299000D01*
G75*
G02*
X168801000Y-130350000I0J-51000D01*
G01*
X168801000Y-131650000D01*
G75*
G02*
X168750000Y-131701000I-51000J0D01*
G01*
G37*
G36*
G01*
X167250000Y-131701000D02*
X166250000Y-131701000D01*
G75*
G02*
X166199000Y-131650000I0J51000D01*
G01*
X166199000Y-130350000D01*
G75*
G02*
X166250000Y-130299000I51000J0D01*
G01*
X167250000Y-130299000D01*
G75*
G02*
X167301000Y-130350000I0J-51000D01*
G01*
X167301000Y-131650000D01*
G75*
G02*
X167250000Y-131701000I-51000J0D01*
G01*
G37*
G36*
G01*
X165750000Y-131701000D02*
X164750000Y-131701000D01*
G75*
G02*
X164699000Y-131650000I0J51000D01*
G01*
X164699000Y-130350000D01*
G75*
G02*
X164750000Y-130299000I51000J0D01*
G01*
X165750000Y-130299000D01*
G75*
G02*
X165801000Y-130350000I0J-51000D01*
G01*
X165801000Y-131650000D01*
G75*
G02*
X165750000Y-131701000I-51000J0D01*
G01*
G37*
G36*
G01*
X164250000Y-131701000D02*
X163250000Y-131701000D01*
G75*
G02*
X163199000Y-131650000I0J51000D01*
G01*
X163199000Y-130350000D01*
G75*
G02*
X163250000Y-130299000I51000J0D01*
G01*
X164250000Y-130299000D01*
G75*
G02*
X164301000Y-130350000I0J-51000D01*
G01*
X164301000Y-131650000D01*
G75*
G02*
X164250000Y-131701000I-51000J0D01*
G01*
G37*
G36*
G01*
X161250000Y-131701000D02*
X160250000Y-131701000D01*
G75*
G02*
X160199000Y-131650000I0J51000D01*
G01*
X160199000Y-130350000D01*
G75*
G02*
X160250000Y-130299000I51000J0D01*
G01*
X161250000Y-130299000D01*
G75*
G02*
X161301000Y-130350000I0J-51000D01*
G01*
X161301000Y-131650000D01*
G75*
G02*
X161250000Y-131701000I-51000J0D01*
G01*
G37*
G36*
G01*
X159750000Y-131701000D02*
X158750000Y-131701000D01*
G75*
G02*
X158699000Y-131650000I0J51000D01*
G01*
X158699000Y-130350000D01*
G75*
G02*
X158750000Y-130299000I51000J0D01*
G01*
X159750000Y-130299000D01*
G75*
G02*
X159801000Y-130350000I0J-51000D01*
G01*
X159801000Y-131650000D01*
G75*
G02*
X159750000Y-131701000I-51000J0D01*
G01*
G37*
G36*
G01*
X158250000Y-131701000D02*
X157250000Y-131701000D01*
G75*
G02*
X157199000Y-131650000I0J51000D01*
G01*
X157199000Y-130350000D01*
G75*
G02*
X157250000Y-130299000I51000J0D01*
G01*
X158250000Y-130299000D01*
G75*
G02*
X158301000Y-130350000I0J-51000D01*
G01*
X158301000Y-131650000D01*
G75*
G02*
X158250000Y-131701000I-51000J0D01*
G01*
G37*
G36*
G01*
X162750000Y-131701000D02*
X161750000Y-131701000D01*
G75*
G02*
X161699000Y-131650000I0J51000D01*
G01*
X161699000Y-130350000D01*
G75*
G02*
X161750000Y-130299000I51000J0D01*
G01*
X162750000Y-130299000D01*
G75*
G02*
X162801000Y-130350000I0J-51000D01*
G01*
X162801000Y-131650000D01*
G75*
G02*
X162750000Y-131701000I-51000J0D01*
G01*
G37*
G36*
G01*
X144901000Y-113542887D02*
X144901000Y-114457113D01*
G75*
G02*
X144632113Y-114726000I-268887J0D01*
G01*
X143492887Y-114726000D01*
G75*
G02*
X143224000Y-114457113I0J268887D01*
G01*
X143224000Y-113542887D01*
G75*
G02*
X143492887Y-113274000I268887J0D01*
G01*
X144632113Y-113274000D01*
G75*
G02*
X144901000Y-113542887I0J-268887D01*
G01*
G37*
G36*
G01*
X147776000Y-113542887D02*
X147776000Y-114457113D01*
G75*
G02*
X147507113Y-114726000I-268887J0D01*
G01*
X146367887Y-114726000D01*
G75*
G02*
X146099000Y-114457113I0J268887D01*
G01*
X146099000Y-113542887D01*
G75*
G02*
X146367887Y-113274000I268887J0D01*
G01*
X147507113Y-113274000D01*
G75*
G02*
X147776000Y-113542887I0J-268887D01*
G01*
G37*
D12*
X154230000Y-112170000D03*
X154600000Y-116700000D03*
X163290000Y-95410000D03*
G36*
G01*
X162100500Y-139301000D02*
X160299500Y-139301000D01*
G75*
G02*
X159399000Y-138400500I0J900500D01*
G01*
X159399000Y-136599500D01*
G75*
G02*
X160299500Y-135699000I900500J0D01*
G01*
X162100500Y-135699000D01*
G75*
G02*
X163001000Y-136599500I0J-900500D01*
G01*
X163001000Y-138400500D01*
G75*
G02*
X162100500Y-139301000I-900500J0D01*
G01*
G37*
G36*
G01*
X157525500Y-142051000D02*
X155474500Y-142051000D01*
G75*
G02*
X154699000Y-141275500I0J775500D01*
G01*
X154699000Y-139724500D01*
G75*
G02*
X155474500Y-138949000I775500J0D01*
G01*
X157525500Y-138949000D01*
G75*
G02*
X158301000Y-139724500I0J-775500D01*
G01*
X158301000Y-141275500D01*
G75*
G02*
X157525500Y-142051000I-775500J0D01*
G01*
G37*
G36*
G01*
X158250000Y-136301000D02*
X154750000Y-136301000D01*
G75*
G02*
X154699000Y-136250000I0J51000D01*
G01*
X154699000Y-132750000D01*
G75*
G02*
X154750000Y-132699000I51000J0D01*
G01*
X158250000Y-132699000D01*
G75*
G02*
X158301000Y-132750000I0J-51000D01*
G01*
X158301000Y-136250000D01*
G75*
G02*
X158250000Y-136301000I-51000J0D01*
G01*
G37*
D13*
X128060000Y-138320000D03*
G36*
G01*
X128811000Y-141620000D02*
X128811000Y-143020000D01*
G75*
G02*
X128760000Y-143071000I-51000J0D01*
G01*
X127360000Y-143071000D01*
G75*
G02*
X127309000Y-143020000I0J51000D01*
G01*
X127309000Y-141620000D01*
G75*
G02*
X127360000Y-141569000I51000J0D01*
G01*
X128760000Y-141569000D01*
G75*
G02*
X128811000Y-141620000I0J-51000D01*
G01*
G37*
X133060000Y-142320000D03*
X133060000Y-138320000D03*
X133060000Y-140320000D03*
X128060000Y-140320000D03*
G36*
G01*
X165656500Y-93736000D02*
X165305500Y-93736000D01*
G75*
G02*
X165130000Y-93560500I0J175500D01*
G01*
X165130000Y-91859500D01*
G75*
G02*
X165305500Y-91684000I175500J0D01*
G01*
X165656500Y-91684000D01*
G75*
G02*
X165832000Y-91859500I0J-175500D01*
G01*
X165832000Y-93560500D01*
G75*
G02*
X165656500Y-93736000I-175500J0D01*
G01*
G37*
G36*
G01*
X166926500Y-93736000D02*
X166575500Y-93736000D01*
G75*
G02*
X166400000Y-93560500I0J175500D01*
G01*
X166400000Y-91859500D01*
G75*
G02*
X166575500Y-91684000I175500J0D01*
G01*
X166926500Y-91684000D01*
G75*
G02*
X167102000Y-91859500I0J-175500D01*
G01*
X167102000Y-93560500D01*
G75*
G02*
X166926500Y-93736000I-175500J0D01*
G01*
G37*
G36*
G01*
X168196500Y-93736000D02*
X167845500Y-93736000D01*
G75*
G02*
X167670000Y-93560500I0J175500D01*
G01*
X167670000Y-91859500D01*
G75*
G02*
X167845500Y-91684000I175500J0D01*
G01*
X168196500Y-91684000D01*
G75*
G02*
X168372000Y-91859500I0J-175500D01*
G01*
X168372000Y-93560500D01*
G75*
G02*
X168196500Y-93736000I-175500J0D01*
G01*
G37*
G36*
G01*
X169466500Y-93736000D02*
X169115500Y-93736000D01*
G75*
G02*
X168940000Y-93560500I0J175500D01*
G01*
X168940000Y-91859500D01*
G75*
G02*
X169115500Y-91684000I175500J0D01*
G01*
X169466500Y-91684000D01*
G75*
G02*
X169642000Y-91859500I0J-175500D01*
G01*
X169642000Y-93560500D01*
G75*
G02*
X169466500Y-93736000I-175500J0D01*
G01*
G37*
G36*
G01*
X169466500Y-98686000D02*
X169115500Y-98686000D01*
G75*
G02*
X168940000Y-98510500I0J175500D01*
G01*
X168940000Y-96809500D01*
G75*
G02*
X169115500Y-96634000I175500J0D01*
G01*
X169466500Y-96634000D01*
G75*
G02*
X169642000Y-96809500I0J-175500D01*
G01*
X169642000Y-98510500D01*
G75*
G02*
X169466500Y-98686000I-175500J0D01*
G01*
G37*
G36*
G01*
X168196500Y-98686000D02*
X167845500Y-98686000D01*
G75*
G02*
X167670000Y-98510500I0J175500D01*
G01*
X167670000Y-96809500D01*
G75*
G02*
X167845500Y-96634000I175500J0D01*
G01*
X168196500Y-96634000D01*
G75*
G02*
X168372000Y-96809500I0J-175500D01*
G01*
X168372000Y-98510500D01*
G75*
G02*
X168196500Y-98686000I-175500J0D01*
G01*
G37*
G36*
G01*
X166926500Y-98686000D02*
X166575500Y-98686000D01*
G75*
G02*
X166400000Y-98510500I0J175500D01*
G01*
X166400000Y-96809500D01*
G75*
G02*
X166575500Y-96634000I175500J0D01*
G01*
X166926500Y-96634000D01*
G75*
G02*
X167102000Y-96809500I0J-175500D01*
G01*
X167102000Y-98510500D01*
G75*
G02*
X166926500Y-98686000I-175500J0D01*
G01*
G37*
G36*
G01*
X165656500Y-98686000D02*
X165305500Y-98686000D01*
G75*
G02*
X165130000Y-98510500I0J175500D01*
G01*
X165130000Y-96809500D01*
G75*
G02*
X165305500Y-96634000I175500J0D01*
G01*
X165656500Y-96634000D01*
G75*
G02*
X165832000Y-96809500I0J-175500D01*
G01*
X165832000Y-98510500D01*
G75*
G02*
X165656500Y-98686000I-175500J0D01*
G01*
G37*
G36*
G01*
X143299000Y-106950000D02*
X143299000Y-105450000D01*
G75*
G02*
X143350000Y-105399000I51000J0D01*
G01*
X145350000Y-105399000D01*
G75*
G02*
X145401000Y-105450000I0J-51000D01*
G01*
X145401000Y-106950000D01*
G75*
G02*
X145350000Y-107001000I-51000J0D01*
G01*
X143350000Y-107001000D01*
G75*
G02*
X143299000Y-106950000I0J51000D01*
G01*
G37*
G36*
G01*
X143299000Y-111550000D02*
X143299000Y-110050000D01*
G75*
G02*
X143350000Y-109999000I51000J0D01*
G01*
X145350000Y-109999000D01*
G75*
G02*
X145401000Y-110050000I0J-51000D01*
G01*
X145401000Y-111550000D01*
G75*
G02*
X145350000Y-111601000I-51000J0D01*
G01*
X143350000Y-111601000D01*
G75*
G02*
X143299000Y-111550000I0J51000D01*
G01*
G37*
G36*
G01*
X143299000Y-109250000D02*
X143299000Y-107750000D01*
G75*
G02*
X143350000Y-107699000I51000J0D01*
G01*
X145350000Y-107699000D01*
G75*
G02*
X145401000Y-107750000I0J-51000D01*
G01*
X145401000Y-109250000D01*
G75*
G02*
X145350000Y-109301000I-51000J0D01*
G01*
X143350000Y-109301000D01*
G75*
G02*
X143299000Y-109250000I0J51000D01*
G01*
G37*
G36*
G01*
X149599000Y-110400000D02*
X149599000Y-106600000D01*
G75*
G02*
X149650000Y-106549000I51000J0D01*
G01*
X151650000Y-106549000D01*
G75*
G02*
X151701000Y-106600000I0J-51000D01*
G01*
X151701000Y-110400000D01*
G75*
G02*
X151650000Y-110451000I-51000J0D01*
G01*
X149650000Y-110451000D01*
G75*
G02*
X149599000Y-110400000I0J51000D01*
G01*
G37*
G36*
G01*
X169021172Y-101899000D02*
X169978828Y-101899000D01*
G75*
G02*
X170251000Y-102171172I0J-272172D01*
G01*
X170251000Y-102878828D01*
G75*
G02*
X169978828Y-103151000I-272172J0D01*
G01*
X169021172Y-103151000D01*
G75*
G02*
X168749000Y-102878828I0J272172D01*
G01*
X168749000Y-102171172D01*
G75*
G02*
X169021172Y-101899000I272172J0D01*
G01*
G37*
G36*
G01*
X169021172Y-99849000D02*
X169978828Y-99849000D01*
G75*
G02*
X170251000Y-100121172I0J-272172D01*
G01*
X170251000Y-100828828D01*
G75*
G02*
X169978828Y-101101000I-272172J0D01*
G01*
X169021172Y-101101000D01*
G75*
G02*
X168749000Y-100828828I0J272172D01*
G01*
X168749000Y-100121172D01*
G75*
G02*
X169021172Y-99849000I272172J0D01*
G01*
G37*
G36*
G01*
X146399000Y-100478828D02*
X146399000Y-99521172D01*
G75*
G02*
X146671172Y-99249000I272172J0D01*
G01*
X147378828Y-99249000D01*
G75*
G02*
X147651000Y-99521172I0J-272172D01*
G01*
X147651000Y-100478828D01*
G75*
G02*
X147378828Y-100751000I-272172J0D01*
G01*
X146671172Y-100751000D01*
G75*
G02*
X146399000Y-100478828I0J272172D01*
G01*
G37*
G36*
G01*
X144349000Y-100478828D02*
X144349000Y-99521172D01*
G75*
G02*
X144621172Y-99249000I272172J0D01*
G01*
X145328828Y-99249000D01*
G75*
G02*
X145601000Y-99521172I0J-272172D01*
G01*
X145601000Y-100478828D01*
G75*
G02*
X145328828Y-100751000I-272172J0D01*
G01*
X144621172Y-100751000D01*
G75*
G02*
X144349000Y-100478828I0J272172D01*
G01*
G37*
G36*
G01*
X152021172Y-114799000D02*
X152978828Y-114799000D01*
G75*
G02*
X153251000Y-115071172I0J-272172D01*
G01*
X153251000Y-115778828D01*
G75*
G02*
X152978828Y-116051000I-272172J0D01*
G01*
X152021172Y-116051000D01*
G75*
G02*
X151749000Y-115778828I0J272172D01*
G01*
X151749000Y-115071172D01*
G75*
G02*
X152021172Y-114799000I272172J0D01*
G01*
G37*
G36*
G01*
X152021172Y-112749000D02*
X152978828Y-112749000D01*
G75*
G02*
X153251000Y-113021172I0J-272172D01*
G01*
X153251000Y-113728828D01*
G75*
G02*
X152978828Y-114001000I-272172J0D01*
G01*
X152021172Y-114001000D01*
G75*
G02*
X151749000Y-113728828I0J272172D01*
G01*
X151749000Y-113021172D01*
G75*
G02*
X152021172Y-112749000I272172J0D01*
G01*
G37*
G36*
G01*
X141874000Y-100478828D02*
X141874000Y-99521172D01*
G75*
G02*
X142146172Y-99249000I272172J0D01*
G01*
X142853828Y-99249000D01*
G75*
G02*
X143126000Y-99521172I0J-272172D01*
G01*
X143126000Y-100478828D01*
G75*
G02*
X142853828Y-100751000I-272172J0D01*
G01*
X142146172Y-100751000D01*
G75*
G02*
X141874000Y-100478828I0J272172D01*
G01*
G37*
G36*
G01*
X139824000Y-100478828D02*
X139824000Y-99521172D01*
G75*
G02*
X140096172Y-99249000I272172J0D01*
G01*
X140803828Y-99249000D01*
G75*
G02*
X141076000Y-99521172I0J-272172D01*
G01*
X141076000Y-100478828D01*
G75*
G02*
X140803828Y-100751000I-272172J0D01*
G01*
X140096172Y-100751000D01*
G75*
G02*
X139824000Y-100478828I0J272172D01*
G01*
G37*
G36*
G01*
X166078828Y-101101000D02*
X165121172Y-101101000D01*
G75*
G02*
X164849000Y-100828828I0J272172D01*
G01*
X164849000Y-100121172D01*
G75*
G02*
X165121172Y-99849000I272172J0D01*
G01*
X166078828Y-99849000D01*
G75*
G02*
X166351000Y-100121172I0J-272172D01*
G01*
X166351000Y-100828828D01*
G75*
G02*
X166078828Y-101101000I-272172J0D01*
G01*
G37*
G36*
G01*
X166078828Y-103151000D02*
X165121172Y-103151000D01*
G75*
G02*
X164849000Y-102878828I0J272172D01*
G01*
X164849000Y-102171172D01*
G75*
G02*
X165121172Y-101899000I272172J0D01*
G01*
X166078828Y-101899000D01*
G75*
G02*
X166351000Y-102171172I0J-272172D01*
G01*
X166351000Y-102878828D01*
G75*
G02*
X166078828Y-103151000I-272172J0D01*
G01*
G37*
G36*
G01*
X146399000Y-97478828D02*
X146399000Y-96521172D01*
G75*
G02*
X146671172Y-96249000I272172J0D01*
G01*
X147378828Y-96249000D01*
G75*
G02*
X147651000Y-96521172I0J-272172D01*
G01*
X147651000Y-97478828D01*
G75*
G02*
X147378828Y-97751000I-272172J0D01*
G01*
X146671172Y-97751000D01*
G75*
G02*
X146399000Y-97478828I0J272172D01*
G01*
G37*
G36*
G01*
X144349000Y-97478828D02*
X144349000Y-96521172D01*
G75*
G02*
X144621172Y-96249000I272172J0D01*
G01*
X145328828Y-96249000D01*
G75*
G02*
X145601000Y-96521172I0J-272172D01*
G01*
X145601000Y-97478828D01*
G75*
G02*
X145328828Y-97751000I-272172J0D01*
G01*
X144621172Y-97751000D01*
G75*
G02*
X144349000Y-97478828I0J272172D01*
G01*
G37*
G36*
G01*
X146399000Y-91478828D02*
X146399000Y-90521172D01*
G75*
G02*
X146671172Y-90249000I272172J0D01*
G01*
X147378828Y-90249000D01*
G75*
G02*
X147651000Y-90521172I0J-272172D01*
G01*
X147651000Y-91478828D01*
G75*
G02*
X147378828Y-91751000I-272172J0D01*
G01*
X146671172Y-91751000D01*
G75*
G02*
X146399000Y-91478828I0J272172D01*
G01*
G37*
G36*
G01*
X144349000Y-91478828D02*
X144349000Y-90521172D01*
G75*
G02*
X144621172Y-90249000I272172J0D01*
G01*
X145328828Y-90249000D01*
G75*
G02*
X145601000Y-90521172I0J-272172D01*
G01*
X145601000Y-91478828D01*
G75*
G02*
X145328828Y-91751000I-272172J0D01*
G01*
X144621172Y-91751000D01*
G75*
G02*
X144349000Y-91478828I0J272172D01*
G01*
G37*
G36*
G01*
X152478828Y-101601000D02*
X151521172Y-101601000D01*
G75*
G02*
X151249000Y-101328828I0J272172D01*
G01*
X151249000Y-100621172D01*
G75*
G02*
X151521172Y-100349000I272172J0D01*
G01*
X152478828Y-100349000D01*
G75*
G02*
X152751000Y-100621172I0J-272172D01*
G01*
X152751000Y-101328828D01*
G75*
G02*
X152478828Y-101601000I-272172J0D01*
G01*
G37*
G36*
G01*
X152478828Y-103651000D02*
X151521172Y-103651000D01*
G75*
G02*
X151249000Y-103378828I0J272172D01*
G01*
X151249000Y-102671172D01*
G75*
G02*
X151521172Y-102399000I272172J0D01*
G01*
X152478828Y-102399000D01*
G75*
G02*
X152751000Y-102671172I0J-272172D01*
G01*
X152751000Y-103378828D01*
G75*
G02*
X152478828Y-103651000I-272172J0D01*
G01*
G37*
G36*
G01*
X141899000Y-97478828D02*
X141899000Y-96521172D01*
G75*
G02*
X142171172Y-96249000I272172J0D01*
G01*
X142878828Y-96249000D01*
G75*
G02*
X143151000Y-96521172I0J-272172D01*
G01*
X143151000Y-97478828D01*
G75*
G02*
X142878828Y-97751000I-272172J0D01*
G01*
X142171172Y-97751000D01*
G75*
G02*
X141899000Y-97478828I0J272172D01*
G01*
G37*
G36*
G01*
X139849000Y-97478828D02*
X139849000Y-96521172D01*
G75*
G02*
X140121172Y-96249000I272172J0D01*
G01*
X140828828Y-96249000D01*
G75*
G02*
X141101000Y-96521172I0J-272172D01*
G01*
X141101000Y-97478828D01*
G75*
G02*
X140828828Y-97751000I-272172J0D01*
G01*
X140121172Y-97751000D01*
G75*
G02*
X139849000Y-97478828I0J272172D01*
G01*
G37*
G36*
G01*
X141899000Y-91478828D02*
X141899000Y-90521172D01*
G75*
G02*
X142171172Y-90249000I272172J0D01*
G01*
X142878828Y-90249000D01*
G75*
G02*
X143151000Y-90521172I0J-272172D01*
G01*
X143151000Y-91478828D01*
G75*
G02*
X142878828Y-91751000I-272172J0D01*
G01*
X142171172Y-91751000D01*
G75*
G02*
X141899000Y-91478828I0J272172D01*
G01*
G37*
G36*
G01*
X139849000Y-91478828D02*
X139849000Y-90521172D01*
G75*
G02*
X140121172Y-90249000I272172J0D01*
G01*
X140828828Y-90249000D01*
G75*
G02*
X141101000Y-90521172I0J-272172D01*
G01*
X141101000Y-91478828D01*
G75*
G02*
X140828828Y-91751000I-272172J0D01*
G01*
X140121172Y-91751000D01*
G75*
G02*
X139849000Y-91478828I0J272172D01*
G01*
G37*
G36*
G01*
X165978828Y-88601000D02*
X165021172Y-88601000D01*
G75*
G02*
X164749000Y-88328828I0J272172D01*
G01*
X164749000Y-87621172D01*
G75*
G02*
X165021172Y-87349000I272172J0D01*
G01*
X165978828Y-87349000D01*
G75*
G02*
X166251000Y-87621172I0J-272172D01*
G01*
X166251000Y-88328828D01*
G75*
G02*
X165978828Y-88601000I-272172J0D01*
G01*
G37*
G36*
G01*
X165978828Y-90651000D02*
X165021172Y-90651000D01*
G75*
G02*
X164749000Y-90378828I0J272172D01*
G01*
X164749000Y-89671172D01*
G75*
G02*
X165021172Y-89399000I272172J0D01*
G01*
X165978828Y-89399000D01*
G75*
G02*
X166251000Y-89671172I0J-272172D01*
G01*
X166251000Y-90378828D01*
G75*
G02*
X165978828Y-90651000I-272172J0D01*
G01*
G37*
G36*
G01*
X155478828Y-101601000D02*
X154521172Y-101601000D01*
G75*
G02*
X154249000Y-101328828I0J272172D01*
G01*
X154249000Y-100621172D01*
G75*
G02*
X154521172Y-100349000I272172J0D01*
G01*
X155478828Y-100349000D01*
G75*
G02*
X155751000Y-100621172I0J-272172D01*
G01*
X155751000Y-101328828D01*
G75*
G02*
X155478828Y-101601000I-272172J0D01*
G01*
G37*
G36*
G01*
X155478828Y-103651000D02*
X154521172Y-103651000D01*
G75*
G02*
X154249000Y-103378828I0J272172D01*
G01*
X154249000Y-102671172D01*
G75*
G02*
X154521172Y-102399000I272172J0D01*
G01*
X155478828Y-102399000D01*
G75*
G02*
X155751000Y-102671172I0J-272172D01*
G01*
X155751000Y-103378828D01*
G75*
G02*
X155478828Y-103651000I-272172J0D01*
G01*
G37*
D10*
X151580000Y-69500000D03*
X146500000Y-69500000D03*
G36*
G01*
X139869000Y-71000000D02*
X139869000Y-68000000D01*
G75*
G02*
X139920000Y-67949000I51000J0D01*
G01*
X142920000Y-67949000D01*
G75*
G02*
X142971000Y-68000000I0J-51000D01*
G01*
X142971000Y-71000000D01*
G75*
G02*
X142920000Y-71051000I-51000J0D01*
G01*
X139920000Y-71051000D01*
G75*
G02*
X139869000Y-71000000I0J51000D01*
G01*
G37*
G36*
G01*
X153371000Y-96415000D02*
X153371000Y-96965000D01*
G75*
G02*
X153320000Y-97016000I-51000J0D01*
G01*
X151720000Y-97016000D01*
G75*
G02*
X151669000Y-96965000I0J51000D01*
G01*
X151669000Y-96415000D01*
G75*
G02*
X151720000Y-96364000I51000J0D01*
G01*
X153320000Y-96364000D01*
G75*
G02*
X153371000Y-96415000I0J-51000D01*
G01*
G37*
G36*
G01*
X153371000Y-95615000D02*
X153371000Y-96165000D01*
G75*
G02*
X153320000Y-96216000I-51000J0D01*
G01*
X151720000Y-96216000D01*
G75*
G02*
X151669000Y-96165000I0J51000D01*
G01*
X151669000Y-95615000D01*
G75*
G02*
X151720000Y-95564000I51000J0D01*
G01*
X153320000Y-95564000D01*
G75*
G02*
X153371000Y-95615000I0J-51000D01*
G01*
G37*
G36*
G01*
X153371000Y-94815000D02*
X153371000Y-95365000D01*
G75*
G02*
X153320000Y-95416000I-51000J0D01*
G01*
X151720000Y-95416000D01*
G75*
G02*
X151669000Y-95365000I0J51000D01*
G01*
X151669000Y-94815000D01*
G75*
G02*
X151720000Y-94764000I51000J0D01*
G01*
X153320000Y-94764000D01*
G75*
G02*
X153371000Y-94815000I0J-51000D01*
G01*
G37*
G36*
G01*
X153371000Y-94015000D02*
X153371000Y-94565000D01*
G75*
G02*
X153320000Y-94616000I-51000J0D01*
G01*
X151720000Y-94616000D01*
G75*
G02*
X151669000Y-94565000I0J51000D01*
G01*
X151669000Y-94015000D01*
G75*
G02*
X151720000Y-93964000I51000J0D01*
G01*
X153320000Y-93964000D01*
G75*
G02*
X153371000Y-94015000I0J-51000D01*
G01*
G37*
G36*
G01*
X153371000Y-93215000D02*
X153371000Y-93765000D01*
G75*
G02*
X153320000Y-93816000I-51000J0D01*
G01*
X151720000Y-93816000D01*
G75*
G02*
X151669000Y-93765000I0J51000D01*
G01*
X151669000Y-93215000D01*
G75*
G02*
X151720000Y-93164000I51000J0D01*
G01*
X153320000Y-93164000D01*
G75*
G02*
X153371000Y-93215000I0J-51000D01*
G01*
G37*
G36*
G01*
X153371000Y-92415000D02*
X153371000Y-92965000D01*
G75*
G02*
X153320000Y-93016000I-51000J0D01*
G01*
X151720000Y-93016000D01*
G75*
G02*
X151669000Y-92965000I0J51000D01*
G01*
X151669000Y-92415000D01*
G75*
G02*
X151720000Y-92364000I51000J0D01*
G01*
X153320000Y-92364000D01*
G75*
G02*
X153371000Y-92415000I0J-51000D01*
G01*
G37*
G36*
G01*
X153371000Y-91615000D02*
X153371000Y-92165000D01*
G75*
G02*
X153320000Y-92216000I-51000J0D01*
G01*
X151720000Y-92216000D01*
G75*
G02*
X151669000Y-92165000I0J51000D01*
G01*
X151669000Y-91615000D01*
G75*
G02*
X151720000Y-91564000I51000J0D01*
G01*
X153320000Y-91564000D01*
G75*
G02*
X153371000Y-91615000I0J-51000D01*
G01*
G37*
G36*
G01*
X153371000Y-90815000D02*
X153371000Y-91365000D01*
G75*
G02*
X153320000Y-91416000I-51000J0D01*
G01*
X151720000Y-91416000D01*
G75*
G02*
X151669000Y-91365000I0J51000D01*
G01*
X151669000Y-90815000D01*
G75*
G02*
X151720000Y-90764000I51000J0D01*
G01*
X153320000Y-90764000D01*
G75*
G02*
X153371000Y-90815000I0J-51000D01*
G01*
G37*
G36*
G01*
X154245000Y-90491000D02*
X153695000Y-90491000D01*
G75*
G02*
X153644000Y-90440000I0J51000D01*
G01*
X153644000Y-88840000D01*
G75*
G02*
X153695000Y-88789000I51000J0D01*
G01*
X154245000Y-88789000D01*
G75*
G02*
X154296000Y-88840000I0J-51000D01*
G01*
X154296000Y-90440000D01*
G75*
G02*
X154245000Y-90491000I-51000J0D01*
G01*
G37*
G36*
G01*
X155045000Y-90491000D02*
X154495000Y-90491000D01*
G75*
G02*
X154444000Y-90440000I0J51000D01*
G01*
X154444000Y-88840000D01*
G75*
G02*
X154495000Y-88789000I51000J0D01*
G01*
X155045000Y-88789000D01*
G75*
G02*
X155096000Y-88840000I0J-51000D01*
G01*
X155096000Y-90440000D01*
G75*
G02*
X155045000Y-90491000I-51000J0D01*
G01*
G37*
G36*
G01*
X155845000Y-90491000D02*
X155295000Y-90491000D01*
G75*
G02*
X155244000Y-90440000I0J51000D01*
G01*
X155244000Y-88840000D01*
G75*
G02*
X155295000Y-88789000I51000J0D01*
G01*
X155845000Y-88789000D01*
G75*
G02*
X155896000Y-88840000I0J-51000D01*
G01*
X155896000Y-90440000D01*
G75*
G02*
X155845000Y-90491000I-51000J0D01*
G01*
G37*
G36*
G01*
X156645000Y-90491000D02*
X156095000Y-90491000D01*
G75*
G02*
X156044000Y-90440000I0J51000D01*
G01*
X156044000Y-88840000D01*
G75*
G02*
X156095000Y-88789000I51000J0D01*
G01*
X156645000Y-88789000D01*
G75*
G02*
X156696000Y-88840000I0J-51000D01*
G01*
X156696000Y-90440000D01*
G75*
G02*
X156645000Y-90491000I-51000J0D01*
G01*
G37*
G36*
G01*
X157445000Y-90491000D02*
X156895000Y-90491000D01*
G75*
G02*
X156844000Y-90440000I0J51000D01*
G01*
X156844000Y-88840000D01*
G75*
G02*
X156895000Y-88789000I51000J0D01*
G01*
X157445000Y-88789000D01*
G75*
G02*
X157496000Y-88840000I0J-51000D01*
G01*
X157496000Y-90440000D01*
G75*
G02*
X157445000Y-90491000I-51000J0D01*
G01*
G37*
G36*
G01*
X158245000Y-90491000D02*
X157695000Y-90491000D01*
G75*
G02*
X157644000Y-90440000I0J51000D01*
G01*
X157644000Y-88840000D01*
G75*
G02*
X157695000Y-88789000I51000J0D01*
G01*
X158245000Y-88789000D01*
G75*
G02*
X158296000Y-88840000I0J-51000D01*
G01*
X158296000Y-90440000D01*
G75*
G02*
X158245000Y-90491000I-51000J0D01*
G01*
G37*
G36*
G01*
X159045000Y-90491000D02*
X158495000Y-90491000D01*
G75*
G02*
X158444000Y-90440000I0J51000D01*
G01*
X158444000Y-88840000D01*
G75*
G02*
X158495000Y-88789000I51000J0D01*
G01*
X159045000Y-88789000D01*
G75*
G02*
X159096000Y-88840000I0J-51000D01*
G01*
X159096000Y-90440000D01*
G75*
G02*
X159045000Y-90491000I-51000J0D01*
G01*
G37*
G36*
G01*
X159845000Y-90491000D02*
X159295000Y-90491000D01*
G75*
G02*
X159244000Y-90440000I0J51000D01*
G01*
X159244000Y-88840000D01*
G75*
G02*
X159295000Y-88789000I51000J0D01*
G01*
X159845000Y-88789000D01*
G75*
G02*
X159896000Y-88840000I0J-51000D01*
G01*
X159896000Y-90440000D01*
G75*
G02*
X159845000Y-90491000I-51000J0D01*
G01*
G37*
G36*
G01*
X161871000Y-90815000D02*
X161871000Y-91365000D01*
G75*
G02*
X161820000Y-91416000I-51000J0D01*
G01*
X160220000Y-91416000D01*
G75*
G02*
X160169000Y-91365000I0J51000D01*
G01*
X160169000Y-90815000D01*
G75*
G02*
X160220000Y-90764000I51000J0D01*
G01*
X161820000Y-90764000D01*
G75*
G02*
X161871000Y-90815000I0J-51000D01*
G01*
G37*
G36*
G01*
X161871000Y-91615000D02*
X161871000Y-92165000D01*
G75*
G02*
X161820000Y-92216000I-51000J0D01*
G01*
X160220000Y-92216000D01*
G75*
G02*
X160169000Y-92165000I0J51000D01*
G01*
X160169000Y-91615000D01*
G75*
G02*
X160220000Y-91564000I51000J0D01*
G01*
X161820000Y-91564000D01*
G75*
G02*
X161871000Y-91615000I0J-51000D01*
G01*
G37*
G36*
G01*
X161871000Y-92415000D02*
X161871000Y-92965000D01*
G75*
G02*
X161820000Y-93016000I-51000J0D01*
G01*
X160220000Y-93016000D01*
G75*
G02*
X160169000Y-92965000I0J51000D01*
G01*
X160169000Y-92415000D01*
G75*
G02*
X160220000Y-92364000I51000J0D01*
G01*
X161820000Y-92364000D01*
G75*
G02*
X161871000Y-92415000I0J-51000D01*
G01*
G37*
G36*
G01*
X161871000Y-93215000D02*
X161871000Y-93765000D01*
G75*
G02*
X161820000Y-93816000I-51000J0D01*
G01*
X160220000Y-93816000D01*
G75*
G02*
X160169000Y-93765000I0J51000D01*
G01*
X160169000Y-93215000D01*
G75*
G02*
X160220000Y-93164000I51000J0D01*
G01*
X161820000Y-93164000D01*
G75*
G02*
X161871000Y-93215000I0J-51000D01*
G01*
G37*
G36*
G01*
X161871000Y-94015000D02*
X161871000Y-94565000D01*
G75*
G02*
X161820000Y-94616000I-51000J0D01*
G01*
X160220000Y-94616000D01*
G75*
G02*
X160169000Y-94565000I0J51000D01*
G01*
X160169000Y-94015000D01*
G75*
G02*
X160220000Y-93964000I51000J0D01*
G01*
X161820000Y-93964000D01*
G75*
G02*
X161871000Y-94015000I0J-51000D01*
G01*
G37*
G36*
G01*
X161871000Y-94815000D02*
X161871000Y-95365000D01*
G75*
G02*
X161820000Y-95416000I-51000J0D01*
G01*
X160220000Y-95416000D01*
G75*
G02*
X160169000Y-95365000I0J51000D01*
G01*
X160169000Y-94815000D01*
G75*
G02*
X160220000Y-94764000I51000J0D01*
G01*
X161820000Y-94764000D01*
G75*
G02*
X161871000Y-94815000I0J-51000D01*
G01*
G37*
G36*
G01*
X161871000Y-95615000D02*
X161871000Y-96165000D01*
G75*
G02*
X161820000Y-96216000I-51000J0D01*
G01*
X160220000Y-96216000D01*
G75*
G02*
X160169000Y-96165000I0J51000D01*
G01*
X160169000Y-95615000D01*
G75*
G02*
X160220000Y-95564000I51000J0D01*
G01*
X161820000Y-95564000D01*
G75*
G02*
X161871000Y-95615000I0J-51000D01*
G01*
G37*
G36*
G01*
X161871000Y-96415000D02*
X161871000Y-96965000D01*
G75*
G02*
X161820000Y-97016000I-51000J0D01*
G01*
X160220000Y-97016000D01*
G75*
G02*
X160169000Y-96965000I0J51000D01*
G01*
X160169000Y-96415000D01*
G75*
G02*
X160220000Y-96364000I51000J0D01*
G01*
X161820000Y-96364000D01*
G75*
G02*
X161871000Y-96415000I0J-51000D01*
G01*
G37*
G36*
G01*
X159845000Y-98991000D02*
X159295000Y-98991000D01*
G75*
G02*
X159244000Y-98940000I0J51000D01*
G01*
X159244000Y-97340000D01*
G75*
G02*
X159295000Y-97289000I51000J0D01*
G01*
X159845000Y-97289000D01*
G75*
G02*
X159896000Y-97340000I0J-51000D01*
G01*
X159896000Y-98940000D01*
G75*
G02*
X159845000Y-98991000I-51000J0D01*
G01*
G37*
G36*
G01*
X159045000Y-98991000D02*
X158495000Y-98991000D01*
G75*
G02*
X158444000Y-98940000I0J51000D01*
G01*
X158444000Y-97340000D01*
G75*
G02*
X158495000Y-97289000I51000J0D01*
G01*
X159045000Y-97289000D01*
G75*
G02*
X159096000Y-97340000I0J-51000D01*
G01*
X159096000Y-98940000D01*
G75*
G02*
X159045000Y-98991000I-51000J0D01*
G01*
G37*
G36*
G01*
X158245000Y-98991000D02*
X157695000Y-98991000D01*
G75*
G02*
X157644000Y-98940000I0J51000D01*
G01*
X157644000Y-97340000D01*
G75*
G02*
X157695000Y-97289000I51000J0D01*
G01*
X158245000Y-97289000D01*
G75*
G02*
X158296000Y-97340000I0J-51000D01*
G01*
X158296000Y-98940000D01*
G75*
G02*
X158245000Y-98991000I-51000J0D01*
G01*
G37*
G36*
G01*
X157445000Y-98991000D02*
X156895000Y-98991000D01*
G75*
G02*
X156844000Y-98940000I0J51000D01*
G01*
X156844000Y-97340000D01*
G75*
G02*
X156895000Y-97289000I51000J0D01*
G01*
X157445000Y-97289000D01*
G75*
G02*
X157496000Y-97340000I0J-51000D01*
G01*
X157496000Y-98940000D01*
G75*
G02*
X157445000Y-98991000I-51000J0D01*
G01*
G37*
G36*
G01*
X156645000Y-98991000D02*
X156095000Y-98991000D01*
G75*
G02*
X156044000Y-98940000I0J51000D01*
G01*
X156044000Y-97340000D01*
G75*
G02*
X156095000Y-97289000I51000J0D01*
G01*
X156645000Y-97289000D01*
G75*
G02*
X156696000Y-97340000I0J-51000D01*
G01*
X156696000Y-98940000D01*
G75*
G02*
X156645000Y-98991000I-51000J0D01*
G01*
G37*
G36*
G01*
X155845000Y-98991000D02*
X155295000Y-98991000D01*
G75*
G02*
X155244000Y-98940000I0J51000D01*
G01*
X155244000Y-97340000D01*
G75*
G02*
X155295000Y-97289000I51000J0D01*
G01*
X155845000Y-97289000D01*
G75*
G02*
X155896000Y-97340000I0J-51000D01*
G01*
X155896000Y-98940000D01*
G75*
G02*
X155845000Y-98991000I-51000J0D01*
G01*
G37*
G36*
G01*
X155045000Y-98991000D02*
X154495000Y-98991000D01*
G75*
G02*
X154444000Y-98940000I0J51000D01*
G01*
X154444000Y-97340000D01*
G75*
G02*
X154495000Y-97289000I51000J0D01*
G01*
X155045000Y-97289000D01*
G75*
G02*
X155096000Y-97340000I0J-51000D01*
G01*
X155096000Y-98940000D01*
G75*
G02*
X155045000Y-98991000I-51000J0D01*
G01*
G37*
G36*
G01*
X154245000Y-98991000D02*
X153695000Y-98991000D01*
G75*
G02*
X153644000Y-98940000I0J51000D01*
G01*
X153644000Y-97340000D01*
G75*
G02*
X153695000Y-97289000I51000J0D01*
G01*
X154245000Y-97289000D01*
G75*
G02*
X154296000Y-97340000I0J-51000D01*
G01*
X154296000Y-98940000D01*
G75*
G02*
X154245000Y-98991000I-51000J0D01*
G01*
G37*
G36*
G01*
X162100000Y-77101000D02*
X160500000Y-77101000D01*
G75*
G02*
X160449000Y-77050000I0J51000D01*
G01*
X160449000Y-74870000D01*
G75*
G02*
X160500000Y-74819000I51000J0D01*
G01*
X162100000Y-74819000D01*
G75*
G02*
X162151000Y-74870000I0J-51000D01*
G01*
X162151000Y-77050000D01*
G75*
G02*
X162100000Y-77101000I-51000J0D01*
G01*
G37*
G36*
G01*
X162100000Y-86281000D02*
X160500000Y-86281000D01*
G75*
G02*
X160449000Y-86230000I0J51000D01*
G01*
X160449000Y-84050000D01*
G75*
G02*
X160500000Y-83999000I51000J0D01*
G01*
X162100000Y-83999000D01*
G75*
G02*
X162151000Y-84050000I0J-51000D01*
G01*
X162151000Y-86230000D01*
G75*
G02*
X162100000Y-86281000I-51000J0D01*
G01*
G37*
G36*
G01*
X144901000Y-102603887D02*
X144901000Y-103518113D01*
G75*
G02*
X144632113Y-103787000I-268887J0D01*
G01*
X143492887Y-103787000D01*
G75*
G02*
X143224000Y-103518113I0J268887D01*
G01*
X143224000Y-102603887D01*
G75*
G02*
X143492887Y-102335000I268887J0D01*
G01*
X144632113Y-102335000D01*
G75*
G02*
X144901000Y-102603887I0J-268887D01*
G01*
G37*
G36*
G01*
X147776000Y-102603887D02*
X147776000Y-103518113D01*
G75*
G02*
X147507113Y-103787000I-268887J0D01*
G01*
X146367887Y-103787000D01*
G75*
G02*
X146099000Y-103518113I0J268887D01*
G01*
X146099000Y-102603887D01*
G75*
G02*
X146367887Y-102335000I268887J0D01*
G01*
X147507113Y-102335000D01*
G75*
G02*
X147776000Y-102603887I0J-268887D01*
G01*
G37*
G36*
G01*
X155016000Y-120442887D02*
X155016000Y-121357113D01*
G75*
G02*
X154747113Y-121626000I-268887J0D01*
G01*
X153607887Y-121626000D01*
G75*
G02*
X153339000Y-121357113I0J268887D01*
G01*
X153339000Y-120442887D01*
G75*
G02*
X153607887Y-120174000I268887J0D01*
G01*
X154747113Y-120174000D01*
G75*
G02*
X155016000Y-120442887I0J-268887D01*
G01*
G37*
G36*
G01*
X152141000Y-120442887D02*
X152141000Y-121357113D01*
G75*
G02*
X151872113Y-121626000I-268887J0D01*
G01*
X150732887Y-121626000D01*
G75*
G02*
X150464000Y-121357113I0J268887D01*
G01*
X150464000Y-120442887D01*
G75*
G02*
X150732887Y-120174000I268887J0D01*
G01*
X151872113Y-120174000D01*
G75*
G02*
X152141000Y-120442887I0J-268887D01*
G01*
G37*
G36*
G01*
X126408828Y-124181000D02*
X125451172Y-124181000D01*
G75*
G02*
X125179000Y-123908828I0J272172D01*
G01*
X125179000Y-123201172D01*
G75*
G02*
X125451172Y-122929000I272172J0D01*
G01*
X126408828Y-122929000D01*
G75*
G02*
X126681000Y-123201172I0J-272172D01*
G01*
X126681000Y-123908828D01*
G75*
G02*
X126408828Y-124181000I-272172J0D01*
G01*
G37*
G36*
G01*
X126408828Y-122131000D02*
X125451172Y-122131000D01*
G75*
G02*
X125179000Y-121858828I0J272172D01*
G01*
X125179000Y-121151172D01*
G75*
G02*
X125451172Y-120879000I272172J0D01*
G01*
X126408828Y-120879000D01*
G75*
G02*
X126681000Y-121151172I0J-272172D01*
G01*
X126681000Y-121858828D01*
G75*
G02*
X126408828Y-122131000I-272172J0D01*
G01*
G37*
G36*
G01*
X135329000Y-124508828D02*
X135329000Y-123551172D01*
G75*
G02*
X135601172Y-123279000I272172J0D01*
G01*
X136308828Y-123279000D01*
G75*
G02*
X136581000Y-123551172I0J-272172D01*
G01*
X136581000Y-124508828D01*
G75*
G02*
X136308828Y-124781000I-272172J0D01*
G01*
X135601172Y-124781000D01*
G75*
G02*
X135329000Y-124508828I0J272172D01*
G01*
G37*
G36*
G01*
X133279000Y-124508828D02*
X133279000Y-123551172D01*
G75*
G02*
X133551172Y-123279000I272172J0D01*
G01*
X134258828Y-123279000D01*
G75*
G02*
X134531000Y-123551172I0J-272172D01*
G01*
X134531000Y-124508828D01*
G75*
G02*
X134258828Y-124781000I-272172J0D01*
G01*
X133551172Y-124781000D01*
G75*
G02*
X133279000Y-124508828I0J272172D01*
G01*
G37*
G36*
G01*
X135071172Y-91859000D02*
X136028828Y-91859000D01*
G75*
G02*
X136301000Y-92131172I0J-272172D01*
G01*
X136301000Y-92838828D01*
G75*
G02*
X136028828Y-93111000I-272172J0D01*
G01*
X135071172Y-93111000D01*
G75*
G02*
X134799000Y-92838828I0J272172D01*
G01*
X134799000Y-92131172D01*
G75*
G02*
X135071172Y-91859000I272172J0D01*
G01*
G37*
G36*
G01*
X135071172Y-89809000D02*
X136028828Y-89809000D01*
G75*
G02*
X136301000Y-90081172I0J-272172D01*
G01*
X136301000Y-90788828D01*
G75*
G02*
X136028828Y-91061000I-272172J0D01*
G01*
X135071172Y-91061000D01*
G75*
G02*
X134799000Y-90788828I0J272172D01*
G01*
X134799000Y-90081172D01*
G75*
G02*
X135071172Y-89809000I272172J0D01*
G01*
G37*
G36*
G01*
X132081000Y-123551172D02*
X132081000Y-124508828D01*
G75*
G02*
X131808828Y-124781000I-272172J0D01*
G01*
X131101172Y-124781000D01*
G75*
G02*
X130829000Y-124508828I0J272172D01*
G01*
X130829000Y-123551172D01*
G75*
G02*
X131101172Y-123279000I272172J0D01*
G01*
X131808828Y-123279000D01*
G75*
G02*
X132081000Y-123551172I0J-272172D01*
G01*
G37*
G36*
G01*
X130031000Y-123551172D02*
X130031000Y-124508828D01*
G75*
G02*
X129758828Y-124781000I-272172J0D01*
G01*
X129051172Y-124781000D01*
G75*
G02*
X128779000Y-124508828I0J272172D01*
G01*
X128779000Y-123551172D01*
G75*
G02*
X129051172Y-123279000I272172J0D01*
G01*
X129758828Y-123279000D01*
G75*
G02*
X130031000Y-123551172I0J-272172D01*
G01*
G37*
G36*
G01*
X139449000Y-81040800D02*
X139449000Y-78959200D01*
G75*
G02*
X139709200Y-78699000I260200J0D01*
G01*
X143290800Y-78699000D01*
G75*
G02*
X143551000Y-78959200I0J-260200D01*
G01*
X143551000Y-81040800D01*
G75*
G02*
X143290800Y-81301000I-260200J0D01*
G01*
X139709200Y-81301000D01*
G75*
G02*
X139449000Y-81040800I0J260200D01*
G01*
G37*
G36*
G01*
X147449000Y-81040800D02*
X147449000Y-78959200D01*
G75*
G02*
X147709200Y-78699000I260200J0D01*
G01*
X151290800Y-78699000D01*
G75*
G02*
X151551000Y-78959200I0J-260200D01*
G01*
X151551000Y-81040800D01*
G75*
G02*
X151290800Y-81301000I-260200J0D01*
G01*
X147709200Y-81301000D01*
G75*
G02*
X147449000Y-81040800I0J260200D01*
G01*
G37*
G36*
G01*
X139824000Y-94478828D02*
X139824000Y-93521172D01*
G75*
G02*
X140096172Y-93249000I272172J0D01*
G01*
X140803828Y-93249000D01*
G75*
G02*
X141076000Y-93521172I0J-272172D01*
G01*
X141076000Y-94478828D01*
G75*
G02*
X140803828Y-94751000I-272172J0D01*
G01*
X140096172Y-94751000D01*
G75*
G02*
X139824000Y-94478828I0J272172D01*
G01*
G37*
G36*
G01*
X141874000Y-94478828D02*
X141874000Y-93521172D01*
G75*
G02*
X142146172Y-93249000I272172J0D01*
G01*
X142853828Y-93249000D01*
G75*
G02*
X143126000Y-93521172I0J-272172D01*
G01*
X143126000Y-94478828D01*
G75*
G02*
X142853828Y-94751000I-272172J0D01*
G01*
X142146172Y-94751000D01*
G75*
G02*
X141874000Y-94478828I0J272172D01*
G01*
G37*
G36*
G01*
X147671000Y-87910000D02*
X147671000Y-88710000D01*
G75*
G02*
X147620000Y-88761000I-51000J0D01*
G01*
X146720000Y-88761000D01*
G75*
G02*
X146669000Y-88710000I0J51000D01*
G01*
X146669000Y-87910000D01*
G75*
G02*
X146720000Y-87859000I51000J0D01*
G01*
X147620000Y-87859000D01*
G75*
G02*
X147671000Y-87910000I0J-51000D01*
G01*
G37*
G36*
G01*
X147671000Y-86010000D02*
X147671000Y-86810000D01*
G75*
G02*
X147620000Y-86861000I-51000J0D01*
G01*
X146720000Y-86861000D01*
G75*
G02*
X146669000Y-86810000I0J51000D01*
G01*
X146669000Y-86010000D01*
G75*
G02*
X146720000Y-85959000I51000J0D01*
G01*
X147620000Y-85959000D01*
G75*
G02*
X147671000Y-86010000I0J-51000D01*
G01*
G37*
G36*
G01*
X145671000Y-86960000D02*
X145671000Y-87760000D01*
G75*
G02*
X145620000Y-87811000I-51000J0D01*
G01*
X144720000Y-87811000D01*
G75*
G02*
X144669000Y-87760000I0J51000D01*
G01*
X144669000Y-86960000D01*
G75*
G02*
X144720000Y-86909000I51000J0D01*
G01*
X145620000Y-86909000D01*
G75*
G02*
X145671000Y-86960000I0J-51000D01*
G01*
G37*
D14*
X123500000Y-66500000D03*
X170500000Y-66500000D03*
X170500000Y-145000000D03*
X123500000Y-145000000D03*
D12*
X171500000Y-89000000D03*
G36*
G01*
X152799000Y-108250000D02*
X152799000Y-106750000D01*
G75*
G02*
X152850000Y-106699000I51000J0D01*
G01*
X153850000Y-106699000D01*
G75*
G02*
X153901000Y-106750000I0J-51000D01*
G01*
X153901000Y-108250000D01*
G75*
G02*
X153850000Y-108301000I-51000J0D01*
G01*
X152850000Y-108301000D01*
G75*
G02*
X152799000Y-108250000I0J51000D01*
G01*
G37*
G36*
G01*
X154099000Y-108250000D02*
X154099000Y-106750000D01*
G75*
G02*
X154150000Y-106699000I51000J0D01*
G01*
X155150000Y-106699000D01*
G75*
G02*
X155201000Y-106750000I0J-51000D01*
G01*
X155201000Y-108250000D01*
G75*
G02*
X155150000Y-108301000I-51000J0D01*
G01*
X154150000Y-108301000D01*
G75*
G02*
X154099000Y-108250000I0J51000D01*
G01*
G37*
G36*
G01*
X154099000Y-110750000D02*
X154099000Y-109250000D01*
G75*
G02*
X154150000Y-109199000I51000J0D01*
G01*
X155150000Y-109199000D01*
G75*
G02*
X155201000Y-109250000I0J-51000D01*
G01*
X155201000Y-110750000D01*
G75*
G02*
X155150000Y-110801000I-51000J0D01*
G01*
X154150000Y-110801000D01*
G75*
G02*
X154099000Y-110750000I0J51000D01*
G01*
G37*
G36*
G01*
X152799000Y-110750000D02*
X152799000Y-109250000D01*
G75*
G02*
X152850000Y-109199000I51000J0D01*
G01*
X153850000Y-109199000D01*
G75*
G02*
X153901000Y-109250000I0J-51000D01*
G01*
X153901000Y-110750000D01*
G75*
G02*
X153850000Y-110801000I-51000J0D01*
G01*
X152850000Y-110801000D01*
G75*
G02*
X152799000Y-110750000I0J51000D01*
G01*
G37*
G36*
G01*
X130550000Y-93251000D02*
X126450000Y-93251000D01*
G75*
G02*
X126399000Y-93200000I0J51000D01*
G01*
X126399000Y-89100000D01*
G75*
G02*
X126450000Y-89049000I51000J0D01*
G01*
X130550000Y-89049000D01*
G75*
G02*
X130601000Y-89100000I0J-51000D01*
G01*
X130601000Y-93200000D01*
G75*
G02*
X130550000Y-93251000I-51000J0D01*
G01*
G37*
G36*
G01*
X130550000Y-84951000D02*
X126450000Y-84951000D01*
G75*
G02*
X126399000Y-84900000I0J51000D01*
G01*
X126399000Y-80800000D01*
G75*
G02*
X126450000Y-80749000I51000J0D01*
G01*
X130550000Y-80749000D01*
G75*
G02*
X130601000Y-80800000I0J-51000D01*
G01*
X130601000Y-84900000D01*
G75*
G02*
X130550000Y-84951000I-51000J0D01*
G01*
G37*
G36*
G01*
X125451172Y-127429000D02*
X126408828Y-127429000D01*
G75*
G02*
X126681000Y-127701172I0J-272172D01*
G01*
X126681000Y-128408828D01*
G75*
G02*
X126408828Y-128681000I-272172J0D01*
G01*
X125451172Y-128681000D01*
G75*
G02*
X125179000Y-128408828I0J272172D01*
G01*
X125179000Y-127701172D01*
G75*
G02*
X125451172Y-127429000I272172J0D01*
G01*
G37*
G36*
G01*
X125451172Y-125379000D02*
X126408828Y-125379000D01*
G75*
G02*
X126681000Y-125651172I0J-272172D01*
G01*
X126681000Y-126358828D01*
G75*
G02*
X126408828Y-126631000I-272172J0D01*
G01*
X125451172Y-126631000D01*
G75*
G02*
X125179000Y-126358828I0J272172D01*
G01*
X125179000Y-125651172D01*
G75*
G02*
X125451172Y-125379000I272172J0D01*
G01*
G37*
G36*
G01*
X129779000Y-135508828D02*
X129779000Y-134551172D01*
G75*
G02*
X130051172Y-134279000I272172J0D01*
G01*
X130758828Y-134279000D01*
G75*
G02*
X131031000Y-134551172I0J-272172D01*
G01*
X131031000Y-135508828D01*
G75*
G02*
X130758828Y-135781000I-272172J0D01*
G01*
X130051172Y-135781000D01*
G75*
G02*
X129779000Y-135508828I0J272172D01*
G01*
G37*
G36*
G01*
X131829000Y-135508828D02*
X131829000Y-134551172D01*
G75*
G02*
X132101172Y-134279000I272172J0D01*
G01*
X132808828Y-134279000D01*
G75*
G02*
X133081000Y-134551172I0J-272172D01*
G01*
X133081000Y-135508828D01*
G75*
G02*
X132808828Y-135781000I-272172J0D01*
G01*
X132101172Y-135781000D01*
G75*
G02*
X131829000Y-135508828I0J272172D01*
G01*
G37*
G36*
G01*
X125279000Y-135508828D02*
X125279000Y-134551172D01*
G75*
G02*
X125551172Y-134279000I272172J0D01*
G01*
X126258828Y-134279000D01*
G75*
G02*
X126531000Y-134551172I0J-272172D01*
G01*
X126531000Y-135508828D01*
G75*
G02*
X126258828Y-135781000I-272172J0D01*
G01*
X125551172Y-135781000D01*
G75*
G02*
X125279000Y-135508828I0J272172D01*
G01*
G37*
G36*
G01*
X127329000Y-135508828D02*
X127329000Y-134551172D01*
G75*
G02*
X127601172Y-134279000I272172J0D01*
G01*
X128308828Y-134279000D01*
G75*
G02*
X128581000Y-134551172I0J-272172D01*
G01*
X128581000Y-135508828D01*
G75*
G02*
X128308828Y-135781000I-272172J0D01*
G01*
X127601172Y-135781000D01*
G75*
G02*
X127329000Y-135508828I0J272172D01*
G01*
G37*
G36*
G01*
X158478828Y-84601000D02*
X157521172Y-84601000D01*
G75*
G02*
X157249000Y-84328828I0J272172D01*
G01*
X157249000Y-83621172D01*
G75*
G02*
X157521172Y-83349000I272172J0D01*
G01*
X158478828Y-83349000D01*
G75*
G02*
X158751000Y-83621172I0J-272172D01*
G01*
X158751000Y-84328828D01*
G75*
G02*
X158478828Y-84601000I-272172J0D01*
G01*
G37*
G36*
G01*
X158478828Y-86651000D02*
X157521172Y-86651000D01*
G75*
G02*
X157249000Y-86378828I0J272172D01*
G01*
X157249000Y-85671172D01*
G75*
G02*
X157521172Y-85399000I272172J0D01*
G01*
X158478828Y-85399000D01*
G75*
G02*
X158751000Y-85671172I0J-272172D01*
G01*
X158751000Y-86378828D01*
G75*
G02*
X158478828Y-86651000I-272172J0D01*
G01*
G37*
G36*
G01*
X126408828Y-133181000D02*
X125451172Y-133181000D01*
G75*
G02*
X125179000Y-132908828I0J272172D01*
G01*
X125179000Y-132201172D01*
G75*
G02*
X125451172Y-131929000I272172J0D01*
G01*
X126408828Y-131929000D01*
G75*
G02*
X126681000Y-132201172I0J-272172D01*
G01*
X126681000Y-132908828D01*
G75*
G02*
X126408828Y-133181000I-272172J0D01*
G01*
G37*
G36*
G01*
X126408828Y-131131000D02*
X125451172Y-131131000D01*
G75*
G02*
X125179000Y-130858828I0J272172D01*
G01*
X125179000Y-130151172D01*
G75*
G02*
X125451172Y-129879000I272172J0D01*
G01*
X126408828Y-129879000D01*
G75*
G02*
X126681000Y-130151172I0J-272172D01*
G01*
X126681000Y-130858828D01*
G75*
G02*
X126408828Y-131131000I-272172J0D01*
G01*
G37*
G36*
G01*
X138970720Y-122699000D02*
X141889280Y-122699000D01*
G75*
G02*
X142156000Y-122965720I0J-266720D01*
G01*
X142156000Y-124059280D01*
G75*
G02*
X141889280Y-124326000I-266720J0D01*
G01*
X138970720Y-124326000D01*
G75*
G02*
X138704000Y-124059280I0J266720D01*
G01*
X138704000Y-122965720D01*
G75*
G02*
X138970720Y-122699000I266720J0D01*
G01*
G37*
G36*
G01*
X138970720Y-128674000D02*
X141889280Y-128674000D01*
G75*
G02*
X142156000Y-128940720I0J-266720D01*
G01*
X142156000Y-130034280D01*
G75*
G02*
X141889280Y-130301000I-266720J0D01*
G01*
X138970720Y-130301000D01*
G75*
G02*
X138704000Y-130034280I0J266720D01*
G01*
X138704000Y-128940720D01*
G75*
G02*
X138970720Y-128674000I266720J0D01*
G01*
G37*
G36*
G01*
X136899000Y-78478828D02*
X136899000Y-77521172D01*
G75*
G02*
X137171172Y-77249000I272172J0D01*
G01*
X137878828Y-77249000D01*
G75*
G02*
X138151000Y-77521172I0J-272172D01*
G01*
X138151000Y-78478828D01*
G75*
G02*
X137878828Y-78751000I-272172J0D01*
G01*
X137171172Y-78751000D01*
G75*
G02*
X136899000Y-78478828I0J272172D01*
G01*
G37*
G36*
G01*
X134849000Y-78478828D02*
X134849000Y-77521172D01*
G75*
G02*
X135121172Y-77249000I272172J0D01*
G01*
X135828828Y-77249000D01*
G75*
G02*
X136101000Y-77521172I0J-272172D01*
G01*
X136101000Y-78478828D01*
G75*
G02*
X135828828Y-78751000I-272172J0D01*
G01*
X135121172Y-78751000D01*
G75*
G02*
X134849000Y-78478828I0J272172D01*
G01*
G37*
G36*
G01*
X144324000Y-94478828D02*
X144324000Y-93521172D01*
G75*
G02*
X144596172Y-93249000I272172J0D01*
G01*
X145303828Y-93249000D01*
G75*
G02*
X145576000Y-93521172I0J-272172D01*
G01*
X145576000Y-94478828D01*
G75*
G02*
X145303828Y-94751000I-272172J0D01*
G01*
X144596172Y-94751000D01*
G75*
G02*
X144324000Y-94478828I0J272172D01*
G01*
G37*
G36*
G01*
X146374000Y-94478828D02*
X146374000Y-93521172D01*
G75*
G02*
X146646172Y-93249000I272172J0D01*
G01*
X147353828Y-93249000D01*
G75*
G02*
X147626000Y-93521172I0J-272172D01*
G01*
X147626000Y-94478828D01*
G75*
G02*
X147353828Y-94751000I-272172J0D01*
G01*
X146646172Y-94751000D01*
G75*
G02*
X146374000Y-94478828I0J272172D01*
G01*
G37*
G36*
G01*
X160071000Y-100575000D02*
X160071000Y-102425000D01*
G75*
G02*
X160020000Y-102476000I-51000J0D01*
G01*
X159520000Y-102476000D01*
G75*
G02*
X159469000Y-102425000I0J51000D01*
G01*
X159469000Y-100575000D01*
G75*
G02*
X159520000Y-100524000I51000J0D01*
G01*
X160020000Y-100524000D01*
G75*
G02*
X160071000Y-100575000I0J-51000D01*
G01*
G37*
G36*
G01*
X158801000Y-100575000D02*
X158801000Y-102425000D01*
G75*
G02*
X158750000Y-102476000I-51000J0D01*
G01*
X158250000Y-102476000D01*
G75*
G02*
X158199000Y-102425000I0J51000D01*
G01*
X158199000Y-100575000D01*
G75*
G02*
X158250000Y-100524000I51000J0D01*
G01*
X158750000Y-100524000D01*
G75*
G02*
X158801000Y-100575000I0J-51000D01*
G01*
G37*
G36*
G01*
X157531000Y-100575000D02*
X157531000Y-102425000D01*
G75*
G02*
X157480000Y-102476000I-51000J0D01*
G01*
X156980000Y-102476000D01*
G75*
G02*
X156929000Y-102425000I0J51000D01*
G01*
X156929000Y-100575000D01*
G75*
G02*
X156980000Y-100524000I51000J0D01*
G01*
X157480000Y-100524000D01*
G75*
G02*
X157531000Y-100575000I0J-51000D01*
G01*
G37*
D15*
G36*
X158302165Y-141273874D02*
G01*
X158303000Y-141275500D01*
X158303000Y-141331860D01*
X158302990Y-141332056D01*
X158288697Y-141477175D01*
X158288621Y-141477560D01*
X158248080Y-141611206D01*
X158247930Y-141611568D01*
X158182100Y-141734727D01*
X158181882Y-141735053D01*
X158093286Y-141843009D01*
X158093009Y-141843286D01*
X157985053Y-141931882D01*
X157984727Y-141932100D01*
X157861568Y-141997930D01*
X157861206Y-141998080D01*
X157727560Y-142038621D01*
X157727175Y-142038697D01*
X157582056Y-142052990D01*
X157581860Y-142053000D01*
X157525500Y-142053000D01*
X157523768Y-142052000D01*
X157523768Y-142050000D01*
X157525304Y-142049010D01*
X157676398Y-142034129D01*
X157821502Y-141990112D01*
X157955229Y-141918634D01*
X158072440Y-141822440D01*
X158168634Y-141705229D01*
X158240112Y-141571502D01*
X158284129Y-141426398D01*
X158299010Y-141275304D01*
X158300175Y-141273678D01*
X158302165Y-141273874D01*
G37*
G36*
X154700990Y-141275304D02*
G01*
X154715871Y-141426398D01*
X154759888Y-141571502D01*
X154831366Y-141705229D01*
X154927560Y-141822440D01*
X155044771Y-141918634D01*
X155178498Y-141990112D01*
X155323602Y-142034129D01*
X155474696Y-142049010D01*
X155476322Y-142050175D01*
X155476126Y-142052165D01*
X155474500Y-142053000D01*
X155418140Y-142053000D01*
X155417944Y-142052990D01*
X155272825Y-142038697D01*
X155272440Y-142038621D01*
X155138794Y-141998080D01*
X155138432Y-141997930D01*
X155015273Y-141932100D01*
X155014947Y-141931882D01*
X154906991Y-141843286D01*
X154906714Y-141843009D01*
X154818118Y-141735053D01*
X154817900Y-141734727D01*
X154752070Y-141611568D01*
X154751920Y-141611206D01*
X154711379Y-141477560D01*
X154711303Y-141477175D01*
X154697010Y-141332056D01*
X154697000Y-141331860D01*
X154697000Y-141275500D01*
X154698000Y-141273768D01*
X154700000Y-141273768D01*
X154700990Y-141275304D01*
G37*
G36*
X155476232Y-138948000D02*
G01*
X155476232Y-138950000D01*
X155474696Y-138950990D01*
X155323602Y-138965871D01*
X155178498Y-139009888D01*
X155044771Y-139081366D01*
X154927560Y-139177560D01*
X154831366Y-139294771D01*
X154759888Y-139428498D01*
X154715871Y-139573602D01*
X154700990Y-139724696D01*
X154699825Y-139726322D01*
X154697835Y-139726126D01*
X154697000Y-139724500D01*
X154697000Y-139668140D01*
X154697010Y-139667944D01*
X154711303Y-139522825D01*
X154711379Y-139522440D01*
X154751920Y-139388794D01*
X154752070Y-139388432D01*
X154817900Y-139265273D01*
X154818118Y-139264947D01*
X154906714Y-139156991D01*
X154906991Y-139156714D01*
X155014947Y-139068118D01*
X155015273Y-139067900D01*
X155138432Y-139002070D01*
X155138794Y-139001920D01*
X155272440Y-138961379D01*
X155272825Y-138961303D01*
X155417944Y-138947010D01*
X155418140Y-138947000D01*
X155474500Y-138947000D01*
X155476232Y-138948000D01*
G37*
G36*
X157582056Y-138947010D02*
G01*
X157727175Y-138961303D01*
X157727560Y-138961379D01*
X157861206Y-139001920D01*
X157861568Y-139002070D01*
X157984727Y-139067900D01*
X157985053Y-139068118D01*
X158093009Y-139156714D01*
X158093286Y-139156991D01*
X158181882Y-139264947D01*
X158182100Y-139265273D01*
X158247930Y-139388432D01*
X158248080Y-139388794D01*
X158288621Y-139522440D01*
X158288697Y-139522825D01*
X158302990Y-139667944D01*
X158303000Y-139668140D01*
X158303000Y-139724500D01*
X158302000Y-139726232D01*
X158300000Y-139726232D01*
X158299010Y-139724696D01*
X158284129Y-139573602D01*
X158240112Y-139428498D01*
X158168634Y-139294771D01*
X158072440Y-139177560D01*
X157955229Y-139081366D01*
X157821502Y-139009888D01*
X157676398Y-138965871D01*
X157525304Y-138950990D01*
X157523678Y-138949825D01*
X157523874Y-138947835D01*
X157525500Y-138947000D01*
X157581860Y-138947000D01*
X157582056Y-138947010D01*
G37*
G36*
X159400990Y-138400304D02*
G01*
X159418273Y-138575784D01*
X159469403Y-138744337D01*
X159552433Y-138899675D01*
X159664171Y-139035829D01*
X159800325Y-139147567D01*
X159955663Y-139230597D01*
X160124216Y-139281727D01*
X160299696Y-139299010D01*
X160301322Y-139300175D01*
X160301126Y-139302165D01*
X160299500Y-139303000D01*
X160243140Y-139303000D01*
X160242944Y-139302990D01*
X160073438Y-139286295D01*
X160073053Y-139286219D01*
X159915959Y-139238565D01*
X159915597Y-139238415D01*
X159770826Y-139161033D01*
X159770500Y-139160815D01*
X159643603Y-139056674D01*
X159643326Y-139056397D01*
X159539185Y-138929500D01*
X159538967Y-138929174D01*
X159461585Y-138784403D01*
X159461435Y-138784041D01*
X159413781Y-138626947D01*
X159413705Y-138626562D01*
X159397010Y-138457056D01*
X159397000Y-138456860D01*
X159397000Y-138400500D01*
X159398000Y-138398768D01*
X159400000Y-138398768D01*
X159400990Y-138400304D01*
G37*
G36*
X163002165Y-138398874D02*
G01*
X163003000Y-138400500D01*
X163003000Y-138456860D01*
X163002990Y-138457056D01*
X162986295Y-138626562D01*
X162986219Y-138626947D01*
X162938565Y-138784041D01*
X162938415Y-138784403D01*
X162861033Y-138929174D01*
X162860815Y-138929500D01*
X162756674Y-139056397D01*
X162756397Y-139056674D01*
X162629500Y-139160815D01*
X162629174Y-139161033D01*
X162484403Y-139238415D01*
X162484041Y-139238565D01*
X162326947Y-139286219D01*
X162326562Y-139286295D01*
X162157056Y-139302990D01*
X162156860Y-139303000D01*
X162100500Y-139303000D01*
X162098768Y-139302000D01*
X162098768Y-139300000D01*
X162100304Y-139299010D01*
X162275784Y-139281727D01*
X162444337Y-139230597D01*
X162599675Y-139147567D01*
X162735829Y-139035829D01*
X162847567Y-138899675D01*
X162930597Y-138744337D01*
X162981727Y-138575784D01*
X162999010Y-138400304D01*
X163000175Y-138398678D01*
X163002165Y-138398874D01*
G37*
G36*
X160301232Y-135698000D02*
G01*
X160301232Y-135700000D01*
X160299696Y-135700990D01*
X160124216Y-135718273D01*
X159955663Y-135769403D01*
X159800325Y-135852433D01*
X159664171Y-135964171D01*
X159552433Y-136100325D01*
X159469403Y-136255663D01*
X159418273Y-136424216D01*
X159400990Y-136599696D01*
X159399825Y-136601322D01*
X159397835Y-136601126D01*
X159397000Y-136599500D01*
X159397000Y-136543140D01*
X159397010Y-136542944D01*
X159413705Y-136373438D01*
X159413781Y-136373053D01*
X159461435Y-136215959D01*
X159461585Y-136215597D01*
X159538967Y-136070826D01*
X159539185Y-136070500D01*
X159643326Y-135943603D01*
X159643603Y-135943326D01*
X159770500Y-135839185D01*
X159770826Y-135838967D01*
X159915597Y-135761585D01*
X159915959Y-135761435D01*
X160073053Y-135713781D01*
X160073438Y-135713705D01*
X160242944Y-135697010D01*
X160243140Y-135697000D01*
X160299500Y-135697000D01*
X160301232Y-135698000D01*
G37*
G36*
X162157056Y-135697010D02*
G01*
X162326562Y-135713705D01*
X162326947Y-135713781D01*
X162484041Y-135761435D01*
X162484403Y-135761585D01*
X162629174Y-135838967D01*
X162629500Y-135839185D01*
X162756397Y-135943326D01*
X162756674Y-135943603D01*
X162860815Y-136070500D01*
X162861033Y-136070826D01*
X162938415Y-136215597D01*
X162938565Y-136215959D01*
X162986219Y-136373053D01*
X162986295Y-136373438D01*
X163002990Y-136542944D01*
X163003000Y-136543140D01*
X163003000Y-136599500D01*
X163002000Y-136601232D01*
X163000000Y-136601232D01*
X162999010Y-136599696D01*
X162981727Y-136424216D01*
X162930597Y-136255663D01*
X162847567Y-136100325D01*
X162735829Y-135964171D01*
X162599675Y-135852433D01*
X162444337Y-135769403D01*
X162275784Y-135718273D01*
X162100304Y-135700990D01*
X162098678Y-135699825D01*
X162098874Y-135697835D01*
X162100500Y-135697000D01*
X162156860Y-135697000D01*
X162157056Y-135697010D01*
G37*
G36*
X147160990Y-133430604D02*
G01*
X147165970Y-133481168D01*
X147180664Y-133529605D01*
X147204523Y-133574243D01*
X147236632Y-133613368D01*
X147275757Y-133645477D01*
X147320395Y-133669336D01*
X147368832Y-133684030D01*
X147419396Y-133689010D01*
X147421022Y-133690175D01*
X147420826Y-133692165D01*
X147419200Y-133693000D01*
X147325340Y-133693000D01*
X147325144Y-133692990D01*
X147287870Y-133689319D01*
X147287485Y-133689243D01*
X147257542Y-133680160D01*
X147257180Y-133680010D01*
X147229592Y-133665264D01*
X147229266Y-133665046D01*
X147205080Y-133645197D01*
X147204803Y-133644920D01*
X147184954Y-133620734D01*
X147184736Y-133620408D01*
X147169990Y-133592820D01*
X147169840Y-133592458D01*
X147160757Y-133562515D01*
X147160681Y-133562130D01*
X147157010Y-133524856D01*
X147157000Y-133524660D01*
X147157000Y-133430800D01*
X147158000Y-133429068D01*
X147160000Y-133429068D01*
X147160990Y-133430604D01*
G37*
G36*
X149762165Y-133429174D02*
G01*
X149763000Y-133430800D01*
X149763000Y-133524660D01*
X149762990Y-133524856D01*
X149759319Y-133562130D01*
X149759243Y-133562515D01*
X149750160Y-133592458D01*
X149750010Y-133592820D01*
X149735264Y-133620408D01*
X149735046Y-133620734D01*
X149715197Y-133644920D01*
X149714920Y-133645197D01*
X149690734Y-133665046D01*
X149690408Y-133665264D01*
X149662820Y-133680010D01*
X149662458Y-133680160D01*
X149632515Y-133689243D01*
X149632130Y-133689319D01*
X149594856Y-133692990D01*
X149594660Y-133693000D01*
X149500800Y-133693000D01*
X149499068Y-133692000D01*
X149499068Y-133690000D01*
X149500604Y-133689010D01*
X149551168Y-133684030D01*
X149599605Y-133669336D01*
X149644243Y-133645477D01*
X149683368Y-133613368D01*
X149715477Y-133574243D01*
X149739336Y-133529605D01*
X149754030Y-133481168D01*
X149759010Y-133430604D01*
X149760175Y-133428978D01*
X149762165Y-133429174D01*
G37*
G36*
X147420932Y-129588000D02*
G01*
X147420932Y-129590000D01*
X147419396Y-129590990D01*
X147368832Y-129595970D01*
X147320395Y-129610664D01*
X147275757Y-129634523D01*
X147236632Y-129666632D01*
X147204523Y-129705757D01*
X147180664Y-129750395D01*
X147165970Y-129798832D01*
X147160990Y-129849396D01*
X147159825Y-129851022D01*
X147157835Y-129850826D01*
X147157000Y-129849200D01*
X147157000Y-129755340D01*
X147157010Y-129755144D01*
X147160681Y-129717870D01*
X147160757Y-129717485D01*
X147169840Y-129687542D01*
X147169990Y-129687180D01*
X147184736Y-129659592D01*
X147184954Y-129659266D01*
X147204803Y-129635080D01*
X147205080Y-129634803D01*
X147229266Y-129614954D01*
X147229592Y-129614736D01*
X147257180Y-129599990D01*
X147257542Y-129599840D01*
X147287485Y-129590757D01*
X147287870Y-129590681D01*
X147325144Y-129587010D01*
X147325340Y-129587000D01*
X147419200Y-129587000D01*
X147420932Y-129588000D01*
G37*
G36*
X149594856Y-129587010D02*
G01*
X149632130Y-129590681D01*
X149632515Y-129590757D01*
X149662458Y-129599840D01*
X149662820Y-129599990D01*
X149690408Y-129614736D01*
X149690734Y-129614954D01*
X149714920Y-129634803D01*
X149715197Y-129635080D01*
X149735046Y-129659266D01*
X149735264Y-129659592D01*
X149750010Y-129687180D01*
X149750160Y-129687542D01*
X149759243Y-129717485D01*
X149759319Y-129717870D01*
X149762990Y-129755144D01*
X149763000Y-129755340D01*
X149763000Y-129849200D01*
X149762000Y-129850932D01*
X149760000Y-129850932D01*
X149759010Y-129849396D01*
X149754030Y-129798832D01*
X149739336Y-129750395D01*
X149715477Y-129705757D01*
X149683368Y-129666632D01*
X149644243Y-129634523D01*
X149599605Y-129610664D01*
X149551168Y-129595970D01*
X149500604Y-129590990D01*
X149498978Y-129589825D01*
X149499174Y-129587835D01*
X149500800Y-129587000D01*
X149594660Y-129587000D01*
X149594856Y-129587010D01*
G37*
G36*
X130526733Y-127143001D02*
G01*
X130527001Y-127144001D01*
X130527001Y-129646001D01*
X130526001Y-129647733D01*
X130525001Y-129648001D01*
X130352001Y-129648001D01*
X130350269Y-129647001D01*
X130350001Y-129646001D01*
X130350001Y-129096001D01*
X128800001Y-129096001D01*
X128798269Y-129095001D01*
X128798001Y-129094001D01*
X128798001Y-128996001D01*
X128799001Y-128994269D01*
X128800001Y-128994001D01*
X130350001Y-128994001D01*
X130350001Y-128446001D01*
X128800001Y-128446001D01*
X128798269Y-128445001D01*
X128798001Y-128444001D01*
X128798001Y-128346001D01*
X128799001Y-128344269D01*
X128800001Y-128344001D01*
X130350001Y-128344001D01*
X130350001Y-127796001D01*
X128800001Y-127796001D01*
X128798269Y-127795001D01*
X128798001Y-127794001D01*
X128798001Y-127696001D01*
X128799001Y-127694269D01*
X128800001Y-127694001D01*
X130350001Y-127694001D01*
X130350001Y-127144001D01*
X130351001Y-127142269D01*
X130352001Y-127142001D01*
X130525001Y-127142001D01*
X130526733Y-127143001D01*
G37*
G36*
X133201733Y-127143001D02*
G01*
X133202001Y-127144001D01*
X133202001Y-127694001D01*
X134752001Y-127694001D01*
X134753733Y-127695001D01*
X134754001Y-127696001D01*
X134754001Y-127794001D01*
X134753001Y-127795733D01*
X134752001Y-127796001D01*
X133202001Y-127796001D01*
X133202001Y-128344001D01*
X134752001Y-128344001D01*
X134753733Y-128345001D01*
X134754001Y-128346001D01*
X134754001Y-128444001D01*
X134753001Y-128445733D01*
X134752001Y-128446001D01*
X133202001Y-128446001D01*
X133202001Y-128994001D01*
X134752001Y-128994001D01*
X134753733Y-128995001D01*
X134754001Y-128996001D01*
X134754001Y-129094001D01*
X134753001Y-129095733D01*
X134752001Y-129096001D01*
X133202001Y-129096001D01*
X133202001Y-129646001D01*
X133201001Y-129647733D01*
X133200001Y-129648001D01*
X133027001Y-129648001D01*
X133025269Y-129647001D01*
X133025001Y-129646001D01*
X133025001Y-127144001D01*
X133026001Y-127142269D01*
X133027001Y-127142001D01*
X133200001Y-127142001D01*
X133201733Y-127143001D01*
G37*
G36*
X149762165Y-125429174D02*
G01*
X149763000Y-125430800D01*
X149763000Y-125524660D01*
X149762990Y-125524856D01*
X149759319Y-125562130D01*
X149759243Y-125562515D01*
X149750160Y-125592458D01*
X149750010Y-125592820D01*
X149735264Y-125620408D01*
X149735046Y-125620734D01*
X149715197Y-125644920D01*
X149714920Y-125645197D01*
X149690734Y-125665046D01*
X149690408Y-125665264D01*
X149662820Y-125680010D01*
X149662458Y-125680160D01*
X149632515Y-125689243D01*
X149632130Y-125689319D01*
X149594856Y-125692990D01*
X149594660Y-125693000D01*
X149500800Y-125693000D01*
X149499068Y-125692000D01*
X149499068Y-125690000D01*
X149500604Y-125689010D01*
X149551168Y-125684030D01*
X149599605Y-125669336D01*
X149644243Y-125645477D01*
X149683368Y-125613368D01*
X149715477Y-125574243D01*
X149739336Y-125529605D01*
X149754030Y-125481168D01*
X149759010Y-125430604D01*
X149760175Y-125428978D01*
X149762165Y-125429174D01*
G37*
G36*
X147160990Y-125430604D02*
G01*
X147165970Y-125481168D01*
X147180664Y-125529605D01*
X147204523Y-125574243D01*
X147236632Y-125613368D01*
X147275757Y-125645477D01*
X147320395Y-125669336D01*
X147368832Y-125684030D01*
X147419396Y-125689010D01*
X147421022Y-125690175D01*
X147420826Y-125692165D01*
X147419200Y-125693000D01*
X147325340Y-125693000D01*
X147325144Y-125692990D01*
X147287870Y-125689319D01*
X147287485Y-125689243D01*
X147257542Y-125680160D01*
X147257180Y-125680010D01*
X147229592Y-125665264D01*
X147229266Y-125665046D01*
X147205080Y-125645197D01*
X147204803Y-125644920D01*
X147184954Y-125620734D01*
X147184736Y-125620408D01*
X147169990Y-125592820D01*
X147169840Y-125592458D01*
X147160757Y-125562515D01*
X147160681Y-125562130D01*
X147157010Y-125524856D01*
X147157000Y-125524660D01*
X147157000Y-125430800D01*
X147158000Y-125429068D01*
X147160000Y-125429068D01*
X147160990Y-125430604D01*
G37*
G36*
X147420932Y-121588000D02*
G01*
X147420932Y-121590000D01*
X147419396Y-121590990D01*
X147368832Y-121595970D01*
X147320395Y-121610664D01*
X147275757Y-121634523D01*
X147236632Y-121666632D01*
X147204523Y-121705757D01*
X147180664Y-121750395D01*
X147165970Y-121798832D01*
X147160990Y-121849396D01*
X147159825Y-121851022D01*
X147157835Y-121850826D01*
X147157000Y-121849200D01*
X147157000Y-121755340D01*
X147157010Y-121755144D01*
X147160681Y-121717870D01*
X147160757Y-121717485D01*
X147169840Y-121687542D01*
X147169990Y-121687180D01*
X147184736Y-121659592D01*
X147184954Y-121659266D01*
X147204803Y-121635080D01*
X147205080Y-121634803D01*
X147229266Y-121614954D01*
X147229592Y-121614736D01*
X147257180Y-121599990D01*
X147257542Y-121599840D01*
X147287485Y-121590757D01*
X147287870Y-121590681D01*
X147325144Y-121587010D01*
X147325340Y-121587000D01*
X147419200Y-121587000D01*
X147420932Y-121588000D01*
G37*
G36*
X149594856Y-121587010D02*
G01*
X149632130Y-121590681D01*
X149632515Y-121590757D01*
X149662458Y-121599840D01*
X149662820Y-121599990D01*
X149690408Y-121614736D01*
X149690734Y-121614954D01*
X149714920Y-121634803D01*
X149715197Y-121635080D01*
X149735046Y-121659266D01*
X149735264Y-121659592D01*
X149750010Y-121687180D01*
X149750160Y-121687542D01*
X149759243Y-121717485D01*
X149759319Y-121717870D01*
X149762990Y-121755144D01*
X149763000Y-121755340D01*
X149763000Y-121849200D01*
X149762000Y-121850932D01*
X149760000Y-121850932D01*
X149759010Y-121849396D01*
X149754030Y-121798832D01*
X149739336Y-121750395D01*
X149715477Y-121705757D01*
X149683368Y-121666632D01*
X149644243Y-121634523D01*
X149599605Y-121610664D01*
X149551168Y-121595970D01*
X149500604Y-121590990D01*
X149498978Y-121589825D01*
X149499174Y-121587835D01*
X149500800Y-121587000D01*
X149594660Y-121587000D01*
X149594856Y-121587010D01*
G37*
G36*
X154100732Y-109198000D02*
G01*
X154101000Y-109199000D01*
X154101000Y-110801000D01*
X154100000Y-110802732D01*
X154099000Y-110803000D01*
X153901000Y-110803000D01*
X153899268Y-110802000D01*
X153899000Y-110801000D01*
X153899000Y-109199000D01*
X153900000Y-109197268D01*
X153901000Y-109197000D01*
X154099000Y-109197000D01*
X154100732Y-109198000D01*
G37*
G36*
X154100732Y-106698000D02*
G01*
X154101000Y-106699000D01*
X154101000Y-108301000D01*
X154100000Y-108302732D01*
X154099000Y-108303000D01*
X153901000Y-108303000D01*
X153899268Y-108302000D01*
X153899000Y-108301000D01*
X153899000Y-106699000D01*
X153900000Y-106697268D01*
X153901000Y-106697000D01*
X154099000Y-106697000D01*
X154100732Y-106698000D01*
G37*
G36*
X154445732Y-97288000D02*
G01*
X154446000Y-97289000D01*
X154446000Y-98991000D01*
X154445000Y-98992732D01*
X154444000Y-98993000D01*
X154296000Y-98993000D01*
X154294268Y-98992000D01*
X154294000Y-98991000D01*
X154294000Y-97289000D01*
X154295000Y-97287268D01*
X154296000Y-97287000D01*
X154444000Y-97287000D01*
X154445732Y-97288000D01*
G37*
G36*
X159245732Y-97288000D02*
G01*
X159246000Y-97289000D01*
X159246000Y-98991000D01*
X159245000Y-98992732D01*
X159244000Y-98993000D01*
X159096000Y-98993000D01*
X159094268Y-98992000D01*
X159094000Y-98991000D01*
X159094000Y-97289000D01*
X159095000Y-97287268D01*
X159096000Y-97287000D01*
X159244000Y-97287000D01*
X159245732Y-97288000D01*
G37*
G36*
X158445732Y-97288000D02*
G01*
X158446000Y-97289000D01*
X158446000Y-98991000D01*
X158445000Y-98992732D01*
X158444000Y-98993000D01*
X158296000Y-98993000D01*
X158294268Y-98992000D01*
X158294000Y-98991000D01*
X158294000Y-97289000D01*
X158295000Y-97287268D01*
X158296000Y-97287000D01*
X158444000Y-97287000D01*
X158445732Y-97288000D01*
G37*
G36*
X157645732Y-97288000D02*
G01*
X157646000Y-97289000D01*
X157646000Y-98991000D01*
X157645000Y-98992732D01*
X157644000Y-98993000D01*
X157496000Y-98993000D01*
X157494268Y-98992000D01*
X157494000Y-98991000D01*
X157494000Y-97289000D01*
X157495000Y-97287268D01*
X157496000Y-97287000D01*
X157644000Y-97287000D01*
X157645732Y-97288000D01*
G37*
G36*
X156845732Y-97288000D02*
G01*
X156846000Y-97289000D01*
X156846000Y-98991000D01*
X156845000Y-98992732D01*
X156844000Y-98993000D01*
X156696000Y-98993000D01*
X156694268Y-98992000D01*
X156694000Y-98991000D01*
X156694000Y-97289000D01*
X156695000Y-97287268D01*
X156696000Y-97287000D01*
X156844000Y-97287000D01*
X156845732Y-97288000D01*
G37*
G36*
X156045732Y-97288000D02*
G01*
X156046000Y-97289000D01*
X156046000Y-98991000D01*
X156045000Y-98992732D01*
X156044000Y-98993000D01*
X155896000Y-98993000D01*
X155894268Y-98992000D01*
X155894000Y-98991000D01*
X155894000Y-97289000D01*
X155895000Y-97287268D01*
X155896000Y-97287000D01*
X156044000Y-97287000D01*
X156045732Y-97288000D01*
G37*
G36*
X155245732Y-97288000D02*
G01*
X155246000Y-97289000D01*
X155246000Y-98991000D01*
X155245000Y-98992732D01*
X155244000Y-98993000D01*
X155096000Y-98993000D01*
X155094268Y-98992000D01*
X155094000Y-98991000D01*
X155094000Y-97289000D01*
X155095000Y-97287268D01*
X155096000Y-97287000D01*
X155244000Y-97287000D01*
X155245732Y-97288000D01*
G37*
G36*
X153372732Y-96215000D02*
G01*
X153373000Y-96216000D01*
X153373000Y-96364000D01*
X153372000Y-96365732D01*
X153371000Y-96366000D01*
X151669000Y-96366000D01*
X151667268Y-96365000D01*
X151667000Y-96364000D01*
X151667000Y-96216000D01*
X151668000Y-96214268D01*
X151669000Y-96214000D01*
X153371000Y-96214000D01*
X153372732Y-96215000D01*
G37*
G36*
X161872732Y-96215000D02*
G01*
X161873000Y-96216000D01*
X161873000Y-96364000D01*
X161872000Y-96365732D01*
X161871000Y-96366000D01*
X160169000Y-96366000D01*
X160167268Y-96365000D01*
X160167000Y-96364000D01*
X160167000Y-96216000D01*
X160168000Y-96214268D01*
X160169000Y-96214000D01*
X161871000Y-96214000D01*
X161872732Y-96215000D01*
G37*
G36*
X161872732Y-95415000D02*
G01*
X161873000Y-95416000D01*
X161873000Y-95564000D01*
X161872000Y-95565732D01*
X161871000Y-95566000D01*
X160169000Y-95566000D01*
X160167268Y-95565000D01*
X160167000Y-95564000D01*
X160167000Y-95416000D01*
X160168000Y-95414268D01*
X160169000Y-95414000D01*
X161871000Y-95414000D01*
X161872732Y-95415000D01*
G37*
G36*
X153372732Y-95415000D02*
G01*
X153373000Y-95416000D01*
X153373000Y-95564000D01*
X153372000Y-95565732D01*
X153371000Y-95566000D01*
X151669000Y-95566000D01*
X151667268Y-95565000D01*
X151667000Y-95564000D01*
X151667000Y-95416000D01*
X151668000Y-95414268D01*
X151669000Y-95414000D01*
X153371000Y-95414000D01*
X153372732Y-95415000D01*
G37*
G36*
X161872732Y-94615000D02*
G01*
X161873000Y-94616000D01*
X161873000Y-94764000D01*
X161872000Y-94765732D01*
X161871000Y-94766000D01*
X160169000Y-94766000D01*
X160167268Y-94765000D01*
X160167000Y-94764000D01*
X160167000Y-94616000D01*
X160168000Y-94614268D01*
X160169000Y-94614000D01*
X161871000Y-94614000D01*
X161872732Y-94615000D01*
G37*
G36*
X153372732Y-94615000D02*
G01*
X153373000Y-94616000D01*
X153373000Y-94764000D01*
X153372000Y-94765732D01*
X153371000Y-94766000D01*
X151669000Y-94766000D01*
X151667268Y-94765000D01*
X151667000Y-94764000D01*
X151667000Y-94616000D01*
X151668000Y-94614268D01*
X151669000Y-94614000D01*
X153371000Y-94614000D01*
X153372732Y-94615000D01*
G37*
G36*
X153372732Y-93815000D02*
G01*
X153373000Y-93816000D01*
X153373000Y-93964000D01*
X153372000Y-93965732D01*
X153371000Y-93966000D01*
X151669000Y-93966000D01*
X151667268Y-93965000D01*
X151667000Y-93964000D01*
X151667000Y-93816000D01*
X151668000Y-93814268D01*
X151669000Y-93814000D01*
X153371000Y-93814000D01*
X153372732Y-93815000D01*
G37*
G36*
X161872732Y-93815000D02*
G01*
X161873000Y-93816000D01*
X161873000Y-93964000D01*
X161872000Y-93965732D01*
X161871000Y-93966000D01*
X160169000Y-93966000D01*
X160167268Y-93965000D01*
X160167000Y-93964000D01*
X160167000Y-93816000D01*
X160168000Y-93814268D01*
X160169000Y-93814000D01*
X161871000Y-93814000D01*
X161872732Y-93815000D01*
G37*
G36*
X153372732Y-93015000D02*
G01*
X153373000Y-93016000D01*
X153373000Y-93164000D01*
X153372000Y-93165732D01*
X153371000Y-93166000D01*
X151669000Y-93166000D01*
X151667268Y-93165000D01*
X151667000Y-93164000D01*
X151667000Y-93016000D01*
X151668000Y-93014268D01*
X151669000Y-93014000D01*
X153371000Y-93014000D01*
X153372732Y-93015000D01*
G37*
G36*
X161872732Y-93015000D02*
G01*
X161873000Y-93016000D01*
X161873000Y-93164000D01*
X161872000Y-93165732D01*
X161871000Y-93166000D01*
X160169000Y-93166000D01*
X160167268Y-93165000D01*
X160167000Y-93164000D01*
X160167000Y-93016000D01*
X160168000Y-93014268D01*
X160169000Y-93014000D01*
X161871000Y-93014000D01*
X161872732Y-93015000D01*
G37*
G36*
X161872732Y-92215000D02*
G01*
X161873000Y-92216000D01*
X161873000Y-92364000D01*
X161872000Y-92365732D01*
X161871000Y-92366000D01*
X160169000Y-92366000D01*
X160167268Y-92365000D01*
X160167000Y-92364000D01*
X160167000Y-92216000D01*
X160168000Y-92214268D01*
X160169000Y-92214000D01*
X161871000Y-92214000D01*
X161872732Y-92215000D01*
G37*
G36*
X153372732Y-92215000D02*
G01*
X153373000Y-92216000D01*
X153373000Y-92364000D01*
X153372000Y-92365732D01*
X153371000Y-92366000D01*
X151669000Y-92366000D01*
X151667268Y-92365000D01*
X151667000Y-92364000D01*
X151667000Y-92216000D01*
X151668000Y-92214268D01*
X151669000Y-92214000D01*
X153371000Y-92214000D01*
X153372732Y-92215000D01*
G37*
G36*
X161872732Y-91415000D02*
G01*
X161873000Y-91416000D01*
X161873000Y-91564000D01*
X161872000Y-91565732D01*
X161871000Y-91566000D01*
X160169000Y-91566000D01*
X160167268Y-91565000D01*
X160167000Y-91564000D01*
X160167000Y-91416000D01*
X160168000Y-91414268D01*
X160169000Y-91414000D01*
X161871000Y-91414000D01*
X161872732Y-91415000D01*
G37*
G36*
X153372732Y-91415000D02*
G01*
X153373000Y-91416000D01*
X153373000Y-91564000D01*
X153372000Y-91565732D01*
X153371000Y-91566000D01*
X151669000Y-91566000D01*
X151667268Y-91565000D01*
X151667000Y-91564000D01*
X151667000Y-91416000D01*
X151668000Y-91414268D01*
X151669000Y-91414000D01*
X153371000Y-91414000D01*
X153372732Y-91415000D01*
G37*
G36*
X159245732Y-88788000D02*
G01*
X159246000Y-88789000D01*
X159246000Y-90491000D01*
X159245000Y-90492732D01*
X159244000Y-90493000D01*
X159096000Y-90493000D01*
X159094268Y-90492000D01*
X159094000Y-90491000D01*
X159094000Y-88789000D01*
X159095000Y-88787268D01*
X159096000Y-88787000D01*
X159244000Y-88787000D01*
X159245732Y-88788000D01*
G37*
G36*
X158445732Y-88788000D02*
G01*
X158446000Y-88789000D01*
X158446000Y-90491000D01*
X158445000Y-90492732D01*
X158444000Y-90493000D01*
X158296000Y-90493000D01*
X158294268Y-90492000D01*
X158294000Y-90491000D01*
X158294000Y-88789000D01*
X158295000Y-88787268D01*
X158296000Y-88787000D01*
X158444000Y-88787000D01*
X158445732Y-88788000D01*
G37*
G36*
X154445732Y-88788000D02*
G01*
X154446000Y-88789000D01*
X154446000Y-90491000D01*
X154445000Y-90492732D01*
X154444000Y-90493000D01*
X154296000Y-90493000D01*
X154294268Y-90492000D01*
X154294000Y-90491000D01*
X154294000Y-88789000D01*
X154295000Y-88787268D01*
X154296000Y-88787000D01*
X154444000Y-88787000D01*
X154445732Y-88788000D01*
G37*
G36*
X155245732Y-88788000D02*
G01*
X155246000Y-88789000D01*
X155246000Y-90491000D01*
X155245000Y-90492732D01*
X155244000Y-90493000D01*
X155096000Y-90493000D01*
X155094268Y-90492000D01*
X155094000Y-90491000D01*
X155094000Y-88789000D01*
X155095000Y-88787268D01*
X155096000Y-88787000D01*
X155244000Y-88787000D01*
X155245732Y-88788000D01*
G37*
G36*
X156045732Y-88788000D02*
G01*
X156046000Y-88789000D01*
X156046000Y-90491000D01*
X156045000Y-90492732D01*
X156044000Y-90493000D01*
X155896000Y-90493000D01*
X155894268Y-90492000D01*
X155894000Y-90491000D01*
X155894000Y-88789000D01*
X155895000Y-88787268D01*
X155896000Y-88787000D01*
X156044000Y-88787000D01*
X156045732Y-88788000D01*
G37*
G36*
X156845732Y-88788000D02*
G01*
X156846000Y-88789000D01*
X156846000Y-90491000D01*
X156845000Y-90492732D01*
X156844000Y-90493000D01*
X156696000Y-90493000D01*
X156694268Y-90492000D01*
X156694000Y-90491000D01*
X156694000Y-88789000D01*
X156695000Y-88787268D01*
X156696000Y-88787000D01*
X156844000Y-88787000D01*
X156845732Y-88788000D01*
G37*
G36*
X157645732Y-88788000D02*
G01*
X157646000Y-88789000D01*
X157646000Y-90491000D01*
X157645000Y-90492732D01*
X157644000Y-90493000D01*
X157496000Y-90493000D01*
X157494268Y-90492000D01*
X157494000Y-90491000D01*
X157494000Y-88789000D01*
X157495000Y-88787268D01*
X157496000Y-88787000D01*
X157644000Y-88787000D01*
X157645732Y-88788000D01*
G37*
G36*
X139058301Y-81122010D02*
G01*
X139100758Y-81126191D01*
X139101143Y-81126267D01*
X139136062Y-81136860D01*
X139136424Y-81137010D01*
X139168606Y-81154212D01*
X139168932Y-81154430D01*
X139197142Y-81177581D01*
X139197419Y-81177858D01*
X139227650Y-81214695D01*
X139227767Y-81214853D01*
X139228930Y-81216593D01*
X139245977Y-81233640D01*
X139264640Y-81246111D01*
X139265377Y-81248539D01*
X139257556Y-81267421D01*
X139252851Y-81291071D01*
X139252850Y-81315275D01*
X139252990Y-81316697D01*
X139253000Y-81316893D01*
X139253000Y-81391894D01*
X139252000Y-81393626D01*
X139250000Y-81393626D01*
X139249010Y-81392090D01*
X139243882Y-81340025D01*
X139228751Y-81290144D01*
X139204181Y-81244176D01*
X139171115Y-81203885D01*
X139130824Y-81170819D01*
X139084856Y-81146249D01*
X139034975Y-81131118D01*
X138982910Y-81125990D01*
X138981284Y-81124825D01*
X138981480Y-81122835D01*
X138983106Y-81122000D01*
X139058105Y-81122000D01*
X139058301Y-81122010D01*
G37*
G36*
X139450990Y-81040604D02*
G01*
X139455970Y-81091168D01*
X139470664Y-81139605D01*
X139494523Y-81184243D01*
X139526632Y-81223368D01*
X139565757Y-81255477D01*
X139610395Y-81279336D01*
X139658832Y-81294030D01*
X139709396Y-81299010D01*
X139711022Y-81300175D01*
X139710826Y-81302165D01*
X139709200Y-81303000D01*
X139615340Y-81303000D01*
X139615144Y-81302990D01*
X139577870Y-81299319D01*
X139577485Y-81299243D01*
X139547542Y-81290160D01*
X139547180Y-81290010D01*
X139519592Y-81275264D01*
X139519266Y-81275046D01*
X139495081Y-81255197D01*
X139494804Y-81254920D01*
X139470387Y-81225168D01*
X139453273Y-81208054D01*
X139434609Y-81195583D01*
X139433872Y-81193155D01*
X139441677Y-81174314D01*
X139447000Y-81138423D01*
X139447000Y-81040800D01*
X139448000Y-81039068D01*
X139450000Y-81039068D01*
X139450990Y-81040604D01*
G37*
G36*
X143552165Y-81039174D02*
G01*
X143553000Y-81040800D01*
X143553000Y-81134660D01*
X143552990Y-81134856D01*
X143549319Y-81172130D01*
X143549243Y-81172515D01*
X143540160Y-81202458D01*
X143540010Y-81202820D01*
X143525264Y-81230408D01*
X143525046Y-81230734D01*
X143505197Y-81254920D01*
X143504920Y-81255197D01*
X143480734Y-81275046D01*
X143480408Y-81275264D01*
X143452820Y-81290010D01*
X143452458Y-81290160D01*
X143422515Y-81299243D01*
X143422130Y-81299319D01*
X143384856Y-81302990D01*
X143384660Y-81303000D01*
X143290800Y-81303000D01*
X143289068Y-81302000D01*
X143289068Y-81300000D01*
X143290604Y-81299010D01*
X143341168Y-81294030D01*
X143389605Y-81279336D01*
X143434243Y-81255477D01*
X143473368Y-81223368D01*
X143505477Y-81184243D01*
X143529336Y-81139605D01*
X143544030Y-81091168D01*
X143549010Y-81040604D01*
X143550175Y-81038978D01*
X143552165Y-81039174D01*
G37*
G36*
X147450990Y-81040604D02*
G01*
X147455970Y-81091168D01*
X147470664Y-81139605D01*
X147494523Y-81184243D01*
X147526632Y-81223368D01*
X147565757Y-81255477D01*
X147610395Y-81279336D01*
X147658832Y-81294030D01*
X147709396Y-81299010D01*
X147711022Y-81300175D01*
X147710826Y-81302165D01*
X147709200Y-81303000D01*
X147615340Y-81303000D01*
X147615144Y-81302990D01*
X147577870Y-81299319D01*
X147577485Y-81299243D01*
X147547542Y-81290160D01*
X147547180Y-81290010D01*
X147519592Y-81275264D01*
X147519266Y-81275046D01*
X147495080Y-81255197D01*
X147494803Y-81254920D01*
X147474954Y-81230734D01*
X147474736Y-81230408D01*
X147459990Y-81202820D01*
X147459840Y-81202458D01*
X147450757Y-81172515D01*
X147450681Y-81172130D01*
X147447010Y-81134856D01*
X147447000Y-81134660D01*
X147447000Y-81040800D01*
X147448000Y-81039068D01*
X147450000Y-81039068D01*
X147450990Y-81040604D01*
G37*
G36*
X151552165Y-81039174D02*
G01*
X151553000Y-81040800D01*
X151553000Y-81134660D01*
X151552990Y-81134856D01*
X151549319Y-81172130D01*
X151549243Y-81172515D01*
X151540160Y-81202458D01*
X151540010Y-81202820D01*
X151525264Y-81230408D01*
X151525046Y-81230734D01*
X151505197Y-81254920D01*
X151504920Y-81255197D01*
X151480734Y-81275046D01*
X151480408Y-81275264D01*
X151452820Y-81290010D01*
X151452458Y-81290160D01*
X151422515Y-81299243D01*
X151422130Y-81299319D01*
X151384856Y-81302990D01*
X151384660Y-81303000D01*
X151290800Y-81303000D01*
X151289068Y-81302000D01*
X151289068Y-81300000D01*
X151290604Y-81299010D01*
X151341168Y-81294030D01*
X151389605Y-81279336D01*
X151434243Y-81255477D01*
X151473368Y-81223368D01*
X151505477Y-81184243D01*
X151529336Y-81139605D01*
X151544030Y-81091168D01*
X151549010Y-81040604D01*
X151550175Y-81038978D01*
X151552165Y-81039174D01*
G37*
G36*
X139710932Y-78698000D02*
G01*
X139710932Y-78700000D01*
X139709396Y-78700990D01*
X139658832Y-78705970D01*
X139610395Y-78720664D01*
X139565757Y-78744523D01*
X139526632Y-78776632D01*
X139494523Y-78815757D01*
X139470664Y-78860395D01*
X139455970Y-78908832D01*
X139450990Y-78959396D01*
X139449825Y-78961022D01*
X139447835Y-78960826D01*
X139447000Y-78959200D01*
X139447000Y-78865340D01*
X139447010Y-78865144D01*
X139450681Y-78827870D01*
X139450757Y-78827485D01*
X139459840Y-78797542D01*
X139459990Y-78797180D01*
X139474736Y-78769592D01*
X139474954Y-78769266D01*
X139494803Y-78745080D01*
X139495080Y-78744803D01*
X139519266Y-78724954D01*
X139519592Y-78724736D01*
X139547180Y-78709990D01*
X139547542Y-78709840D01*
X139577485Y-78700757D01*
X139577870Y-78700681D01*
X139615144Y-78697010D01*
X139615340Y-78697000D01*
X139709200Y-78697000D01*
X139710932Y-78698000D01*
G37*
G36*
X147710932Y-78698000D02*
G01*
X147710932Y-78700000D01*
X147709396Y-78700990D01*
X147658832Y-78705970D01*
X147610395Y-78720664D01*
X147565757Y-78744523D01*
X147526632Y-78776632D01*
X147494523Y-78815757D01*
X147470664Y-78860395D01*
X147455970Y-78908832D01*
X147450990Y-78959396D01*
X147449825Y-78961022D01*
X147447835Y-78960826D01*
X147447000Y-78959200D01*
X147447000Y-78865340D01*
X147447010Y-78865144D01*
X147450681Y-78827870D01*
X147450757Y-78827485D01*
X147459840Y-78797542D01*
X147459990Y-78797180D01*
X147474736Y-78769592D01*
X147474954Y-78769266D01*
X147494803Y-78745080D01*
X147495080Y-78744803D01*
X147519266Y-78724954D01*
X147519592Y-78724736D01*
X147547180Y-78709990D01*
X147547542Y-78709840D01*
X147577485Y-78700757D01*
X147577870Y-78700681D01*
X147615144Y-78697010D01*
X147615340Y-78697000D01*
X147709200Y-78697000D01*
X147710932Y-78698000D01*
G37*
G36*
X151384856Y-78697010D02*
G01*
X151422130Y-78700681D01*
X151422515Y-78700757D01*
X151452458Y-78709840D01*
X151452820Y-78709990D01*
X151480408Y-78724736D01*
X151480734Y-78724954D01*
X151504920Y-78744803D01*
X151505197Y-78745080D01*
X151525046Y-78769266D01*
X151525264Y-78769592D01*
X151540010Y-78797180D01*
X151540160Y-78797542D01*
X151549243Y-78827485D01*
X151549319Y-78827870D01*
X151552990Y-78865144D01*
X151553000Y-78865340D01*
X151553000Y-78959200D01*
X151552000Y-78960932D01*
X151550000Y-78960932D01*
X151549010Y-78959396D01*
X151544030Y-78908832D01*
X151529336Y-78860395D01*
X151505477Y-78815757D01*
X151473368Y-78776632D01*
X151434243Y-78744523D01*
X151389605Y-78720664D01*
X151341168Y-78705970D01*
X151290604Y-78700990D01*
X151288978Y-78699825D01*
X151289174Y-78697835D01*
X151290800Y-78697000D01*
X151384660Y-78697000D01*
X151384856Y-78697010D01*
G37*
G36*
X143384856Y-78697010D02*
G01*
X143422130Y-78700681D01*
X143422515Y-78700757D01*
X143452458Y-78709840D01*
X143452820Y-78709990D01*
X143480408Y-78724736D01*
X143480734Y-78724954D01*
X143504920Y-78744803D01*
X143505197Y-78745080D01*
X143525046Y-78769266D01*
X143525264Y-78769592D01*
X143540010Y-78797180D01*
X143540160Y-78797542D01*
X143549243Y-78827485D01*
X143549319Y-78827870D01*
X143552990Y-78865144D01*
X143553000Y-78865340D01*
X143553000Y-78959200D01*
X143552000Y-78960932D01*
X143550000Y-78960932D01*
X143549010Y-78959396D01*
X143544030Y-78908832D01*
X143529336Y-78860395D01*
X143505477Y-78815757D01*
X143473368Y-78776632D01*
X143434243Y-78744523D01*
X143389605Y-78720664D01*
X143341168Y-78705970D01*
X143290604Y-78700990D01*
X143288978Y-78699825D01*
X143289174Y-78697835D01*
X143290800Y-78697000D01*
X143384660Y-78697000D01*
X143384856Y-78697010D01*
G37*
M02*
